<?xml version="1.0" encoding="UTF-8" standalone="no"?>
<!DOCTYPE svg PUBLIC "-//W3C//DTD SVG 1.1//EN"
 "http://www.w3.org/Graphics/SVG/1.1/DTD/svg11.dtd">
<!-- Generated by graphviz version 2.47.0 (20210316.0004)
 -->
<!-- Title: dependencies Pages: 1 -->
<svg width="914pt" height="284pt"
 viewBox="0.00 0.00 914.00 284.00" xmlns="http://www.w3.org/2000/svg" xmlns:xlink="http://www.w3.org/1999/xlink">
<g id="graph0" class="graph" transform="scale(1 1) rotate(0) translate(4 280)">
<title>dependencies</title>
<polygon fill="white" stroke="transparent" points="-4,4 -4,-280 910,-280 910,4 -4,4"/>
<text text-anchor="start" x="432.01" y="-42.4" font-family="Times-12" font-weight="bold" font-size="14.00">Legend</text>
<polygon fill="#ffffb3" stroke="transparent" points="219,-10 219,-30 239,-30 239,-10 219,-10"/>
<text text-anchor="start" x="242.63" y="-15.4" font-family="Times-12" font-size="14.00"> &#160;Declarations</text>
<polygon fill="#8dd3c7" stroke="transparent" points="332,-10 332,-30 352,-30 352,-10 332,-10"/>
<text text-anchor="start" x="355.73" y="-15.4" font-family="Times-12" font-size="14.00"> &#160;Module</text>
<polygon fill="#80b1d3" stroke="transparent" points="418,-10 418,-30 438,-30 438,-10 418,-10"/>
<text text-anchor="start" x="441.78" y="-15.4" font-family="Times-12" font-size="14.00"> &#160;Bootstrap</text>
<polygon fill="#fdb462" stroke="transparent" points="515,-10 515,-30 535,-30 535,-10 515,-10"/>
<text text-anchor="start" x="538.67" y="-15.4" font-family="Times-12" font-size="14.00"> &#160;Providers</text>
<polygon fill="#fb8072" stroke="transparent" points="611,-10 611,-30 631,-30 631,-10 611,-10"/>
<text text-anchor="start" x="634.73" y="-15.4" font-family="Times-12" font-size="14.00"> &#160;Exports</text>
<g id="clust1" class="cluster">
<title>cluster_ArchivedRequestsModule</title>
<polygon fill="none" stroke="black" stroke-dasharray="1,5" points="8,-70 8,-268 898,-268 898,-70 8,-70"/>
</g>
<g id="clust2" class="cluster">
<title>cluster_ArchivedRequestsModule_declarations</title>
<polygon fill="none" stroke="black" points="690,-78 690,-130 890,-130 890,-78 690,-78"/>
</g>
<g id="clust4" class="cluster">
<title>cluster_ArchivedRequestsModule_imports</title>
<polygon fill="none" stroke="black" points="262,-78 262,-130 682,-130 682,-78 262,-78"/>
</g>
<g id="clust5" class="cluster">
<title>cluster_ArchivedRequestsModule_exports</title>
<polygon fill="none" stroke="black" points="396,-208 396,-260 600,-260 600,-208 396,-208"/>
</g>
<g id="clust7" class="cluster">
<title>cluster_ArchivedRequestsModule_providers</title>
<polygon fill="none" stroke="black" points="16,-78 16,-130 254,-130 254,-78 16,-78"/>
</g>
<!-- ArchivedRequestsComponent -->
<g id="node1" class="node">
<title>ArchivedRequestsComponent</title>
<polygon fill="#ffffb3" stroke="black" points="881.97,-122 698.03,-122 698.03,-86 881.97,-86 881.97,-122"/>
<text text-anchor="middle" x="790" y="-99.8" font-family="Times,serif" font-size="14.00">ArchivedRequestsComponent</text>
</g>
<!-- ArchivedRequestsModule -->
<g id="node2" class="node">
<title>ArchivedRequestsModule</title>
<polygon fill="#8dd3c7" stroke="black" points="579.18,-187 576.18,-191 555.18,-191 552.18,-187 416.82,-187 416.82,-151 579.18,-151 579.18,-187"/>
<text text-anchor="middle" x="498" y="-164.8" font-family="Times,serif" font-size="14.00">ArchivedRequestsModule</text>
</g>
<!-- ArchivedRequestsComponent&#45;&gt;ArchivedRequestsModule -->
<g id="edge1" class="edge">
<title>ArchivedRequestsComponent&#45;&gt;ArchivedRequestsModule</title>
<path fill="none" stroke="black" d="M790,-122.28C790,-143.32 790,-175 790,-175 790,-175 589.34,-175 589.34,-175"/>
<polygon fill="black" stroke="black" points="589.34,-171.5 579.34,-175 589.34,-178.5 589.34,-171.5"/>
</g>
<!-- ArchivedRequestsComponent  -->
<g id="node6" class="node">
<title>ArchivedRequestsComponent </title>
<polygon fill="#fb8072" stroke="black" points="591.97,-252 404.03,-252 404.03,-216 591.97,-216 591.97,-252"/>
<text text-anchor="middle" x="498" y="-229.8" font-family="Times,serif" font-size="14.00">ArchivedRequestsComponent </text>
</g>
<!-- ArchivedRequestsModule&#45;&gt;ArchivedRequestsComponent  -->
<g id="edge5" class="edge">
<title>ArchivedRequestsModule&#45;&gt;ArchivedRequestsComponent </title>
<path fill="none" stroke="black" stroke-dasharray="5,2" d="M498,-187.11C498,-187.11 498,-205.99 498,-205.99"/>
<polygon fill="black" stroke="black" points="494.5,-205.99 498,-215.99 501.5,-205.99 494.5,-205.99"/>
</g>
<!-- ItshopModule -->
<g id="node3" class="node">
<title>ItshopModule</title>
<polygon fill="#8dd3c7" stroke="black" points="674.05,-122 671.05,-126 650.05,-126 647.05,-122 579.95,-122 579.95,-86 674.05,-86 674.05,-122"/>
<text text-anchor="middle" x="627" y="-99.8" font-family="Times,serif" font-size="14.00">ItshopModule</text>
</g>
<!-- ItshopModule&#45;&gt;ArchivedRequestsModule -->
<g id="edge2" class="edge">
<title>ItshopModule&#45;&gt;ArchivedRequestsModule</title>
<path fill="none" stroke="black" d="M585.73,-122.02C585.73,-139.37 585.73,-163 585.73,-163 585.73,-163 585.07,-163 585.07,-163"/>
<polygon fill="black" stroke="black" points="589.14,-159.5 579.14,-163 589.14,-166.5 589.14,-159.5"/>
</g>
<!-- JustificationModule -->
<g id="node4" class="node">
<title>JustificationModule</title>
<polygon fill="#8dd3c7" stroke="black" points="561.98,-122 558.98,-126 537.98,-126 534.98,-122 434.02,-122 434.02,-86 561.98,-86 561.98,-122"/>
<text text-anchor="middle" x="498" y="-99.8" font-family="Times,serif" font-size="14.00">JustificationModule</text>
</g>
<!-- JustificationModule&#45;&gt;ArchivedRequestsModule -->
<g id="edge3" class="edge">
<title>JustificationModule&#45;&gt;ArchivedRequestsModule</title>
<path fill="none" stroke="black" d="M498,-122.11C498,-122.11 498,-140.99 498,-140.99"/>
<polygon fill="black" stroke="black" points="494.5,-140.99 498,-150.99 501.5,-140.99 494.5,-140.99"/>
</g>
<!-- RequestHistoryModule -->
<g id="node5" class="node">
<title>RequestHistoryModule</title>
<polygon fill="#8dd3c7" stroke="black" points="416.14,-122 413.14,-126 392.14,-126 389.14,-122 269.86,-122 269.86,-86 416.14,-86 416.14,-122"/>
<text text-anchor="middle" x="343" y="-99.8" font-family="Times,serif" font-size="14.00">RequestHistoryModule</text>
</g>
<!-- RequestHistoryModule&#45;&gt;ArchivedRequestsModule -->
<g id="edge4" class="edge">
<title>RequestHistoryModule&#45;&gt;ArchivedRequestsModule</title>
<path fill="none" stroke="black" d="M410.29,-122.02C410.29,-139.37 410.29,-163 410.29,-163 410.29,-163 410.95,-163 410.95,-163"/>
<polygon fill="black" stroke="black" points="406.89,-166.5 416.89,-163 406.89,-159.5 406.89,-166.5"/>
</g>
<!-- ArchivedRequestsService -->
<g id="node7" class="node">
<title>ArchivedRequestsService</title>
<ellipse fill="#fdb462" stroke="black" cx="135" cy="-104" rx="110.57" ry="18"/>
<text text-anchor="middle" x="135" y="-99.8" font-family="Times,serif" font-size="14.00">ArchivedRequestsService</text>
</g>
<!-- ArchivedRequestsService&#45;&gt;ArchivedRequestsModule -->
<g id="edge6" class="edge">
<title>ArchivedRequestsService&#45;&gt;ArchivedRequestsModule</title>
<path fill="none" stroke="black" d="M135,-122.28C135,-143.32 135,-175 135,-175 135,-175 406.54,-175 406.54,-175"/>
<polygon fill="black" stroke="black" points="406.54,-178.5 416.54,-175 406.54,-171.5 406.54,-178.5"/>
</g>
</g>
</svg>
