<?xml version="1.0" encoding="UTF-8" standalone="no"?>
<!DOCTYPE svg PUBLIC "-//W3C//DTD SVG 1.1//EN"
 "http://www.w3.org/Graphics/SVG/1.1/DTD/svg11.dtd">
<!-- Generated by graphviz version 2.47.0 (20210316.0004)
 -->
<!-- Title: dependencies Pages: 1 -->
<svg width="1464pt" height="284pt"
 viewBox="0.00 0.00 1464.00 284.00" xmlns="http://www.w3.org/2000/svg" xmlns:xlink="http://www.w3.org/1999/xlink">
<g id="graph0" class="graph" transform="scale(1 1) rotate(0) translate(4 280)">
<title>dependencies</title>
<polygon fill="white" stroke="transparent" points="-4,4 -4,-280 1460,-280 1460,4 -4,4"/>
<text text-anchor="start" x="707.01" y="-42.4" font-family="Times-12" font-weight="bold" font-size="14.00">Legend</text>
<polygon fill="#ffffb3" stroke="transparent" points="494,-10 494,-30 514,-30 514,-10 494,-10"/>
<text text-anchor="start" x="517.63" y="-15.4" font-family="Times-12" font-size="14.00"> &#160;Declarations</text>
<polygon fill="#8dd3c7" stroke="transparent" points="607,-10 607,-30 627,-30 627,-10 607,-10"/>
<text text-anchor="start" x="630.73" y="-15.4" font-family="Times-12" font-size="14.00"> &#160;Module</text>
<polygon fill="#80b1d3" stroke="transparent" points="693,-10 693,-30 713,-30 713,-10 693,-10"/>
<text text-anchor="start" x="716.78" y="-15.4" font-family="Times-12" font-size="14.00"> &#160;Bootstrap</text>
<polygon fill="#fdb462" stroke="transparent" points="790,-10 790,-30 810,-30 810,-10 790,-10"/>
<text text-anchor="start" x="813.67" y="-15.4" font-family="Times-12" font-size="14.00"> &#160;Providers</text>
<polygon fill="#fb8072" stroke="transparent" points="886,-10 886,-30 906,-30 906,-10 886,-10"/>
<text text-anchor="start" x="909.73" y="-15.4" font-family="Times-12" font-size="14.00"> &#160;Exports</text>
<g id="clust1" class="cluster">
<title>cluster_ObjectHistoryModule</title>
<polygon fill="none" stroke="black" stroke-dasharray="1,5" points="8,-70 8,-268 1448,-268 1448,-70 8,-70"/>
</g>
<g id="clust2" class="cluster">
<title>cluster_ObjectHistoryModule_declarations</title>
<polygon fill="none" stroke="black" points="346,-78 346,-130 1440,-130 1440,-78 346,-78"/>
</g>
<g id="clust9" class="cluster">
<title>cluster_ObjectHistoryModule_exports</title>
<polygon fill="none" stroke="black" points="405,-208 405,-260 821,-260 821,-208 405,-208"/>
</g>
<g id="clust8" class="cluster">
<title>cluster_ObjectHistoryModule_imports</title>
<polygon fill="none" stroke="black" points="16,-78 16,-130 338,-130 338,-78 16,-78"/>
</g>
<!-- ObjectHistoryComponent -->
<g id="node1" class="node">
<title>ObjectHistoryComponent</title>
<polygon fill="#ffffb3" stroke="black" points="1432.14,-122 1271.86,-122 1271.86,-86 1432.14,-86 1432.14,-122"/>
<text text-anchor="middle" x="1352" y="-99.8" font-family="Times,serif" font-size="14.00">ObjectHistoryComponent</text>
</g>
<!-- ObjectHistoryModule -->
<g id="node6" class="node">
<title>ObjectHistoryModule</title>
<polygon fill="#8dd3c7" stroke="black" points="695.36,-187 692.36,-191 671.36,-191 668.36,-187 556.64,-187 556.64,-151 695.36,-151 695.36,-187"/>
<text text-anchor="middle" x="626" y="-164.8" font-family="Times,serif" font-size="14.00">ObjectHistoryModule</text>
</g>
<!-- ObjectHistoryComponent&#45;&gt;ObjectHistoryModule -->
<g id="edge1" class="edge">
<title>ObjectHistoryComponent&#45;&gt;ObjectHistoryModule</title>
<path fill="none" stroke="black" d="M1352,-122.29C1352,-144.21 1352,-178 1352,-178 1352,-178 705.61,-178 705.61,-178"/>
<polygon fill="black" stroke="black" points="705.61,-174.5 695.61,-178 705.61,-181.5 705.61,-174.5"/>
</g>
<!-- ObjectHistoryGridviewComponent -->
<g id="node2" class="node">
<title>ObjectHistoryGridviewComponent</title>
<polygon fill="#ffffb3" stroke="black" points="1253.51,-122 1040.49,-122 1040.49,-86 1253.51,-86 1253.51,-122"/>
<text text-anchor="middle" x="1147" y="-99.8" font-family="Times,serif" font-size="14.00">ObjectHistoryGridviewComponent</text>
</g>
<!-- ObjectHistoryGridviewComponent&#45;&gt;ObjectHistoryModule -->
<g id="edge2" class="edge">
<title>ObjectHistoryGridviewComponent&#45;&gt;ObjectHistoryModule</title>
<path fill="none" stroke="black" d="M1147,-122.11C1147,-141.34 1147,-169 1147,-169 1147,-169 705.45,-169 705.45,-169"/>
<polygon fill="black" stroke="black" points="705.45,-165.5 695.45,-169 705.45,-172.5 705.45,-165.5"/>
</g>
<!-- ObjectHistoryStateComparisonComponent -->
<g id="node3" class="node">
<title>ObjectHistoryStateComparisonComponent</title>
<polygon fill="#ffffb3" stroke="black" points="1022.57,-122 765.43,-122 765.43,-86 1022.57,-86 1022.57,-122"/>
<text text-anchor="middle" x="894" y="-99.8" font-family="Times,serif" font-size="14.00">ObjectHistoryStateComparisonComponent</text>
</g>
<!-- ObjectHistoryStateComparisonComponent&#45;&gt;ObjectHistoryModule -->
<g id="edge3" class="edge">
<title>ObjectHistoryStateComparisonComponent&#45;&gt;ObjectHistoryModule</title>
<path fill="none" stroke="black" d="M789.27,-122.03C789.27,-138.4 789.27,-160 789.27,-160 789.27,-160 705.71,-160 705.71,-160"/>
<polygon fill="black" stroke="black" points="705.71,-156.5 695.71,-160 705.71,-163.5 705.71,-156.5"/>
</g>
<!-- ObjectHistoryStateOverviewComponent -->
<g id="node4" class="node">
<title>ObjectHistoryStateOverviewComponent</title>
<polygon fill="#ffffb3" stroke="black" points="747.83,-122 504.17,-122 504.17,-86 747.83,-86 747.83,-122"/>
<text text-anchor="middle" x="626" y="-99.8" font-family="Times,serif" font-size="14.00">ObjectHistoryStateOverviewComponent</text>
</g>
<!-- ObjectHistoryStateOverviewComponent&#45;&gt;ObjectHistoryModule -->
<g id="edge4" class="edge">
<title>ObjectHistoryStateOverviewComponent&#45;&gt;ObjectHistoryModule</title>
<path fill="none" stroke="black" d="M626,-122.11C626,-122.11 626,-140.99 626,-140.99"/>
<polygon fill="black" stroke="black" points="622.5,-140.99 626,-150.99 629.5,-140.99 622.5,-140.99"/>
</g>
<!-- TimelineComponent -->
<g id="node5" class="node">
<title>TimelineComponent</title>
<polygon fill="#ffffb3" stroke="black" points="485.88,-122 354.12,-122 354.12,-86 485.88,-86 485.88,-122"/>
<text text-anchor="middle" x="420" y="-99.8" font-family="Times,serif" font-size="14.00">TimelineComponent</text>
</g>
<!-- TimelineComponent&#45;&gt;ObjectHistoryModule -->
<g id="edge5" class="edge">
<title>TimelineComponent&#45;&gt;ObjectHistoryModule</title>
<path fill="none" stroke="black" d="M449.72,-122.03C449.72,-138.4 449.72,-160 449.72,-160 449.72,-160 546.58,-160 546.58,-160"/>
<polygon fill="black" stroke="black" points="546.58,-163.5 556.58,-160 546.58,-156.5 546.58,-163.5"/>
</g>
<!-- ObjectHistoryComponent  -->
<g id="node9" class="node">
<title>ObjectHistoryComponent </title>
<polygon fill="#fb8072" stroke="black" points="813.14,-252 648.86,-252 648.86,-216 813.14,-216 813.14,-252"/>
<text text-anchor="middle" x="731" y="-229.8" font-family="Times,serif" font-size="14.00">ObjectHistoryComponent </text>
</g>
<!-- ObjectHistoryModule&#45;&gt;ObjectHistoryComponent  -->
<g id="edge8" class="edge">
<title>ObjectHistoryModule&#45;&gt;ObjectHistoryComponent </title>
<path fill="none" stroke="black" stroke-dasharray="5,2" d="M672.18,-187.11C672.18,-187.11 672.18,-205.99 672.18,-205.99"/>
<polygon fill="black" stroke="black" points="668.68,-205.99 672.18,-215.99 675.68,-205.99 668.68,-205.99"/>
</g>
<!-- ObjectHistoryGridviewComponent  -->
<g id="node10" class="node">
<title>ObjectHistoryGridviewComponent </title>
<polygon fill="#fb8072" stroke="black" points="630.51,-252 413.49,-252 413.49,-216 630.51,-216 630.51,-252"/>
<text text-anchor="middle" x="522" y="-229.8" font-family="Times,serif" font-size="14.00">ObjectHistoryGridviewComponent </text>
</g>
<!-- ObjectHistoryModule&#45;&gt;ObjectHistoryGridviewComponent  -->
<g id="edge9" class="edge">
<title>ObjectHistoryModule&#45;&gt;ObjectHistoryGridviewComponent </title>
<path fill="none" stroke="black" stroke-dasharray="5,2" d="M593.54,-187.11C593.54,-187.11 593.54,-205.99 593.54,-205.99"/>
<polygon fill="black" stroke="black" points="590.04,-205.99 593.54,-215.99 597.04,-205.99 590.04,-205.99"/>
</g>
<!-- DataSourceToolbarModule -->
<g id="node7" class="node">
<title>DataSourceToolbarModule</title>
<polygon fill="#8dd3c7" stroke="black" points="329.67,-122 326.67,-126 305.67,-126 302.67,-122 160.33,-122 160.33,-86 329.67,-86 329.67,-122"/>
<text text-anchor="middle" x="245" y="-99.8" font-family="Times,serif" font-size="14.00">DataSourceToolbarModule</text>
</g>
<!-- DataSourceToolbarModule&#45;&gt;ObjectHistoryModule -->
<g id="edge6" class="edge">
<title>DataSourceToolbarModule&#45;&gt;ObjectHistoryModule</title>
<path fill="none" stroke="black" d="M245,-122.11C245,-141.34 245,-169 245,-169 245,-169 546.56,-169 546.56,-169"/>
<polygon fill="black" stroke="black" points="546.56,-172.5 556.56,-169 546.56,-165.5 546.56,-172.5"/>
</g>
<!-- DataTableModule -->
<g id="node8" class="node">
<title>DataTableModule</title>
<polygon fill="#8dd3c7" stroke="black" points="141.85,-122 138.85,-126 117.85,-126 114.85,-122 24.15,-122 24.15,-86 141.85,-86 141.85,-122"/>
<text text-anchor="middle" x="83" y="-99.8" font-family="Times,serif" font-size="14.00">DataTableModule</text>
</g>
<!-- DataTableModule&#45;&gt;ObjectHistoryModule -->
<g id="edge7" class="edge">
<title>DataTableModule&#45;&gt;ObjectHistoryModule</title>
<path fill="none" stroke="black" d="M83,-122.29C83,-144.21 83,-178 83,-178 83,-178 546.4,-178 546.4,-178"/>
<polygon fill="black" stroke="black" points="546.4,-181.5 556.4,-178 546.4,-174.5 546.4,-181.5"/>
</g>
</g>
</svg>
