<?xml version="1.0" encoding="UTF-8" standalone="no"?>
<!DOCTYPE svg PUBLIC "-//W3C//DTD SVG 1.1//EN"
 "http://www.w3.org/Graphics/SVG/1.1/DTD/svg11.dtd">
<!-- Generated by graphviz version 2.47.0 (20210316.0004)
 -->
<!-- Title: dependencies Pages: 1 -->
<svg width="1108pt" height="284pt"
 viewBox="0.00 0.00 1108.00 284.00" xmlns="http://www.w3.org/2000/svg" xmlns:xlink="http://www.w3.org/1999/xlink">
<g id="graph0" class="graph" transform="scale(1 1) rotate(0) translate(4 280)">
<title>dependencies</title>
<polygon fill="white" stroke="transparent" points="-4,4 -4,-280 1104,-280 1104,4 -4,4"/>
<text text-anchor="start" x="529.01" y="-42.4" font-family="Times-12" font-weight="bold" font-size="14.00">Legend</text>
<polygon fill="#ffffb3" stroke="transparent" points="316,-10 316,-30 336,-30 336,-10 316,-10"/>
<text text-anchor="start" x="339.63" y="-15.4" font-family="Times-12" font-size="14.00"> &#160;Declarations</text>
<polygon fill="#8dd3c7" stroke="transparent" points="429,-10 429,-30 449,-30 449,-10 429,-10"/>
<text text-anchor="start" x="452.73" y="-15.4" font-family="Times-12" font-size="14.00"> &#160;Module</text>
<polygon fill="#80b1d3" stroke="transparent" points="515,-10 515,-30 535,-30 535,-10 515,-10"/>
<text text-anchor="start" x="538.78" y="-15.4" font-family="Times-12" font-size="14.00"> &#160;Bootstrap</text>
<polygon fill="#fdb462" stroke="transparent" points="612,-10 612,-30 632,-30 632,-10 612,-10"/>
<text text-anchor="start" x="635.67" y="-15.4" font-family="Times-12" font-size="14.00"> &#160;Providers</text>
<polygon fill="#fb8072" stroke="transparent" points="708,-10 708,-30 728,-30 728,-10 708,-10"/>
<text text-anchor="start" x="731.73" y="-15.4" font-family="Times-12" font-size="14.00"> &#160;Exports</text>
<g id="clust1" class="cluster">
<title>cluster_PasswordModule</title>
<polygon fill="none" stroke="black" stroke-dasharray="1,5" points="8,-70 8,-268 1092,-268 1092,-70 8,-70"/>
</g>
<g id="clust2" class="cluster">
<title>cluster_PasswordModule_declarations</title>
<polygon fill="none" stroke="black" points="306,-78 306,-130 1084,-130 1084,-78 306,-78"/>
</g>
<g id="clust8" class="cluster">
<title>cluster_PasswordModule_exports</title>
<polygon fill="none" stroke="black" points="397,-208 397,-260 583,-260 583,-208 397,-208"/>
</g>
<g id="clust7" class="cluster">
<title>cluster_PasswordModule_imports</title>
<polygon fill="none" stroke="black" points="194,-78 194,-130 298,-130 298,-78 194,-78"/>
</g>
<g id="clust10" class="cluster">
<title>cluster_PasswordModule_providers</title>
<polygon fill="none" stroke="black" points="16,-78 16,-130 186,-130 186,-78 16,-78"/>
</g>
<!-- CheckPasswordsComponent -->
<g id="node1" class="node">
<title>CheckPasswordsComponent</title>
<polygon fill="#ffffb3" stroke="black" points="1076.2,-122 899.8,-122 899.8,-86 1076.2,-86 1076.2,-122"/>
<text text-anchor="middle" x="988" y="-99.8" font-family="Times,serif" font-size="14.00">CheckPasswordsComponent</text>
</g>
<!-- PasswordModule -->
<g id="node5" class="node">
<title>PasswordModule</title>
<polygon fill="#8dd3c7" stroke="black" points="546.7,-187 543.7,-191 522.7,-191 519.7,-187 433.3,-187 433.3,-151 546.7,-151 546.7,-187"/>
<text text-anchor="middle" x="490" y="-164.8" font-family="Times,serif" font-size="14.00">PasswordModule</text>
</g>
<!-- CheckPasswordsComponent&#45;&gt;PasswordModule -->
<g id="edge1" class="edge">
<title>CheckPasswordsComponent&#45;&gt;PasswordModule</title>
<path fill="none" stroke="black" d="M988,-122.28C988,-143.32 988,-175 988,-175 988,-175 556.64,-175 556.64,-175"/>
<polygon fill="black" stroke="black" points="556.64,-171.5 546.64,-175 556.64,-178.5 556.64,-171.5"/>
</g>
<!-- PasswordDashboardComponent -->
<g id="node2" class="node">
<title>PasswordDashboardComponent</title>
<polygon fill="#ffffb3" stroke="black" points="881.63,-122 686.37,-122 686.37,-86 881.63,-86 881.63,-122"/>
<text text-anchor="middle" x="784" y="-99.8" font-family="Times,serif" font-size="14.00">PasswordDashboardComponent</text>
</g>
<!-- PasswordDashboardComponent&#45;&gt;PasswordModule -->
<g id="edge2" class="edge">
<title>PasswordDashboardComponent&#45;&gt;PasswordModule</title>
<path fill="none" stroke="black" d="M784,-122.02C784,-139.37 784,-163 784,-163 784,-163 556.69,-163 556.69,-163"/>
<polygon fill="black" stroke="black" points="556.69,-159.5 546.69,-163 556.69,-166.5 556.69,-159.5"/>
</g>
<!-- PasswordQueryComponent -->
<g id="node3" class="node">
<title>PasswordQueryComponent</title>
<polygon fill="#ffffb3" stroke="black" points="667.97,-122 498.03,-122 498.03,-86 667.97,-86 667.97,-122"/>
<text text-anchor="middle" x="583" y="-99.8" font-family="Times,serif" font-size="14.00">PasswordQueryComponent</text>
</g>
<!-- PasswordQueryComponent&#45;&gt;PasswordModule -->
<g id="edge3" class="edge">
<title>PasswordQueryComponent&#45;&gt;PasswordModule</title>
<path fill="none" stroke="black" d="M522.31,-122.11C522.31,-122.11 522.31,-140.99 522.31,-140.99"/>
<polygon fill="black" stroke="black" points="518.81,-140.99 522.31,-150.99 525.81,-140.99 518.81,-140.99"/>
</g>
<!-- PasswordResetComponent -->
<g id="node4" class="node">
<title>PasswordResetComponent</title>
<polygon fill="#ffffb3" stroke="black" points="480.09,-122 313.91,-122 313.91,-86 480.09,-86 480.09,-122"/>
<text text-anchor="middle" x="397" y="-99.8" font-family="Times,serif" font-size="14.00">PasswordResetComponent</text>
</g>
<!-- PasswordResetComponent&#45;&gt;PasswordModule -->
<g id="edge4" class="edge">
<title>PasswordResetComponent&#45;&gt;PasswordModule</title>
<path fill="none" stroke="black" d="M456.72,-122.11C456.72,-122.11 456.72,-140.99 456.72,-140.99"/>
<polygon fill="black" stroke="black" points="453.22,-140.99 456.72,-150.99 460.22,-140.99 453.22,-140.99"/>
</g>
<!-- PasswordResetComponent  -->
<g id="node7" class="node">
<title>PasswordResetComponent </title>
<polygon fill="#fb8072" stroke="black" points="574.59,-252 405.41,-252 405.41,-216 574.59,-216 574.59,-252"/>
<text text-anchor="middle" x="490" y="-229.8" font-family="Times,serif" font-size="14.00">PasswordResetComponent </text>
</g>
<!-- PasswordModule&#45;&gt;PasswordResetComponent  -->
<g id="edge6" class="edge">
<title>PasswordModule&#45;&gt;PasswordResetComponent </title>
<path fill="none" stroke="black" stroke-dasharray="5,2" d="M490,-187.11C490,-187.11 490,-205.99 490,-205.99"/>
<polygon fill="black" stroke="black" points="486.5,-205.99 490,-215.99 493.5,-205.99 486.5,-205.99"/>
</g>
<!-- TilesModule -->
<g id="node6" class="node">
<title>TilesModule</title>
<polygon fill="#8dd3c7" stroke="black" points="289.54,-122 286.54,-126 265.54,-126 262.54,-122 202.46,-122 202.46,-86 289.54,-86 289.54,-122"/>
<text text-anchor="middle" x="246" y="-99.8" font-family="Times,serif" font-size="14.00">TilesModule</text>
</g>
<!-- TilesModule&#45;&gt;PasswordModule -->
<g id="edge5" class="edge">
<title>TilesModule&#45;&gt;PasswordModule</title>
<path fill="none" stroke="black" d="M246,-122.02C246,-139.37 246,-163 246,-163 246,-163 423.1,-163 423.1,-163"/>
<polygon fill="black" stroke="black" points="423.1,-166.5 433.1,-163 423.1,-159.5 423.1,-166.5"/>
</g>
<!-- PasswordService -->
<g id="node8" class="node">
<title>PasswordService</title>
<ellipse fill="#fdb462" stroke="black" cx="101" cy="-104" rx="77" ry="18"/>
<text text-anchor="middle" x="101" y="-99.8" font-family="Times,serif" font-size="14.00">PasswordService</text>
</g>
<!-- PasswordService&#45;&gt;PasswordModule -->
<g id="edge7" class="edge">
<title>PasswordService&#45;&gt;PasswordModule</title>
<path fill="none" stroke="black" d="M101,-122.28C101,-143.32 101,-175 101,-175 101,-175 423.02,-175 423.02,-175"/>
<polygon fill="black" stroke="black" points="423.02,-178.5 433.02,-175 423.02,-171.5 423.02,-178.5"/>
</g>
</g>
</svg>
