<?xml version="1.0" encoding="UTF-8" standalone="no"?>
<!DOCTYPE svg PUBLIC "-//W3C//DTD SVG 1.1//EN"
 "http://www.w3.org/Graphics/SVG/1.1/DTD/svg11.dtd">
<!-- Generated by graphviz version 2.47.0 (20210316.0004)
 -->
<!-- Title: dependencies Pages: 1 -->
<svg width="655pt" height="284pt"
 viewBox="0.00 0.00 655.00 284.00" xmlns="http://www.w3.org/2000/svg" xmlns:xlink="http://www.w3.org/1999/xlink">
<g id="graph0" class="graph" transform="scale(1 1) rotate(0) translate(4 280)">
<title>dependencies</title>
<polygon fill="white" stroke="transparent" points="-4,4 -4,-280 651,-280 651,4 -4,4"/>
<text text-anchor="start" x="302.51" y="-42.4" font-family="Times-12" font-weight="bold" font-size="14.00">Legend</text>
<polygon fill="#ffffb3" stroke="transparent" points="89.5,-10 89.5,-30 109.5,-30 109.5,-10 89.5,-10"/>
<text text-anchor="start" x="113.13" y="-15.4" font-family="Times-12" font-size="14.00"> &#160;Declarations</text>
<polygon fill="#8dd3c7" stroke="transparent" points="202.5,-10 202.5,-30 222.5,-30 222.5,-10 202.5,-10"/>
<text text-anchor="start" x="226.23" y="-15.4" font-family="Times-12" font-size="14.00"> &#160;Module</text>
<polygon fill="#80b1d3" stroke="transparent" points="288.5,-10 288.5,-30 308.5,-30 308.5,-10 288.5,-10"/>
<text text-anchor="start" x="312.28" y="-15.4" font-family="Times-12" font-size="14.00"> &#160;Bootstrap</text>
<polygon fill="#fdb462" stroke="transparent" points="385.5,-10 385.5,-30 405.5,-30 405.5,-10 385.5,-10"/>
<text text-anchor="start" x="409.17" y="-15.4" font-family="Times-12" font-size="14.00"> &#160;Providers</text>
<polygon fill="#fb8072" stroke="transparent" points="481.5,-10 481.5,-30 501.5,-30 501.5,-10 481.5,-10"/>
<text text-anchor="start" x="505.23" y="-15.4" font-family="Times-12" font-size="14.00"> &#160;Exports</text>
<g id="clust1" class="cluster">
<title>cluster_TermsOfUseModule</title>
<polygon fill="none" stroke="black" stroke-dasharray="1,5" points="8,-70 8,-268 639,-268 639,-70 8,-70"/>
</g>
<g id="clust7" class="cluster">
<title>cluster_TermsOfUseModule_exports</title>
<polygon fill="none" stroke="black" points="217,-208 217,-260 431,-260 431,-208 217,-208"/>
</g>
<g id="clust2" class="cluster">
<title>cluster_TermsOfUseModule_declarations</title>
<polygon fill="none" stroke="black" points="16,-78 16,-130 631,-130 631,-78 16,-78"/>
</g>
<!-- TermsOfUseAcceptComponent -->
<g id="node1" class="node">
<title>TermsOfUseAcceptComponent</title>
<polygon fill="#ffffb3" stroke="black" points="622.77,-122 429.23,-122 429.23,-86 622.77,-86 622.77,-122"/>
<text text-anchor="middle" x="526" y="-99.8" font-family="Times,serif" font-size="14.00">TermsOfUseAcceptComponent</text>
</g>
<!-- TermsOfUseModule -->
<g id="node4" class="node">
<title>TermsOfUseModule</title>
<polygon fill="#8dd3c7" stroke="black" points="389.85,-187 386.85,-191 365.85,-191 362.85,-187 258.15,-187 258.15,-151 389.85,-151 389.85,-187"/>
<text text-anchor="middle" x="324" y="-164.8" font-family="Times,serif" font-size="14.00">TermsOfUseModule</text>
</g>
<!-- TermsOfUseAcceptComponent&#45;&gt;TermsOfUseModule -->
<g id="edge1" class="edge">
<title>TermsOfUseAcceptComponent&#45;&gt;TermsOfUseModule</title>
<path fill="none" stroke="black" d="M526,-122.11C526,-141.34 526,-169 526,-169 526,-169 399.86,-169 399.86,-169"/>
<polygon fill="black" stroke="black" points="399.86,-165.5 389.86,-169 399.86,-172.5 399.86,-165.5"/>
</g>
<!-- TermsOfUseListComponent -->
<g id="node2" class="node">
<title>TermsOfUseListComponent</title>
<polygon fill="#ffffb3" stroke="black" points="411.91,-122 236.09,-122 236.09,-86 411.91,-86 411.91,-122"/>
<text text-anchor="middle" x="324" y="-99.8" font-family="Times,serif" font-size="14.00">TermsOfUseListComponent</text>
</g>
<!-- TermsOfUseListComponent&#45;&gt;TermsOfUseModule -->
<g id="edge2" class="edge">
<title>TermsOfUseListComponent&#45;&gt;TermsOfUseModule</title>
<path fill="none" stroke="black" d="M324,-122.11C324,-122.11 324,-140.99 324,-140.99"/>
<polygon fill="black" stroke="black" points="320.5,-140.99 324,-150.99 327.5,-140.99 320.5,-140.99"/>
</g>
<!-- TermsOfUseViewerComponent -->
<g id="node3" class="node">
<title>TermsOfUseViewerComponent</title>
<polygon fill="#ffffb3" stroke="black" points="218.32,-122 23.68,-122 23.68,-86 218.32,-86 218.32,-122"/>
<text text-anchor="middle" x="121" y="-99.8" font-family="Times,serif" font-size="14.00">TermsOfUseViewerComponent</text>
</g>
<!-- TermsOfUseViewerComponent&#45;&gt;TermsOfUseModule -->
<g id="edge3" class="edge">
<title>TermsOfUseViewerComponent&#45;&gt;TermsOfUseModule</title>
<path fill="none" stroke="black" d="M121,-122.11C121,-141.34 121,-169 121,-169 121,-169 248.09,-169 248.09,-169"/>
<polygon fill="black" stroke="black" points="248.09,-172.5 258.09,-169 248.09,-165.5 248.09,-172.5"/>
</g>
<!-- TermsOfUseViewerComponent  -->
<g id="node5" class="node">
<title>TermsOfUseViewerComponent </title>
<polygon fill="#fb8072" stroke="black" points="423.32,-252 224.68,-252 224.68,-216 423.32,-216 423.32,-252"/>
<text text-anchor="middle" x="324" y="-229.8" font-family="Times,serif" font-size="14.00">TermsOfUseViewerComponent </text>
</g>
<!-- TermsOfUseModule&#45;&gt;TermsOfUseViewerComponent  -->
<g id="edge4" class="edge">
<title>TermsOfUseModule&#45;&gt;TermsOfUseViewerComponent </title>
<path fill="none" stroke="black" stroke-dasharray="5,2" d="M324,-187.11C324,-187.11 324,-205.99 324,-205.99"/>
<polygon fill="black" stroke="black" points="320.5,-205.99 324,-215.99 327.5,-205.99 320.5,-205.99"/>
</g>
</g>
</svg>
