<?xml version="1.0" encoding="UTF-8" standalone="no"?>
<!DOCTYPE svg PUBLIC "-//W3C//DTD SVG 1.1//EN"
 "http://www.w3.org/Graphics/SVG/1.1/DTD/svg11.dtd">
<!-- Generated by graphviz version 2.47.0 (20210316.0004)
 -->
<!-- Title: dependencies Pages: 1 -->
<svg width="504pt" height="211pt"
 viewBox="0.00 0.00 504.00 211.00" xmlns="http://www.w3.org/2000/svg" xmlns:xlink="http://www.w3.org/1999/xlink">
<g id="graph0" class="graph" transform="scale(1 1) rotate(0) translate(4 207)">
<title>dependencies</title>
<polygon fill="white" stroke="transparent" points="-4,4 -4,-207 500,-207 500,4 -4,4"/>
<text text-anchor="start" x="227.01" y="-42.4" font-family="Times-12" font-weight="bold" font-size="14.00">Legend</text>
<polygon fill="#ffffb3" stroke="transparent" points="14,-10 14,-30 34,-30 34,-10 14,-10"/>
<text text-anchor="start" x="37.63" y="-15.4" font-family="Times-12" font-size="14.00"> &#160;Declarations</text>
<polygon fill="#8dd3c7" stroke="transparent" points="127,-10 127,-30 147,-30 147,-10 127,-10"/>
<text text-anchor="start" x="150.73" y="-15.4" font-family="Times-12" font-size="14.00"> &#160;Module</text>
<polygon fill="#80b1d3" stroke="transparent" points="213,-10 213,-30 233,-30 233,-10 213,-10"/>
<text text-anchor="start" x="236.78" y="-15.4" font-family="Times-12" font-size="14.00"> &#160;Bootstrap</text>
<polygon fill="#fdb462" stroke="transparent" points="310,-10 310,-30 330,-30 330,-10 310,-10"/>
<text text-anchor="start" x="333.67" y="-15.4" font-family="Times-12" font-size="14.00"> &#160;Providers</text>
<polygon fill="#fb8072" stroke="transparent" points="406,-10 406,-30 426,-30 426,-10 406,-10"/>
<text text-anchor="start" x="429.73" y="-15.4" font-family="Times-12" font-size="14.00"> &#160;Exports</text>
<g id="clust1" class="cluster">
<title>cluster_DataExportModule</title>
<polygon fill="none" stroke="black" stroke-dasharray="1,5" points="84,-70 84,-195 412,-195 412,-70 84,-70"/>
</g>
<g id="clust2" class="cluster">
<title>cluster_DataExportModule_declarations</title>
<polygon fill="none" stroke="black" points="242,-78 242,-130 404,-130 404,-78 242,-78"/>
</g>
<g id="clust4" class="cluster">
<title>cluster_DataExportModule_imports</title>
<polygon fill="none" stroke="black" points="92,-78 92,-130 234,-130 234,-78 92,-78"/>
</g>
<!-- DataExportComponent -->
<g id="node1" class="node">
<title>DataExportComponent</title>
<polygon fill="#ffffb3" stroke="black" points="395.86,-122 250.14,-122 250.14,-86 395.86,-86 395.86,-122"/>
<text text-anchor="middle" x="323" y="-99.8" font-family="Times,serif" font-size="14.00">DataExportComponent</text>
</g>
<!-- DataExportModule -->
<g id="node2" class="node">
<title>DataExportModule</title>
<polygon fill="#8dd3c7" stroke="black" points="305.08,-187 302.08,-191 281.08,-191 278.08,-187 180.92,-187 180.92,-151 305.08,-151 305.08,-187"/>
<text text-anchor="middle" x="243" y="-164.8" font-family="Times,serif" font-size="14.00">DataExportModule</text>
</g>
<!-- DataExportComponent&#45;&gt;DataExportModule -->
<g id="edge1" class="edge">
<title>DataExportComponent&#45;&gt;DataExportModule</title>
<path fill="none" stroke="black" d="M277.55,-122.11C277.55,-122.11 277.55,-140.99 277.55,-140.99"/>
<polygon fill="black" stroke="black" points="274.05,-140.99 277.55,-150.99 281.05,-140.99 274.05,-140.99"/>
</g>
<!-- LdsReplaceModule -->
<g id="node3" class="node">
<title>LdsReplaceModule</title>
<polygon fill="#8dd3c7" stroke="black" points="225.63,-122 222.63,-126 201.63,-126 198.63,-122 100.37,-122 100.37,-86 225.63,-86 225.63,-122"/>
<text text-anchor="middle" x="163" y="-99.8" font-family="Times,serif" font-size="14.00">LdsReplaceModule</text>
</g>
<!-- LdsReplaceModule&#45;&gt;DataExportModule -->
<g id="edge2" class="edge">
<title>LdsReplaceModule&#45;&gt;DataExportModule</title>
<path fill="none" stroke="black" d="M203.39,-122.11C203.39,-122.11 203.39,-140.99 203.39,-140.99"/>
<polygon fill="black" stroke="black" points="199.89,-140.99 203.39,-150.99 206.89,-140.99 199.89,-140.99"/>
</g>
</g>
</svg>
