<?xml version="1.0" encoding="UTF-8" standalone="no"?>
<!DOCTYPE svg PUBLIC "-//W3C//DTD SVG 1.1//EN"
 "http://www.w3.org/Graphics/SVG/1.1/DTD/svg11.dtd">
<!-- Generated by graphviz version 2.47.0 (20210316.0004)
 -->
<!-- Title: dependencies Pages: 1 -->
<svg width="1751pt" height="284pt"
 viewBox="0.00 0.00 1751.00 284.00" xmlns="http://www.w3.org/2000/svg" xmlns:xlink="http://www.w3.org/1999/xlink">
<g id="graph0" class="graph" transform="scale(1 1) rotate(0) translate(4 280)">
<title>dependencies</title>
<polygon fill="white" stroke="transparent" points="-4,4 -4,-280 1747,-280 1747,4 -4,4"/>
<text text-anchor="start" x="850.51" y="-42.4" font-family="Times-12" font-weight="bold" font-size="14.00">Legend</text>
<polygon fill="#ffffb3" stroke="transparent" points="637.5,-10 637.5,-30 657.5,-30 657.5,-10 637.5,-10"/>
<text text-anchor="start" x="661.13" y="-15.4" font-family="Times-12" font-size="14.00"> &#160;Declarations</text>
<polygon fill="#8dd3c7" stroke="transparent" points="750.5,-10 750.5,-30 770.5,-30 770.5,-10 750.5,-10"/>
<text text-anchor="start" x="774.23" y="-15.4" font-family="Times-12" font-size="14.00"> &#160;Module</text>
<polygon fill="#80b1d3" stroke="transparent" points="836.5,-10 836.5,-30 856.5,-30 856.5,-10 836.5,-10"/>
<text text-anchor="start" x="860.28" y="-15.4" font-family="Times-12" font-size="14.00"> &#160;Bootstrap</text>
<polygon fill="#fdb462" stroke="transparent" points="933.5,-10 933.5,-30 953.5,-30 953.5,-10 933.5,-10"/>
<text text-anchor="start" x="957.17" y="-15.4" font-family="Times-12" font-size="14.00"> &#160;Providers</text>
<polygon fill="#fb8072" stroke="transparent" points="1029.5,-10 1029.5,-30 1049.5,-30 1049.5,-10 1029.5,-10"/>
<text text-anchor="start" x="1053.23" y="-15.4" font-family="Times-12" font-size="14.00"> &#160;Exports</text>
<g id="clust1" class="cluster">
<title>cluster_EntityModule</title>
<polygon fill="none" stroke="black" stroke-dasharray="1,5" points="8,-70 8,-268 1735,-268 1735,-70 8,-70"/>
</g>
<g id="clust8" class="cluster">
<title>cluster_EntityModule_imports</title>
<polygon fill="none" stroke="black" points="1221,-78 1221,-130 1727,-130 1727,-78 1221,-78"/>
</g>
<g id="clust9" class="cluster">
<title>cluster_EntityModule_exports</title>
<polygon fill="none" stroke="black" points="759,-208 759,-260 1136,-260 1136,-208 759,-208"/>
</g>
<g id="clust2" class="cluster">
<title>cluster_EntityModule_declarations</title>
<polygon fill="none" stroke="black" points="168,-78 168,-130 1213,-130 1213,-78 168,-78"/>
</g>
<g id="clust11" class="cluster">
<title>cluster_EntityModule_providers</title>
<polygon fill="none" stroke="black" points="16,-78 16,-130 160,-130 160,-78 16,-78"/>
</g>
<!-- EntitySelectComponent -->
<g id="node1" class="node">
<title>EntitySelectComponent</title>
<polygon fill="#ffffb3" stroke="black" points="1204.76,-122 1055.24,-122 1055.24,-86 1204.76,-86 1204.76,-122"/>
<text text-anchor="middle" x="1130" y="-99.8" font-family="Times,serif" font-size="14.00">EntitySelectComponent</text>
</g>
<!-- EntityModule -->
<g id="node6" class="node">
<title>EntityModule</title>
<polygon fill="#8dd3c7" stroke="black" points="1002.77,-187 999.77,-191 978.77,-191 975.77,-187 909.23,-187 909.23,-151 1002.77,-151 1002.77,-187"/>
<text text-anchor="middle" x="956" y="-164.8" font-family="Times,serif" font-size="14.00">EntityModule</text>
</g>
<!-- EntitySelectComponent&#45;&gt;EntityModule -->
<g id="edge1" class="edge">
<title>EntitySelectComponent&#45;&gt;EntityModule</title>
<path fill="none" stroke="black" d="M1091.38,-122.01C1091.38,-138.05 1091.38,-159 1091.38,-159 1091.38,-159 1012.97,-159 1012.97,-159"/>
<polygon fill="black" stroke="black" points="1012.97,-155.5 1002.97,-159 1012.97,-162.5 1012.97,-155.5"/>
</g>
<!-- FkTableSelectComponent -->
<g id="node2" class="node">
<title>FkTableSelectComponent</title>
<polygon fill="#ffffb3" stroke="black" points="1037.2,-122 874.8,-122 874.8,-86 1037.2,-86 1037.2,-122"/>
<text text-anchor="middle" x="956" y="-99.8" font-family="Times,serif" font-size="14.00">FkTableSelectComponent</text>
</g>
<!-- FkTableSelectComponent&#45;&gt;EntityModule -->
<g id="edge2" class="edge">
<title>FkTableSelectComponent&#45;&gt;EntityModule</title>
<path fill="none" stroke="black" d="M956,-122.11C956,-122.11 956,-140.99 956,-140.99"/>
<polygon fill="black" stroke="black" points="952.5,-140.99 956,-150.99 959.5,-140.99 952.5,-140.99"/>
</g>
<!-- TypedEntityCandidateSidesheetComponent -->
<g id="node3" class="node">
<title>TypedEntityCandidateSidesheetComponent</title>
<polygon fill="#ffffb3" stroke="black" points="856.74,-122 595.26,-122 595.26,-86 856.74,-86 856.74,-122"/>
<text text-anchor="middle" x="726" y="-99.8" font-family="Times,serif" font-size="14.00">TypedEntityCandidateSidesheetComponent</text>
</g>
<!-- TypedEntityCandidateSidesheetComponent&#45;&gt;EntityModule -->
<g id="edge3" class="edge">
<title>TypedEntityCandidateSidesheetComponent&#45;&gt;EntityModule</title>
<path fill="none" stroke="black" d="M812.18,-122.01C812.18,-138.05 812.18,-159 812.18,-159 812.18,-159 898.91,-159 898.91,-159"/>
<polygon fill="black" stroke="black" points="898.91,-162.5 908.91,-159 898.91,-155.5 898.91,-162.5"/>
</g>
<!-- TypedEntitySelectComponent -->
<g id="node4" class="node">
<title>TypedEntitySelectComponent</title>
<polygon fill="#ffffb3" stroke="black" points="576.53,-122 391.47,-122 391.47,-86 576.53,-86 576.53,-122"/>
<text text-anchor="middle" x="484" y="-99.8" font-family="Times,serif" font-size="14.00">TypedEntitySelectComponent</text>
</g>
<!-- TypedEntitySelectComponent&#45;&gt;EntityModule -->
<g id="edge4" class="edge">
<title>TypedEntitySelectComponent&#45;&gt;EntityModule</title>
<path fill="none" stroke="black" d="M484,-122.27C484,-140.56 484,-166 484,-166 484,-166 899.02,-166 899.02,-166"/>
<polygon fill="black" stroke="black" points="899.02,-169.5 909.02,-166 899.02,-162.5 899.02,-169.5"/>
</g>
<!-- TypedEntitySelectorComponent -->
<g id="node5" class="node">
<title>TypedEntitySelectorComponent</title>
<polygon fill="#ffffb3" stroke="black" points="373.69,-122 176.31,-122 176.31,-86 373.69,-86 373.69,-122"/>
<text text-anchor="middle" x="275" y="-99.8" font-family="Times,serif" font-size="14.00">TypedEntitySelectorComponent</text>
</g>
<!-- TypedEntitySelectorComponent&#45;&gt;EntityModule -->
<g id="edge5" class="edge">
<title>TypedEntitySelectorComponent&#45;&gt;EntityModule</title>
<path fill="none" stroke="black" d="M275,-122.13C275,-142.57 275,-173 275,-173 275,-173 899.19,-173 899.19,-173"/>
<polygon fill="black" stroke="black" points="899.19,-176.5 909.19,-173 899.19,-169.5 899.19,-176.5"/>
</g>
<!-- EntitySelectComponent  -->
<g id="node10" class="node">
<title>EntitySelectComponent </title>
<polygon fill="#fb8072" stroke="black" points="1127.76,-252 974.24,-252 974.24,-216 1127.76,-216 1127.76,-252"/>
<text text-anchor="middle" x="1051" y="-229.8" font-family="Times,serif" font-size="14.00">EntitySelectComponent </text>
</g>
<!-- EntityModule&#45;&gt;EntitySelectComponent  -->
<g id="edge9" class="edge">
<title>EntityModule&#45;&gt;EntitySelectComponent </title>
<path fill="none" stroke="black" stroke-dasharray="5,2" d="M988.63,-187.11C988.63,-187.11 988.63,-205.99 988.63,-205.99"/>
<polygon fill="black" stroke="black" points="985.13,-205.99 988.63,-215.99 992.13,-205.99 985.13,-205.99"/>
</g>
<!-- TypedEntitySelectComponent  -->
<g id="node11" class="node">
<title>TypedEntitySelectComponent </title>
<polygon fill="#fb8072" stroke="black" points="956.53,-252 767.47,-252 767.47,-216 956.53,-216 956.53,-252"/>
<text text-anchor="middle" x="862" y="-229.8" font-family="Times,serif" font-size="14.00">TypedEntitySelectComponent </text>
</g>
<!-- EntityModule&#45;&gt;TypedEntitySelectComponent  -->
<g id="edge10" class="edge">
<title>EntityModule&#45;&gt;TypedEntitySelectComponent </title>
<path fill="none" stroke="black" stroke-dasharray="5,2" d="M932.81,-187.11C932.81,-187.11 932.81,-205.99 932.81,-205.99"/>
<polygon fill="black" stroke="black" points="929.31,-205.99 932.81,-215.99 936.31,-205.99 929.31,-205.99"/>
</g>
<!-- DataSourceToolbarModule -->
<g id="node7" class="node">
<title>DataSourceToolbarModule</title>
<polygon fill="#8dd3c7" stroke="black" points="1718.67,-122 1715.67,-126 1694.67,-126 1691.67,-122 1549.33,-122 1549.33,-86 1718.67,-86 1718.67,-122"/>
<text text-anchor="middle" x="1634" y="-99.8" font-family="Times,serif" font-size="14.00">DataSourceToolbarModule</text>
</g>
<!-- DataSourceToolbarModule&#45;&gt;EntityModule -->
<g id="edge6" class="edge">
<title>DataSourceToolbarModule&#45;&gt;EntityModule</title>
<path fill="none" stroke="black" d="M1634,-122.01C1634,-144.49 1634,-180 1634,-180 1634,-180 1012.87,-180 1012.87,-180"/>
<polygon fill="black" stroke="black" points="1012.87,-176.5 1002.87,-180 1012.87,-183.5 1012.87,-176.5"/>
</g>
<!-- DataTableModule -->
<g id="node8" class="node">
<title>DataTableModule</title>
<polygon fill="#8dd3c7" stroke="black" points="1530.85,-122 1527.85,-126 1506.85,-126 1503.85,-122 1413.15,-122 1413.15,-86 1530.85,-86 1530.85,-122"/>
<text text-anchor="middle" x="1472" y="-99.8" font-family="Times,serif" font-size="14.00">DataTableModule</text>
</g>
<!-- DataTableModule&#45;&gt;EntityModule -->
<g id="edge7" class="edge">
<title>DataTableModule&#45;&gt;EntityModule</title>
<path fill="none" stroke="black" d="M1472,-122.13C1472,-142.57 1472,-173 1472,-173 1472,-173 1013.16,-173 1013.16,-173"/>
<polygon fill="black" stroke="black" points="1013.16,-169.5 1003.16,-173 1013.16,-176.5 1013.16,-169.5"/>
</g>
<!-- FkAdvancedPickerModule -->
<g id="node9" class="node">
<title>FkAdvancedPickerModule</title>
<polygon fill="#8dd3c7" stroke="black" points="1395.35,-122 1392.35,-126 1371.35,-126 1368.35,-122 1228.65,-122 1228.65,-86 1395.35,-86 1395.35,-122"/>
<text text-anchor="middle" x="1312" y="-99.8" font-family="Times,serif" font-size="14.00">FkAdvancedPickerModule</text>
</g>
<!-- FkAdvancedPickerModule&#45;&gt;EntityModule -->
<g id="edge8" class="edge">
<title>FkAdvancedPickerModule&#45;&gt;EntityModule</title>
<path fill="none" stroke="black" d="M1312,-122.27C1312,-140.56 1312,-166 1312,-166 1312,-166 1012.91,-166 1012.91,-166"/>
<polygon fill="black" stroke="black" points="1012.91,-162.5 1002.91,-166 1012.91,-169.5 1012.91,-162.5"/>
</g>
<!-- EntityService -->
<g id="node12" class="node">
<title>EntityService</title>
<ellipse fill="#fdb462" stroke="black" cx="88" cy="-104" rx="63.7" ry="18"/>
<text text-anchor="middle" x="88" y="-99.8" font-family="Times,serif" font-size="14.00">EntityService</text>
</g>
<!-- EntityService&#45;&gt;EntityModule -->
<g id="edge11" class="edge">
<title>EntityService&#45;&gt;EntityModule</title>
<path fill="none" stroke="black" d="M88,-122.01C88,-144.49 88,-180 88,-180 88,-180 899.02,-180 899.02,-180"/>
<polygon fill="black" stroke="black" points="899.02,-183.5 909.02,-180 899.02,-176.5 899.02,-183.5"/>
</g>
</g>
</svg>
