<?xml version="1.0" encoding="UTF-8" standalone="no"?>
<!DOCTYPE svg PUBLIC "-//W3C//DTD SVG 1.1//EN"
 "http://www.w3.org/Graphics/SVG/1.1/DTD/svg11.dtd">
<!-- Generated by graphviz version 2.47.0 (20210316.0004)
 -->
<!-- Title: dependencies Pages: 1 -->
<svg width="1142pt" height="211pt"
 viewBox="0.00 0.00 1142.00 211.00" xmlns="http://www.w3.org/2000/svg" xmlns:xlink="http://www.w3.org/1999/xlink">
<g id="graph0" class="graph" transform="scale(1 1) rotate(0) translate(4 207)">
<title>dependencies</title>
<polygon fill="white" stroke="transparent" points="-4,4 -4,-207 1138,-207 1138,4 -4,4"/>
<text text-anchor="start" x="546.01" y="-42.4" font-family="Times-12" font-weight="bold" font-size="14.00">Legend</text>
<polygon fill="#ffffb3" stroke="transparent" points="333,-10 333,-30 353,-30 353,-10 333,-10"/>
<text text-anchor="start" x="356.63" y="-15.4" font-family="Times-12" font-size="14.00"> &#160;Declarations</text>
<polygon fill="#8dd3c7" stroke="transparent" points="446,-10 446,-30 466,-30 466,-10 446,-10"/>
<text text-anchor="start" x="469.73" y="-15.4" font-family="Times-12" font-size="14.00"> &#160;Module</text>
<polygon fill="#80b1d3" stroke="transparent" points="532,-10 532,-30 552,-30 552,-10 532,-10"/>
<text text-anchor="start" x="555.78" y="-15.4" font-family="Times-12" font-size="14.00"> &#160;Bootstrap</text>
<polygon fill="#fdb462" stroke="transparent" points="629,-10 629,-30 649,-30 649,-10 629,-10"/>
<text text-anchor="start" x="652.67" y="-15.4" font-family="Times-12" font-size="14.00"> &#160;Providers</text>
<polygon fill="#fb8072" stroke="transparent" points="725,-10 725,-30 745,-30 745,-10 725,-10"/>
<text text-anchor="start" x="748.73" y="-15.4" font-family="Times-12" font-size="14.00"> &#160;Exports</text>
<g id="clust1" class="cluster">
<title>cluster_TeamResponsibilitiesModule</title>
<polygon fill="none" stroke="black" stroke-dasharray="1,5" points="8,-70 8,-195 1126,-195 1126,-70 8,-70"/>
</g>
<g id="clust6" class="cluster">
<title>cluster_TeamResponsibilitiesModule_imports</title>
<polygon fill="none" stroke="black" points="1014,-78 1014,-130 1118,-130 1118,-78 1014,-78"/>
</g>
<g id="clust9" class="cluster">
<title>cluster_TeamResponsibilitiesModule_providers</title>
<polygon fill="none" stroke="black" points="742,-78 742,-130 1006,-130 1006,-78 742,-78"/>
</g>
<g id="clust2" class="cluster">
<title>cluster_TeamResponsibilitiesModule_declarations</title>
<polygon fill="none" stroke="black" points="16,-78 16,-130 734,-130 734,-78 16,-78"/>
</g>
<!-- TeamResponsibilitiesComponent -->
<g id="node1" class="node">
<title>TeamResponsibilitiesComponent</title>
<polygon fill="#ffffb3" stroke="black" points="726.15,-122 523.85,-122 523.85,-86 726.15,-86 726.15,-122"/>
<text text-anchor="middle" x="625" y="-99.8" font-family="Times,serif" font-size="14.00">TeamResponsibilitiesComponent</text>
</g>
<!-- TeamResponsibilitiesModule -->
<g id="node4" class="node">
<title>TeamResponsibilitiesModule</title>
<polygon fill="#8dd3c7" stroke="black" points="715.37,-187 712.37,-191 691.37,-191 688.37,-187 534.63,-187 534.63,-151 715.37,-151 715.37,-187"/>
<text text-anchor="middle" x="625" y="-164.8" font-family="Times,serif" font-size="14.00">TeamResponsibilitiesModule</text>
</g>
<!-- TeamResponsibilitiesComponent&#45;&gt;TeamResponsibilitiesModule -->
<g id="edge1" class="edge">
<title>TeamResponsibilitiesComponent&#45;&gt;TeamResponsibilitiesModule</title>
<path fill="none" stroke="black" d="M625,-122.11C625,-122.11 625,-140.99 625,-140.99"/>
<polygon fill="black" stroke="black" points="621.5,-140.99 625,-150.99 628.5,-140.99 621.5,-140.99"/>
</g>
<!-- TeamResponsibilitySidesheetComponent -->
<g id="node2" class="node">
<title>TeamResponsibilitySidesheetComponent</title>
<polygon fill="#ffffb3" stroke="black" points="505.75,-122 258.25,-122 258.25,-86 505.75,-86 505.75,-122"/>
<text text-anchor="middle" x="382" y="-99.8" font-family="Times,serif" font-size="14.00">TeamResponsibilitySidesheetComponent</text>
</g>
<!-- TeamResponsibilitySidesheetComponent&#45;&gt;TeamResponsibilitiesModule -->
<g id="edge2" class="edge">
<title>TeamResponsibilitySidesheetComponent&#45;&gt;TeamResponsibilitiesModule</title>
<path fill="none" stroke="black" d="M382,-122.02C382,-139.37 382,-163 382,-163 382,-163 524.52,-163 524.52,-163"/>
<polygon fill="black" stroke="black" points="524.52,-166.5 534.52,-163 524.52,-159.5 524.52,-166.5"/>
</g>
<!-- TeamResponsibilityTileComponent -->
<g id="node3" class="node">
<title>TeamResponsibilityTileComponent</title>
<polygon fill="#ffffb3" stroke="black" points="240.15,-122 23.85,-122 23.85,-86 240.15,-86 240.15,-122"/>
<text text-anchor="middle" x="132" y="-99.8" font-family="Times,serif" font-size="14.00">TeamResponsibilityTileComponent</text>
</g>
<!-- TeamResponsibilityTileComponent&#45;&gt;TeamResponsibilitiesModule -->
<g id="edge3" class="edge">
<title>TeamResponsibilityTileComponent&#45;&gt;TeamResponsibilitiesModule</title>
<path fill="none" stroke="black" d="M132,-122.28C132,-143.32 132,-175 132,-175 132,-175 524.58,-175 524.58,-175"/>
<polygon fill="black" stroke="black" points="524.58,-178.5 534.58,-175 524.58,-171.5 524.58,-178.5"/>
</g>
<!-- TilesModule -->
<g id="node5" class="node">
<title>TilesModule</title>
<polygon fill="#8dd3c7" stroke="black" points="1109.54,-122 1106.54,-126 1085.54,-126 1082.54,-122 1022.46,-122 1022.46,-86 1109.54,-86 1109.54,-122"/>
<text text-anchor="middle" x="1066" y="-99.8" font-family="Times,serif" font-size="14.00">TilesModule</text>
</g>
<!-- TilesModule&#45;&gt;TeamResponsibilitiesModule -->
<g id="edge4" class="edge">
<title>TilesModule&#45;&gt;TeamResponsibilitiesModule</title>
<path fill="none" stroke="black" d="M1066,-122.28C1066,-143.32 1066,-175 1066,-175 1066,-175 725.57,-175 725.57,-175"/>
<polygon fill="black" stroke="black" points="725.57,-171.5 715.57,-175 725.57,-178.5 725.57,-171.5"/>
</g>
<!-- TeamResponsibilitiesService -->
<g id="node6" class="node">
<title>TeamResponsibilitiesService</title>
<ellipse fill="#fdb462" stroke="black" cx="874" cy="-104" rx="123.85" ry="18"/>
<text text-anchor="middle" x="874" y="-99.8" font-family="Times,serif" font-size="14.00">TeamResponsibilitiesService</text>
</g>
<!-- TeamResponsibilitiesService&#45;&gt;TeamResponsibilitiesModule -->
<g id="edge5" class="edge">
<title>TeamResponsibilitiesService&#45;&gt;TeamResponsibilitiesModule</title>
<path fill="none" stroke="black" d="M874,-122.02C874,-139.37 874,-163 874,-163 874,-163 725.6,-163 725.6,-163"/>
<polygon fill="black" stroke="black" points="725.6,-159.5 715.6,-163 725.6,-166.5 725.6,-159.5"/>
</g>
</g>
</svg>
