<?xml version="1.0" encoding="UTF-8" standalone="no"?>
<!DOCTYPE svg PUBLIC "-//W3C//DTD SVG 1.1//EN"
 "http://www.w3.org/Graphics/SVG/1.1/DTD/svg11.dtd">
<!-- Generated by graphviz version 2.47.0 (20210316.0004)
 -->
<!-- Title: dependencies Pages: 1 -->
<svg width="954pt" height="284pt"
 viewBox="0.00 0.00 954.00 284.00" xmlns="http://www.w3.org/2000/svg" xmlns:xlink="http://www.w3.org/1999/xlink">
<g id="graph0" class="graph" transform="scale(1 1) rotate(0) translate(4 280)">
<title>dependencies</title>
<polygon fill="white" stroke="transparent" points="-4,4 -4,-280 950,-280 950,4 -4,4"/>
<text text-anchor="start" x="452.01" y="-42.4" font-family="Times-12" font-weight="bold" font-size="14.00">Legend</text>
<polygon fill="#ffffb3" stroke="transparent" points="239,-10 239,-30 259,-30 259,-10 239,-10"/>
<text text-anchor="start" x="262.63" y="-15.4" font-family="Times-12" font-size="14.00"> &#160;Declarations</text>
<polygon fill="#8dd3c7" stroke="transparent" points="352,-10 352,-30 372,-30 372,-10 352,-10"/>
<text text-anchor="start" x="375.73" y="-15.4" font-family="Times-12" font-size="14.00"> &#160;Module</text>
<polygon fill="#80b1d3" stroke="transparent" points="438,-10 438,-30 458,-30 458,-10 438,-10"/>
<text text-anchor="start" x="461.78" y="-15.4" font-family="Times-12" font-size="14.00"> &#160;Bootstrap</text>
<polygon fill="#fdb462" stroke="transparent" points="535,-10 535,-30 555,-30 555,-10 535,-10"/>
<text text-anchor="start" x="558.67" y="-15.4" font-family="Times-12" font-size="14.00"> &#160;Providers</text>
<polygon fill="#fb8072" stroke="transparent" points="631,-10 631,-30 651,-30 651,-10 631,-10"/>
<text text-anchor="start" x="654.73" y="-15.4" font-family="Times-12" font-size="14.00"> &#160;Exports</text>
<g id="clust1" class="cluster">
<title>cluster_ServiceItemsModule</title>
<polygon fill="none" stroke="black" stroke-dasharray="1,5" points="8,-70 8,-268 938,-268 938,-70 8,-70"/>
</g>
<g id="clust7" class="cluster">
<title>cluster_ServiceItemsModule_imports</title>
<polygon fill="none" stroke="black" points="820,-78 820,-130 930,-130 930,-78 820,-78"/>
</g>
<g id="clust2" class="cluster">
<title>cluster_ServiceItemsModule_declarations</title>
<polygon fill="none" stroke="black" points="16,-78 16,-130 812,-130 812,-78 16,-78"/>
</g>
<g id="clust8" class="cluster">
<title>cluster_ServiceItemsModule_exports</title>
<polygon fill="none" stroke="black" points="328,-208 328,-260 722,-260 722,-208 328,-208"/>
</g>
<!-- ServiceItemInfoComponent -->
<g id="node1" class="node">
<title>ServiceItemInfoComponent</title>
<polygon fill="#ffffb3" stroke="black" points="804.29,-122 631.71,-122 631.71,-86 804.29,-86 804.29,-122"/>
<text text-anchor="middle" x="718" y="-99.8" font-family="Times,serif" font-size="14.00">ServiceItemInfoComponent</text>
</g>
<!-- ServiceItemsModule -->
<g id="node5" class="node">
<title>ServiceItemsModule</title>
<polygon fill="#8dd3c7" stroke="black" points="588.13,-187 585.13,-191 564.13,-191 561.13,-187 455.87,-187 455.87,-151 588.13,-151 588.13,-187"/>
<text text-anchor="middle" x="522" y="-164.8" font-family="Times,serif" font-size="14.00">ServiceItemsModule</text>
</g>
<!-- ServiceItemInfoComponent&#45;&gt;ServiceItemsModule -->
<g id="edge1" class="edge">
<title>ServiceItemInfoComponent&#45;&gt;ServiceItemsModule</title>
<path fill="none" stroke="black" d="M673.1,-122.02C673.1,-139.37 673.1,-163 673.1,-163 673.1,-163 598.27,-163 598.27,-163"/>
<polygon fill="black" stroke="black" points="598.27,-159.5 588.27,-163 598.27,-166.5 598.27,-159.5"/>
</g>
<!-- ServiceItemSelectComponent -->
<g id="node2" class="node">
<title>ServiceItemSelectComponent</title>
<polygon fill="#ffffb3" stroke="black" points="613.67,-122 430.33,-122 430.33,-86 613.67,-86 613.67,-122"/>
<text text-anchor="middle" x="522" y="-99.8" font-family="Times,serif" font-size="14.00">ServiceItemSelectComponent</text>
</g>
<!-- ServiceItemSelectComponent&#45;&gt;ServiceItemsModule -->
<g id="edge2" class="edge">
<title>ServiceItemSelectComponent&#45;&gt;ServiceItemsModule</title>
<path fill="none" stroke="black" d="M522,-122.11C522,-122.11 522,-140.99 522,-140.99"/>
<polygon fill="black" stroke="black" points="518.5,-140.99 522,-150.99 525.5,-140.99 518.5,-140.99"/>
</g>
<!-- ServiceItemsSelectorComponent -->
<g id="node3" class="node">
<title>ServiceItemsSelectorComponent</title>
<polygon fill="#ffffb3" stroke="black" points="412.28,-122 211.72,-122 211.72,-86 412.28,-86 412.28,-122"/>
<text text-anchor="middle" x="312" y="-99.8" font-family="Times,serif" font-size="14.00">ServiceItemsSelectorComponent</text>
</g>
<!-- ServiceItemsSelectorComponent&#45;&gt;ServiceItemsModule -->
<g id="edge3" class="edge">
<title>ServiceItemsSelectorComponent&#45;&gt;ServiceItemsModule</title>
<path fill="none" stroke="black" d="M374.2,-122.02C374.2,-139.37 374.2,-163 374.2,-163 374.2,-163 445.45,-163 445.45,-163"/>
<polygon fill="black" stroke="black" points="445.45,-166.5 455.45,-163 445.45,-159.5 445.45,-166.5"/>
</g>
<!-- ServiceitemListComponent -->
<g id="node4" class="node">
<title>ServiceitemListComponent</title>
<polygon fill="#ffffb3" stroke="black" points="193.97,-122 24.03,-122 24.03,-86 193.97,-86 193.97,-122"/>
<text text-anchor="middle" x="109" y="-99.8" font-family="Times,serif" font-size="14.00">ServiceitemListComponent</text>
</g>
<!-- ServiceitemListComponent&#45;&gt;ServiceItemsModule -->
<g id="edge4" class="edge">
<title>ServiceitemListComponent&#45;&gt;ServiceItemsModule</title>
<path fill="none" stroke="black" d="M109,-122.28C109,-143.32 109,-175 109,-175 109,-175 445.64,-175 445.64,-175"/>
<polygon fill="black" stroke="black" points="445.64,-178.5 455.64,-175 445.64,-171.5 445.64,-178.5"/>
</g>
<!-- ServiceItemSelectComponent  -->
<g id="node7" class="node">
<title>ServiceItemSelectComponent </title>
<polygon fill="#fb8072" stroke="black" points="714.17,-252 527.83,-252 527.83,-216 714.17,-216 714.17,-252"/>
<text text-anchor="middle" x="621" y="-229.8" font-family="Times,serif" font-size="14.00">ServiceItemSelectComponent </text>
</g>
<!-- ServiceItemsModule&#45;&gt;ServiceItemSelectComponent  -->
<g id="edge6" class="edge">
<title>ServiceItemsModule&#45;&gt;ServiceItemSelectComponent </title>
<path fill="none" stroke="black" stroke-dasharray="5,2" d="M557.99,-187.11C557.99,-187.11 557.99,-205.99 557.99,-205.99"/>
<polygon fill="black" stroke="black" points="554.49,-205.99 557.99,-215.99 561.49,-205.99 554.49,-205.99"/>
</g>
<!-- ServiceitemListComponent  -->
<g id="node8" class="node">
<title>ServiceitemListComponent </title>
<polygon fill="#fb8072" stroke="black" points="509.98,-252 336.02,-252 336.02,-216 509.98,-216 509.98,-252"/>
<text text-anchor="middle" x="423" y="-229.8" font-family="Times,serif" font-size="14.00">ServiceitemListComponent </text>
</g>
<!-- ServiceItemsModule&#45;&gt;ServiceitemListComponent  -->
<g id="edge7" class="edge">
<title>ServiceItemsModule&#45;&gt;ServiceitemListComponent </title>
<path fill="none" stroke="black" stroke-dasharray="5,2" d="M482.71,-187.11C482.71,-187.11 482.71,-205.99 482.71,-205.99"/>
<polygon fill="black" stroke="black" points="479.21,-205.99 482.71,-215.99 486.21,-205.99 479.21,-205.99"/>
</g>
<!-- ItshopModule -->
<g id="node6" class="node">
<title>ItshopModule</title>
<polygon fill="#8dd3c7" stroke="black" points="922.05,-122 919.05,-126 898.05,-126 895.05,-122 827.95,-122 827.95,-86 922.05,-86 922.05,-122"/>
<text text-anchor="middle" x="875" y="-99.8" font-family="Times,serif" font-size="14.00">ItshopModule</text>
</g>
<!-- ItshopModule&#45;&gt;ServiceItemsModule -->
<g id="edge5" class="edge">
<title>ItshopModule&#45;&gt;ServiceItemsModule</title>
<path fill="none" stroke="black" d="M875,-122.28C875,-143.32 875,-175 875,-175 875,-175 598.4,-175 598.4,-175"/>
<polygon fill="black" stroke="black" points="598.4,-171.5 588.4,-175 598.4,-178.5 598.4,-171.5"/>
</g>
</g>
</svg>
