<?xml version="1.0" encoding="UTF-8" standalone="no"?>
<!DOCTYPE svg PUBLIC "-//W3C//DTD SVG 1.1//EN"
 "http://www.w3.org/Graphics/SVG/1.1/DTD/svg11.dtd">
<!-- Generated by graphviz version 2.47.0 (20210316.0004)
 -->
<!-- Title: dependencies Pages: 1 -->
<svg width="954pt" height="284pt"
 viewBox="0.00 0.00 954.00 284.00" xmlns="http://www.w3.org/2000/svg" xmlns:xlink="http://www.w3.org/1999/xlink">
<g id="graph0" class="graph" transform="scale(1 1) rotate(0) translate(4 280)">
<title>dependencies</title>
<polygon fill="white" stroke="transparent" points="-4,4 -4,-280 950,-280 950,4 -4,4"/>
<text text-anchor="start" x="452.01" y="-42.4" font-family="Times-12" font-weight="bold" font-size="14.00">Legend</text>
<polygon fill="#ffffb3" stroke="transparent" points="239,-10 239,-30 259,-30 259,-10 239,-10"/>
<text text-anchor="start" x="262.63" y="-15.4" font-family="Times-12" font-size="14.00"> &#160;Declarations</text>
<polygon fill="#8dd3c7" stroke="transparent" points="352,-10 352,-30 372,-30 372,-10 352,-10"/>
<text text-anchor="start" x="375.73" y="-15.4" font-family="Times-12" font-size="14.00"> &#160;Module</text>
<polygon fill="#80b1d3" stroke="transparent" points="438,-10 438,-30 458,-30 458,-10 438,-10"/>
<text text-anchor="start" x="461.78" y="-15.4" font-family="Times-12" font-size="14.00"> &#160;Bootstrap</text>
<polygon fill="#fdb462" stroke="transparent" points="535,-10 535,-30 555,-30 555,-10 535,-10"/>
<text text-anchor="start" x="558.67" y="-15.4" font-family="Times-12" font-size="14.00"> &#160;Providers</text>
<polygon fill="#fb8072" stroke="transparent" points="631,-10 631,-30 651,-30 651,-10 631,-10"/>
<text text-anchor="start" x="654.73" y="-15.4" font-family="Times-12" font-size="14.00"> &#160;Exports</text>
<g id="clust1" class="cluster">
<title>cluster_ServiceItemsModule</title>
<polygon fill="none" stroke="black" stroke-dasharray="1,5" points="8,-70 8,-268 938,-268 938,-70 8,-70"/>
</g>
<g id="clust2" class="cluster">
<title>cluster_ServiceItemsModule_declarations</title>
<polygon fill="none" stroke="black" points="134,-78 134,-130 930,-130 930,-78 134,-78"/>
</g>
<g id="clust7" class="cluster">
<title>cluster_ServiceItemsModule_imports</title>
<polygon fill="none" stroke="black" points="16,-78 16,-130 126,-130 126,-78 16,-78"/>
</g>
<g id="clust8" class="cluster">
<title>cluster_ServiceItemsModule_exports</title>
<polygon fill="none" stroke="black" points="236,-208 236,-260 630,-260 630,-208 236,-208"/>
</g>
<!-- ServiceItemInfoComponent -->
<g id="node1" class="node">
<title>ServiceItemInfoComponent</title>
<polygon fill="#ffffb3" stroke="black" points="922.29,-122 749.71,-122 749.71,-86 922.29,-86 922.29,-122"/>
<text text-anchor="middle" x="836" y="-99.8" font-family="Times,serif" font-size="14.00">ServiceItemInfoComponent</text>
</g>
<!-- ServiceItemsModule -->
<g id="node5" class="node">
<title>ServiceItemsModule</title>
<polygon fill="#8dd3c7" stroke="black" points="496.13,-187 493.13,-191 472.13,-191 469.13,-187 363.87,-187 363.87,-151 496.13,-151 496.13,-187"/>
<text text-anchor="middle" x="430" y="-164.8" font-family="Times,serif" font-size="14.00">ServiceItemsModule</text>
</g>
<!-- ServiceItemInfoComponent&#45;&gt;ServiceItemsModule -->
<g id="edge1" class="edge">
<title>ServiceItemInfoComponent&#45;&gt;ServiceItemsModule</title>
<path fill="none" stroke="black" d="M836,-122.28C836,-143.32 836,-175 836,-175 836,-175 506.13,-175 506.13,-175"/>
<polygon fill="black" stroke="black" points="506.13,-171.5 496.13,-175 506.13,-178.5 506.13,-171.5"/>
</g>
<!-- ServiceItemSelectComponent -->
<g id="node2" class="node">
<title>ServiceItemSelectComponent</title>
<polygon fill="#ffffb3" stroke="black" points="731.67,-122 548.33,-122 548.33,-86 731.67,-86 731.67,-122"/>
<text text-anchor="middle" x="640" y="-99.8" font-family="Times,serif" font-size="14.00">ServiceItemSelectComponent</text>
</g>
<!-- ServiceItemSelectComponent&#45;&gt;ServiceItemsModule -->
<g id="edge2" class="edge">
<title>ServiceItemSelectComponent&#45;&gt;ServiceItemsModule</title>
<path fill="none" stroke="black" d="M585.38,-122.02C585.38,-139.37 585.38,-163 585.38,-163 585.38,-163 506.34,-163 506.34,-163"/>
<polygon fill="black" stroke="black" points="506.34,-159.5 496.34,-163 506.34,-166.5 506.34,-159.5"/>
</g>
<!-- ServiceItemsSelectorComponent -->
<g id="node3" class="node">
<title>ServiceItemsSelectorComponent</title>
<polygon fill="#ffffb3" stroke="black" points="530.28,-122 329.72,-122 329.72,-86 530.28,-86 530.28,-122"/>
<text text-anchor="middle" x="430" y="-99.8" font-family="Times,serif" font-size="14.00">ServiceItemsSelectorComponent</text>
</g>
<!-- ServiceItemsSelectorComponent&#45;&gt;ServiceItemsModule -->
<g id="edge3" class="edge">
<title>ServiceItemsSelectorComponent&#45;&gt;ServiceItemsModule</title>
<path fill="none" stroke="black" d="M430,-122.11C430,-122.11 430,-140.99 430,-140.99"/>
<polygon fill="black" stroke="black" points="426.5,-140.99 430,-150.99 433.5,-140.99 426.5,-140.99"/>
</g>
<!-- ServiceitemListComponent -->
<g id="node4" class="node">
<title>ServiceitemListComponent</title>
<polygon fill="#ffffb3" stroke="black" points="311.97,-122 142.03,-122 142.03,-86 311.97,-86 311.97,-122"/>
<text text-anchor="middle" x="227" y="-99.8" font-family="Times,serif" font-size="14.00">ServiceitemListComponent</text>
</g>
<!-- ServiceitemListComponent&#45;&gt;ServiceItemsModule -->
<g id="edge4" class="edge">
<title>ServiceitemListComponent&#45;&gt;ServiceItemsModule</title>
<path fill="none" stroke="black" d="M278.12,-122.02C278.12,-139.37 278.12,-163 278.12,-163 278.12,-163 353.83,-163 353.83,-163"/>
<polygon fill="black" stroke="black" points="353.83,-166.5 363.83,-163 353.83,-159.5 353.83,-166.5"/>
</g>
<!-- ServiceItemSelectComponent  -->
<g id="node7" class="node">
<title>ServiceItemSelectComponent </title>
<polygon fill="#fb8072" stroke="black" points="622.17,-252 435.83,-252 435.83,-216 622.17,-216 622.17,-252"/>
<text text-anchor="middle" x="529" y="-229.8" font-family="Times,serif" font-size="14.00">ServiceItemSelectComponent </text>
</g>
<!-- ServiceItemsModule&#45;&gt;ServiceItemSelectComponent  -->
<g id="edge6" class="edge">
<title>ServiceItemsModule&#45;&gt;ServiceItemSelectComponent </title>
<path fill="none" stroke="black" stroke-dasharray="5,2" d="M465.99,-187.11C465.99,-187.11 465.99,-205.99 465.99,-205.99"/>
<polygon fill="black" stroke="black" points="462.49,-205.99 465.99,-215.99 469.49,-205.99 462.49,-205.99"/>
</g>
<!-- ServiceitemListComponent  -->
<g id="node8" class="node">
<title>ServiceitemListComponent </title>
<polygon fill="#fb8072" stroke="black" points="417.98,-252 244.02,-252 244.02,-216 417.98,-216 417.98,-252"/>
<text text-anchor="middle" x="331" y="-229.8" font-family="Times,serif" font-size="14.00">ServiceitemListComponent </text>
</g>
<!-- ServiceItemsModule&#45;&gt;ServiceitemListComponent  -->
<g id="edge7" class="edge">
<title>ServiceItemsModule&#45;&gt;ServiceitemListComponent </title>
<path fill="none" stroke="black" stroke-dasharray="5,2" d="M390.71,-187.11C390.71,-187.11 390.71,-205.99 390.71,-205.99"/>
<polygon fill="black" stroke="black" points="387.21,-205.99 390.71,-215.99 394.21,-205.99 387.21,-205.99"/>
</g>
<!-- ItshopModule -->
<g id="node6" class="node">
<title>ItshopModule</title>
<polygon fill="#8dd3c7" stroke="black" points="118.05,-122 115.05,-126 94.05,-126 91.05,-122 23.95,-122 23.95,-86 118.05,-86 118.05,-122"/>
<text text-anchor="middle" x="71" y="-99.8" font-family="Times,serif" font-size="14.00">ItshopModule</text>
</g>
<!-- ItshopModule&#45;&gt;ServiceItemsModule -->
<g id="edge5" class="edge">
<title>ItshopModule&#45;&gt;ServiceItemsModule</title>
<path fill="none" stroke="black" d="M71,-122.28C71,-143.32 71,-175 71,-175 71,-175 353.74,-175 353.74,-175"/>
<polygon fill="black" stroke="black" points="353.74,-178.5 363.74,-175 353.74,-171.5 353.74,-178.5"/>
</g>
</g>
</svg>
