<?xml version="1.0" encoding="UTF-8" standalone="no"?>
<!DOCTYPE svg PUBLIC "-//W3C//DTD SVG 1.1//EN"
 "http://www.w3.org/Graphics/SVG/1.1/DTD/svg11.dtd">
<!-- Generated by graphviz version 2.47.0 (20210316.0004)
 -->
<!-- Title: dependencies Pages: 1 -->
<svg width="3246pt" height="211pt"
 viewBox="0.00 0.00 3246.00 211.00" xmlns="http://www.w3.org/2000/svg" xmlns:xlink="http://www.w3.org/1999/xlink">
<g id="graph0" class="graph" transform="scale(1 1) rotate(0) translate(4 207)">
<title>dependencies</title>
<polygon fill="white" stroke="transparent" points="-4,4 -4,-207 3242,-207 3242,4 -4,4"/>
<text text-anchor="start" x="1598.01" y="-42.4" font-family="Times-12" font-weight="bold" font-size="14.00">Legend</text>
<polygon fill="#ffffb3" stroke="transparent" points="1385,-10 1385,-30 1405,-30 1405,-10 1385,-10"/>
<text text-anchor="start" x="1408.63" y="-15.4" font-family="Times-12" font-size="14.00"> &#160;Declarations</text>
<polygon fill="#8dd3c7" stroke="transparent" points="1498,-10 1498,-30 1518,-30 1518,-10 1498,-10"/>
<text text-anchor="start" x="1521.73" y="-15.4" font-family="Times-12" font-size="14.00"> &#160;Module</text>
<polygon fill="#80b1d3" stroke="transparent" points="1584,-10 1584,-30 1604,-30 1604,-10 1584,-10"/>
<text text-anchor="start" x="1607.78" y="-15.4" font-family="Times-12" font-size="14.00"> &#160;Bootstrap</text>
<polygon fill="#fdb462" stroke="transparent" points="1681,-10 1681,-30 1701,-30 1701,-10 1681,-10"/>
<text text-anchor="start" x="1704.67" y="-15.4" font-family="Times-12" font-size="14.00"> &#160;Providers</text>
<polygon fill="#fb8072" stroke="transparent" points="1777,-10 1777,-30 1797,-30 1797,-10 1777,-10"/>
<text text-anchor="start" x="1800.73" y="-15.4" font-family="Times-12" font-size="14.00"> &#160;Exports</text>
<g id="clust1" class="cluster">
<title>cluster_ShoppingCartModule</title>
<polygon fill="none" stroke="black" stroke-dasharray="1,5" points="8,-70 8,-195 3230,-195 3230,-70 8,-70"/>
</g>
<g id="clust2" class="cluster">
<title>cluster_ShoppingCartModule_declarations</title>
<polygon fill="none" stroke="black" points="918,-78 918,-130 3222,-130 3222,-78 918,-78"/>
</g>
<g id="clust14" class="cluster">
<title>cluster_ShoppingCartModule_imports</title>
<polygon fill="none" stroke="black" points="408,-78 408,-130 910,-130 910,-78 408,-78"/>
</g>
<g id="clust17" class="cluster">
<title>cluster_ShoppingCartModule_providers</title>
<polygon fill="none" stroke="black" points="16,-78 16,-130 400,-130 400,-78 16,-78"/>
</g>
<!-- CartItemDisplayComponent -->
<g id="node1" class="node">
<title>CartItemDisplayComponent</title>
<polygon fill="#ffffb3" stroke="black" points="3214.14,-122 3039.86,-122 3039.86,-86 3214.14,-86 3214.14,-122"/>
<text text-anchor="middle" x="3127" y="-99.8" font-family="Times,serif" font-size="14.00">CartItemDisplayComponent</text>
</g>
<!-- ShoppingCartModule -->
<g id="node12" class="node">
<title>ShoppingCartModule</title>
<polygon fill="#8dd3c7" stroke="black" points="1660.83,-187 1657.83,-191 1636.83,-191 1633.83,-187 1523.17,-187 1523.17,-151 1660.83,-151 1660.83,-187"/>
<text text-anchor="middle" x="1592" y="-164.8" font-family="Times,serif" font-size="14.00">ShoppingCartModule</text>
</g>
<!-- CartItemDisplayComponent&#45;&gt;ShoppingCartModule -->
<g id="edge1" class="edge">
<title>CartItemDisplayComponent&#45;&gt;ShoppingCartModule</title>
<path fill="none" stroke="black" d="M3127,-122.32C3127,-145.66 3127,-183 3127,-183 3127,-183 1670.69,-183 1670.69,-183"/>
<polygon fill="black" stroke="black" points="1670.69,-179.5 1660.69,-183 1670.69,-186.5 1670.69,-179.5"/>
</g>
<!-- CartItemEditComponent -->
<g id="node2" class="node">
<title>CartItemEditComponent</title>
<polygon fill="#ffffb3" stroke="black" points="3021.43,-122 2866.57,-122 2866.57,-86 3021.43,-86 3021.43,-122"/>
<text text-anchor="middle" x="2944" y="-99.8" font-family="Times,serif" font-size="14.00">CartItemEditComponent</text>
</g>
<!-- CartItemEditComponent&#45;&gt;ShoppingCartModule -->
<g id="edge2" class="edge">
<title>CartItemEditComponent&#45;&gt;ShoppingCartModule</title>
<path fill="none" stroke="black" d="M2944,-122.29C2944,-144.21 2944,-178 2944,-178 2944,-178 1670.9,-178 1670.9,-178"/>
<polygon fill="black" stroke="black" points="1670.9,-174.5 1660.9,-178 1670.9,-181.5 1670.9,-174.5"/>
</g>
<!-- CartItemValidationOverviewComponent -->
<g id="node3" class="node">
<title>CartItemValidationOverviewComponent</title>
<polygon fill="#ffffb3" stroke="black" points="2848.88,-122 2603.12,-122 2603.12,-86 2848.88,-86 2848.88,-122"/>
<text text-anchor="middle" x="2726" y="-99.8" font-family="Times,serif" font-size="14.00">CartItemValidationOverviewComponent</text>
</g>
<!-- CartItemValidationOverviewComponent&#45;&gt;ShoppingCartModule -->
<g id="edge3" class="edge">
<title>CartItemValidationOverviewComponent&#45;&gt;ShoppingCartModule</title>
<path fill="none" stroke="black" d="M2726,-122.03C2726,-142.77 2726,-174 2726,-174 2726,-174 1670.81,-174 1670.81,-174"/>
<polygon fill="black" stroke="black" points="1670.81,-170.5 1660.81,-174 1670.81,-177.5 1670.81,-170.5"/>
</g>
<!-- CartItemsComponent -->
<g id="node4" class="node">
<title>CartItemsComponent</title>
<polygon fill="#ffffb3" stroke="black" points="2585.04,-122 2448.96,-122 2448.96,-86 2585.04,-86 2585.04,-122"/>
<text text-anchor="middle" x="2517" y="-99.8" font-family="Times,serif" font-size="14.00">CartItemsComponent</text>
</g>
<!-- CartItemsComponent&#45;&gt;ShoppingCartModule -->
<g id="edge4" class="edge">
<title>CartItemsComponent&#45;&gt;ShoppingCartModule</title>
<path fill="none" stroke="black" d="M2517,-122.11C2517,-141.34 2517,-169 2517,-169 2517,-169 1670.77,-169 1670.77,-169"/>
<polygon fill="black" stroke="black" points="1670.77,-165.5 1660.77,-169 1670.77,-172.5 1670.77,-165.5"/>
</g>
<!-- ConfirmCartSubmitDialog -->
<g id="node5" class="node">
<title>ConfirmCartSubmitDialog</title>
<polygon fill="#ffffb3" stroke="black" points="2431.1,-122 2264.9,-122 2264.9,-86 2431.1,-86 2431.1,-122"/>
<text text-anchor="middle" x="2348" y="-99.8" font-family="Times,serif" font-size="14.00">ConfirmCartSubmitDialog</text>
</g>
<!-- ConfirmCartSubmitDialog&#45;&gt;ShoppingCartModule -->
<g id="edge5" class="edge">
<title>ConfirmCartSubmitDialog&#45;&gt;ShoppingCartModule</title>
<path fill="none" stroke="black" d="M2348,-122.3C2348,-140.27 2348,-165 2348,-165 2348,-165 1670.76,-165 1670.76,-165"/>
<polygon fill="black" stroke="black" points="1670.76,-161.5 1660.76,-165 1670.76,-168.5 1670.76,-161.5"/>
</g>
<!-- DefaultCartItemDisplayComponent -->
<g id="node6" class="node">
<title>DefaultCartItemDisplayComponent</title>
<polygon fill="#ffffb3" stroke="black" points="2247.12,-122 2030.88,-122 2030.88,-86 2247.12,-86 2247.12,-122"/>
<text text-anchor="middle" x="2139" y="-99.8" font-family="Times,serif" font-size="14.00">DefaultCartItemDisplayComponent</text>
</g>
<!-- DefaultCartItemDisplayComponent&#45;&gt;ShoppingCartModule -->
<g id="edge6" class="edge">
<title>DefaultCartItemDisplayComponent&#45;&gt;ShoppingCartModule</title>
<path fill="none" stroke="black" d="M2139,-122.03C2139,-138.4 2139,-160 2139,-160 2139,-160 1670.72,-160 1670.72,-160"/>
<polygon fill="black" stroke="black" points="1670.72,-156.5 1660.72,-160 1670.72,-163.5 1670.72,-156.5"/>
</g>
<!-- OrderForAdditionalUsersComponent -->
<g id="node7" class="node">
<title>OrderForAdditionalUsersComponent</title>
<polygon fill="#ffffb3" stroke="black" points="2012.67,-122 1787.33,-122 1787.33,-86 2012.67,-86 2012.67,-122"/>
<text text-anchor="middle" x="1900" y="-99.8" font-family="Times,serif" font-size="14.00">OrderForAdditionalUsersComponent</text>
</g>
<!-- OrderForAdditionalUsersComponent&#45;&gt;ShoppingCartModule -->
<g id="edge7" class="edge">
<title>OrderForAdditionalUsersComponent&#45;&gt;ShoppingCartModule</title>
<path fill="none" stroke="black" d="M1900,-122.19C1900,-137.18 1900,-156 1900,-156 1900,-156 1670.74,-156 1670.74,-156"/>
<polygon fill="black" stroke="black" points="1670.74,-152.5 1660.74,-156 1670.74,-159.5 1670.74,-152.5"/>
</g>
<!-- ShoppingCartComponent -->
<g id="node8" class="node">
<title>ShoppingCartComponent</title>
<polygon fill="#ffffb3" stroke="black" points="1769.61,-122 1610.39,-122 1610.39,-86 1769.61,-86 1769.61,-122"/>
<text text-anchor="middle" x="1690" y="-99.8" font-family="Times,serif" font-size="14.00">ShoppingCartComponent</text>
</g>
<!-- ShoppingCartComponent&#45;&gt;ShoppingCartModule -->
<g id="edge8" class="edge">
<title>ShoppingCartComponent&#45;&gt;ShoppingCartModule</title>
<path fill="none" stroke="black" d="M1635.55,-122.11C1635.55,-122.11 1635.55,-140.99 1635.55,-140.99"/>
<polygon fill="black" stroke="black" points="1632.05,-140.99 1635.55,-150.99 1639.05,-140.99 1632.05,-140.99"/>
</g>
<!-- ShoppingCartEmptyComponent -->
<g id="node9" class="node">
<title>ShoppingCartEmptyComponent</title>
<polygon fill="#ffffb3" stroke="black" points="1592.44,-122 1395.56,-122 1395.56,-86 1592.44,-86 1592.44,-122"/>
<text text-anchor="middle" x="1494" y="-99.8" font-family="Times,serif" font-size="14.00">ShoppingCartEmptyComponent</text>
</g>
<!-- ShoppingCartEmptyComponent&#45;&gt;ShoppingCartModule -->
<g id="edge9" class="edge">
<title>ShoppingCartEmptyComponent&#45;&gt;ShoppingCartModule</title>
<path fill="none" stroke="black" d="M1557.78,-122.11C1557.78,-122.11 1557.78,-140.99 1557.78,-140.99"/>
<polygon fill="black" stroke="black" points="1554.28,-140.99 1557.78,-150.99 1561.28,-140.99 1554.28,-140.99"/>
</g>
<!-- ShoppingCartForLaterComponent -->
<g id="node10" class="node">
<title>ShoppingCartForLaterComponent</title>
<polygon fill="#ffffb3" stroke="black" points="1378.08,-122 1169.92,-122 1169.92,-86 1378.08,-86 1378.08,-122"/>
<text text-anchor="middle" x="1274" y="-99.8" font-family="Times,serif" font-size="14.00">ShoppingCartForLaterComponent</text>
</g>
<!-- ShoppingCartForLaterComponent&#45;&gt;ShoppingCartModule -->
<g id="edge10" class="edge">
<title>ShoppingCartForLaterComponent&#45;&gt;ShoppingCartModule</title>
<path fill="none" stroke="black" d="M1274,-122.19C1274,-137.18 1274,-156 1274,-156 1274,-156 1513,-156 1513,-156"/>
<polygon fill="black" stroke="black" points="1513,-159.5 1523,-156 1513,-152.5 1513,-159.5"/>
</g>
<!-- ShoppingCartSubmitWarningsDialog -->
<g id="node11" class="node">
<title>ShoppingCartSubmitWarningsDialog</title>
<polygon fill="#ffffb3" stroke="black" points="1152.26,-122 925.74,-122 925.74,-86 1152.26,-86 1152.26,-122"/>
<text text-anchor="middle" x="1039" y="-99.8" font-family="Times,serif" font-size="14.00">ShoppingCartSubmitWarningsDialog</text>
</g>
<!-- ShoppingCartSubmitWarningsDialog&#45;&gt;ShoppingCartModule -->
<g id="edge11" class="edge">
<title>ShoppingCartSubmitWarningsDialog&#45;&gt;ShoppingCartModule</title>
<path fill="none" stroke="black" d="M1039,-122.03C1039,-138.4 1039,-160 1039,-160 1039,-160 1513.08,-160 1513.08,-160"/>
<polygon fill="black" stroke="black" points="1513.08,-163.5 1523.08,-160 1513.08,-156.5 1513.08,-163.5"/>
</g>
<!-- ItshopPatternModule -->
<g id="node13" class="node">
<title>ItshopPatternModule</title>
<polygon fill="#8dd3c7" stroke="black" points="902.2,-122 899.2,-126 878.2,-126 875.2,-122 767.8,-122 767.8,-86 902.2,-86 902.2,-122"/>
<text text-anchor="middle" x="835" y="-99.8" font-family="Times,serif" font-size="14.00">ItshopPatternModule</text>
</g>
<!-- ItshopPatternModule&#45;&gt;ShoppingCartModule -->
<g id="edge12" class="edge">
<title>ItshopPatternModule&#45;&gt;ShoppingCartModule</title>
<path fill="none" stroke="black" d="M835,-122.3C835,-140.27 835,-165 835,-165 835,-165 1513.15,-165 1513.15,-165"/>
<polygon fill="black" stroke="black" points="1513.15,-168.5 1523.15,-165 1513.15,-161.5 1513.15,-168.5"/>
</g>
<!-- ShoppingCartValidationDetailModule -->
<g id="node14" class="node">
<title>ShoppingCartValidationDetailModule</title>
<polygon fill="#8dd3c7" stroke="black" points="750.13,-122 747.13,-126 726.13,-126 723.13,-122 519.87,-122 519.87,-86 750.13,-86 750.13,-122"/>
<text text-anchor="middle" x="635" y="-99.8" font-family="Times,serif" font-size="14.00">ShoppingCartValidationDetailModule</text>
</g>
<!-- ShoppingCartValidationDetailModule&#45;&gt;ShoppingCartModule -->
<g id="edge13" class="edge">
<title>ShoppingCartValidationDetailModule&#45;&gt;ShoppingCartModule</title>
<path fill="none" stroke="black" d="M635,-122.11C635,-141.34 635,-169 635,-169 635,-169 1513.17,-169 1513.17,-169"/>
<polygon fill="black" stroke="black" points="1513.17,-172.5 1523.17,-169 1513.17,-165.5 1513.17,-172.5"/>
</g>
<!-- UserModule -->
<g id="node15" class="node">
<title>UserModule</title>
<polygon fill="#8dd3c7" stroke="black" points="501.98,-122 498.98,-126 477.98,-126 474.98,-122 416.02,-122 416.02,-86 501.98,-86 501.98,-122"/>
<text text-anchor="middle" x="459" y="-99.8" font-family="Times,serif" font-size="14.00">UserModule</text>
</g>
<!-- UserModule&#45;&gt;ShoppingCartModule -->
<g id="edge14" class="edge">
<title>UserModule&#45;&gt;ShoppingCartModule</title>
<path fill="none" stroke="black" d="M459,-122.03C459,-142.77 459,-174 459,-174 459,-174 1513.25,-174 1513.25,-174"/>
<polygon fill="black" stroke="black" points="1513.25,-177.5 1523.25,-174 1513.25,-170.5 1513.25,-177.5"/>
</g>
<!-- CartItemLogicService -->
<g id="node16" class="node">
<title>CartItemLogicService</title>
<ellipse fill="#fdb462" stroke="black" cx="295" cy="-104" rx="96.68" ry="18"/>
<text text-anchor="middle" x="295" y="-99.8" font-family="Times,serif" font-size="14.00">CartItemLogicService</text>
</g>
<!-- CartItemLogicService&#45;&gt;ShoppingCartModule -->
<g id="edge15" class="edge">
<title>CartItemLogicService&#45;&gt;ShoppingCartModule</title>
<path fill="none" stroke="black" d="M295,-122.29C295,-144.21 295,-178 295,-178 295,-178 1513.18,-178 1513.18,-178"/>
<polygon fill="black" stroke="black" points="1513.18,-181.5 1523.18,-178 1513.18,-174.5 1513.18,-181.5"/>
</g>
<!-- CartItemsService -->
<g id="node17" class="node">
<title>CartItemsService</title>
<ellipse fill="#fdb462" stroke="black" cx="102" cy="-104" rx="78.14" ry="18"/>
<text text-anchor="middle" x="102" y="-99.8" font-family="Times,serif" font-size="14.00">CartItemsService</text>
</g>
<!-- CartItemsService&#45;&gt;ShoppingCartModule -->
<g id="edge16" class="edge">
<title>CartItemsService&#45;&gt;ShoppingCartModule</title>
<path fill="none" stroke="black" d="M102,-122.32C102,-145.66 102,-183 102,-183 102,-183 1513.12,-183 1513.12,-183"/>
<polygon fill="black" stroke="black" points="1513.12,-186.5 1523.12,-183 1513.12,-179.5 1513.12,-186.5"/>
</g>
</g>
</svg>
