<?xml version="1.0" encoding="UTF-8" standalone="no"?>
<!DOCTYPE svg PUBLIC "-//W3C//DTD SVG 1.1//EN"
 "http://www.w3.org/Graphics/SVG/1.1/DTD/svg11.dtd">
<!-- Generated by graphviz version 2.47.0 (20210316.0004)
 -->
<!-- Title: dependencies Pages: 1 -->
<svg width="872pt" height="211pt"
 viewBox="0.00 0.00 872.00 211.00" xmlns="http://www.w3.org/2000/svg" xmlns:xlink="http://www.w3.org/1999/xlink">
<g id="graph0" class="graph" transform="scale(1 1) rotate(0) translate(4 207)">
<title>dependencies</title>
<polygon fill="white" stroke="transparent" points="-4,4 -4,-207 868,-207 868,4 -4,4"/>
<text text-anchor="start" x="411.01" y="-42.4" font-family="Times-12" font-weight="bold" font-size="14.00">Legend</text>
<polygon fill="#ffffb3" stroke="transparent" points="198,-10 198,-30 218,-30 218,-10 198,-10"/>
<text text-anchor="start" x="221.63" y="-15.4" font-family="Times-12" font-size="14.00"> &#160;Declarations</text>
<polygon fill="#8dd3c7" stroke="transparent" points="311,-10 311,-30 331,-30 331,-10 311,-10"/>
<text text-anchor="start" x="334.73" y="-15.4" font-family="Times-12" font-size="14.00"> &#160;Module</text>
<polygon fill="#80b1d3" stroke="transparent" points="397,-10 397,-30 417,-30 417,-10 397,-10"/>
<text text-anchor="start" x="420.78" y="-15.4" font-family="Times-12" font-size="14.00"> &#160;Bootstrap</text>
<polygon fill="#fdb462" stroke="transparent" points="494,-10 494,-30 514,-30 514,-10 494,-10"/>
<text text-anchor="start" x="517.67" y="-15.4" font-family="Times-12" font-size="14.00"> &#160;Providers</text>
<polygon fill="#fb8072" stroke="transparent" points="590,-10 590,-30 610,-30 610,-10 590,-10"/>
<text text-anchor="start" x="613.73" y="-15.4" font-family="Times-12" font-size="14.00"> &#160;Exports</text>
<g id="clust1" class="cluster">
<title>cluster_ServiceItemsEditModule</title>
<polygon fill="none" stroke="black" stroke-dasharray="1,5" points="8,-70 8,-195 856,-195 856,-70 8,-70"/>
</g>
<g id="clust5" class="cluster">
<title>cluster_ServiceItemsEditModule_imports</title>
<polygon fill="none" stroke="black" points="468,-78 468,-130 848,-130 848,-78 468,-78"/>
</g>
<g id="clust2" class="cluster">
<title>cluster_ServiceItemsEditModule_declarations</title>
<polygon fill="none" stroke="black" points="16,-78 16,-130 460,-130 460,-78 16,-78"/>
</g>
<!-- ServiceItemsEditComponent -->
<g id="node1" class="node">
<title>ServiceItemsEditComponent</title>
<polygon fill="#ffffb3" stroke="black" points="451.74,-122 274.26,-122 274.26,-86 451.74,-86 451.74,-122"/>
<text text-anchor="middle" x="363" y="-99.8" font-family="Times,serif" font-size="14.00">ServiceItemsEditComponent</text>
</g>
<!-- ServiceItemsEditModule -->
<g id="node3" class="node">
<title>ServiceItemsEditModule</title>
<polygon fill="#8dd3c7" stroke="black" points="543.96,-187 540.96,-191 519.96,-191 516.96,-187 388.04,-187 388.04,-151 543.96,-151 543.96,-187"/>
<text text-anchor="middle" x="466" y="-164.8" font-family="Times,serif" font-size="14.00">ServiceItemsEditModule</text>
</g>
<!-- ServiceItemsEditComponent&#45;&gt;ServiceItemsEditModule -->
<g id="edge1" class="edge">
<title>ServiceItemsEditComponent&#45;&gt;ServiceItemsEditModule</title>
<path fill="none" stroke="black" d="M419.95,-122.11C419.95,-122.11 419.95,-140.99 419.95,-140.99"/>
<polygon fill="black" stroke="black" points="416.45,-140.99 419.95,-150.99 423.45,-140.99 416.45,-140.99"/>
</g>
<!-- ServiceItemsEditSidesheetComponent -->
<g id="node2" class="node">
<title>ServiceItemsEditSidesheetComponent</title>
<polygon fill="#ffffb3" stroke="black" points="255.9,-122 24.1,-122 24.1,-86 255.9,-86 255.9,-122"/>
<text text-anchor="middle" x="140" y="-99.8" font-family="Times,serif" font-size="14.00">ServiceItemsEditSidesheetComponent</text>
</g>
<!-- ServiceItemsEditSidesheetComponent&#45;&gt;ServiceItemsEditModule -->
<g id="edge2" class="edge">
<title>ServiceItemsEditSidesheetComponent&#45;&gt;ServiceItemsEditModule</title>
<path fill="none" stroke="black" d="M140,-122.11C140,-141.34 140,-169 140,-169 140,-169 377.91,-169 377.91,-169"/>
<polygon fill="black" stroke="black" points="377.91,-172.5 387.91,-169 377.91,-165.5 377.91,-172.5"/>
</g>
<!-- ObjectHyperviewModule -->
<g id="node4" class="node">
<title>ObjectHyperviewModule</title>
<polygon fill="#8dd3c7" stroke="black" points="839.56,-122 836.56,-126 815.56,-126 812.56,-122 680.44,-122 680.44,-86 839.56,-86 839.56,-122"/>
<text text-anchor="middle" x="760" y="-99.8" font-family="Times,serif" font-size="14.00">ObjectHyperviewModule</text>
</g>
<!-- ObjectHyperviewModule&#45;&gt;ServiceItemsEditModule -->
<g id="edge3" class="edge">
<title>ObjectHyperviewModule&#45;&gt;ServiceItemsEditModule</title>
<path fill="none" stroke="black" d="M760,-122.11C760,-141.34 760,-169 760,-169 760,-169 554.01,-169 554.01,-169"/>
<polygon fill="black" stroke="black" points="554.01,-165.5 544.01,-169 554.01,-172.5 554.01,-165.5"/>
</g>
<!-- ServiceItemsEditFormModule -->
<g id="node5" class="node">
<title>ServiceItemsEditFormModule</title>
<polygon fill="#8dd3c7" stroke="black" points="662.3,-122 659.3,-126 638.3,-126 635.3,-122 475.7,-122 475.7,-86 662.3,-86 662.3,-122"/>
<text text-anchor="middle" x="569" y="-99.8" font-family="Times,serif" font-size="14.00">ServiceItemsEditFormModule</text>
</g>
<!-- ServiceItemsEditFormModule&#45;&gt;ServiceItemsEditModule -->
<g id="edge4" class="edge">
<title>ServiceItemsEditFormModule&#45;&gt;ServiceItemsEditModule</title>
<path fill="none" stroke="black" d="M509.92,-122.11C509.92,-122.11 509.92,-140.99 509.92,-140.99"/>
<polygon fill="black" stroke="black" points="506.42,-140.99 509.92,-150.99 513.42,-140.99 506.42,-140.99"/>
</g>
</g>
</svg>
