<?xml version="1.0" encoding="UTF-8" standalone="no"?>
<!DOCTYPE svg PUBLIC "-//W3C//DTD SVG 1.1//EN"
 "http://www.w3.org/Graphics/SVG/1.1/DTD/svg11.dtd">
<!-- Generated by graphviz version 2.47.0 (20210316.0004)
 -->
<!-- Title: dependencies Pages: 1 -->
<svg width="872pt" height="211pt"
 viewBox="0.00 0.00 872.00 211.00" xmlns="http://www.w3.org/2000/svg" xmlns:xlink="http://www.w3.org/1999/xlink">
<g id="graph0" class="graph" transform="scale(1 1) rotate(0) translate(4 207)">
<title>dependencies</title>
<polygon fill="white" stroke="transparent" points="-4,4 -4,-207 868,-207 868,4 -4,4"/>
<text text-anchor="start" x="411.01" y="-42.4" font-family="Times-12" font-weight="bold" font-size="14.00">Legend</text>
<polygon fill="#ffffb3" stroke="transparent" points="198,-10 198,-30 218,-30 218,-10 198,-10"/>
<text text-anchor="start" x="221.63" y="-15.4" font-family="Times-12" font-size="14.00"> &#160;Declarations</text>
<polygon fill="#8dd3c7" stroke="transparent" points="311,-10 311,-30 331,-30 331,-10 311,-10"/>
<text text-anchor="start" x="334.73" y="-15.4" font-family="Times-12" font-size="14.00"> &#160;Module</text>
<polygon fill="#80b1d3" stroke="transparent" points="397,-10 397,-30 417,-30 417,-10 397,-10"/>
<text text-anchor="start" x="420.78" y="-15.4" font-family="Times-12" font-size="14.00"> &#160;Bootstrap</text>
<polygon fill="#fdb462" stroke="transparent" points="494,-10 494,-30 514,-30 514,-10 494,-10"/>
<text text-anchor="start" x="517.67" y="-15.4" font-family="Times-12" font-size="14.00"> &#160;Providers</text>
<polygon fill="#fb8072" stroke="transparent" points="590,-10 590,-30 610,-30 610,-10 590,-10"/>
<text text-anchor="start" x="613.73" y="-15.4" font-family="Times-12" font-size="14.00"> &#160;Exports</text>
<g id="clust1" class="cluster">
<title>cluster_ServiceItemsEditModule</title>
<polygon fill="none" stroke="black" stroke-dasharray="1,5" points="8,-70 8,-195 856,-195 856,-70 8,-70"/>
</g>
<g id="clust2" class="cluster">
<title>cluster_ServiceItemsEditModule_declarations</title>
<polygon fill="none" stroke="black" points="404,-78 404,-130 848,-130 848,-78 404,-78"/>
</g>
<g id="clust5" class="cluster">
<title>cluster_ServiceItemsEditModule_imports</title>
<polygon fill="none" stroke="black" points="16,-78 16,-130 396,-130 396,-78 16,-78"/>
</g>
<!-- ServiceItemsEditComponent -->
<g id="node1" class="node">
<title>ServiceItemsEditComponent</title>
<polygon fill="#ffffb3" stroke="black" points="839.74,-122 662.26,-122 662.26,-86 839.74,-86 839.74,-122"/>
<text text-anchor="middle" x="751" y="-99.8" font-family="Times,serif" font-size="14.00">ServiceItemsEditComponent</text>
</g>
<!-- ServiceItemsEditModule -->
<g id="node3" class="node">
<title>ServiceItemsEditModule</title>
<polygon fill="#8dd3c7" stroke="black" points="495.96,-187 492.96,-191 471.96,-191 468.96,-187 340.04,-187 340.04,-151 495.96,-151 495.96,-187"/>
<text text-anchor="middle" x="418" y="-164.8" font-family="Times,serif" font-size="14.00">ServiceItemsEditModule</text>
</g>
<!-- ServiceItemsEditComponent&#45;&gt;ServiceItemsEditModule -->
<g id="edge1" class="edge">
<title>ServiceItemsEditComponent&#45;&gt;ServiceItemsEditModule</title>
<path fill="none" stroke="black" d="M751,-122.11C751,-141.34 751,-169 751,-169 751,-169 506.07,-169 506.07,-169"/>
<polygon fill="black" stroke="black" points="506.07,-165.5 496.07,-169 506.07,-172.5 506.07,-165.5"/>
</g>
<!-- ServiceItemsEditSidesheetComponent -->
<g id="node2" class="node">
<title>ServiceItemsEditSidesheetComponent</title>
<polygon fill="#ffffb3" stroke="black" points="643.9,-122 412.1,-122 412.1,-86 643.9,-86 643.9,-122"/>
<text text-anchor="middle" x="528" y="-99.8" font-family="Times,serif" font-size="14.00">ServiceItemsEditSidesheetComponent</text>
</g>
<!-- ServiceItemsEditSidesheetComponent&#45;&gt;ServiceItemsEditModule -->
<g id="edge2" class="edge">
<title>ServiceItemsEditSidesheetComponent&#45;&gt;ServiceItemsEditModule</title>
<path fill="none" stroke="black" d="M454.14,-122.11C454.14,-122.11 454.14,-140.99 454.14,-140.99"/>
<polygon fill="black" stroke="black" points="450.64,-140.99 454.14,-150.99 457.64,-140.99 450.64,-140.99"/>
</g>
<!-- ObjectHyperviewModule -->
<g id="node4" class="node">
<title>ObjectHyperviewModule</title>
<polygon fill="#8dd3c7" stroke="black" points="387.56,-122 384.56,-126 363.56,-126 360.56,-122 228.44,-122 228.44,-86 387.56,-86 387.56,-122"/>
<text text-anchor="middle" x="308" y="-99.8" font-family="Times,serif" font-size="14.00">ObjectHyperviewModule</text>
</g>
<!-- ObjectHyperviewModule&#45;&gt;ServiceItemsEditModule -->
<g id="edge3" class="edge">
<title>ObjectHyperviewModule&#45;&gt;ServiceItemsEditModule</title>
<path fill="none" stroke="black" d="M363.77,-122.11C363.77,-122.11 363.77,-140.99 363.77,-140.99"/>
<polygon fill="black" stroke="black" points="360.27,-140.99 363.77,-150.99 367.27,-140.99 360.27,-140.99"/>
</g>
<!-- ServiceItemsEditFormModule -->
<g id="node5" class="node">
<title>ServiceItemsEditFormModule</title>
<polygon fill="#8dd3c7" stroke="black" points="210.3,-122 207.3,-126 186.3,-126 183.3,-122 23.7,-122 23.7,-86 210.3,-86 210.3,-122"/>
<text text-anchor="middle" x="117" y="-99.8" font-family="Times,serif" font-size="14.00">ServiceItemsEditFormModule</text>
</g>
<!-- ServiceItemsEditFormModule&#45;&gt;ServiceItemsEditModule -->
<g id="edge4" class="edge">
<title>ServiceItemsEditFormModule&#45;&gt;ServiceItemsEditModule</title>
<path fill="none" stroke="black" d="M117,-122.11C117,-141.34 117,-169 117,-169 117,-169 329.7,-169 329.7,-169"/>
<polygon fill="black" stroke="black" points="329.7,-172.5 339.7,-169 329.7,-165.5 329.7,-172.5"/>
</g>
</g>
</svg>
