<?xml version="1.0" encoding="UTF-8" standalone="no"?>
<!DOCTYPE svg PUBLIC "-//W3C//DTD SVG 1.1//EN"
 "http://www.w3.org/Graphics/SVG/1.1/DTD/svg11.dtd">
<!-- Generated by graphviz version 2.47.0 (20210316.0004)
 -->
<!-- Title: dependencies Pages: 1 -->
<svg width="2051pt" height="284pt"
 viewBox="0.00 0.00 2051.00 284.00" xmlns="http://www.w3.org/2000/svg" xmlns:xlink="http://www.w3.org/1999/xlink">
<g id="graph0" class="graph" transform="scale(1 1) rotate(0) translate(4 280)">
<title>dependencies</title>
<polygon fill="white" stroke="transparent" points="-4,4 -4,-280 2047,-280 2047,4 -4,4"/>
<text text-anchor="start" x="1000.51" y="-42.4" font-family="Times-12" font-weight="bold" font-size="14.00">Legend</text>
<polygon fill="#ffffb3" stroke="transparent" points="787.5,-10 787.5,-30 807.5,-30 807.5,-10 787.5,-10"/>
<text text-anchor="start" x="811.13" y="-15.4" font-family="Times-12" font-size="14.00"> &#160;Declarations</text>
<polygon fill="#8dd3c7" stroke="transparent" points="900.5,-10 900.5,-30 920.5,-30 920.5,-10 900.5,-10"/>
<text text-anchor="start" x="924.23" y="-15.4" font-family="Times-12" font-size="14.00"> &#160;Module</text>
<polygon fill="#80b1d3" stroke="transparent" points="986.5,-10 986.5,-30 1006.5,-30 1006.5,-10 986.5,-10"/>
<text text-anchor="start" x="1010.28" y="-15.4" font-family="Times-12" font-size="14.00"> &#160;Bootstrap</text>
<polygon fill="#fdb462" stroke="transparent" points="1083.5,-10 1083.5,-30 1103.5,-30 1103.5,-10 1083.5,-10"/>
<text text-anchor="start" x="1107.17" y="-15.4" font-family="Times-12" font-size="14.00"> &#160;Providers</text>
<polygon fill="#fb8072" stroke="transparent" points="1179.5,-10 1179.5,-30 1199.5,-30 1199.5,-10 1179.5,-10"/>
<text text-anchor="start" x="1203.23" y="-15.4" font-family="Times-12" font-size="14.00"> &#160;Exports</text>
<g id="clust1" class="cluster">
<title>cluster_DataTableModule</title>
<polygon fill="none" stroke="black" stroke-dasharray="1,5" points="8,-70 8,-268 2035,-268 2035,-70 8,-70"/>
</g>
<g id="clust12" class="cluster">
<title>cluster_DataTableModule_exports</title>
<polygon fill="none" stroke="black" points="541,-208 541,-260 1323,-260 1323,-208 541,-208"/>
</g>
<g id="clust2" class="cluster">
<title>cluster_DataTableModule_declarations</title>
<polygon fill="none" stroke="black" points="470,-78 470,-130 2027,-130 2027,-78 470,-78"/>
</g>
<g id="clust11" class="cluster">
<title>cluster_DataTableModule_imports</title>
<polygon fill="none" stroke="black" points="16,-78 16,-130 462,-130 462,-78 16,-78"/>
</g>
<!-- DataTableCellComponent -->
<g id="node1" class="node">
<title>DataTableCellComponent</title>
<polygon fill="#ffffb3" stroke="black" points="2019.46,-122 1856.54,-122 1856.54,-86 2019.46,-86 2019.46,-122"/>
<text text-anchor="middle" x="1938" y="-99.8" font-family="Times,serif" font-size="14.00">DataTableCellComponent</text>
</g>
<!-- DataTableModule -->
<g id="node9" class="node">
<title>DataTableModule</title>
<polygon fill="#8dd3c7" stroke="black" points="992.85,-187 989.85,-191 968.85,-191 965.85,-187 875.15,-187 875.15,-151 992.85,-151 992.85,-187"/>
<text text-anchor="middle" x="934" y="-164.8" font-family="Times,serif" font-size="14.00">DataTableModule</text>
</g>
<!-- DataTableCellComponent&#45;&gt;DataTableModule -->
<g id="edge1" class="edge">
<title>DataTableCellComponent&#45;&gt;DataTableModule</title>
<path fill="none" stroke="black" d="M1938,-122.04C1938,-143.66 1938,-177 1938,-177 1938,-177 1003.06,-177 1003.06,-177"/>
<polygon fill="black" stroke="black" points="1003.06,-173.5 993.06,-177 1003.06,-180.5 1003.06,-173.5"/>
</g>
<!-- DataTableColumnComponent -->
<g id="node2" class="node">
<title>DataTableColumnComponent</title>
<polygon fill="#ffffb3" stroke="black" points="1838.25,-122 1653.75,-122 1653.75,-86 1838.25,-86 1838.25,-122"/>
<text text-anchor="middle" x="1746" y="-99.8" font-family="Times,serif" font-size="14.00">DataTableColumnComponent</text>
</g>
<!-- DataTableColumnComponent&#45;&gt;DataTableModule -->
<g id="edge2" class="edge">
<title>DataTableColumnComponent&#45;&gt;DataTableModule</title>
<path fill="none" stroke="black" d="M1746,-122.22C1746,-142.37 1746,-172 1746,-172 1746,-172 1003.05,-172 1003.05,-172"/>
<polygon fill="black" stroke="black" points="1003.05,-168.5 993.05,-172 1003.05,-175.5 1003.05,-168.5"/>
</g>
<!-- DataTableComponent -->
<g id="node3" class="node">
<title>DataTableComponent</title>
<polygon fill="#ffffb3" stroke="black" points="1635.63,-122 1496.37,-122 1496.37,-86 1635.63,-86 1635.63,-122"/>
<text text-anchor="middle" x="1566" y="-99.8" font-family="Times,serif" font-size="14.00">DataTableComponent</text>
</g>
<!-- DataTableComponent&#45;&gt;DataTableModule -->
<g id="edge3" class="edge">
<title>DataTableComponent&#45;&gt;DataTableModule</title>
<path fill="none" stroke="black" d="M1566,-122.22C1566,-140.83 1566,-167 1566,-167 1566,-167 1002.89,-167 1002.89,-167"/>
<polygon fill="black" stroke="black" points="1002.89,-163.5 992.89,-167 1002.89,-170.5 1002.89,-163.5"/>
</g>
<!-- DataTableDisplayCellComponent -->
<g id="node4" class="node">
<title>DataTableDisplayCellComponent</title>
<polygon fill="#ffffb3" stroke="black" points="1478.01,-122 1271.99,-122 1271.99,-86 1478.01,-86 1478.01,-122"/>
<text text-anchor="middle" x="1375" y="-99.8" font-family="Times,serif" font-size="14.00">DataTableDisplayCellComponent</text>
</g>
<!-- DataTableDisplayCellComponent&#45;&gt;DataTableModule -->
<g id="edge4" class="edge">
<title>DataTableDisplayCellComponent&#45;&gt;DataTableModule</title>
<path fill="none" stroke="black" d="M1293.43,-122.03C1293.43,-139.06 1293.43,-162 1293.43,-162 1293.43,-162 1002.95,-162 1002.95,-162"/>
<polygon fill="black" stroke="black" points="1002.95,-158.5 992.95,-162 1002.95,-165.5 1002.95,-158.5"/>
</g>
<!-- DataTableGenericColumnComponent -->
<g id="node5" class="node">
<title>DataTableGenericColumnComponent</title>
<polygon fill="#ffffb3" stroke="black" points="1253.55,-122 1024.45,-122 1024.45,-86 1253.55,-86 1253.55,-122"/>
<text text-anchor="middle" x="1139" y="-99.8" font-family="Times,serif" font-size="14.00">DataTableGenericColumnComponent</text>
</g>
<!-- DataTableGenericColumnComponent&#45;&gt;DataTableModule -->
<g id="edge5" class="edge">
<title>DataTableGenericColumnComponent&#45;&gt;DataTableModule</title>
<path fill="none" stroke="black" d="M1066.52,-122.24C1066.52,-137.57 1066.52,-157 1066.52,-157 1066.52,-157 1002.9,-157 1002.9,-157"/>
<polygon fill="black" stroke="black" points="1002.9,-153.5 992.9,-157 1002.9,-160.5 1002.9,-153.5"/>
</g>
<!-- ExcludedColumnsPipe -->
<g id="node6" class="node">
<title>ExcludedColumnsPipe</title>
<polygon fill="#ffffb3" stroke="black" points="1006.32,-122 861.68,-122 861.68,-86 1006.32,-86 1006.32,-122"/>
<text text-anchor="middle" x="934" y="-99.8" font-family="Times,serif" font-size="14.00">ExcludedColumnsPipe</text>
</g>
<!-- ExcludedColumnsPipe&#45;&gt;DataTableModule -->
<g id="edge6" class="edge">
<title>ExcludedColumnsPipe&#45;&gt;DataTableModule</title>
<path fill="none" stroke="black" d="M934,-122.11C934,-122.11 934,-140.99 934,-140.99"/>
<polygon fill="black" stroke="black" points="930.5,-140.99 934,-150.99 937.5,-140.99 930.5,-140.99"/>
</g>
<!-- GroupPaginatorComponent -->
<g id="node7" class="node">
<title>GroupPaginatorComponent</title>
<polygon fill="#ffffb3" stroke="black" points="843.25,-122 672.75,-122 672.75,-86 843.25,-86 843.25,-122"/>
<text text-anchor="middle" x="758" y="-99.8" font-family="Times,serif" font-size="14.00">GroupPaginatorComponent</text>
</g>
<!-- GroupPaginatorComponent&#45;&gt;DataTableModule -->
<g id="edge7" class="edge">
<title>GroupPaginatorComponent&#45;&gt;DataTableModule</title>
<path fill="none" stroke="black" d="M779.05,-122.24C779.05,-137.57 779.05,-157 779.05,-157 779.05,-157 864.98,-157 864.98,-157"/>
<polygon fill="black" stroke="black" points="864.98,-160.5 874.98,-157 864.98,-153.5 864.98,-160.5"/>
</g>
<!-- TableAccessiblilityDirective -->
<g id="node8" class="node">
<title>TableAccessiblilityDirective</title>
<polygon fill="#ffffb3" stroke="black" points="654.44,-122 477.56,-122 477.56,-86 654.44,-86 654.44,-122"/>
<text text-anchor="middle" x="566" y="-99.8" font-family="Times,serif" font-size="14.00">TableAccessiblilityDirective</text>
</g>
<!-- TableAccessiblilityDirective&#45;&gt;DataTableModule -->
<g id="edge8" class="edge">
<title>TableAccessiblilityDirective&#45;&gt;DataTableModule</title>
<path fill="none" stroke="black" d="M601.78,-122.03C601.78,-139.06 601.78,-162 601.78,-162 601.78,-162 864.99,-162 864.99,-162"/>
<polygon fill="black" stroke="black" points="864.99,-165.5 874.99,-162 864.99,-158.5 864.99,-165.5"/>
</g>
<!-- DataTableColumnComponent  -->
<g id="node13" class="node">
<title>DataTableColumnComponent </title>
<polygon fill="#fb8072" stroke="black" points="1315.25,-252 1126.75,-252 1126.75,-216 1315.25,-216 1315.25,-252"/>
<text text-anchor="middle" x="1221" y="-229.8" font-family="Times,serif" font-size="14.00">DataTableColumnComponent </text>
</g>
<!-- DataTableModule&#45;&gt;DataTableColumnComponent  -->
<g id="edge12" class="edge">
<title>DataTableModule&#45;&gt;DataTableColumnComponent </title>
<path fill="none" stroke="black" stroke-dasharray="5,2" d="M993.1,-182C1068.76,-182 1190.2,-182 1190.2,-182 1190.2,-182 1190.2,-205.81 1190.2,-205.81"/>
<polygon fill="black" stroke="black" points="1186.7,-205.81 1190.2,-215.81 1193.7,-205.81 1186.7,-205.81"/>
</g>
<!-- DataTableComponent  -->
<g id="node14" class="node">
<title>DataTableComponent </title>
<polygon fill="#fb8072" stroke="black" points="1108.63,-252 965.37,-252 965.37,-216 1108.63,-216 1108.63,-252"/>
<text text-anchor="middle" x="1037" y="-229.8" font-family="Times,serif" font-size="14.00">DataTableComponent </text>
</g>
<!-- DataTableModule&#45;&gt;DataTableComponent  -->
<g id="edge13" class="edge">
<title>DataTableModule&#45;&gt;DataTableComponent </title>
<path fill="none" stroke="black" stroke-dasharray="5,2" d="M979.18,-187.11C979.18,-187.11 979.18,-205.99 979.18,-205.99"/>
<polygon fill="black" stroke="black" points="975.68,-205.99 979.18,-215.99 982.68,-205.99 975.68,-205.99"/>
</g>
<!-- DataTableGenericColumnComponent  -->
<g id="node15" class="node">
<title>DataTableGenericColumnComponent </title>
<polygon fill="#fb8072" stroke="black" points="947.05,-252 714.95,-252 714.95,-216 947.05,-216 947.05,-252"/>
<text text-anchor="middle" x="831" y="-229.8" font-family="Times,serif" font-size="14.00">DataTableGenericColumnComponent </text>
</g>
<!-- DataTableModule&#45;&gt;DataTableGenericColumnComponent  -->
<g id="edge14" class="edge">
<title>DataTableModule&#45;&gt;DataTableGenericColumnComponent </title>
<path fill="none" stroke="black" stroke-dasharray="5,2" d="M911.18,-187.11C911.18,-187.11 911.18,-205.99 911.18,-205.99"/>
<polygon fill="black" stroke="black" points="907.68,-205.99 911.18,-215.99 914.68,-205.99 907.68,-205.99"/>
</g>
<!-- ExcludedColumnsPipe  -->
<g id="node16" class="node">
<title>ExcludedColumnsPipe </title>
<polygon fill="#fb8072" stroke="black" points="696.82,-252 549.18,-252 549.18,-216 696.82,-216 696.82,-252"/>
<text text-anchor="middle" x="623" y="-229.8" font-family="Times,serif" font-size="14.00">ExcludedColumnsPipe </text>
</g>
<!-- DataTableModule&#45;&gt;ExcludedColumnsPipe  -->
<g id="edge15" class="edge">
<title>DataTableModule&#45;&gt;ExcludedColumnsPipe </title>
<path fill="none" stroke="black" stroke-dasharray="5,2" d="M874.94,-182C801.23,-182 684.77,-182 684.77,-182 684.77,-182 684.77,-205.81 684.77,-205.81"/>
<polygon fill="black" stroke="black" points="681.27,-205.81 684.77,-215.81 688.27,-205.81 681.27,-205.81"/>
</g>
<!-- BusyIndicatorModule -->
<g id="node10" class="node">
<title>BusyIndicatorModule</title>
<polygon fill="#8dd3c7" stroke="black" points="454.36,-122 451.36,-126 430.36,-126 427.36,-122 315.64,-122 315.64,-86 454.36,-86 454.36,-122"/>
<text text-anchor="middle" x="385" y="-99.8" font-family="Times,serif" font-size="14.00">BusyIndicatorModule</text>
</g>
<!-- BusyIndicatorModule&#45;&gt;DataTableModule -->
<g id="edge9" class="edge">
<title>BusyIndicatorModule&#45;&gt;DataTableModule</title>
<path fill="none" stroke="black" d="M385,-122.22C385,-140.83 385,-167 385,-167 385,-167 864.99,-167 864.99,-167"/>
<polygon fill="black" stroke="black" points="864.99,-170.5 874.99,-167 864.99,-163.5 864.99,-170.5"/>
</g>
<!-- DataSourceToolbarModule -->
<g id="node11" class="node">
<title>DataSourceToolbarModule</title>
<polygon fill="#8dd3c7" stroke="black" points="297.67,-122 294.67,-126 273.67,-126 270.67,-122 128.33,-122 128.33,-86 297.67,-86 297.67,-122"/>
<text text-anchor="middle" x="213" y="-99.8" font-family="Times,serif" font-size="14.00">DataSourceToolbarModule</text>
</g>
<!-- DataSourceToolbarModule&#45;&gt;DataTableModule -->
<g id="edge10" class="edge">
<title>DataSourceToolbarModule&#45;&gt;DataTableModule</title>
<path fill="none" stroke="black" d="M213,-122.22C213,-142.37 213,-172 213,-172 213,-172 865,-172 865,-172"/>
<polygon fill="black" stroke="black" points="865,-175.5 875,-172 865,-168.5 865,-175.5"/>
</g>
<!-- DateModule -->
<g id="node12" class="node">
<title>DateModule</title>
<polygon fill="#8dd3c7" stroke="black" points="109.98,-122 106.98,-126 85.98,-126 82.98,-122 24.02,-122 24.02,-86 109.98,-86 109.98,-122"/>
<text text-anchor="middle" x="67" y="-99.8" font-family="Times,serif" font-size="14.00">DateModule</text>
</g>
<!-- DateModule&#45;&gt;DataTableModule -->
<g id="edge11" class="edge">
<title>DateModule&#45;&gt;DataTableModule</title>
<path fill="none" stroke="black" d="M67,-122.04C67,-143.66 67,-177 67,-177 67,-177 865.09,-177 865.09,-177"/>
<polygon fill="black" stroke="black" points="865.09,-180.5 875.09,-177 865.09,-173.5 865.09,-180.5"/>
</g>
</g>
</svg>
