<?xml version="1.0" encoding="UTF-8" standalone="no"?>
<!DOCTYPE svg PUBLIC "-//W3C//DTD SVG 1.1//EN"
 "http://www.w3.org/Graphics/SVG/1.1/DTD/svg11.dtd">
<!-- Generated by graphviz version 2.47.0 (20210316.0004)
 -->
<!-- Title: dependencies Pages: 1 -->
<svg width="1831pt" height="284pt"
 viewBox="0.00 0.00 1831.00 284.00" xmlns="http://www.w3.org/2000/svg" xmlns:xlink="http://www.w3.org/1999/xlink">
<g id="graph0" class="graph" transform="scale(1 1) rotate(0) translate(4 280)">
<title>dependencies</title>
<polygon fill="white" stroke="transparent" points="-4,4 -4,-280 1827,-280 1827,4 -4,4"/>
<text text-anchor="start" x="890.51" y="-42.4" font-family="Times-12" font-weight="bold" font-size="14.00">Legend</text>
<polygon fill="#ffffb3" stroke="transparent" points="677.5,-10 677.5,-30 697.5,-30 697.5,-10 677.5,-10"/>
<text text-anchor="start" x="701.13" y="-15.4" font-family="Times-12" font-size="14.00"> &#160;Declarations</text>
<polygon fill="#8dd3c7" stroke="transparent" points="790.5,-10 790.5,-30 810.5,-30 810.5,-10 790.5,-10"/>
<text text-anchor="start" x="814.23" y="-15.4" font-family="Times-12" font-size="14.00"> &#160;Module</text>
<polygon fill="#80b1d3" stroke="transparent" points="876.5,-10 876.5,-30 896.5,-30 896.5,-10 876.5,-10"/>
<text text-anchor="start" x="900.28" y="-15.4" font-family="Times-12" font-size="14.00"> &#160;Bootstrap</text>
<polygon fill="#fdb462" stroke="transparent" points="973.5,-10 973.5,-30 993.5,-30 993.5,-10 973.5,-10"/>
<text text-anchor="start" x="997.17" y="-15.4" font-family="Times-12" font-size="14.00"> &#160;Providers</text>
<polygon fill="#fb8072" stroke="transparent" points="1069.5,-10 1069.5,-30 1089.5,-30 1089.5,-10 1069.5,-10"/>
<text text-anchor="start" x="1093.23" y="-15.4" font-family="Times-12" font-size="14.00"> &#160;Exports</text>
<g id="clust1" class="cluster">
<title>cluster_SqlWizardModule</title>
<polygon fill="none" stroke="black" stroke-dasharray="1,5" points="8,-70 8,-268 1815,-268 1815,-70 8,-70"/>
</g>
<g id="clust11" class="cluster">
<title>cluster_SqlWizardModule_imports</title>
<polygon fill="none" stroke="black" points="1711,-78 1711,-130 1807,-130 1807,-78 1711,-78"/>
</g>
<g id="clust2" class="cluster">
<title>cluster_SqlWizardModule_declarations</title>
<polygon fill="none" stroke="black" points="202,-78 202,-130 1703,-130 1703,-78 202,-78"/>
</g>
<g id="clust14" class="cluster">
<title>cluster_SqlWizardModule_providers</title>
<polygon fill="none" stroke="black" points="16,-78 16,-130 194,-130 194,-78 16,-78"/>
</g>
<g id="clust12" class="cluster">
<title>cluster_SqlWizardModule_exports</title>
<polygon fill="none" stroke="black" points="875,-208 875,-260 1035,-260 1035,-208 875,-208"/>
</g>
<!-- ColumnSelectionComponent -->
<g id="node1" class="node">
<title>ColumnSelectionComponent</title>
<polygon fill="#ffffb3" stroke="black" points="1695.05,-122 1516.95,-122 1516.95,-86 1695.05,-86 1695.05,-122"/>
<text text-anchor="middle" x="1606" y="-99.8" font-family="Times,serif" font-size="14.00">ColumnSelectionComponent</text>
</g>
<!-- SqlWizardModule -->
<g id="node9" class="node">
<title>SqlWizardModule</title>
<polygon fill="#8dd3c7" stroke="black" points="1014.92,-187 1011.92,-191 990.92,-191 987.92,-187 895.08,-187 895.08,-151 1014.92,-151 1014.92,-187"/>
<text text-anchor="middle" x="955" y="-164.8" font-family="Times,serif" font-size="14.00">SqlWizardModule</text>
</g>
<!-- ColumnSelectionComponent&#45;&gt;SqlWizardModule -->
<g id="edge1" class="edge">
<title>ColumnSelectionComponent&#45;&gt;SqlWizardModule</title>
<path fill="none" stroke="black" d="M1606,-122.13C1606,-142.57 1606,-173 1606,-173 1606,-173 1024.79,-173 1024.79,-173"/>
<polygon fill="black" stroke="black" points="1024.79,-169.5 1014.79,-173 1024.79,-176.5 1024.79,-169.5"/>
</g>
<!-- DatePickerComponent -->
<g id="node2" class="node">
<title>DatePickerComponent</title>
<polygon fill="#ffffb3" stroke="black" points="1498.52,-122 1355.48,-122 1355.48,-86 1498.52,-86 1498.52,-122"/>
<text text-anchor="middle" x="1427" y="-99.8" font-family="Times,serif" font-size="14.00">DatePickerComponent</text>
</g>
<!-- DatePickerComponent&#45;&gt;SqlWizardModule -->
<g id="edge2" class="edge">
<title>DatePickerComponent&#45;&gt;SqlWizardModule</title>
<path fill="none" stroke="black" d="M1427,-122.27C1427,-140.56 1427,-166 1427,-166 1427,-166 1024.78,-166 1024.78,-166"/>
<polygon fill="black" stroke="black" points="1024.78,-162.5 1014.78,-166 1024.78,-169.5 1024.78,-162.5"/>
</g>
<!-- SimpleExpressionComponent -->
<g id="node3" class="node">
<title>SimpleExpressionComponent</title>
<polygon fill="#ffffb3" stroke="black" points="1337.71,-122 1154.29,-122 1154.29,-86 1337.71,-86 1337.71,-122"/>
<text text-anchor="middle" x="1246" y="-99.8" font-family="Times,serif" font-size="14.00">SimpleExpressionComponent</text>
</g>
<!-- SimpleExpressionComponent&#45;&gt;SqlWizardModule -->
<g id="edge3" class="edge">
<title>SimpleExpressionComponent&#45;&gt;SqlWizardModule</title>
<path fill="none" stroke="black" d="M1246,-122.01C1246,-138.05 1246,-159 1246,-159 1246,-159 1024.94,-159 1024.94,-159"/>
<polygon fill="black" stroke="black" points="1024.94,-155.5 1014.94,-159 1024.94,-162.5 1024.94,-155.5"/>
</g>
<!-- SingleExpressionComponent -->
<g id="node4" class="node">
<title>SingleExpressionComponent</title>
<polygon fill="#ffffb3" stroke="black" points="1136.82,-122 957.18,-122 957.18,-86 1136.82,-86 1136.82,-122"/>
<text text-anchor="middle" x="1047" y="-99.8" font-family="Times,serif" font-size="14.00">SingleExpressionComponent</text>
</g>
<!-- SingleExpressionComponent&#45;&gt;SqlWizardModule -->
<g id="edge4" class="edge">
<title>SingleExpressionComponent&#45;&gt;SqlWizardModule</title>
<path fill="none" stroke="black" d="M986.02,-122.11C986.02,-122.11 986.02,-140.99 986.02,-140.99"/>
<polygon fill="black" stroke="black" points="982.52,-140.99 986.02,-150.99 989.52,-140.99 982.52,-140.99"/>
</g>
<!-- SingleValueComponent -->
<g id="node5" class="node">
<title>SingleValueComponent</title>
<polygon fill="#ffffb3" stroke="black" points="939.04,-122 788.96,-122 788.96,-86 939.04,-86 939.04,-122"/>
<text text-anchor="middle" x="864" y="-99.8" font-family="Times,serif" font-size="14.00">SingleValueComponent</text>
</g>
<!-- SingleValueComponent&#45;&gt;SqlWizardModule -->
<g id="edge5" class="edge">
<title>SingleValueComponent&#45;&gt;SqlWizardModule</title>
<path fill="none" stroke="black" d="M917.28,-122.11C917.28,-122.11 917.28,-140.99 917.28,-140.99"/>
<polygon fill="black" stroke="black" points="913.78,-140.99 917.28,-150.99 920.78,-140.99 913.78,-140.99"/>
</g>
<!-- SqlWizardComponent -->
<g id="node6" class="node">
<title>SqlWizardComponent</title>
<polygon fill="#ffffb3" stroke="black" points="770.7,-122 629.3,-122 629.3,-86 770.7,-86 770.7,-122"/>
<text text-anchor="middle" x="700" y="-99.8" font-family="Times,serif" font-size="14.00">SqlWizardComponent</text>
</g>
<!-- SqlWizardComponent&#45;&gt;SqlWizardModule -->
<g id="edge6" class="edge">
<title>SqlWizardComponent&#45;&gt;SqlWizardModule</title>
<path fill="none" stroke="black" d="M700,-122.01C700,-138.05 700,-159 700,-159 700,-159 885.21,-159 885.21,-159"/>
<polygon fill="black" stroke="black" points="885.21,-162.5 895.21,-159 885.21,-155.5 885.21,-162.5"/>
</g>
<!-- TableSelectionComponent -->
<g id="node7" class="node">
<title>TableSelectionComponent</title>
<polygon fill="#ffffb3" stroke="black" points="611.8,-122 446.2,-122 446.2,-86 611.8,-86 611.8,-122"/>
<text text-anchor="middle" x="529" y="-99.8" font-family="Times,serif" font-size="14.00">TableSelectionComponent</text>
</g>
<!-- TableSelectionComponent&#45;&gt;SqlWizardModule -->
<g id="edge7" class="edge">
<title>TableSelectionComponent&#45;&gt;SqlWizardModule</title>
<path fill="none" stroke="black" d="M529,-122.27C529,-140.56 529,-166 529,-166 529,-166 884.87,-166 884.87,-166"/>
<polygon fill="black" stroke="black" points="884.87,-169.5 894.87,-166 884.87,-162.5 884.87,-169.5"/>
</g>
<!-- WhereClauseExpressionComponent -->
<g id="node8" class="node">
<title>WhereClauseExpressionComponent</title>
<polygon fill="#ffffb3" stroke="black" points="428.45,-122 209.55,-122 209.55,-86 428.45,-86 428.45,-122"/>
<text text-anchor="middle" x="319" y="-99.8" font-family="Times,serif" font-size="14.00">WhereClauseExpressionComponent</text>
</g>
<!-- WhereClauseExpressionComponent&#45;&gt;SqlWizardModule -->
<g id="edge8" class="edge">
<title>WhereClauseExpressionComponent&#45;&gt;SqlWizardModule</title>
<path fill="none" stroke="black" d="M319,-122.13C319,-142.57 319,-173 319,-173 319,-173 885.17,-173 885.17,-173"/>
<polygon fill="black" stroke="black" points="885.17,-176.5 895.17,-173 885.17,-169.5 885.17,-176.5"/>
</g>
<!-- SqlWizardComponent  -->
<g id="node11" class="node">
<title>SqlWizardComponent </title>
<polygon fill="#fb8072" stroke="black" points="1027.2,-252 882.8,-252 882.8,-216 1027.2,-216 1027.2,-252"/>
<text text-anchor="middle" x="955" y="-229.8" font-family="Times,serif" font-size="14.00">SqlWizardComponent </text>
</g>
<!-- SqlWizardModule&#45;&gt;SqlWizardComponent  -->
<g id="edge10" class="edge">
<title>SqlWizardModule&#45;&gt;SqlWizardComponent </title>
<path fill="none" stroke="black" stroke-dasharray="5,2" d="M955,-187.11C955,-187.11 955,-205.99 955,-205.99"/>
<polygon fill="black" stroke="black" points="951.5,-205.99 955,-215.99 958.5,-205.99 951.5,-205.99"/>
</g>
<!-- CdrModule -->
<g id="node10" class="node">
<title>CdrModule</title>
<polygon fill="#8dd3c7" stroke="black" points="1799.05,-122 1796.05,-126 1775.05,-126 1772.05,-122 1718.95,-122 1718.95,-86 1799.05,-86 1799.05,-122"/>
<text text-anchor="middle" x="1759" y="-99.8" font-family="Times,serif" font-size="14.00">CdrModule</text>
</g>
<!-- CdrModule&#45;&gt;SqlWizardModule -->
<g id="edge9" class="edge">
<title>CdrModule&#45;&gt;SqlWizardModule</title>
<path fill="none" stroke="black" d="M1759,-122.01C1759,-144.49 1759,-180 1759,-180 1759,-180 1024.77,-180 1024.77,-180"/>
<polygon fill="black" stroke="black" points="1024.77,-176.5 1014.77,-180 1024.77,-183.5 1024.77,-176.5"/>
</g>
<!-- SqlWizardService -->
<g id="node12" class="node">
<title>SqlWizardService</title>
<ellipse fill="#fdb462" stroke="black" cx="105" cy="-104" rx="81.08" ry="18"/>
<text text-anchor="middle" x="105" y="-99.8" font-family="Times,serif" font-size="14.00">SqlWizardService</text>
</g>
<!-- SqlWizardService&#45;&gt;SqlWizardModule -->
<g id="edge11" class="edge">
<title>SqlWizardService&#45;&gt;SqlWizardModule</title>
<path fill="none" stroke="black" d="M105,-122.01C105,-144.49 105,-180 105,-180 105,-180 885.23,-180 885.23,-180"/>
<polygon fill="black" stroke="black" points="885.23,-183.5 895.23,-180 885.23,-176.5 885.23,-183.5"/>
</g>
</g>
</svg>
