<?xml version="1.0" encoding="UTF-8" standalone="no"?>
<!DOCTYPE svg PUBLIC "-//W3C//DTD SVG 1.1//EN"
 "http://www.w3.org/Graphics/SVG/1.1/DTD/svg11.dtd">
<!-- Generated by graphviz version 2.47.0 (20210316.0004)
 -->
<!-- Title: dependencies Pages: 1 -->
<svg width="1239pt" height="284pt"
 viewBox="0.00 0.00 1239.00 284.00" xmlns="http://www.w3.org/2000/svg" xmlns:xlink="http://www.w3.org/1999/xlink">
<g id="graph0" class="graph" transform="scale(1 1) rotate(0) translate(4 280)">
<title>dependencies</title>
<polygon fill="white" stroke="transparent" points="-4,4 -4,-280 1235,-280 1235,4 -4,4"/>
<text text-anchor="start" x="594.51" y="-42.4" font-family="Times-12" font-weight="bold" font-size="14.00">Legend</text>
<polygon fill="#ffffb3" stroke="transparent" points="381.5,-10 381.5,-30 401.5,-30 401.5,-10 381.5,-10"/>
<text text-anchor="start" x="405.13" y="-15.4" font-family="Times-12" font-size="14.00"> &#160;Declarations</text>
<polygon fill="#8dd3c7" stroke="transparent" points="494.5,-10 494.5,-30 514.5,-30 514.5,-10 494.5,-10"/>
<text text-anchor="start" x="518.23" y="-15.4" font-family="Times-12" font-size="14.00"> &#160;Module</text>
<polygon fill="#80b1d3" stroke="transparent" points="580.5,-10 580.5,-30 600.5,-30 600.5,-10 580.5,-10"/>
<text text-anchor="start" x="604.28" y="-15.4" font-family="Times-12" font-size="14.00"> &#160;Bootstrap</text>
<polygon fill="#fdb462" stroke="transparent" points="677.5,-10 677.5,-30 697.5,-30 697.5,-10 677.5,-10"/>
<text text-anchor="start" x="701.17" y="-15.4" font-family="Times-12" font-size="14.00"> &#160;Providers</text>
<polygon fill="#fb8072" stroke="transparent" points="773.5,-10 773.5,-30 793.5,-30 793.5,-10 773.5,-10"/>
<text text-anchor="start" x="797.23" y="-15.4" font-family="Times-12" font-size="14.00"> &#160;Exports</text>
<g id="clust1" class="cluster">
<title>cluster_FkAdvancedPickerModule</title>
<polygon fill="none" stroke="black" stroke-dasharray="1,5" points="8,-70 8,-268 1223,-268 1223,-70 8,-70"/>
</g>
<g id="clust6" class="cluster">
<title>cluster_FkAdvancedPickerModule_imports</title>
<polygon fill="none" stroke="black" points="564,-78 564,-130 1215,-130 1215,-78 564,-78"/>
</g>
<g id="clust2" class="cluster">
<title>cluster_FkAdvancedPickerModule_declarations</title>
<polygon fill="none" stroke="black" points="16,-78 16,-130 556,-130 556,-78 16,-78"/>
</g>
<g id="clust7" class="cluster">
<title>cluster_FkAdvancedPickerModule_exports</title>
<polygon fill="none" stroke="black" points="399,-208 399,-260 951,-260 951,-208 399,-208"/>
</g>
<!-- FkAdvancedPickerComponent -->
<g id="node1" class="node">
<title>FkAdvancedPickerComponent</title>
<polygon fill="#ffffb3" stroke="black" points="548.13,-122 359.87,-122 359.87,-86 548.13,-86 548.13,-122"/>
<text text-anchor="middle" x="454" y="-99.8" font-family="Times,serif" font-size="14.00">FkAdvancedPickerComponent</text>
</g>
<!-- FkAdvancedPickerModule -->
<g id="node4" class="node">
<title>FkAdvancedPickerModule</title>
<polygon fill="#8dd3c7" stroke="black" points="735.35,-187 732.35,-191 711.35,-191 708.35,-187 568.65,-187 568.65,-151 735.35,-151 735.35,-187"/>
<text text-anchor="middle" x="652" y="-164.8" font-family="Times,serif" font-size="14.00">FkAdvancedPickerModule</text>
</g>
<!-- FkAdvancedPickerComponent&#45;&gt;FkAdvancedPickerModule -->
<g id="edge1" class="edge">
<title>FkAdvancedPickerComponent&#45;&gt;FkAdvancedPickerModule</title>
<path fill="none" stroke="black" d="M454.28,-122.01C454.28,-138.05 454.28,-159 454.28,-159 454.28,-159 558.43,-159 558.43,-159"/>
<polygon fill="black" stroke="black" points="558.43,-162.5 568.43,-159 558.43,-155.5 558.43,-162.5"/>
</g>
<!-- FkCandidatesComponent -->
<g id="node2" class="node">
<title>FkCandidatesComponent</title>
<polygon fill="#ffffb3" stroke="black" points="342.32,-122 183.68,-122 183.68,-86 342.32,-86 342.32,-122"/>
<text text-anchor="middle" x="263" y="-99.8" font-family="Times,serif" font-size="14.00">FkCandidatesComponent</text>
</g>
<!-- FkCandidatesComponent&#45;&gt;FkAdvancedPickerModule -->
<g id="edge2" class="edge">
<title>FkCandidatesComponent&#45;&gt;FkAdvancedPickerModule</title>
<path fill="none" stroke="black" d="M263,-122.27C263,-140.56 263,-166 263,-166 263,-166 558.55,-166 558.55,-166"/>
<polygon fill="black" stroke="black" points="558.55,-169.5 568.55,-166 558.55,-162.5 558.55,-169.5"/>
</g>
<!-- FkSelectorComponent -->
<g id="node3" class="node">
<title>FkSelectorComponent</title>
<polygon fill="#ffffb3" stroke="black" points="165.98,-122 24.02,-122 24.02,-86 165.98,-86 165.98,-122"/>
<text text-anchor="middle" x="95" y="-99.8" font-family="Times,serif" font-size="14.00">FkSelectorComponent</text>
</g>
<!-- FkSelectorComponent&#45;&gt;FkAdvancedPickerModule -->
<g id="edge3" class="edge">
<title>FkSelectorComponent&#45;&gt;FkAdvancedPickerModule</title>
<path fill="none" stroke="black" d="M95,-122.13C95,-142.57 95,-173 95,-173 95,-173 558.61,-173 558.61,-173"/>
<polygon fill="black" stroke="black" points="558.61,-176.5 568.61,-173 558.61,-169.5 558.61,-176.5"/>
</g>
<!-- FkAdvancedPickerComponent  -->
<g id="node9" class="node">
<title>FkAdvancedPickerComponent </title>
<polygon fill="#fb8072" stroke="black" points="943.13,-252 750.87,-252 750.87,-216 943.13,-216 943.13,-252"/>
<text text-anchor="middle" x="847" y="-229.8" font-family="Times,serif" font-size="14.00">FkAdvancedPickerComponent </text>
</g>
<!-- FkAdvancedPickerModule&#45;&gt;FkAdvancedPickerComponent  -->
<g id="edge8" class="edge">
<title>FkAdvancedPickerModule&#45;&gt;FkAdvancedPickerComponent </title>
<path fill="none" stroke="black" stroke-dasharray="5,2" d="M735.61,-180C764.42,-180 789.6,-180 789.6,-180 789.6,-180 789.6,-205.72 789.6,-205.72"/>
<polygon fill="black" stroke="black" points="786.1,-205.72 789.6,-215.72 793.1,-205.72 786.1,-205.72"/>
</g>
<!-- FkCandidatesComponent  -->
<g id="node10" class="node">
<title>FkCandidatesComponent </title>
<polygon fill="#fb8072" stroke="black" points="732.82,-252 571.18,-252 571.18,-216 732.82,-216 732.82,-252"/>
<text text-anchor="middle" x="652" y="-229.8" font-family="Times,serif" font-size="14.00">FkCandidatesComponent </text>
</g>
<!-- FkAdvancedPickerModule&#45;&gt;FkCandidatesComponent  -->
<g id="edge9" class="edge">
<title>FkAdvancedPickerModule&#45;&gt;FkCandidatesComponent </title>
<path fill="none" stroke="black" stroke-dasharray="5,2" d="M652,-187.11C652,-187.11 652,-205.99 652,-205.99"/>
<polygon fill="black" stroke="black" points="648.5,-205.99 652,-215.99 655.5,-205.99 648.5,-205.99"/>
</g>
<!-- FkSelectorComponent  -->
<g id="node11" class="node">
<title>FkSelectorComponent </title>
<polygon fill="#fb8072" stroke="black" points="552.98,-252 407.02,-252 407.02,-216 552.98,-216 552.98,-252"/>
<text text-anchor="middle" x="480" y="-229.8" font-family="Times,serif" font-size="14.00">FkSelectorComponent </text>
</g>
<!-- FkAdvancedPickerModule&#45;&gt;FkSelectorComponent  -->
<g id="edge10" class="edge">
<title>FkAdvancedPickerModule&#45;&gt;FkSelectorComponent </title>
<path fill="none" stroke="black" stroke-dasharray="5,2" d="M568.27,-180C533.59,-180 501.3,-180 501.3,-180 501.3,-180 501.3,-205.72 501.3,-205.72"/>
<polygon fill="black" stroke="black" points="497.8,-205.72 501.3,-215.72 504.8,-205.72 497.8,-205.72"/>
</g>
<!-- ConfirmationModule -->
<g id="node5" class="node">
<title>ConfirmationModule</title>
<polygon fill="#8dd3c7" stroke="black" points="1207.48,-122 1204.48,-126 1183.48,-126 1180.48,-122 1072.52,-122 1072.52,-86 1207.48,-86 1207.48,-122"/>
<text text-anchor="middle" x="1140" y="-99.8" font-family="Times,serif" font-size="14.00">ConfirmationModule</text>
</g>
<!-- ConfirmationModule&#45;&gt;FkAdvancedPickerModule -->
<g id="edge4" class="edge">
<title>ConfirmationModule&#45;&gt;FkAdvancedPickerModule</title>
<path fill="none" stroke="black" d="M1140,-122.13C1140,-142.57 1140,-173 1140,-173 1140,-173 745.61,-173 745.61,-173"/>
<polygon fill="black" stroke="black" points="745.61,-169.5 735.61,-173 745.61,-176.5 745.61,-169.5"/>
</g>
<!-- DataSourceToolbarModule -->
<g id="node6" class="node">
<title>DataSourceToolbarModule</title>
<polygon fill="#8dd3c7" stroke="black" points="1054.67,-122 1051.67,-126 1030.67,-126 1027.67,-122 885.33,-122 885.33,-86 1054.67,-86 1054.67,-122"/>
<text text-anchor="middle" x="970" y="-99.8" font-family="Times,serif" font-size="14.00">DataSourceToolbarModule</text>
</g>
<!-- DataSourceToolbarModule&#45;&gt;FkAdvancedPickerModule -->
<g id="edge5" class="edge">
<title>DataSourceToolbarModule&#45;&gt;FkAdvancedPickerModule</title>
<path fill="none" stroke="black" d="M914.24,-122.27C914.24,-140.56 914.24,-166 914.24,-166 914.24,-166 745.7,-166 745.7,-166"/>
<polygon fill="black" stroke="black" points="745.7,-162.5 735.7,-166 745.7,-169.5 745.7,-162.5"/>
</g>
<!-- DataTableModule -->
<g id="node7" class="node">
<title>DataTableModule</title>
<polygon fill="#8dd3c7" stroke="black" points="866.85,-122 863.85,-126 842.85,-126 839.85,-122 749.15,-122 749.15,-86 866.85,-86 866.85,-122"/>
<text text-anchor="middle" x="808" y="-99.8" font-family="Times,serif" font-size="14.00">DataTableModule</text>
</g>
<!-- DataTableModule&#45;&gt;FkAdvancedPickerModule -->
<g id="edge6" class="edge">
<title>DataTableModule&#45;&gt;FkAdvancedPickerModule</title>
<path fill="none" stroke="black" d="M828.26,-122.01C828.26,-138.05 828.26,-159 828.26,-159 828.26,-159 745.49,-159 745.49,-159"/>
<polygon fill="black" stroke="black" points="745.49,-155.5 735.49,-159 745.49,-162.5 745.49,-155.5"/>
</g>
<!-- SelectedElementsModule -->
<g id="node8" class="node">
<title>SelectedElementsModule</title>
<polygon fill="#8dd3c7" stroke="black" points="731.57,-122 728.57,-126 707.57,-126 704.57,-122 572.43,-122 572.43,-86 731.57,-86 731.57,-122"/>
<text text-anchor="middle" x="652" y="-99.8" font-family="Times,serif" font-size="14.00">SelectedElementsModule</text>
</g>
<!-- SelectedElementsModule&#45;&gt;FkAdvancedPickerModule -->
<g id="edge7" class="edge">
<title>SelectedElementsModule&#45;&gt;FkAdvancedPickerModule</title>
<path fill="none" stroke="black" d="M652,-122.11C652,-122.11 652,-140.99 652,-140.99"/>
<polygon fill="black" stroke="black" points="648.5,-140.99 652,-150.99 655.5,-140.99 648.5,-140.99"/>
</g>
</g>
</svg>
