<?xml version="1.0" encoding="UTF-8" standalone="no"?>
<!DOCTYPE svg PUBLIC "-//W3C//DTD SVG 1.1//EN"
 "http://www.w3.org/Graphics/SVG/1.1/DTD/svg11.dtd">
<!-- Generated by graphviz version 2.47.0 (20210316.0004)
 -->
<!-- Title: dependencies Pages: 1 -->
<svg width="775pt" height="284pt"
 viewBox="0.00 0.00 775.00 284.00" xmlns="http://www.w3.org/2000/svg" xmlns:xlink="http://www.w3.org/1999/xlink">
<g id="graph0" class="graph" transform="scale(1 1) rotate(0) translate(4 280)">
<title>dependencies</title>
<polygon fill="white" stroke="transparent" points="-4,4 -4,-280 771,-280 771,4 -4,4"/>
<text text-anchor="start" x="362.51" y="-42.4" font-family="Times-12" font-weight="bold" font-size="14.00">Legend</text>
<polygon fill="#ffffb3" stroke="transparent" points="149.5,-10 149.5,-30 169.5,-30 169.5,-10 149.5,-10"/>
<text text-anchor="start" x="173.13" y="-15.4" font-family="Times-12" font-size="14.00"> &#160;Declarations</text>
<polygon fill="#8dd3c7" stroke="transparent" points="262.5,-10 262.5,-30 282.5,-30 282.5,-10 262.5,-10"/>
<text text-anchor="start" x="286.23" y="-15.4" font-family="Times-12" font-size="14.00"> &#160;Module</text>
<polygon fill="#80b1d3" stroke="transparent" points="348.5,-10 348.5,-30 368.5,-30 368.5,-10 348.5,-10"/>
<text text-anchor="start" x="372.28" y="-15.4" font-family="Times-12" font-size="14.00"> &#160;Bootstrap</text>
<polygon fill="#fdb462" stroke="transparent" points="445.5,-10 445.5,-30 465.5,-30 465.5,-10 445.5,-10"/>
<text text-anchor="start" x="469.17" y="-15.4" font-family="Times-12" font-size="14.00"> &#160;Providers</text>
<polygon fill="#fb8072" stroke="transparent" points="541.5,-10 541.5,-30 561.5,-30 561.5,-10 541.5,-10"/>
<text text-anchor="start" x="565.23" y="-15.4" font-family="Times-12" font-size="14.00"> &#160;Exports</text>
<g id="clust1" class="cluster">
<title>cluster_FkHierarchicalDialogModule</title>
<polygon fill="none" stroke="black" stroke-dasharray="1,5" points="8,-70 8,-268 759,-268 759,-70 8,-70"/>
</g>
<g id="clust4" class="cluster">
<title>cluster_FkHierarchicalDialogModule_imports</title>
<polygon fill="none" stroke="black" points="244,-78 244,-130 751,-130 751,-78 244,-78"/>
</g>
<g id="clust5" class="cluster">
<title>cluster_FkHierarchicalDialogModule_exports</title>
<polygon fill="none" stroke="black" points="310,-208 310,-260 532,-260 532,-208 310,-208"/>
</g>
<g id="clust2" class="cluster">
<title>cluster_FkHierarchicalDialogModule_declarations</title>
<polygon fill="none" stroke="black" points="16,-78 16,-130 236,-130 236,-78 16,-78"/>
</g>
<!-- FkHierarchicalDialogComponent -->
<g id="node1" class="node">
<title>FkHierarchicalDialogComponent</title>
<polygon fill="#ffffb3" stroke="black" points="227.89,-122 24.11,-122 24.11,-86 227.89,-86 227.89,-122"/>
<text text-anchor="middle" x="126" y="-99.8" font-family="Times,serif" font-size="14.00">FkHierarchicalDialogComponent</text>
</g>
<!-- FkHierarchicalDialogModule -->
<g id="node2" class="node">
<title>FkHierarchicalDialogModule</title>
<polygon fill="#8dd3c7" stroke="black" points="511.61,-187 508.61,-191 487.61,-191 484.61,-187 330.39,-187 330.39,-151 511.61,-151 511.61,-187"/>
<text text-anchor="middle" x="421" y="-164.8" font-family="Times,serif" font-size="14.00">FkHierarchicalDialogModule</text>
</g>
<!-- FkHierarchicalDialogComponent&#45;&gt;FkHierarchicalDialogModule -->
<g id="edge1" class="edge">
<title>FkHierarchicalDialogComponent&#45;&gt;FkHierarchicalDialogModule</title>
<path fill="none" stroke="black" d="M126,-122.11C126,-141.34 126,-169 126,-169 126,-169 320.08,-169 320.08,-169"/>
<polygon fill="black" stroke="black" points="320.08,-172.5 330.08,-169 320.08,-165.5 320.08,-172.5"/>
</g>
<!-- FkHierarchicalDialogComponent  -->
<g id="node6" class="node">
<title>FkHierarchicalDialogComponent </title>
<polygon fill="#fb8072" stroke="black" points="524.39,-252 317.61,-252 317.61,-216 524.39,-216 524.39,-252"/>
<text text-anchor="middle" x="421" y="-229.8" font-family="Times,serif" font-size="14.00">FkHierarchicalDialogComponent </text>
</g>
<!-- FkHierarchicalDialogModule&#45;&gt;FkHierarchicalDialogComponent  -->
<g id="edge5" class="edge">
<title>FkHierarchicalDialogModule&#45;&gt;FkHierarchicalDialogComponent </title>
<path fill="none" stroke="black" stroke-dasharray="5,2" d="M421,-187.11C421,-187.11 421,-205.99 421,-205.99"/>
<polygon fill="black" stroke="black" points="417.5,-205.99 421,-215.99 424.5,-205.99 417.5,-205.99"/>
</g>
<!-- ConfirmationModule -->
<g id="node3" class="node">
<title>ConfirmationModule</title>
<polygon fill="#8dd3c7" stroke="black" points="743.48,-122 740.48,-126 719.48,-126 716.48,-122 608.52,-122 608.52,-86 743.48,-86 743.48,-122"/>
<text text-anchor="middle" x="676" y="-99.8" font-family="Times,serif" font-size="14.00">ConfirmationModule</text>
</g>
<!-- ConfirmationModule&#45;&gt;FkHierarchicalDialogModule -->
<g id="edge2" class="edge">
<title>ConfirmationModule&#45;&gt;FkHierarchicalDialogModule</title>
<path fill="none" stroke="black" d="M676,-122.11C676,-141.34 676,-169 676,-169 676,-169 521.62,-169 521.62,-169"/>
<polygon fill="black" stroke="black" points="521.62,-165.5 511.62,-169 521.62,-172.5 521.62,-165.5"/>
</g>
<!-- DataTreeWrapperModule -->
<g id="node4" class="node">
<title>DataTreeWrapperModule</title>
<polygon fill="#8dd3c7" stroke="black" points="590.08,-122 587.08,-126 566.08,-126 563.08,-122 429.92,-122 429.92,-86 590.08,-86 590.08,-122"/>
<text text-anchor="middle" x="510" y="-99.8" font-family="Times,serif" font-size="14.00">DataTreeWrapperModule</text>
</g>
<!-- DataTreeWrapperModule&#45;&gt;FkHierarchicalDialogModule -->
<g id="edge3" class="edge">
<title>DataTreeWrapperModule&#45;&gt;FkHierarchicalDialogModule</title>
<path fill="none" stroke="black" d="M470.76,-122.11C470.76,-122.11 470.76,-140.99 470.76,-140.99"/>
<polygon fill="black" stroke="black" points="467.26,-140.99 470.76,-150.99 474.26,-140.99 467.26,-140.99"/>
</g>
<!-- SelectedElementsModule -->
<g id="node5" class="node">
<title>SelectedElementsModule</title>
<polygon fill="#8dd3c7" stroke="black" points="411.57,-122 408.57,-126 387.57,-126 384.57,-122 252.43,-122 252.43,-86 411.57,-86 411.57,-122"/>
<text text-anchor="middle" x="332" y="-99.8" font-family="Times,serif" font-size="14.00">SelectedElementsModule</text>
</g>
<!-- SelectedElementsModule&#45;&gt;FkHierarchicalDialogModule -->
<g id="edge4" class="edge">
<title>SelectedElementsModule&#45;&gt;FkHierarchicalDialogModule</title>
<path fill="none" stroke="black" d="M370.87,-122.11C370.87,-122.11 370.87,-140.99 370.87,-140.99"/>
<polygon fill="black" stroke="black" points="367.37,-140.99 370.87,-150.99 374.37,-140.99 367.37,-140.99"/>
</g>
</g>
</svg>
