<?xml version="1.0" encoding="UTF-8" standalone="no"?>
<!DOCTYPE svg PUBLIC "-//W3C//DTD SVG 1.1//EN"
 "http://www.w3.org/Graphics/SVG/1.1/DTD/svg11.dtd">
<!-- Generated by graphviz version 2.47.0 (20210316.0004)
 -->
<!-- Title: dependencies Pages: 1 -->
<svg width="1340pt" height="284pt"
 viewBox="0.00 0.00 1340.00 284.00" xmlns="http://www.w3.org/2000/svg" xmlns:xlink="http://www.w3.org/1999/xlink">
<g id="graph0" class="graph" transform="scale(1 1) rotate(0) translate(4 280)">
<title>dependencies</title>
<polygon fill="white" stroke="transparent" points="-4,4 -4,-280 1336,-280 1336,4 -4,4"/>
<text text-anchor="start" x="645.01" y="-42.4" font-family="Times-12" font-weight="bold" font-size="14.00">Legend</text>
<polygon fill="#ffffb3" stroke="transparent" points="432,-10 432,-30 452,-30 452,-10 432,-10"/>
<text text-anchor="start" x="455.63" y="-15.4" font-family="Times-12" font-size="14.00"> &#160;Declarations</text>
<polygon fill="#8dd3c7" stroke="transparent" points="545,-10 545,-30 565,-30 565,-10 545,-10"/>
<text text-anchor="start" x="568.73" y="-15.4" font-family="Times-12" font-size="14.00"> &#160;Module</text>
<polygon fill="#80b1d3" stroke="transparent" points="631,-10 631,-30 651,-30 651,-10 631,-10"/>
<text text-anchor="start" x="654.78" y="-15.4" font-family="Times-12" font-size="14.00"> &#160;Bootstrap</text>
<polygon fill="#fdb462" stroke="transparent" points="728,-10 728,-30 748,-30 748,-10 728,-10"/>
<text text-anchor="start" x="751.67" y="-15.4" font-family="Times-12" font-size="14.00"> &#160;Providers</text>
<polygon fill="#fb8072" stroke="transparent" points="824,-10 824,-30 844,-30 844,-10 824,-10"/>
<text text-anchor="start" x="847.73" y="-15.4" font-family="Times-12" font-size="14.00"> &#160;Exports</text>
<g id="clust1" class="cluster">
<title>cluster_DataTreeModule</title>
<polygon fill="none" stroke="black" stroke-dasharray="1,5" points="8,-70 8,-268 1324,-268 1324,-70 8,-70"/>
</g>
<g id="clust2" class="cluster">
<title>cluster_DataTreeModule_declarations</title>
<polygon fill="none" stroke="black" points="322,-78 322,-130 1316,-130 1316,-78 322,-78"/>
</g>
<g id="clust9" class="cluster">
<title>cluster_DataTreeModule_exports</title>
<polygon fill="none" stroke="black" points="559,-208 559,-260 711,-260 711,-208 559,-208"/>
</g>
<g id="clust8" class="cluster">
<title>cluster_DataTreeModule_imports</title>
<polygon fill="none" stroke="black" points="16,-78 16,-130 314,-130 314,-78 16,-78"/>
</g>
<!-- CheckableTreeComponent -->
<g id="node1" class="node">
<title>CheckableTreeComponent</title>
<polygon fill="#ffffb3" stroke="black" points="1308.06,-122 1141.94,-122 1141.94,-86 1308.06,-86 1308.06,-122"/>
<text text-anchor="middle" x="1225" y="-99.8" font-family="Times,serif" font-size="14.00">CheckableTreeComponent</text>
</g>
<!-- DataTreeModule -->
<g id="node6" class="node">
<title>DataTreeModule</title>
<polygon fill="#8dd3c7" stroke="black" points="690.62,-187 687.62,-191 666.62,-191 663.62,-187 579.38,-187 579.38,-151 690.62,-151 690.62,-187"/>
<text text-anchor="middle" x="635" y="-164.8" font-family="Times,serif" font-size="14.00">DataTreeModule</text>
</g>
<!-- CheckableTreeComponent&#45;&gt;DataTreeModule -->
<g id="edge1" class="edge">
<title>CheckableTreeComponent&#45;&gt;DataTreeModule</title>
<path fill="none" stroke="black" d="M1225,-122.29C1225,-144.21 1225,-178 1225,-178 1225,-178 700.77,-178 700.77,-178"/>
<polygon fill="black" stroke="black" points="700.77,-174.5 690.77,-178 700.77,-181.5 700.77,-174.5"/>
</g>
<!-- DataTreeComponent -->
<g id="node2" class="node">
<title>DataTreeComponent</title>
<polygon fill="#ffffb3" stroke="black" points="1123.9,-122 990.1,-122 990.1,-86 1123.9,-86 1123.9,-122"/>
<text text-anchor="middle" x="1057" y="-99.8" font-family="Times,serif" font-size="14.00">DataTreeComponent</text>
</g>
<!-- DataTreeComponent&#45;&gt;DataTreeModule -->
<g id="edge2" class="edge">
<title>DataTreeComponent&#45;&gt;DataTreeModule</title>
<path fill="none" stroke="black" d="M1057,-122.11C1057,-141.34 1057,-169 1057,-169 1057,-169 701.04,-169 701.04,-169"/>
<polygon fill="black" stroke="black" points="701.04,-165.5 691.04,-169 701.04,-172.5 701.04,-165.5"/>
</g>
<!-- DataTreeSearchResultsComponent -->
<g id="node3" class="node">
<title>DataTreeSearchResultsComponent</title>
<polygon fill="#ffffb3" stroke="black" points="972.21,-122 759.79,-122 759.79,-86 972.21,-86 972.21,-122"/>
<text text-anchor="middle" x="866" y="-99.8" font-family="Times,serif" font-size="14.00">DataTreeSearchResultsComponent</text>
</g>
<!-- DataTreeSearchResultsComponent&#45;&gt;DataTreeModule -->
<g id="edge3" class="edge">
<title>DataTreeSearchResultsComponent&#45;&gt;DataTreeModule</title>
<path fill="none" stroke="black" d="M866,-122.03C866,-138.4 866,-160 866,-160 866,-160 700.62,-160 700.62,-160"/>
<polygon fill="black" stroke="black" points="700.62,-156.5 690.62,-160 700.62,-163.5 700.62,-156.5"/>
</g>
<!-- MatSelectionListMultipleDirective -->
<g id="node4" class="node">
<title>MatSelectionListMultipleDirective</title>
<polygon fill="#ffffb3" stroke="black" points="741.23,-122 528.77,-122 528.77,-86 741.23,-86 741.23,-122"/>
<text text-anchor="middle" x="635" y="-99.8" font-family="Times,serif" font-size="14.00">MatSelectionListMultipleDirective</text>
</g>
<!-- MatSelectionListMultipleDirective&#45;&gt;DataTreeModule -->
<g id="edge4" class="edge">
<title>MatSelectionListMultipleDirective&#45;&gt;DataTreeModule</title>
<path fill="none" stroke="black" d="M635,-122.11C635,-122.11 635,-140.99 635,-140.99"/>
<polygon fill="black" stroke="black" points="631.5,-140.99 635,-150.99 638.5,-140.99 631.5,-140.99"/>
</g>
<!-- TreeSelectionListComponent -->
<g id="node5" class="node">
<title>TreeSelectionListComponent</title>
<polygon fill="#ffffb3" stroke="black" points="510.35,-122 329.65,-122 329.65,-86 510.35,-86 510.35,-122"/>
<text text-anchor="middle" x="420" y="-99.8" font-family="Times,serif" font-size="14.00">TreeSelectionListComponent</text>
</g>
<!-- TreeSelectionListComponent&#45;&gt;DataTreeModule -->
<g id="edge5" class="edge">
<title>TreeSelectionListComponent&#45;&gt;DataTreeModule</title>
<path fill="none" stroke="black" d="M420,-122.03C420,-138.4 420,-160 420,-160 420,-160 569.35,-160 569.35,-160"/>
<polygon fill="black" stroke="black" points="569.35,-163.5 579.35,-160 569.35,-156.5 569.35,-163.5"/>
</g>
<!-- DataTreeComponent  -->
<g id="node9" class="node">
<title>DataTreeComponent </title>
<polygon fill="#fb8072" stroke="black" points="703.4,-252 566.6,-252 566.6,-216 703.4,-216 703.4,-252"/>
<text text-anchor="middle" x="635" y="-229.8" font-family="Times,serif" font-size="14.00">DataTreeComponent </text>
</g>
<!-- DataTreeModule&#45;&gt;DataTreeComponent  -->
<g id="edge8" class="edge">
<title>DataTreeModule&#45;&gt;DataTreeComponent </title>
<path fill="none" stroke="black" stroke-dasharray="5,2" d="M635,-187.11C635,-187.11 635,-205.99 635,-205.99"/>
<polygon fill="black" stroke="black" points="631.5,-205.99 635,-215.99 638.5,-205.99 631.5,-205.99"/>
</g>
<!-- BusyIndicatorModule -->
<g id="node7" class="node">
<title>BusyIndicatorModule</title>
<polygon fill="#8dd3c7" stroke="black" points="306.36,-122 303.36,-126 282.36,-126 279.36,-122 167.64,-122 167.64,-86 306.36,-86 306.36,-122"/>
<text text-anchor="middle" x="237" y="-99.8" font-family="Times,serif" font-size="14.00">BusyIndicatorModule</text>
</g>
<!-- BusyIndicatorModule&#45;&gt;DataTreeModule -->
<g id="edge6" class="edge">
<title>BusyIndicatorModule&#45;&gt;DataTreeModule</title>
<path fill="none" stroke="black" d="M237,-122.11C237,-141.34 237,-169 237,-169 237,-169 569.24,-169 569.24,-169"/>
<polygon fill="black" stroke="black" points="569.24,-172.5 579.24,-169 569.24,-165.5 569.24,-172.5"/>
</g>
<!-- ClassloggerModule -->
<g id="node8" class="node">
<title>ClassloggerModule</title>
<polygon fill="#8dd3c7" stroke="black" points="149.65,-122 146.65,-126 125.65,-126 122.65,-122 24.35,-122 24.35,-86 149.65,-86 149.65,-122"/>
<text text-anchor="middle" x="87" y="-99.8" font-family="Times,serif" font-size="14.00">ClassloggerModule</text>
</g>
<!-- ClassloggerModule&#45;&gt;DataTreeModule -->
<g id="edge7" class="edge">
<title>ClassloggerModule&#45;&gt;DataTreeModule</title>
<path fill="none" stroke="black" d="M87,-122.29C87,-144.21 87,-178 87,-178 87,-178 569.18,-178 569.18,-178"/>
<polygon fill="black" stroke="black" points="569.18,-181.5 579.18,-178 569.18,-174.5 569.18,-181.5"/>
</g>
</g>
</svg>
