<?xml version="1.0" encoding="UTF-8" standalone="no"?>
<!DOCTYPE svg PUBLIC "-//W3C//DTD SVG 1.1//EN"
 "http://www.w3.org/Graphics/SVG/1.1/DTD/svg11.dtd">
<!-- Generated by graphviz version 2.47.0 (20210316.0004)
 -->
<!-- Title: dependencies Pages: 1 -->
<svg width="1831pt" height="284pt"
 viewBox="0.00 0.00 1831.00 284.00" xmlns="http://www.w3.org/2000/svg" xmlns:xlink="http://www.w3.org/1999/xlink">
<g id="graph0" class="graph" transform="scale(1 1) rotate(0) translate(4 280)">
<title>dependencies</title>
<polygon fill="white" stroke="transparent" points="-4,4 -4,-280 1827,-280 1827,4 -4,4"/>
<text text-anchor="start" x="890.51" y="-42.4" font-family="Times-12" font-weight="bold" font-size="14.00">Legend</text>
<polygon fill="#ffffb3" stroke="transparent" points="677.5,-10 677.5,-30 697.5,-30 697.5,-10 677.5,-10"/>
<text text-anchor="start" x="701.13" y="-15.4" font-family="Times-12" font-size="14.00"> &#160;Declarations</text>
<polygon fill="#8dd3c7" stroke="transparent" points="790.5,-10 790.5,-30 810.5,-30 810.5,-10 790.5,-10"/>
<text text-anchor="start" x="814.23" y="-15.4" font-family="Times-12" font-size="14.00"> &#160;Module</text>
<polygon fill="#80b1d3" stroke="transparent" points="876.5,-10 876.5,-30 896.5,-30 896.5,-10 876.5,-10"/>
<text text-anchor="start" x="900.28" y="-15.4" font-family="Times-12" font-size="14.00"> &#160;Bootstrap</text>
<polygon fill="#fdb462" stroke="transparent" points="973.5,-10 973.5,-30 993.5,-30 993.5,-10 973.5,-10"/>
<text text-anchor="start" x="997.17" y="-15.4" font-family="Times-12" font-size="14.00"> &#160;Providers</text>
<polygon fill="#fb8072" stroke="transparent" points="1069.5,-10 1069.5,-30 1089.5,-30 1089.5,-10 1069.5,-10"/>
<text text-anchor="start" x="1093.23" y="-15.4" font-family="Times-12" font-size="14.00"> &#160;Exports</text>
<g id="clust1" class="cluster">
<title>cluster_SqlWizardModule</title>
<polygon fill="none" stroke="black" stroke-dasharray="1,5" points="8,-70 8,-268 1815,-268 1815,-70 8,-70"/>
</g>
<g id="clust2" class="cluster">
<title>cluster_SqlWizardModule_declarations</title>
<polygon fill="none" stroke="black" points="306,-78 306,-130 1807,-130 1807,-78 306,-78"/>
</g>
<g id="clust12" class="cluster">
<title>cluster_SqlWizardModule_exports</title>
<polygon fill="none" stroke="black" points="806,-208 806,-260 966,-260 966,-208 806,-208"/>
</g>
<g id="clust11" class="cluster">
<title>cluster_SqlWizardModule_imports</title>
<polygon fill="none" stroke="black" points="202,-78 202,-130 298,-130 298,-78 202,-78"/>
</g>
<g id="clust14" class="cluster">
<title>cluster_SqlWizardModule_providers</title>
<polygon fill="none" stroke="black" points="16,-78 16,-130 194,-130 194,-78 16,-78"/>
</g>
<!-- ColumnSelectionComponent -->
<g id="node1" class="node">
<title>ColumnSelectionComponent</title>
<polygon fill="#ffffb3" stroke="black" points="1799.05,-122 1620.95,-122 1620.95,-86 1799.05,-86 1799.05,-122"/>
<text text-anchor="middle" x="1710" y="-99.8" font-family="Times,serif" font-size="14.00">ColumnSelectionComponent</text>
</g>
<!-- SqlWizardModule -->
<g id="node9" class="node">
<title>SqlWizardModule</title>
<polygon fill="#8dd3c7" stroke="black" points="945.92,-187 942.92,-191 921.92,-191 918.92,-187 826.08,-187 826.08,-151 945.92,-151 945.92,-187"/>
<text text-anchor="middle" x="886" y="-164.8" font-family="Times,serif" font-size="14.00">SqlWizardModule</text>
</g>
<!-- ColumnSelectionComponent&#45;&gt;SqlWizardModule -->
<g id="edge1" class="edge">
<title>ColumnSelectionComponent&#45;&gt;SqlWizardModule</title>
<path fill="none" stroke="black" d="M1710,-122.01C1710,-144.49 1710,-180 1710,-180 1710,-180 955.92,-180 955.92,-180"/>
<polygon fill="black" stroke="black" points="955.92,-176.5 945.92,-180 955.92,-183.5 955.92,-176.5"/>
</g>
<!-- DatePickerComponent -->
<g id="node2" class="node">
<title>DatePickerComponent</title>
<polygon fill="#ffffb3" stroke="black" points="1602.52,-122 1459.48,-122 1459.48,-86 1602.52,-86 1602.52,-122"/>
<text text-anchor="middle" x="1531" y="-99.8" font-family="Times,serif" font-size="14.00">DatePickerComponent</text>
</g>
<!-- DatePickerComponent&#45;&gt;SqlWizardModule -->
<g id="edge2" class="edge">
<title>DatePickerComponent&#45;&gt;SqlWizardModule</title>
<path fill="none" stroke="black" d="M1531,-122.13C1531,-142.57 1531,-173 1531,-173 1531,-173 955.81,-173 955.81,-173"/>
<polygon fill="black" stroke="black" points="955.81,-169.5 945.81,-173 955.81,-176.5 955.81,-169.5"/>
</g>
<!-- SimpleExpressionComponent -->
<g id="node3" class="node">
<title>SimpleExpressionComponent</title>
<polygon fill="#ffffb3" stroke="black" points="1441.71,-122 1258.29,-122 1258.29,-86 1441.71,-86 1441.71,-122"/>
<text text-anchor="middle" x="1350" y="-99.8" font-family="Times,serif" font-size="14.00">SimpleExpressionComponent</text>
</g>
<!-- SimpleExpressionComponent&#45;&gt;SqlWizardModule -->
<g id="edge3" class="edge">
<title>SimpleExpressionComponent&#45;&gt;SqlWizardModule</title>
<path fill="none" stroke="black" d="M1350,-122.27C1350,-140.56 1350,-166 1350,-166 1350,-166 955.71,-166 955.71,-166"/>
<polygon fill="black" stroke="black" points="955.71,-162.5 945.71,-166 955.71,-169.5 955.71,-162.5"/>
</g>
<!-- SingleExpressionComponent -->
<g id="node4" class="node">
<title>SingleExpressionComponent</title>
<polygon fill="#ffffb3" stroke="black" points="1240.82,-122 1061.18,-122 1061.18,-86 1240.82,-86 1240.82,-122"/>
<text text-anchor="middle" x="1151" y="-99.8" font-family="Times,serif" font-size="14.00">SingleExpressionComponent</text>
</g>
<!-- SingleExpressionComponent&#45;&gt;SqlWizardModule -->
<g id="edge4" class="edge">
<title>SingleExpressionComponent&#45;&gt;SqlWizardModule</title>
<path fill="none" stroke="black" d="M1151,-122.01C1151,-138.05 1151,-159 1151,-159 1151,-159 955.8,-159 955.8,-159"/>
<polygon fill="black" stroke="black" points="955.8,-155.5 945.8,-159 955.8,-162.5 955.8,-155.5"/>
</g>
<!-- SingleValueComponent -->
<g id="node5" class="node">
<title>SingleValueComponent</title>
<polygon fill="#ffffb3" stroke="black" points="1043.04,-122 892.96,-122 892.96,-86 1043.04,-86 1043.04,-122"/>
<text text-anchor="middle" x="968" y="-99.8" font-family="Times,serif" font-size="14.00">SingleValueComponent</text>
</g>
<!-- SingleValueComponent&#45;&gt;SqlWizardModule -->
<g id="edge5" class="edge">
<title>SingleValueComponent&#45;&gt;SqlWizardModule</title>
<path fill="none" stroke="black" d="M919.22,-122.11C919.22,-122.11 919.22,-140.99 919.22,-140.99"/>
<polygon fill="black" stroke="black" points="915.72,-140.99 919.22,-150.99 922.72,-140.99 915.72,-140.99"/>
</g>
<!-- SqlWizardComponent -->
<g id="node6" class="node">
<title>SqlWizardComponent</title>
<polygon fill="#ffffb3" stroke="black" points="874.7,-122 733.3,-122 733.3,-86 874.7,-86 874.7,-122"/>
<text text-anchor="middle" x="804" y="-99.8" font-family="Times,serif" font-size="14.00">SqlWizardComponent</text>
</g>
<!-- SqlWizardComponent&#45;&gt;SqlWizardModule -->
<g id="edge6" class="edge">
<title>SqlWizardComponent&#45;&gt;SqlWizardModule</title>
<path fill="none" stroke="black" d="M850.45,-122.11C850.45,-122.11 850.45,-140.99 850.45,-140.99"/>
<polygon fill="black" stroke="black" points="846.95,-140.99 850.45,-150.99 853.95,-140.99 846.95,-140.99"/>
</g>
<!-- TableSelectionComponent -->
<g id="node7" class="node">
<title>TableSelectionComponent</title>
<polygon fill="#ffffb3" stroke="black" points="715.8,-122 550.2,-122 550.2,-86 715.8,-86 715.8,-122"/>
<text text-anchor="middle" x="633" y="-99.8" font-family="Times,serif" font-size="14.00">TableSelectionComponent</text>
</g>
<!-- TableSelectionComponent&#45;&gt;SqlWizardModule -->
<g id="edge7" class="edge">
<title>TableSelectionComponent&#45;&gt;SqlWizardModule</title>
<path fill="none" stroke="black" d="M633,-122.01C633,-138.05 633,-159 633,-159 633,-159 816.04,-159 816.04,-159"/>
<polygon fill="black" stroke="black" points="816.04,-162.5 826.04,-159 816.04,-155.5 816.04,-162.5"/>
</g>
<!-- WhereClauseExpressionComponent -->
<g id="node8" class="node">
<title>WhereClauseExpressionComponent</title>
<polygon fill="#ffffb3" stroke="black" points="532.45,-122 313.55,-122 313.55,-86 532.45,-86 532.45,-122"/>
<text text-anchor="middle" x="423" y="-99.8" font-family="Times,serif" font-size="14.00">WhereClauseExpressionComponent</text>
</g>
<!-- WhereClauseExpressionComponent&#45;&gt;SqlWizardModule -->
<g id="edge8" class="edge">
<title>WhereClauseExpressionComponent&#45;&gt;SqlWizardModule</title>
<path fill="none" stroke="black" d="M423,-122.27C423,-140.56 423,-166 423,-166 423,-166 815.95,-166 815.95,-166"/>
<polygon fill="black" stroke="black" points="815.95,-169.5 825.95,-166 815.95,-162.5 815.95,-169.5"/>
</g>
<!-- SqlWizardComponent  -->
<g id="node11" class="node">
<title>SqlWizardComponent </title>
<polygon fill="#fb8072" stroke="black" points="958.2,-252 813.8,-252 813.8,-216 958.2,-216 958.2,-252"/>
<text text-anchor="middle" x="886" y="-229.8" font-family="Times,serif" font-size="14.00">SqlWizardComponent </text>
</g>
<!-- SqlWizardModule&#45;&gt;SqlWizardComponent  -->
<g id="edge10" class="edge">
<title>SqlWizardModule&#45;&gt;SqlWizardComponent </title>
<path fill="none" stroke="black" stroke-dasharray="5,2" d="M886,-187.11C886,-187.11 886,-205.99 886,-205.99"/>
<polygon fill="black" stroke="black" points="882.5,-205.99 886,-215.99 889.5,-205.99 882.5,-205.99"/>
</g>
<!-- CdrModule -->
<g id="node10" class="node">
<title>CdrModule</title>
<polygon fill="#8dd3c7" stroke="black" points="290.05,-122 287.05,-126 266.05,-126 263.05,-122 209.95,-122 209.95,-86 290.05,-86 290.05,-122"/>
<text text-anchor="middle" x="250" y="-99.8" font-family="Times,serif" font-size="14.00">CdrModule</text>
</g>
<!-- CdrModule&#45;&gt;SqlWizardModule -->
<g id="edge9" class="edge">
<title>CdrModule&#45;&gt;SqlWizardModule</title>
<path fill="none" stroke="black" d="M250,-122.13C250,-142.57 250,-173 250,-173 250,-173 816.17,-173 816.17,-173"/>
<polygon fill="black" stroke="black" points="816.17,-176.5 826.17,-173 816.17,-169.5 816.17,-176.5"/>
</g>
<!-- SqlWizardService -->
<g id="node12" class="node">
<title>SqlWizardService</title>
<ellipse fill="#fdb462" stroke="black" cx="105" cy="-104" rx="81.08" ry="18"/>
<text text-anchor="middle" x="105" y="-99.8" font-family="Times,serif" font-size="14.00">SqlWizardService</text>
</g>
<!-- SqlWizardService&#45;&gt;SqlWizardModule -->
<g id="edge11" class="edge">
<title>SqlWizardService&#45;&gt;SqlWizardModule</title>
<path fill="none" stroke="black" d="M105,-122.01C105,-144.49 105,-180 105,-180 105,-180 816.01,-180 816.01,-180"/>
<polygon fill="black" stroke="black" points="816.01,-183.5 826.01,-180 816.01,-176.5 816.01,-183.5"/>
</g>
</g>
</svg>
