<?xml version="1.0" encoding="UTF-8" standalone="no"?>
<!DOCTYPE svg PUBLIC "-//W3C//DTD SVG 1.1//EN"
 "http://www.w3.org/Graphics/SVG/1.1/DTD/svg11.dtd">
<!-- Generated by graphviz version 2.47.0 (20210316.0004)
 -->
<!-- Title: dependencies Pages: 1 -->
<svg width="555pt" height="284pt"
 viewBox="0.00 0.00 555.00 284.00" xmlns="http://www.w3.org/2000/svg" xmlns:xlink="http://www.w3.org/1999/xlink">
<g id="graph0" class="graph" transform="scale(1 1) rotate(0) translate(4 280)">
<title>dependencies</title>
<polygon fill="white" stroke="transparent" points="-4,4 -4,-280 551,-280 551,4 -4,4"/>
<text text-anchor="start" x="252.51" y="-42.4" font-family="Times-12" font-weight="bold" font-size="14.00">Legend</text>
<polygon fill="#ffffb3" stroke="transparent" points="39.5,-10 39.5,-30 59.5,-30 59.5,-10 39.5,-10"/>
<text text-anchor="start" x="63.13" y="-15.4" font-family="Times-12" font-size="14.00"> &#160;Declarations</text>
<polygon fill="#8dd3c7" stroke="transparent" points="152.5,-10 152.5,-30 172.5,-30 172.5,-10 152.5,-10"/>
<text text-anchor="start" x="176.23" y="-15.4" font-family="Times-12" font-size="14.00"> &#160;Module</text>
<polygon fill="#80b1d3" stroke="transparent" points="238.5,-10 238.5,-30 258.5,-30 258.5,-10 238.5,-10"/>
<text text-anchor="start" x="262.28" y="-15.4" font-family="Times-12" font-size="14.00"> &#160;Bootstrap</text>
<polygon fill="#fdb462" stroke="transparent" points="335.5,-10 335.5,-30 355.5,-30 355.5,-10 335.5,-10"/>
<text text-anchor="start" x="359.17" y="-15.4" font-family="Times-12" font-size="14.00"> &#160;Providers</text>
<polygon fill="#fb8072" stroke="transparent" points="431.5,-10 431.5,-30 451.5,-30 451.5,-10 431.5,-10"/>
<text text-anchor="start" x="455.23" y="-15.4" font-family="Times-12" font-size="14.00"> &#160;Exports</text>
<g id="clust1" class="cluster">
<title>cluster_AddressbookModule</title>
<polygon fill="none" stroke="black" stroke-dasharray="1,5" points="8,-70 8,-268 539,-268 539,-70 8,-70"/>
</g>
<g id="clust2" class="cluster">
<title>cluster_AddressbookModule_declarations</title>
<polygon fill="none" stroke="black" points="152,-78 152,-130 531,-130 531,-78 152,-78"/>
</g>
<g id="clust6" class="cluster">
<title>cluster_AddressbookModule_exports</title>
<polygon fill="none" stroke="black" points="168,-208 168,-260 342,-260 342,-208 168,-208"/>
</g>
<g id="clust5" class="cluster">
<title>cluster_AddressbookModule_imports</title>
<polygon fill="none" stroke="black" points="16,-78 16,-130 144,-130 144,-78 16,-78"/>
</g>
<!-- AddressbookComponent -->
<g id="node1" class="node">
<title>AddressbookComponent</title>
<polygon fill="#ffffb3" stroke="black" points="522.7,-122 367.3,-122 367.3,-86 522.7,-86 522.7,-122"/>
<text text-anchor="middle" x="445" y="-99.8" font-family="Times,serif" font-size="14.00">AddressbookComponent</text>
</g>
<!-- AddressbookModule -->
<g id="node3" class="node">
<title>AddressbookModule</title>
<polygon fill="#8dd3c7" stroke="black" points="321.92,-187 318.92,-191 297.92,-191 294.92,-187 188.08,-187 188.08,-151 321.92,-151 321.92,-187"/>
<text text-anchor="middle" x="255" y="-164.8" font-family="Times,serif" font-size="14.00">AddressbookModule</text>
</g>
<!-- AddressbookComponent&#45;&gt;AddressbookModule -->
<g id="edge1" class="edge">
<title>AddressbookComponent&#45;&gt;AddressbookModule</title>
<path fill="none" stroke="black" d="M445,-122.11C445,-141.34 445,-169 445,-169 445,-169 331.72,-169 331.72,-169"/>
<polygon fill="black" stroke="black" points="331.72,-165.5 321.72,-169 331.72,-172.5 331.72,-165.5"/>
</g>
<!-- AddressbookDetailComponent -->
<g id="node2" class="node">
<title>AddressbookDetailComponent</title>
<polygon fill="#ffffb3" stroke="black" points="349.91,-122 160.09,-122 160.09,-86 349.91,-86 349.91,-122"/>
<text text-anchor="middle" x="255" y="-99.8" font-family="Times,serif" font-size="14.00">AddressbookDetailComponent</text>
</g>
<!-- AddressbookDetailComponent&#45;&gt;AddressbookModule -->
<g id="edge2" class="edge">
<title>AddressbookDetailComponent&#45;&gt;AddressbookModule</title>
<path fill="none" stroke="black" d="M255,-122.11C255,-122.11 255,-140.99 255,-140.99"/>
<polygon fill="black" stroke="black" points="251.5,-140.99 255,-150.99 258.5,-140.99 251.5,-140.99"/>
</g>
<!-- AddressbookComponent  -->
<g id="node5" class="node">
<title>AddressbookComponent </title>
<polygon fill="#fb8072" stroke="black" points="334.2,-252 175.8,-252 175.8,-216 334.2,-216 334.2,-252"/>
<text text-anchor="middle" x="255" y="-229.8" font-family="Times,serif" font-size="14.00">AddressbookComponent </text>
</g>
<!-- AddressbookModule&#45;&gt;AddressbookComponent  -->
<g id="edge4" class="edge">
<title>AddressbookModule&#45;&gt;AddressbookComponent </title>
<path fill="none" stroke="black" stroke-dasharray="5,2" d="M255,-187.11C255,-187.11 255,-205.99 255,-205.99"/>
<polygon fill="black" stroke="black" points="251.5,-205.99 255,-215.99 258.5,-205.99 251.5,-205.99"/>
</g>
<!-- OrgChartModule -->
<g id="node4" class="node">
<title>OrgChartModule</title>
<polygon fill="#8dd3c7" stroke="black" points="136.42,-122 133.42,-126 112.42,-126 109.42,-122 23.58,-122 23.58,-86 136.42,-86 136.42,-122"/>
<text text-anchor="middle" x="80" y="-99.8" font-family="Times,serif" font-size="14.00">OrgChartModule</text>
</g>
<!-- OrgChartModule&#45;&gt;AddressbookModule -->
<g id="edge3" class="edge">
<title>OrgChartModule&#45;&gt;AddressbookModule</title>
<path fill="none" stroke="black" d="M80,-122.11C80,-141.34 80,-169 80,-169 80,-169 177.84,-169 177.84,-169"/>
<polygon fill="black" stroke="black" points="177.84,-172.5 187.84,-169 177.84,-165.5 177.84,-172.5"/>
</g>
</g>
</svg>
