<?xml version="1.0" encoding="UTF-8" standalone="no"?>
<!DOCTYPE svg PUBLIC "-//W3C//DTD SVG 1.1//EN"
 "http://www.w3.org/Graphics/SVG/1.1/DTD/svg11.dtd">
<!-- Generated by graphviz version 2.47.0 (20210316.0004)
 -->
<!-- Title: dependencies Pages: 1 -->
<svg width="2590pt" height="284pt"
 viewBox="0.00 0.00 2590.00 284.00" xmlns="http://www.w3.org/2000/svg" xmlns:xlink="http://www.w3.org/1999/xlink">
<g id="graph0" class="graph" transform="scale(1 1) rotate(0) translate(4 280)">
<title>dependencies</title>
<polygon fill="white" stroke="transparent" points="-4,4 -4,-280 2586,-280 2586,4 -4,4"/>
<text text-anchor="start" x="1270.01" y="-42.4" font-family="Times-12" font-weight="bold" font-size="14.00">Legend</text>
<polygon fill="#ffffb3" stroke="transparent" points="1057,-10 1057,-30 1077,-30 1077,-10 1057,-10"/>
<text text-anchor="start" x="1080.63" y="-15.4" font-family="Times-12" font-size="14.00"> &#160;Declarations</text>
<polygon fill="#8dd3c7" stroke="transparent" points="1170,-10 1170,-30 1190,-30 1190,-10 1170,-10"/>
<text text-anchor="start" x="1193.73" y="-15.4" font-family="Times-12" font-size="14.00"> &#160;Module</text>
<polygon fill="#80b1d3" stroke="transparent" points="1256,-10 1256,-30 1276,-30 1276,-10 1256,-10"/>
<text text-anchor="start" x="1279.78" y="-15.4" font-family="Times-12" font-size="14.00"> &#160;Bootstrap</text>
<polygon fill="#fdb462" stroke="transparent" points="1353,-10 1353,-30 1373,-30 1373,-10 1353,-10"/>
<text text-anchor="start" x="1376.67" y="-15.4" font-family="Times-12" font-size="14.00"> &#160;Providers</text>
<polygon fill="#fb8072" stroke="transparent" points="1449,-10 1449,-30 1469,-30 1469,-10 1449,-10"/>
<text text-anchor="start" x="1472.73" y="-15.4" font-family="Times-12" font-size="14.00"> &#160;Exports</text>
<g id="clust1" class="cluster">
<title>cluster_RoleManangementModule</title>
<polygon fill="none" stroke="black" stroke-dasharray="1,5" points="8,-70 8,-268 2574,-268 2574,-70 8,-70"/>
</g>
<g id="clust16" class="cluster">
<title>cluster_RoleManangementModule_exports</title>
<polygon fill="none" stroke="black" points="1108,-208 1108,-260 1460,-260 1460,-208 1108,-208"/>
</g>
<g id="clust2" class="cluster">
<title>cluster_RoleManangementModule_declarations</title>
<polygon fill="none" stroke="black" points="508,-78 508,-130 2566,-130 2566,-78 508,-78"/>
</g>
<g id="clust15" class="cluster">
<title>cluster_RoleManangementModule_imports</title>
<polygon fill="none" stroke="black" points="16,-78 16,-130 500,-130 500,-78 16,-78"/>
</g>
<!-- CompareComponent -->
<g id="node1" class="node">
<title>CompareComponent</title>
<polygon fill="#ffffb3" stroke="black" points="2558.15,-122 2425.85,-122 2425.85,-86 2558.15,-86 2558.15,-122"/>
<text text-anchor="middle" x="2492" y="-99.8" font-family="Times,serif" font-size="14.00">CompareComponent</text>
</g>
<!-- RoleManangementModule -->
<g id="node13" class="node">
<title>RoleManangementModule</title>
<polygon fill="#8dd3c7" stroke="black" points="1373.08,-187 1370.08,-191 1349.08,-191 1346.08,-187 1206.92,-187 1206.92,-151 1373.08,-151 1373.08,-187"/>
<text text-anchor="middle" x="1290" y="-164.8" font-family="Times,serif" font-size="14.00">RoleManangementModule</text>
</g>
<!-- CompareComponent&#45;&gt;RoleManangementModule -->
<g id="edge1" class="edge">
<title>CompareComponent&#45;&gt;RoleManangementModule</title>
<path fill="none" stroke="black" d="M2492,-122.32C2492,-145.66 2492,-183 2492,-183 2492,-183 1383.09,-183 1383.09,-183"/>
<polygon fill="black" stroke="black" points="1383.09,-179.5 1373.09,-183 1383.09,-186.5 1383.09,-179.5"/>
</g>
<!-- CompareItemComponent -->
<g id="node2" class="node">
<title>CompareItemComponent</title>
<polygon fill="#ffffb3" stroke="black" points="2408.31,-122 2249.69,-122 2249.69,-86 2408.31,-86 2408.31,-122"/>
<text text-anchor="middle" x="2329" y="-99.8" font-family="Times,serif" font-size="14.00">CompareItemComponent</text>
</g>
<!-- CompareItemComponent&#45;&gt;RoleManangementModule -->
<g id="edge2" class="edge">
<title>CompareItemComponent&#45;&gt;RoleManangementModule</title>
<path fill="none" stroke="black" d="M2329,-122.29C2329,-144.21 2329,-178 2329,-178 2329,-178 1383.27,-178 1383.27,-178"/>
<polygon fill="black" stroke="black" points="1383.27,-174.5 1373.27,-178 1383.27,-181.5 1383.27,-174.5"/>
</g>
<!-- EntitlementSelectorComponent -->
<g id="node3" class="node">
<title>EntitlementSelectorComponent</title>
<polygon fill="#ffffb3" stroke="black" points="2232.03,-122 2039.97,-122 2039.97,-86 2232.03,-86 2232.03,-122"/>
<text text-anchor="middle" x="2136" y="-99.8" font-family="Times,serif" font-size="14.00">EntitlementSelectorComponent</text>
</g>
<!-- EntitlementSelectorComponent&#45;&gt;RoleManangementModule -->
<g id="edge3" class="edge">
<title>EntitlementSelectorComponent&#45;&gt;RoleManangementModule</title>
<path fill="none" stroke="black" d="M2136,-122.03C2136,-142.77 2136,-174 2136,-174 2136,-174 1383.05,-174 1383.05,-174"/>
<polygon fill="black" stroke="black" points="1383.05,-170.5 1373.05,-174 1383.05,-177.5 1383.05,-170.5"/>
</g>
<!-- NewRoleComponent -->
<g id="node4" class="node">
<title>NewRoleComponent</title>
<polygon fill="#ffffb3" stroke="black" points="2022.2,-122 1887.8,-122 1887.8,-86 2022.2,-86 2022.2,-122"/>
<text text-anchor="middle" x="1955" y="-99.8" font-family="Times,serif" font-size="14.00">NewRoleComponent</text>
</g>
<!-- NewRoleComponent&#45;&gt;RoleManangementModule -->
<g id="edge4" class="edge">
<title>NewRoleComponent&#45;&gt;RoleManangementModule</title>
<path fill="none" stroke="black" d="M1955,-122.11C1955,-141.34 1955,-169 1955,-169 1955,-169 1383.21,-169 1383.21,-169"/>
<polygon fill="black" stroke="black" points="1383.21,-165.5 1373.21,-169 1383.21,-172.5 1383.21,-165.5"/>
</g>
<!-- RestoreComponent -->
<g id="node5" class="node">
<title>RestoreComponent</title>
<polygon fill="#ffffb3" stroke="black" points="1870.09,-122 1745.91,-122 1745.91,-86 1870.09,-86 1870.09,-122"/>
<text text-anchor="middle" x="1808" y="-99.8" font-family="Times,serif" font-size="14.00">RestoreComponent</text>
</g>
<!-- RestoreComponent&#45;&gt;RoleManangementModule -->
<g id="edge5" class="edge">
<title>RestoreComponent&#45;&gt;RoleManangementModule</title>
<path fill="none" stroke="black" d="M1808,-122.3C1808,-140.27 1808,-165 1808,-165 1808,-165 1383.23,-165 1383.23,-165"/>
<polygon fill="black" stroke="black" points="1383.23,-161.5 1373.23,-165 1383.23,-168.5 1383.23,-161.5"/>
</g>
<!-- RoleDetailComponent -->
<g id="node6" class="node">
<title>RoleDetailComponent</title>
<polygon fill="#ffffb3" stroke="black" points="1727.98,-122 1586.02,-122 1586.02,-86 1727.98,-86 1727.98,-122"/>
<text text-anchor="middle" x="1657" y="-99.8" font-family="Times,serif" font-size="14.00">RoleDetailComponent</text>
</g>
<!-- RoleDetailComponent&#45;&gt;RoleManangementModule -->
<g id="edge6" class="edge">
<title>RoleDetailComponent&#45;&gt;RoleManangementModule</title>
<path fill="none" stroke="black" d="M1657,-122.03C1657,-138.4 1657,-160 1657,-160 1657,-160 1383.28,-160 1383.28,-160"/>
<polygon fill="black" stroke="black" points="1383.28,-156.5 1373.28,-160 1383.28,-163.5 1383.28,-156.5"/>
</g>
<!-- RoleEntitlementsComponent -->
<g id="node7" class="node">
<title>RoleEntitlementsComponent</title>
<polygon fill="#ffffb3" stroke="black" points="1568.04,-122 1389.96,-122 1389.96,-86 1568.04,-86 1568.04,-122"/>
<text text-anchor="middle" x="1479" y="-99.8" font-family="Times,serif" font-size="14.00">RoleEntitlementsComponent</text>
</g>
<!-- RoleEntitlementsComponent&#45;&gt;RoleManangementModule -->
<g id="edge7" class="edge">
<title>RoleEntitlementsComponent&#45;&gt;RoleManangementModule</title>
<path fill="none" stroke="black" d="M1420.73,-122.19C1420.73,-137.18 1420.73,-156 1420.73,-156 1420.73,-156 1383.17,-156 1383.17,-156"/>
<polygon fill="black" stroke="black" points="1383.17,-152.5 1373.17,-156 1383.17,-159.5 1383.17,-152.5"/>
</g>
<!-- RoleMainDataComponent -->
<g id="node8" class="node">
<title>RoleMainDataComponent</title>
<polygon fill="#ffffb3" stroke="black" points="1371.75,-122 1208.25,-122 1208.25,-86 1371.75,-86 1371.75,-122"/>
<text text-anchor="middle" x="1290" y="-99.8" font-family="Times,serif" font-size="14.00">RoleMainDataComponent</text>
</g>
<!-- RoleMainDataComponent&#45;&gt;RoleManangementModule -->
<g id="edge8" class="edge">
<title>RoleMainDataComponent&#45;&gt;RoleManangementModule</title>
<path fill="none" stroke="black" d="M1290,-122.11C1290,-122.11 1290,-140.99 1290,-140.99"/>
<polygon fill="black" stroke="black" points="1286.5,-140.99 1290,-150.99 1293.5,-140.99 1286.5,-140.99"/>
</g>
<!-- RoleRecommendationsComponent -->
<g id="node9" class="node">
<title>RoleRecommendationsComponent</title>
<polygon fill="#ffffb3" stroke="black" points="1189.98,-122 978.02,-122 978.02,-86 1189.98,-86 1189.98,-122"/>
<text text-anchor="middle" x="1084" y="-99.8" font-family="Times,serif" font-size="14.00">RoleRecommendationsComponent</text>
</g>
<!-- RoleRecommendationsComponent&#45;&gt;RoleManangementModule -->
<g id="edge9" class="edge">
<title>RoleRecommendationsComponent&#45;&gt;RoleManangementModule</title>
<path fill="none" stroke="black" d="M1153.02,-122.19C1153.02,-137.18 1153.02,-156 1153.02,-156 1153.02,-156 1196.76,-156 1196.76,-156"/>
<polygon fill="black" stroke="black" points="1196.76,-159.5 1206.76,-156 1196.76,-152.5 1196.76,-159.5"/>
</g>
<!-- RolesOverviewComponent -->
<g id="node10" class="node">
<title>RolesOverviewComponent</title>
<polygon fill="#ffffb3" stroke="black" points="960.41,-122 791.59,-122 791.59,-86 960.41,-86 960.41,-122"/>
<text text-anchor="middle" x="876" y="-99.8" font-family="Times,serif" font-size="14.00">RolesOverviewComponent</text>
</g>
<!-- RolesOverviewComponent&#45;&gt;RoleManangementModule -->
<g id="edge10" class="edge">
<title>RolesOverviewComponent&#45;&gt;RoleManangementModule</title>
<path fill="none" stroke="black" d="M876,-122.03C876,-138.4 876,-160 876,-160 876,-160 1196.72,-160 1196.72,-160"/>
<polygon fill="black" stroke="black" points="1196.72,-163.5 1206.72,-160 1196.72,-156.5 1196.72,-163.5"/>
</g>
<!-- RollbackComponent -->
<g id="node11" class="node">
<title>RollbackComponent</title>
<polygon fill="#ffffb3" stroke="black" points="773.88,-122 642.12,-122 642.12,-86 773.88,-86 773.88,-122"/>
<text text-anchor="middle" x="708" y="-99.8" font-family="Times,serif" font-size="14.00">RollbackComponent</text>
</g>
<!-- RollbackComponent&#45;&gt;RoleManangementModule -->
<g id="edge11" class="edge">
<title>RollbackComponent&#45;&gt;RoleManangementModule</title>
<path fill="none" stroke="black" d="M708,-122.3C708,-140.27 708,-165 708,-165 708,-165 1196.92,-165 1196.92,-165"/>
<polygon fill="black" stroke="black" points="1196.92,-168.5 1206.92,-165 1196.92,-161.5 1196.92,-168.5"/>
</g>
<!-- SplitComponent -->
<g id="node12" class="node">
<title>SplitComponent</title>
<polygon fill="#ffffb3" stroke="black" points="623.79,-122 516.21,-122 516.21,-86 623.79,-86 623.79,-122"/>
<text text-anchor="middle" x="570" y="-99.8" font-family="Times,serif" font-size="14.00">SplitComponent</text>
</g>
<!-- SplitComponent&#45;&gt;RoleManangementModule -->
<g id="edge12" class="edge">
<title>SplitComponent&#45;&gt;RoleManangementModule</title>
<path fill="none" stroke="black" d="M570,-122.11C570,-141.34 570,-169 570,-169 570,-169 1196.7,-169 1196.7,-169"/>
<polygon fill="black" stroke="black" points="1196.7,-172.5 1206.7,-169 1196.7,-165.5 1196.7,-172.5"/>
</g>
<!-- RoleDetailComponent  -->
<g id="node17" class="node">
<title>RoleDetailComponent </title>
<polygon fill="#fb8072" stroke="black" points="1451.98,-252 1306.02,-252 1306.02,-216 1451.98,-216 1451.98,-252"/>
<text text-anchor="middle" x="1379" y="-229.8" font-family="Times,serif" font-size="14.00">RoleDetailComponent </text>
</g>
<!-- RoleManangementModule&#45;&gt;RoleDetailComponent  -->
<g id="edge16" class="edge">
<title>RoleManangementModule&#45;&gt;RoleDetailComponent </title>
<path fill="none" stroke="black" stroke-dasharray="5,2" d="M1339.65,-187.11C1339.65,-187.11 1339.65,-205.99 1339.65,-205.99"/>
<polygon fill="black" stroke="black" points="1336.15,-205.99 1339.65,-215.99 1343.15,-205.99 1336.15,-205.99"/>
</g>
<!-- RolesOverviewComponent  -->
<g id="node18" class="node">
<title>RolesOverviewComponent </title>
<polygon fill="#fb8072" stroke="black" points="1287.91,-252 1116.09,-252 1116.09,-216 1287.91,-216 1287.91,-252"/>
<text text-anchor="middle" x="1202" y="-229.8" font-family="Times,serif" font-size="14.00">RolesOverviewComponent </text>
</g>
<!-- RoleManangementModule&#45;&gt;RolesOverviewComponent  -->
<g id="edge17" class="edge">
<title>RoleManangementModule&#45;&gt;RolesOverviewComponent </title>
<path fill="none" stroke="black" stroke-dasharray="5,2" d="M1247.46,-187.11C1247.46,-187.11 1247.46,-205.99 1247.46,-205.99"/>
<polygon fill="black" stroke="black" points="1243.96,-205.99 1247.46,-215.99 1250.96,-205.99 1243.96,-205.99"/>
</g>
<!-- ObjectHyperviewModule -->
<g id="node14" class="node">
<title>ObjectHyperviewModule</title>
<polygon fill="#8dd3c7" stroke="black" points="491.56,-122 488.56,-126 467.56,-126 464.56,-122 332.44,-122 332.44,-86 491.56,-86 491.56,-122"/>
<text text-anchor="middle" x="412" y="-99.8" font-family="Times,serif" font-size="14.00">ObjectHyperviewModule</text>
</g>
<!-- ObjectHyperviewModule&#45;&gt;RoleManangementModule -->
<g id="edge13" class="edge">
<title>ObjectHyperviewModule&#45;&gt;RoleManangementModule</title>
<path fill="none" stroke="black" d="M412,-122.03C412,-142.77 412,-174 412,-174 412,-174 1196.61,-174 1196.61,-174"/>
<polygon fill="black" stroke="black" points="1196.61,-177.5 1206.61,-174 1196.61,-170.5 1196.61,-177.5"/>
</g>
<!-- RoleMembershipsModule -->
<g id="node15" class="node">
<title>RoleMembershipsModule</title>
<polygon fill="#8dd3c7" stroke="black" points="314.2,-122 311.2,-126 290.2,-126 287.2,-122 151.8,-122 151.8,-86 314.2,-86 314.2,-122"/>
<text text-anchor="middle" x="233" y="-99.8" font-family="Times,serif" font-size="14.00">RoleMembershipsModule</text>
</g>
<!-- RoleMembershipsModule&#45;&gt;RoleManangementModule -->
<g id="edge14" class="edge">
<title>RoleMembershipsModule&#45;&gt;RoleManangementModule</title>
<path fill="none" stroke="black" d="M233,-122.29C233,-144.21 233,-178 233,-178 233,-178 1196.62,-178 1196.62,-178"/>
<polygon fill="black" stroke="black" points="1196.62,-181.5 1206.62,-178 1196.62,-174.5 1196.62,-181.5"/>
</g>
<!-- StatisticsModule -->
<g id="node16" class="node">
<title>StatisticsModule</title>
<polygon fill="#8dd3c7" stroke="black" points="134.1,-122 131.1,-126 110.1,-126 107.1,-122 23.9,-122 23.9,-86 134.1,-86 134.1,-122"/>
<text text-anchor="middle" x="79" y="-99.8" font-family="Times,serif" font-size="14.00">StatisticsModule</text>
</g>
<!-- StatisticsModule&#45;&gt;RoleManangementModule -->
<g id="edge15" class="edge">
<title>StatisticsModule&#45;&gt;RoleManangementModule</title>
<path fill="none" stroke="black" d="M79,-122.32C79,-145.66 79,-183 79,-183 79,-183 1196.76,-183 1196.76,-183"/>
<polygon fill="black" stroke="black" points="1196.76,-186.5 1206.76,-183 1196.76,-179.5 1196.76,-186.5"/>
</g>
</g>
</svg>
