<?xml version="1.0" encoding="UTF-8" standalone="no"?>
<!DOCTYPE svg PUBLIC "-//W3C//DTD SVG 1.1//EN"
 "http://www.w3.org/Graphics/SVG/1.1/DTD/svg11.dtd">
<!-- Generated by graphviz version 2.47.0 (20210316.0004)
 -->
<!-- Title: dependencies Pages: 1 -->
<svg width="504pt" height="284pt"
 viewBox="0.00 0.00 504.00 284.00" xmlns="http://www.w3.org/2000/svg" xmlns:xlink="http://www.w3.org/1999/xlink">
<g id="graph0" class="graph" transform="scale(1 1) rotate(0) translate(4 280)">
<title>dependencies</title>
<polygon fill="white" stroke="transparent" points="-4,4 -4,-280 500,-280 500,4 -4,4"/>
<text text-anchor="start" x="227.01" y="-42.4" font-family="Times-12" font-weight="bold" font-size="14.00">Legend</text>
<polygon fill="#ffffb3" stroke="transparent" points="14,-10 14,-30 34,-30 34,-10 14,-10"/>
<text text-anchor="start" x="37.63" y="-15.4" font-family="Times-12" font-size="14.00"> &#160;Declarations</text>
<polygon fill="#8dd3c7" stroke="transparent" points="127,-10 127,-30 147,-30 147,-10 127,-10"/>
<text text-anchor="start" x="150.73" y="-15.4" font-family="Times-12" font-size="14.00"> &#160;Module</text>
<polygon fill="#80b1d3" stroke="transparent" points="213,-10 213,-30 233,-30 233,-10 213,-10"/>
<text text-anchor="start" x="236.78" y="-15.4" font-family="Times-12" font-size="14.00"> &#160;Bootstrap</text>
<polygon fill="#fdb462" stroke="transparent" points="310,-10 310,-30 330,-30 330,-10 310,-10"/>
<text text-anchor="start" x="333.67" y="-15.4" font-family="Times-12" font-size="14.00"> &#160;Providers</text>
<polygon fill="#fb8072" stroke="transparent" points="406,-10 406,-30 426,-30 426,-10 406,-10"/>
<text text-anchor="start" x="429.73" y="-15.4" font-family="Times-12" font-size="14.00"> &#160;Exports</text>
<g id="clust1" class="cluster">
<title>cluster_ServiceItemTagsModule</title>
<polygon fill="none" stroke="black" stroke-dasharray="1,5" points="27,-70 27,-268 469,-268 469,-70 27,-70"/>
</g>
<g id="clust5" class="cluster">
<title>cluster_ServiceItemTagsModule_exports</title>
<polygon fill="none" stroke="black" points="142,-208 142,-260 338,-260 338,-208 142,-208"/>
</g>
<g id="clust7" class="cluster">
<title>cluster_ServiceItemTagsModule_providers</title>
<polygon fill="none" stroke="black" points="235,-78 235,-130 461,-130 461,-78 235,-78"/>
</g>
<g id="clust2" class="cluster">
<title>cluster_ServiceItemTagsModule_declarations</title>
<polygon fill="none" stroke="black" points="35,-78 35,-130 227,-130 227,-78 35,-78"/>
</g>
<!-- ServiceItemTagsComponent -->
<g id="node1" class="node">
<title>ServiceItemTagsComponent</title>
<polygon fill="#ffffb3" stroke="black" points="219.18,-122 42.82,-122 42.82,-86 219.18,-86 219.18,-122"/>
<text text-anchor="middle" x="131" y="-99.8" font-family="Times,serif" font-size="14.00">ServiceItemTagsComponent</text>
</g>
<!-- ServiceItemTagsModule -->
<g id="node2" class="node">
<title>ServiceItemTagsModule</title>
<polygon fill="#8dd3c7" stroke="black" points="317.4,-187 314.4,-191 293.4,-191 290.4,-187 162.6,-187 162.6,-151 317.4,-151 317.4,-187"/>
<text text-anchor="middle" x="240" y="-164.8" font-family="Times,serif" font-size="14.00">ServiceItemTagsModule</text>
</g>
<!-- ServiceItemTagsComponent&#45;&gt;ServiceItemTagsModule -->
<g id="edge1" class="edge">
<title>ServiceItemTagsComponent&#45;&gt;ServiceItemTagsModule</title>
<path fill="none" stroke="black" d="M190.95,-122.11C190.95,-122.11 190.95,-140.99 190.95,-140.99"/>
<polygon fill="black" stroke="black" points="187.45,-140.99 190.95,-150.99 194.45,-140.99 187.45,-140.99"/>
</g>
<!-- ServiceItemTagsComponent  -->
<g id="node3" class="node">
<title>ServiceItemTagsComponent </title>
<polygon fill="#fb8072" stroke="black" points="329.68,-252 150.32,-252 150.32,-216 329.68,-216 329.68,-252"/>
<text text-anchor="middle" x="240" y="-229.8" font-family="Times,serif" font-size="14.00">ServiceItemTagsComponent </text>
</g>
<!-- ServiceItemTagsModule&#45;&gt;ServiceItemTagsComponent  -->
<g id="edge2" class="edge">
<title>ServiceItemTagsModule&#45;&gt;ServiceItemTagsComponent </title>
<path fill="none" stroke="black" stroke-dasharray="5,2" d="M240,-187.11C240,-187.11 240,-205.99 240,-205.99"/>
<polygon fill="black" stroke="black" points="236.5,-205.99 240,-215.99 243.5,-205.99 236.5,-205.99"/>
</g>
<!-- ServiceItemTagsService -->
<g id="node4" class="node">
<title>ServiceItemTagsService</title>
<ellipse fill="#fdb462" stroke="black" cx="348" cy="-104" rx="105.33" ry="18"/>
<text text-anchor="middle" x="348" y="-99.8" font-family="Times,serif" font-size="14.00">ServiceItemTagsService</text>
</g>
<!-- ServiceItemTagsService&#45;&gt;ServiceItemTagsModule -->
<g id="edge3" class="edge">
<title>ServiceItemTagsService&#45;&gt;ServiceItemTagsModule</title>
<path fill="none" stroke="black" d="M279.89,-117.78C279.89,-117.78 279.89,-140.55 279.89,-140.55"/>
<polygon fill="black" stroke="black" points="276.39,-140.55 279.89,-150.55 283.39,-140.55 276.39,-140.55"/>
</g>
</g>
</svg>
