<?xml version="1.0" encoding="UTF-8" standalone="no"?>
<!DOCTYPE svg PUBLIC "-//W3C//DTD SVG 1.1//EN"
 "http://www.w3.org/Graphics/SVG/1.1/DTD/svg11.dtd">
<!-- Generated by graphviz version 2.47.0 (20210316.0004)
 -->
<!-- Title: dependencies Pages: 1 -->
<svg width="504pt" height="284pt"
 viewBox="0.00 0.00 504.00 284.00" xmlns="http://www.w3.org/2000/svg" xmlns:xlink="http://www.w3.org/1999/xlink">
<g id="graph0" class="graph" transform="scale(1 1) rotate(0) translate(4 280)">
<title>dependencies</title>
<polygon fill="white" stroke="transparent" points="-4,4 -4,-280 500,-280 500,4 -4,4"/>
<text text-anchor="start" x="227.01" y="-42.4" font-family="Times-12" font-weight="bold" font-size="14.00">Legend</text>
<polygon fill="#ffffb3" stroke="transparent" points="14,-10 14,-30 34,-30 34,-10 14,-10"/>
<text text-anchor="start" x="37.63" y="-15.4" font-family="Times-12" font-size="14.00"> &#160;Declarations</text>
<polygon fill="#8dd3c7" stroke="transparent" points="127,-10 127,-30 147,-30 147,-10 127,-10"/>
<text text-anchor="start" x="150.73" y="-15.4" font-family="Times-12" font-size="14.00"> &#160;Module</text>
<polygon fill="#80b1d3" stroke="transparent" points="213,-10 213,-30 233,-30 233,-10 213,-10"/>
<text text-anchor="start" x="236.78" y="-15.4" font-family="Times-12" font-size="14.00"> &#160;Bootstrap</text>
<polygon fill="#fdb462" stroke="transparent" points="310,-10 310,-30 330,-30 330,-10 310,-10"/>
<text text-anchor="start" x="333.67" y="-15.4" font-family="Times-12" font-size="14.00"> &#160;Providers</text>
<polygon fill="#fb8072" stroke="transparent" points="406,-10 406,-30 426,-30 426,-10 406,-10"/>
<text text-anchor="start" x="429.73" y="-15.4" font-family="Times-12" font-size="14.00"> &#160;Exports</text>
<g id="clust1" class="cluster">
<title>cluster_ExtModule</title>
<polygon fill="none" stroke="black" stroke-dasharray="1,5" points="64,-70 64,-268 432,-268 432,-70 64,-70"/>
</g>
<g id="clust2" class="cluster">
<title>cluster_ExtModule_declarations</title>
<polygon fill="none" stroke="black" points="202,-78 202,-130 424,-130 424,-78 202,-78"/>
</g>
<g id="clust8" class="cluster">
<title>cluster_ExtModule_providers</title>
<polygon fill="none" stroke="black" points="72,-78 72,-130 194,-130 194,-78 72,-78"/>
</g>
<g id="clust6" class="cluster">
<title>cluster_ExtModule_exports</title>
<polygon fill="none" stroke="black" points="139,-208 139,-260 369,-260 369,-208 139,-208"/>
</g>
<!-- ExtComponent -->
<g id="node1" class="node">
<title>ExtComponent</title>
<polygon fill="#ffffb3" stroke="black" points="416.28,-122 315.72,-122 315.72,-86 416.28,-86 416.28,-122"/>
<text text-anchor="middle" x="366" y="-99.8" font-family="Times,serif" font-size="14.00">ExtComponent</text>
</g>
<!-- ExtModule -->
<g id="node3" class="node">
<title>ExtModule</title>
<polygon fill="#8dd3c7" stroke="black" points="293.49,-187 290.49,-191 269.49,-191 266.49,-187 214.51,-187 214.51,-151 293.49,-151 293.49,-187"/>
<text text-anchor="middle" x="254" y="-164.8" font-family="Times,serif" font-size="14.00">ExtModule</text>
</g>
<!-- ExtComponent&#45;&gt;ExtModule -->
<g id="edge1" class="edge">
<title>ExtComponent&#45;&gt;ExtModule</title>
<path fill="none" stroke="black" d="M338.38,-122.11C338.38,-141.34 338.38,-169 338.38,-169 338.38,-169 303.72,-169 303.72,-169"/>
<polygon fill="black" stroke="black" points="303.72,-165.5 293.72,-169 303.72,-172.5 303.72,-165.5"/>
</g>
<!-- ExtDirective -->
<g id="node2" class="node">
<title>ExtDirective</title>
<polygon fill="#ffffb3" stroke="black" points="297.53,-122 210.47,-122 210.47,-86 297.53,-86 297.53,-122"/>
<text text-anchor="middle" x="254" y="-99.8" font-family="Times,serif" font-size="14.00">ExtDirective</text>
</g>
<!-- ExtDirective&#45;&gt;ExtModule -->
<g id="edge2" class="edge">
<title>ExtDirective&#45;&gt;ExtModule</title>
<path fill="none" stroke="black" d="M254,-122.11C254,-122.11 254,-140.99 254,-140.99"/>
<polygon fill="black" stroke="black" points="250.5,-140.99 254,-150.99 257.5,-140.99 250.5,-140.99"/>
</g>
<!-- ExtComponent  -->
<g id="node4" class="node">
<title>ExtComponent </title>
<polygon fill="#fb8072" stroke="black" points="361.28,-252 256.72,-252 256.72,-216 361.28,-216 361.28,-252"/>
<text text-anchor="middle" x="309" y="-229.8" font-family="Times,serif" font-size="14.00">ExtComponent </text>
</g>
<!-- ExtModule&#45;&gt;ExtComponent  -->
<g id="edge3" class="edge">
<title>ExtModule&#45;&gt;ExtComponent </title>
<path fill="none" stroke="black" stroke-dasharray="5,2" d="M275.18,-187.11C275.18,-187.11 275.18,-205.99 275.18,-205.99"/>
<polygon fill="black" stroke="black" points="271.68,-205.99 275.18,-215.99 278.68,-205.99 271.68,-205.99"/>
</g>
<!-- ExtDirective  -->
<g id="node5" class="node">
<title>ExtDirective </title>
<polygon fill="#fb8072" stroke="black" points="238.53,-252 147.47,-252 147.47,-216 238.53,-216 238.53,-252"/>
<text text-anchor="middle" x="193" y="-229.8" font-family="Times,serif" font-size="14.00">ExtDirective </text>
</g>
<!-- ExtModule&#45;&gt;ExtDirective  -->
<g id="edge4" class="edge">
<title>ExtModule&#45;&gt;ExtDirective </title>
<path fill="none" stroke="black" stroke-dasharray="5,2" d="M226.51,-187.11C226.51,-187.11 226.51,-205.99 226.51,-205.99"/>
<polygon fill="black" stroke="black" points="223.01,-205.99 226.51,-215.99 230.01,-205.99 223.01,-205.99"/>
</g>
<!-- ExtService -->
<g id="node6" class="node">
<title>ExtService</title>
<ellipse fill="#fdb462" stroke="black" cx="133" cy="-104" rx="53.31" ry="18"/>
<text text-anchor="middle" x="133" y="-99.8" font-family="Times,serif" font-size="14.00">ExtService</text>
</g>
<!-- ExtService&#45;&gt;ExtModule -->
<g id="edge5" class="edge">
<title>ExtService&#45;&gt;ExtModule</title>
<path fill="none" stroke="black" d="M166.95,-118.1C166.95,-137.22 166.95,-169 166.95,-169 166.95,-169 204.29,-169 204.29,-169"/>
<polygon fill="black" stroke="black" points="204.29,-172.5 214.29,-169 204.29,-165.5 204.29,-172.5"/>
</g>
</g>
</svg>
