<?xml version="1.0" encoding="UTF-8" standalone="no"?>
<!DOCTYPE svg PUBLIC "-//W3C//DTD SVG 1.1//EN"
 "http://www.w3.org/Graphics/SVG/1.1/DTD/svg11.dtd">
<!-- Generated by graphviz version 2.47.0 (20210316.0004)
 -->
<!-- Title: dependencies Pages: 1 -->
<svg width="504pt" height="284pt"
 viewBox="0.00 0.00 504.00 284.00" xmlns="http://www.w3.org/2000/svg" xmlns:xlink="http://www.w3.org/1999/xlink">
<g id="graph0" class="graph" transform="scale(1 1) rotate(0) translate(4 280)">
<title>dependencies</title>
<polygon fill="white" stroke="transparent" points="-4,4 -4,-280 500,-280 500,4 -4,4"/>
<text text-anchor="start" x="227.01" y="-42.4" font-family="Times-12" font-weight="bold" font-size="14.00">Legend</text>
<polygon fill="#ffffb3" stroke="transparent" points="14,-10 14,-30 34,-30 34,-10 14,-10"/>
<text text-anchor="start" x="37.63" y="-15.4" font-family="Times-12" font-size="14.00"> &#160;Declarations</text>
<polygon fill="#8dd3c7" stroke="transparent" points="127,-10 127,-30 147,-30 147,-10 127,-10"/>
<text text-anchor="start" x="150.73" y="-15.4" font-family="Times-12" font-size="14.00"> &#160;Module</text>
<polygon fill="#80b1d3" stroke="transparent" points="213,-10 213,-30 233,-30 233,-10 213,-10"/>
<text text-anchor="start" x="236.78" y="-15.4" font-family="Times-12" font-size="14.00"> &#160;Bootstrap</text>
<polygon fill="#fdb462" stroke="transparent" points="310,-10 310,-30 330,-30 330,-10 310,-10"/>
<text text-anchor="start" x="333.67" y="-15.4" font-family="Times-12" font-size="14.00"> &#160;Providers</text>
<polygon fill="#fb8072" stroke="transparent" points="406,-10 406,-30 426,-30 426,-10 406,-10"/>
<text text-anchor="start" x="429.73" y="-15.4" font-family="Times-12" font-size="14.00"> &#160;Exports</text>
<g id="clust1" class="cluster">
<title>cluster_MastHeadModule</title>
<polygon fill="none" stroke="black" stroke-dasharray="1,5" points="71,-70 71,-268 425,-268 425,-70 71,-70"/>
</g>
<g id="clust7" class="cluster">
<title>cluster_MastHeadModule_providers</title>
<polygon fill="none" stroke="black" points="241,-78 241,-130 417,-130 417,-78 241,-78"/>
</g>
<g id="clust5" class="cluster">
<title>cluster_MastHeadModule_exports</title>
<polygon fill="none" stroke="black" points="164,-208 164,-260 322,-260 322,-208 164,-208"/>
</g>
<g id="clust2" class="cluster">
<title>cluster_MastHeadModule_declarations</title>
<polygon fill="none" stroke="black" points="79,-78 79,-130 233,-130 233,-78 79,-78"/>
</g>
<!-- MastHeadComponent -->
<g id="node1" class="node">
<title>MastHeadComponent</title>
<polygon fill="#ffffb3" stroke="black" points="225.36,-122 86.64,-122 86.64,-86 225.36,-86 225.36,-122"/>
<text text-anchor="middle" x="156" y="-99.8" font-family="Times,serif" font-size="14.00">MastHeadComponent</text>
</g>
<!-- MastHeadModule -->
<g id="node2" class="node">
<title>MastHeadModule</title>
<polygon fill="#8dd3c7" stroke="black" points="301.58,-187 298.58,-191 277.58,-191 274.58,-187 184.42,-187 184.42,-151 301.58,-151 301.58,-187"/>
<text text-anchor="middle" x="243" y="-164.8" font-family="Times,serif" font-size="14.00">MastHeadModule</text>
</g>
<!-- MastHeadComponent&#45;&gt;MastHeadModule -->
<g id="edge1" class="edge">
<title>MastHeadComponent&#45;&gt;MastHeadModule</title>
<path fill="none" stroke="black" d="M204.95,-122.11C204.95,-122.11 204.95,-140.99 204.95,-140.99"/>
<polygon fill="black" stroke="black" points="201.45,-140.99 204.95,-150.99 208.45,-140.99 201.45,-140.99"/>
</g>
<!-- MastHeadComponent  -->
<g id="node3" class="node">
<title>MastHeadComponent </title>
<polygon fill="#fb8072" stroke="black" points="314.36,-252 171.64,-252 171.64,-216 314.36,-216 314.36,-252"/>
<text text-anchor="middle" x="243" y="-229.8" font-family="Times,serif" font-size="14.00">MastHeadComponent </text>
</g>
<!-- MastHeadModule&#45;&gt;MastHeadComponent  -->
<g id="edge2" class="edge">
<title>MastHeadModule&#45;&gt;MastHeadComponent </title>
<path fill="none" stroke="black" stroke-dasharray="5,2" d="M243,-187.11C243,-187.11 243,-205.99 243,-205.99"/>
<polygon fill="black" stroke="black" points="239.5,-205.99 243,-215.99 246.5,-205.99 239.5,-205.99"/>
</g>
<!-- MastHeadService -->
<g id="node4" class="node">
<title>MastHeadService</title>
<ellipse fill="#fdb462" stroke="black" cx="329" cy="-104" rx="79.85" ry="18"/>
<text text-anchor="middle" x="329" y="-99.8" font-family="Times,serif" font-size="14.00">MastHeadService</text>
</g>
<!-- MastHeadService&#45;&gt;MastHeadModule -->
<g id="edge3" class="edge">
<title>MastHeadService&#45;&gt;MastHeadModule</title>
<path fill="none" stroke="black" d="M275.43,-117.47C275.43,-117.47 275.43,-140.86 275.43,-140.86"/>
<polygon fill="black" stroke="black" points="271.93,-140.86 275.43,-150.86 278.93,-140.86 271.93,-140.86"/>
</g>
</g>
</svg>
