<?xml version="1.0" encoding="UTF-8" standalone="no"?>
<!DOCTYPE svg PUBLIC "-//W3C//DTD SVG 1.1//EN"
 "http://www.w3.org/Graphics/SVG/1.1/DTD/svg11.dtd">
<!-- Generated by graphviz version 2.47.0 (20210316.0004)
 -->
<!-- Title: dependencies Pages: 1 -->
<svg width="1831pt" height="284pt"
 viewBox="0.00 0.00 1831.00 284.00" xmlns="http://www.w3.org/2000/svg" xmlns:xlink="http://www.w3.org/1999/xlink">
<g id="graph0" class="graph" transform="scale(1 1) rotate(0) translate(4 280)">
<title>dependencies</title>
<polygon fill="white" stroke="transparent" points="-4,4 -4,-280 1827,-280 1827,4 -4,4"/>
<text text-anchor="start" x="890.51" y="-42.4" font-family="Times-12" font-weight="bold" font-size="14.00">Legend</text>
<polygon fill="#ffffb3" stroke="transparent" points="677.5,-10 677.5,-30 697.5,-30 697.5,-10 677.5,-10"/>
<text text-anchor="start" x="701.13" y="-15.4" font-family="Times-12" font-size="14.00"> &#160;Declarations</text>
<polygon fill="#8dd3c7" stroke="transparent" points="790.5,-10 790.5,-30 810.5,-30 810.5,-10 790.5,-10"/>
<text text-anchor="start" x="814.23" y="-15.4" font-family="Times-12" font-size="14.00"> &#160;Module</text>
<polygon fill="#80b1d3" stroke="transparent" points="876.5,-10 876.5,-30 896.5,-30 896.5,-10 876.5,-10"/>
<text text-anchor="start" x="900.28" y="-15.4" font-family="Times-12" font-size="14.00"> &#160;Bootstrap</text>
<polygon fill="#fdb462" stroke="transparent" points="973.5,-10 973.5,-30 993.5,-30 993.5,-10 973.5,-10"/>
<text text-anchor="start" x="997.17" y="-15.4" font-family="Times-12" font-size="14.00"> &#160;Providers</text>
<polygon fill="#fb8072" stroke="transparent" points="1069.5,-10 1069.5,-30 1089.5,-30 1089.5,-10 1069.5,-10"/>
<text text-anchor="start" x="1093.23" y="-15.4" font-family="Times-12" font-size="14.00"> &#160;Exports</text>
<g id="clust1" class="cluster">
<title>cluster_SqlWizardModule</title>
<polygon fill="none" stroke="black" stroke-dasharray="1,5" points="8,-70 8,-268 1815,-268 1815,-70 8,-70"/>
</g>
<g id="clust12" class="cluster">
<title>cluster_SqlWizardModule_exports</title>
<polygon fill="none" stroke="black" points="880,-208 880,-260 1040,-260 1040,-208 880,-208"/>
</g>
<g id="clust14" class="cluster">
<title>cluster_SqlWizardModule_providers</title>
<polygon fill="none" stroke="black" points="1629,-78 1629,-130 1807,-130 1807,-78 1629,-78"/>
</g>
<g id="clust11" class="cluster">
<title>cluster_SqlWizardModule_imports</title>
<polygon fill="none" stroke="black" points="1525,-78 1525,-130 1621,-130 1621,-78 1525,-78"/>
</g>
<g id="clust2" class="cluster">
<title>cluster_SqlWizardModule_declarations</title>
<polygon fill="none" stroke="black" points="16,-78 16,-130 1517,-130 1517,-78 16,-78"/>
</g>
<!-- ColumnSelectionComponent -->
<g id="node1" class="node">
<title>ColumnSelectionComponent</title>
<polygon fill="#ffffb3" stroke="black" points="1509.05,-122 1330.95,-122 1330.95,-86 1509.05,-86 1509.05,-122"/>
<text text-anchor="middle" x="1420" y="-99.8" font-family="Times,serif" font-size="14.00">ColumnSelectionComponent</text>
</g>
<!-- SqlWizardModule -->
<g id="node9" class="node">
<title>SqlWizardModule</title>
<polygon fill="#8dd3c7" stroke="black" points="1019.92,-187 1016.92,-191 995.92,-191 992.92,-187 900.08,-187 900.08,-151 1019.92,-151 1019.92,-187"/>
<text text-anchor="middle" x="960" y="-164.8" font-family="Times,serif" font-size="14.00">SqlWizardModule</text>
</g>
<!-- ColumnSelectionComponent&#45;&gt;SqlWizardModule -->
<g id="edge1" class="edge">
<title>ColumnSelectionComponent&#45;&gt;SqlWizardModule</title>
<path fill="none" stroke="black" d="M1420,-122.27C1420,-140.56 1420,-166 1420,-166 1420,-166 1030.14,-166 1030.14,-166"/>
<polygon fill="black" stroke="black" points="1030.14,-162.5 1020.14,-166 1030.14,-169.5 1030.14,-162.5"/>
</g>
<!-- DatePickerComponent -->
<g id="node2" class="node">
<title>DatePickerComponent</title>
<polygon fill="#ffffb3" stroke="black" points="1312.52,-122 1169.48,-122 1169.48,-86 1312.52,-86 1312.52,-122"/>
<text text-anchor="middle" x="1241" y="-99.8" font-family="Times,serif" font-size="14.00">DatePickerComponent</text>
</g>
<!-- DatePickerComponent&#45;&gt;SqlWizardModule -->
<g id="edge2" class="edge">
<title>DatePickerComponent&#45;&gt;SqlWizardModule</title>
<path fill="none" stroke="black" d="M1241,-122.01C1241,-138.05 1241,-159 1241,-159 1241,-159 1029.94,-159 1029.94,-159"/>
<polygon fill="black" stroke="black" points="1029.94,-155.5 1019.94,-159 1029.94,-162.5 1029.94,-155.5"/>
</g>
<!-- SimpleExpressionComponent -->
<g id="node3" class="node">
<title>SimpleExpressionComponent</title>
<polygon fill="#ffffb3" stroke="black" points="1151.71,-122 968.29,-122 968.29,-86 1151.71,-86 1151.71,-122"/>
<text text-anchor="middle" x="1060" y="-99.8" font-family="Times,serif" font-size="14.00">SimpleExpressionComponent</text>
</g>
<!-- SimpleExpressionComponent&#45;&gt;SqlWizardModule -->
<g id="edge3" class="edge">
<title>SimpleExpressionComponent&#45;&gt;SqlWizardModule</title>
<path fill="none" stroke="black" d="M994.05,-122.11C994.05,-122.11 994.05,-140.99 994.05,-140.99"/>
<polygon fill="black" stroke="black" points="990.55,-140.99 994.05,-150.99 997.55,-140.99 990.55,-140.99"/>
</g>
<!-- SingleExpressionComponent -->
<g id="node4" class="node">
<title>SingleExpressionComponent</title>
<polygon fill="#ffffb3" stroke="black" points="950.82,-122 771.18,-122 771.18,-86 950.82,-86 950.82,-122"/>
<text text-anchor="middle" x="861" y="-99.8" font-family="Times,serif" font-size="14.00">SingleExpressionComponent</text>
</g>
<!-- SingleExpressionComponent&#45;&gt;SqlWizardModule -->
<g id="edge4" class="edge">
<title>SingleExpressionComponent&#45;&gt;SqlWizardModule</title>
<path fill="none" stroke="black" d="M925.48,-122.11C925.48,-122.11 925.48,-140.99 925.48,-140.99"/>
<polygon fill="black" stroke="black" points="921.98,-140.99 925.48,-150.99 928.98,-140.99 921.98,-140.99"/>
</g>
<!-- SingleValueComponent -->
<g id="node5" class="node">
<title>SingleValueComponent</title>
<polygon fill="#ffffb3" stroke="black" points="753.04,-122 602.96,-122 602.96,-86 753.04,-86 753.04,-122"/>
<text text-anchor="middle" x="678" y="-99.8" font-family="Times,serif" font-size="14.00">SingleValueComponent</text>
</g>
<!-- SingleValueComponent&#45;&gt;SqlWizardModule -->
<g id="edge5" class="edge">
<title>SingleValueComponent&#45;&gt;SqlWizardModule</title>
<path fill="none" stroke="black" d="M678,-122.01C678,-138.05 678,-159 678,-159 678,-159 890.2,-159 890.2,-159"/>
<polygon fill="black" stroke="black" points="890.2,-162.5 900.2,-159 890.2,-155.5 890.2,-162.5"/>
</g>
<!-- SqlWizardComponent -->
<g id="node6" class="node">
<title>SqlWizardComponent</title>
<polygon fill="#ffffb3" stroke="black" points="584.7,-122 443.3,-122 443.3,-86 584.7,-86 584.7,-122"/>
<text text-anchor="middle" x="514" y="-99.8" font-family="Times,serif" font-size="14.00">SqlWizardComponent</text>
</g>
<!-- SqlWizardComponent&#45;&gt;SqlWizardModule -->
<g id="edge6" class="edge">
<title>SqlWizardComponent&#45;&gt;SqlWizardModule</title>
<path fill="none" stroke="black" d="M514,-122.27C514,-140.56 514,-166 514,-166 514,-166 889.85,-166 889.85,-166"/>
<polygon fill="black" stroke="black" points="889.85,-169.5 899.85,-166 889.85,-162.5 889.85,-169.5"/>
</g>
<!-- TableSelectionComponent -->
<g id="node7" class="node">
<title>TableSelectionComponent</title>
<polygon fill="#ffffb3" stroke="black" points="425.8,-122 260.2,-122 260.2,-86 425.8,-86 425.8,-122"/>
<text text-anchor="middle" x="343" y="-99.8" font-family="Times,serif" font-size="14.00">TableSelectionComponent</text>
</g>
<!-- TableSelectionComponent&#45;&gt;SqlWizardModule -->
<g id="edge7" class="edge">
<title>TableSelectionComponent&#45;&gt;SqlWizardModule</title>
<path fill="none" stroke="black" d="M343,-122.13C343,-142.57 343,-173 343,-173 343,-173 890.28,-173 890.28,-173"/>
<polygon fill="black" stroke="black" points="890.28,-176.5 900.28,-173 890.28,-169.5 890.28,-176.5"/>
</g>
<!-- WhereClauseExpressionComponent -->
<g id="node8" class="node">
<title>WhereClauseExpressionComponent</title>
<polygon fill="#ffffb3" stroke="black" points="242.45,-122 23.55,-122 23.55,-86 242.45,-86 242.45,-122"/>
<text text-anchor="middle" x="133" y="-99.8" font-family="Times,serif" font-size="14.00">WhereClauseExpressionComponent</text>
</g>
<!-- WhereClauseExpressionComponent&#45;&gt;SqlWizardModule -->
<g id="edge8" class="edge">
<title>WhereClauseExpressionComponent&#45;&gt;SqlWizardModule</title>
<path fill="none" stroke="black" d="M133,-122.01C133,-144.49 133,-180 133,-180 133,-180 890.19,-180 890.19,-180"/>
<polygon fill="black" stroke="black" points="890.19,-183.5 900.19,-180 890.19,-176.5 890.19,-183.5"/>
</g>
<!-- SqlWizardComponent  -->
<g id="node11" class="node">
<title>SqlWizardComponent </title>
<polygon fill="#fb8072" stroke="black" points="1032.2,-252 887.8,-252 887.8,-216 1032.2,-216 1032.2,-252"/>
<text text-anchor="middle" x="960" y="-229.8" font-family="Times,serif" font-size="14.00">SqlWizardComponent </text>
</g>
<!-- SqlWizardModule&#45;&gt;SqlWizardComponent  -->
<g id="edge10" class="edge">
<title>SqlWizardModule&#45;&gt;SqlWizardComponent </title>
<path fill="none" stroke="black" stroke-dasharray="5,2" d="M960,-187.11C960,-187.11 960,-205.99 960,-205.99"/>
<polygon fill="black" stroke="black" points="956.5,-205.99 960,-215.99 963.5,-205.99 956.5,-205.99"/>
</g>
<!-- CdrModule -->
<g id="node10" class="node">
<title>CdrModule</title>
<polygon fill="#8dd3c7" stroke="black" points="1613.05,-122 1610.05,-126 1589.05,-126 1586.05,-122 1532.95,-122 1532.95,-86 1613.05,-86 1613.05,-122"/>
<text text-anchor="middle" x="1573" y="-99.8" font-family="Times,serif" font-size="14.00">CdrModule</text>
</g>
<!-- CdrModule&#45;&gt;SqlWizardModule -->
<g id="edge9" class="edge">
<title>CdrModule&#45;&gt;SqlWizardModule</title>
<path fill="none" stroke="black" d="M1573,-122.13C1573,-142.57 1573,-173 1573,-173 1573,-173 1029.89,-173 1029.89,-173"/>
<polygon fill="black" stroke="black" points="1029.89,-169.5 1019.89,-173 1029.89,-176.5 1029.89,-169.5"/>
</g>
<!-- SqlWizardService -->
<g id="node12" class="node">
<title>SqlWizardService</title>
<ellipse fill="#fdb462" stroke="black" cx="1718" cy="-104" rx="81.08" ry="18"/>
<text text-anchor="middle" x="1718" y="-99.8" font-family="Times,serif" font-size="14.00">SqlWizardService</text>
</g>
<!-- SqlWizardService&#45;&gt;SqlWizardModule -->
<g id="edge11" class="edge">
<title>SqlWizardService&#45;&gt;SqlWizardModule</title>
<path fill="none" stroke="black" d="M1718,-122.01C1718,-144.49 1718,-180 1718,-180 1718,-180 1029.8,-180 1029.8,-180"/>
<polygon fill="black" stroke="black" points="1029.8,-176.5 1019.8,-180 1029.8,-183.5 1029.8,-176.5"/>
</g>
</g>
</svg>
