<?xml version="1.0" encoding="UTF-8" standalone="no"?>
<!DOCTYPE svg PUBLIC "-//W3C//DTD SVG 1.1//EN"
 "http://www.w3.org/Graphics/SVG/1.1/DTD/svg11.dtd">
<!-- Generated by graphviz version 2.47.0 (20210316.0004)
 -->
<!-- Title: dependencies Pages: 1 -->
<svg width="646pt" height="284pt"
 viewBox="0.00 0.00 646.00 284.00" xmlns="http://www.w3.org/2000/svg" xmlns:xlink="http://www.w3.org/1999/xlink">
<g id="graph0" class="graph" transform="scale(1 1) rotate(0) translate(4 280)">
<title>dependencies</title>
<polygon fill="white" stroke="transparent" points="-4,4 -4,-280 642,-280 642,4 -4,4"/>
<text text-anchor="start" x="298.01" y="-42.4" font-family="Times-12" font-weight="bold" font-size="14.00">Legend</text>
<polygon fill="#ffffb3" stroke="transparent" points="85,-10 85,-30 105,-30 105,-10 85,-10"/>
<text text-anchor="start" x="108.63" y="-15.4" font-family="Times-12" font-size="14.00"> &#160;Declarations</text>
<polygon fill="#8dd3c7" stroke="transparent" points="198,-10 198,-30 218,-30 218,-10 198,-10"/>
<text text-anchor="start" x="221.73" y="-15.4" font-family="Times-12" font-size="14.00"> &#160;Module</text>
<polygon fill="#80b1d3" stroke="transparent" points="284,-10 284,-30 304,-30 304,-10 284,-10"/>
<text text-anchor="start" x="307.78" y="-15.4" font-family="Times-12" font-size="14.00"> &#160;Bootstrap</text>
<polygon fill="#fdb462" stroke="transparent" points="381,-10 381,-30 401,-30 401,-10 381,-10"/>
<text text-anchor="start" x="404.67" y="-15.4" font-family="Times-12" font-size="14.00"> &#160;Providers</text>
<polygon fill="#fb8072" stroke="transparent" points="477,-10 477,-30 497,-30 497,-10 477,-10"/>
<text text-anchor="start" x="500.73" y="-15.4" font-family="Times-12" font-size="14.00"> &#160;Exports</text>
<g id="clust1" class="cluster">
<title>cluster_SourceDetectiveModule</title>
<polygon fill="none" stroke="black" stroke-dasharray="1,5" points="8,-70 8,-268 630,-268 630,-70 8,-70"/>
</g>
<g id="clust5" class="cluster">
<title>cluster_SourceDetectiveModule_imports</title>
<polygon fill="none" stroke="black" points="460,-78 460,-130 622,-130 622,-78 460,-78"/>
</g>
<g id="clust6" class="cluster">
<title>cluster_SourceDetectiveModule_exports</title>
<polygon fill="none" stroke="black" points="260,-208 260,-260 454,-260 454,-208 260,-208"/>
</g>
<g id="clust2" class="cluster">
<title>cluster_SourceDetectiveModule_declarations</title>
<polygon fill="none" stroke="black" points="16,-78 16,-130 452,-130 452,-78 16,-78"/>
</g>
<!-- SourceDetectiveComponent -->
<g id="node1" class="node">
<title>SourceDetectiveComponent</title>
<polygon fill="#ffffb3" stroke="black" points="443.84,-122 270.16,-122 270.16,-86 443.84,-86 443.84,-122"/>
<text text-anchor="middle" x="357" y="-99.8" font-family="Times,serif" font-size="14.00">SourceDetectiveComponent</text>
</g>
<!-- SourceDetectiveModule -->
<g id="node3" class="node">
<title>SourceDetectiveModule</title>
<polygon fill="#8dd3c7" stroke="black" points="433.06,-187 430.06,-191 409.06,-191 406.06,-187 280.94,-187 280.94,-151 433.06,-151 433.06,-187"/>
<text text-anchor="middle" x="357" y="-164.8" font-family="Times,serif" font-size="14.00">SourceDetectiveModule</text>
</g>
<!-- SourceDetectiveComponent&#45;&gt;SourceDetectiveModule -->
<g id="edge1" class="edge">
<title>SourceDetectiveComponent&#45;&gt;SourceDetectiveModule</title>
<path fill="none" stroke="black" d="M357,-122.11C357,-122.11 357,-140.99 357,-140.99"/>
<polygon fill="black" stroke="black" points="353.5,-140.99 357,-150.99 360.5,-140.99 353.5,-140.99"/>
</g>
<!-- SourceDetectiveSidesheetComponent -->
<g id="node2" class="node">
<title>SourceDetectiveSidesheetComponent</title>
<polygon fill="#ffffb3" stroke="black" points="251.99,-122 24.01,-122 24.01,-86 251.99,-86 251.99,-122"/>
<text text-anchor="middle" x="138" y="-99.8" font-family="Times,serif" font-size="14.00">SourceDetectiveSidesheetComponent</text>
</g>
<!-- SourceDetectiveSidesheetComponent&#45;&gt;SourceDetectiveModule -->
<g id="edge2" class="edge">
<title>SourceDetectiveSidesheetComponent&#45;&gt;SourceDetectiveModule</title>
<path fill="none" stroke="black" d="M138,-122.11C138,-141.34 138,-169 138,-169 138,-169 270.71,-169 270.71,-169"/>
<polygon fill="black" stroke="black" points="270.71,-172.5 280.71,-169 270.71,-165.5 270.71,-172.5"/>
</g>
<!-- SourceDetectiveComponent  -->
<g id="node5" class="node">
<title>SourceDetectiveComponent </title>
<polygon fill="#fb8072" stroke="black" points="445.84,-252 268.16,-252 268.16,-216 445.84,-216 445.84,-252"/>
<text text-anchor="middle" x="357" y="-229.8" font-family="Times,serif" font-size="14.00">SourceDetectiveComponent </text>
</g>
<!-- SourceDetectiveModule&#45;&gt;SourceDetectiveComponent  -->
<g id="edge4" class="edge">
<title>SourceDetectiveModule&#45;&gt;SourceDetectiveComponent </title>
<path fill="none" stroke="black" stroke-dasharray="5,2" d="M357,-187.11C357,-187.11 357,-205.99 357,-205.99"/>
<polygon fill="black" stroke="black" points="353.5,-205.99 357,-215.99 360.5,-205.99 353.5,-205.99"/>
</g>
<!-- RequestHistoryModule -->
<g id="node4" class="node">
<title>RequestHistoryModule</title>
<polygon fill="#8dd3c7" stroke="black" points="614.14,-122 611.14,-126 590.14,-126 587.14,-122 467.86,-122 467.86,-86 614.14,-86 614.14,-122"/>
<text text-anchor="middle" x="541" y="-99.8" font-family="Times,serif" font-size="14.00">RequestHistoryModule</text>
</g>
<!-- RequestHistoryModule&#45;&gt;SourceDetectiveModule -->
<g id="edge3" class="edge">
<title>RequestHistoryModule&#45;&gt;SourceDetectiveModule</title>
<path fill="none" stroke="black" d="M541,-122.11C541,-141.34 541,-169 541,-169 541,-169 443.17,-169 443.17,-169"/>
<polygon fill="black" stroke="black" points="443.17,-165.5 433.17,-169 443.17,-172.5 443.17,-165.5"/>
</g>
</g>
</svg>
