<?xml version="1.0" encoding="UTF-8" standalone="no"?>
<!DOCTYPE svg PUBLIC "-//W3C//DTD SVG 1.1//EN"
 "http://www.w3.org/Graphics/SVG/1.1/DTD/svg11.dtd">
<!-- Generated by graphviz version 2.47.0 (20210316.0004)
 -->
<!-- Title: dependencies Pages: 1 -->
<svg width="2028pt" height="211pt"
 viewBox="0.00 0.00 2028.00 211.00" xmlns="http://www.w3.org/2000/svg" xmlns:xlink="http://www.w3.org/1999/xlink">
<g id="graph0" class="graph" transform="scale(1 1) rotate(0) translate(4 207)">
<title>dependencies</title>
<polygon fill="white" stroke="transparent" points="-4,4 -4,-207 2024,-207 2024,4 -4,4"/>
<text text-anchor="start" x="989.01" y="-42.4" font-family="Times-12" font-weight="bold" font-size="14.00">Legend</text>
<polygon fill="#ffffb3" stroke="transparent" points="776,-10 776,-30 796,-30 796,-10 776,-10"/>
<text text-anchor="start" x="799.63" y="-15.4" font-family="Times-12" font-size="14.00"> &#160;Declarations</text>
<polygon fill="#8dd3c7" stroke="transparent" points="889,-10 889,-30 909,-30 909,-10 889,-10"/>
<text text-anchor="start" x="912.73" y="-15.4" font-family="Times-12" font-size="14.00"> &#160;Module</text>
<polygon fill="#80b1d3" stroke="transparent" points="975,-10 975,-30 995,-30 995,-10 975,-10"/>
<text text-anchor="start" x="998.78" y="-15.4" font-family="Times-12" font-size="14.00"> &#160;Bootstrap</text>
<polygon fill="#fdb462" stroke="transparent" points="1072,-10 1072,-30 1092,-30 1092,-10 1072,-10"/>
<text text-anchor="start" x="1095.67" y="-15.4" font-family="Times-12" font-size="14.00"> &#160;Providers</text>
<polygon fill="#fb8072" stroke="transparent" points="1168,-10 1168,-30 1188,-30 1188,-10 1168,-10"/>
<text text-anchor="start" x="1191.73" y="-15.4" font-family="Times-12" font-size="14.00"> &#160;Exports</text>
<g id="clust1" class="cluster">
<title>cluster_RoleMembershipsModule</title>
<polygon fill="none" stroke="black" stroke-dasharray="1,5" points="8,-70 8,-195 2012,-195 2012,-70 8,-70"/>
</g>
<g id="clust2" class="cluster">
<title>cluster_RoleMembershipsModule_declarations</title>
<polygon fill="none" stroke="black" points="192,-78 192,-130 2004,-130 2004,-78 192,-78"/>
</g>
<g id="clust11" class="cluster">
<title>cluster_RoleMembershipsModule_imports</title>
<polygon fill="none" stroke="black" points="16,-78 16,-130 184,-130 184,-78 16,-78"/>
</g>
<!-- DynamicRoleComponent -->
<g id="node1" class="node">
<title>DynamicRoleComponent</title>
<polygon fill="#ffffb3" stroke="black" points="1995.59,-122 1836.41,-122 1836.41,-86 1995.59,-86 1995.59,-122"/>
<text text-anchor="middle" x="1916" y="-99.8" font-family="Times,serif" font-size="14.00">DynamicRoleComponent</text>
</g>
<!-- RoleMembershipsModule -->
<g id="node9" class="node">
<title>RoleMembershipsModule</title>
<polygon fill="#8dd3c7" stroke="black" points="1035.2,-187 1032.2,-191 1011.2,-191 1008.2,-187 872.8,-187 872.8,-151 1035.2,-151 1035.2,-187"/>
<text text-anchor="middle" x="954" y="-164.8" font-family="Times,serif" font-size="14.00">RoleMembershipsModule</text>
</g>
<!-- DynamicRoleComponent&#45;&gt;RoleMembershipsModule -->
<g id="edge1" class="edge">
<title>DynamicRoleComponent&#45;&gt;RoleMembershipsModule</title>
<path fill="none" stroke="black" d="M1916,-122.01C1916,-144.49 1916,-180 1916,-180 1916,-180 1045.19,-180 1045.19,-180"/>
<polygon fill="black" stroke="black" points="1045.19,-176.5 1035.19,-180 1045.19,-183.5 1045.19,-176.5"/>
</g>
<!-- ExcludedMembershipsComponent -->
<g id="node2" class="node">
<title>ExcludedMembershipsComponent</title>
<polygon fill="#ffffb3" stroke="black" points="1818.41,-122 1607.59,-122 1607.59,-86 1818.41,-86 1818.41,-122"/>
<text text-anchor="middle" x="1713" y="-99.8" font-family="Times,serif" font-size="14.00">ExcludedMembershipsComponent</text>
</g>
<!-- ExcludedMembershipsComponent&#45;&gt;RoleMembershipsModule -->
<g id="edge2" class="edge">
<title>ExcludedMembershipsComponent&#45;&gt;RoleMembershipsModule</title>
<path fill="none" stroke="black" d="M1713,-122.13C1713,-142.57 1713,-173 1713,-173 1713,-173 1045.23,-173 1045.23,-173"/>
<polygon fill="black" stroke="black" points="1045.23,-169.5 1035.23,-173 1045.23,-176.5 1045.23,-169.5"/>
</g>
<!-- MembershipsChooseIdentitiesComponent -->
<g id="node3" class="node">
<title>MembershipsChooseIdentitiesComponent</title>
<polygon fill="#ffffb3" stroke="black" points="1589.63,-122 1338.37,-122 1338.37,-86 1589.63,-86 1589.63,-122"/>
<text text-anchor="middle" x="1464" y="-99.8" font-family="Times,serif" font-size="14.00">MembershipsChooseIdentitiesComponent</text>
</g>
<!-- MembershipsChooseIdentitiesComponent&#45;&gt;RoleMembershipsModule -->
<g id="edge3" class="edge">
<title>MembershipsChooseIdentitiesComponent&#45;&gt;RoleMembershipsModule</title>
<path fill="none" stroke="black" d="M1464,-122.27C1464,-140.56 1464,-166 1464,-166 1464,-166 1045.37,-166 1045.37,-166"/>
<polygon fill="black" stroke="black" points="1045.37,-162.5 1035.37,-166 1045.37,-169.5 1045.37,-162.5"/>
</g>
<!-- NotRequestableMembershipsComponent -->
<g id="node4" class="node">
<title>NotRequestableMembershipsComponent</title>
<polygon fill="#ffffb3" stroke="black" points="1320.46,-122 1073.54,-122 1073.54,-86 1320.46,-86 1320.46,-122"/>
<text text-anchor="middle" x="1197" y="-99.8" font-family="Times,serif" font-size="14.00">NotRequestableMembershipsComponent</text>
</g>
<!-- NotRequestableMembershipsComponent&#45;&gt;RoleMembershipsModule -->
<g id="edge4" class="edge">
<title>NotRequestableMembershipsComponent&#45;&gt;RoleMembershipsModule</title>
<path fill="none" stroke="black" d="M1197,-122.01C1197,-138.05 1197,-159 1197,-159 1197,-159 1045.25,-159 1045.25,-159"/>
<polygon fill="black" stroke="black" points="1045.25,-155.5 1035.25,-159 1045.25,-162.5 1045.25,-155.5"/>
</g>
<!-- PrimaryMembershipsComponent -->
<g id="node5" class="node">
<title>PrimaryMembershipsComponent</title>
<polygon fill="#ffffb3" stroke="black" points="1055.14,-122 852.86,-122 852.86,-86 1055.14,-86 1055.14,-122"/>
<text text-anchor="middle" x="954" y="-99.8" font-family="Times,serif" font-size="14.00">PrimaryMembershipsComponent</text>
</g>
<!-- PrimaryMembershipsComponent&#45;&gt;RoleMembershipsModule -->
<g id="edge5" class="edge">
<title>PrimaryMembershipsComponent&#45;&gt;RoleMembershipsModule</title>
<path fill="none" stroke="black" d="M954,-122.11C954,-122.11 954,-140.99 954,-140.99"/>
<polygon fill="black" stroke="black" points="950.5,-140.99 954,-150.99 957.5,-140.99 950.5,-140.99"/>
</g>
<!-- RemoveMembershipComponent -->
<g id="node6" class="node">
<title>RemoveMembershipComponent</title>
<polygon fill="#ffffb3" stroke="black" points="834.25,-122 635.75,-122 635.75,-86 834.25,-86 834.25,-122"/>
<text text-anchor="middle" x="735" y="-99.8" font-family="Times,serif" font-size="14.00">RemoveMembershipComponent</text>
</g>
<!-- RemoveMembershipComponent&#45;&gt;RoleMembershipsModule -->
<g id="edge6" class="edge">
<title>RemoveMembershipComponent&#45;&gt;RoleMembershipsModule</title>
<path fill="none" stroke="black" d="M735,-122.01C735,-138.05 735,-159 735,-159 735,-159 862.76,-159 862.76,-159"/>
<polygon fill="black" stroke="black" points="862.76,-162.5 872.76,-159 862.76,-155.5 862.76,-162.5"/>
</g>
<!-- RoleMembershipsComponent -->
<g id="node7" class="node">
<title>RoleMembershipsComponent</title>
<polygon fill="#ffffb3" stroke="black" points="617.98,-122 434.02,-122 434.02,-86 617.98,-86 617.98,-122"/>
<text text-anchor="middle" x="526" y="-99.8" font-family="Times,serif" font-size="14.00">RoleMembershipsComponent</text>
</g>
<!-- RoleMembershipsComponent&#45;&gt;RoleMembershipsModule -->
<g id="edge7" class="edge">
<title>RoleMembershipsComponent&#45;&gt;RoleMembershipsModule</title>
<path fill="none" stroke="black" d="M526,-122.27C526,-140.56 526,-166 526,-166 526,-166 862.74,-166 862.74,-166"/>
<polygon fill="black" stroke="black" points="862.74,-169.5 872.74,-166 862.74,-162.5 862.74,-169.5"/>
</g>
<!-- SecondaryMembershipsComponent -->
<g id="node8" class="node">
<title>SecondaryMembershipsComponent</title>
<polygon fill="#ffffb3" stroke="black" points="416.12,-122 199.88,-122 199.88,-86 416.12,-86 416.12,-122"/>
<text text-anchor="middle" x="308" y="-99.8" font-family="Times,serif" font-size="14.00">SecondaryMembershipsComponent</text>
</g>
<!-- SecondaryMembershipsComponent&#45;&gt;RoleMembershipsModule -->
<g id="edge8" class="edge">
<title>SecondaryMembershipsComponent&#45;&gt;RoleMembershipsModule</title>
<path fill="none" stroke="black" d="M308,-122.13C308,-142.57 308,-173 308,-173 308,-173 862.84,-173 862.84,-173"/>
<polygon fill="black" stroke="black" points="862.84,-176.5 872.84,-173 862.84,-169.5 862.84,-176.5"/>
</g>
<!-- SourceDetectiveModule -->
<g id="node10" class="node">
<title>SourceDetectiveModule</title>
<polygon fill="#8dd3c7" stroke="black" points="176.06,-122 173.06,-126 152.06,-126 149.06,-122 23.94,-122 23.94,-86 176.06,-86 176.06,-122"/>
<text text-anchor="middle" x="100" y="-99.8" font-family="Times,serif" font-size="14.00">SourceDetectiveModule</text>
</g>
<!-- SourceDetectiveModule&#45;&gt;RoleMembershipsModule -->
<g id="edge9" class="edge">
<title>SourceDetectiveModule&#45;&gt;RoleMembershipsModule</title>
<path fill="none" stroke="black" d="M100,-122.01C100,-144.49 100,-180 100,-180 100,-180 862.89,-180 862.89,-180"/>
<polygon fill="black" stroke="black" points="862.89,-183.5 872.89,-180 862.89,-176.5 862.89,-183.5"/>
</g>
</g>
</svg>
