<?xml version="1.0" encoding="UTF-8" standalone="no"?>
<!DOCTYPE svg PUBLIC "-//W3C//DTD SVG 1.1//EN"
 "http://www.w3.org/Graphics/SVG/1.1/DTD/svg11.dtd">
<!-- Generated by graphviz version 2.47.0 (20210316.0004)
 -->
<!-- Title: dependencies Pages: 1 -->
<svg width="1381pt" height="284pt"
 viewBox="0.00 0.00 1381.00 284.00" xmlns="http://www.w3.org/2000/svg" xmlns:xlink="http://www.w3.org/1999/xlink">
<g id="graph0" class="graph" transform="scale(1 1) rotate(0) translate(4 280)">
<title>dependencies</title>
<polygon fill="white" stroke="transparent" points="-4,4 -4,-280 1377,-280 1377,4 -4,4"/>
<text text-anchor="start" x="665.51" y="-42.4" font-family="Times-12" font-weight="bold" font-size="14.00">Legend</text>
<polygon fill="#ffffb3" stroke="transparent" points="452.5,-10 452.5,-30 472.5,-30 472.5,-10 452.5,-10"/>
<text text-anchor="start" x="476.13" y="-15.4" font-family="Times-12" font-size="14.00"> &#160;Declarations</text>
<polygon fill="#8dd3c7" stroke="transparent" points="565.5,-10 565.5,-30 585.5,-30 585.5,-10 565.5,-10"/>
<text text-anchor="start" x="589.23" y="-15.4" font-family="Times-12" font-size="14.00"> &#160;Module</text>
<polygon fill="#80b1d3" stroke="transparent" points="651.5,-10 651.5,-30 671.5,-30 671.5,-10 651.5,-10"/>
<text text-anchor="start" x="675.28" y="-15.4" font-family="Times-12" font-size="14.00"> &#160;Bootstrap</text>
<polygon fill="#fdb462" stroke="transparent" points="748.5,-10 748.5,-30 768.5,-30 768.5,-10 748.5,-10"/>
<text text-anchor="start" x="772.17" y="-15.4" font-family="Times-12" font-size="14.00"> &#160;Providers</text>
<polygon fill="#fb8072" stroke="transparent" points="844.5,-10 844.5,-30 864.5,-30 864.5,-10 844.5,-10"/>
<text text-anchor="start" x="868.23" y="-15.4" font-family="Times-12" font-size="14.00"> &#160;Exports</text>
<g id="clust1" class="cluster">
<title>cluster_FilterWizardModule</title>
<polygon fill="none" stroke="black" stroke-dasharray="1,5" points="8,-70 8,-268 1365,-268 1365,-70 8,-70"/>
</g>
<g id="clust6" class="cluster">
<title>cluster_FilterWizardModule_imports</title>
<polygon fill="none" stroke="black" points="599,-78 599,-130 1357,-130 1357,-78 599,-78"/>
</g>
<g id="clust7" class="cluster">
<title>cluster_FilterWizardModule_exports</title>
<polygon fill="none" stroke="black" points="652,-208 652,-260 824,-260 824,-208 652,-208"/>
</g>
<g id="clust2" class="cluster">
<title>cluster_FilterWizardModule_declarations</title>
<polygon fill="none" stroke="black" points="16,-78 16,-130 591,-130 591,-78 16,-78"/>
</g>
<!-- FilterWizardComponent -->
<g id="node1" class="node">
<title>FilterWizardComponent</title>
<polygon fill="#ffffb3" stroke="black" points="583.36,-122 430.64,-122 430.64,-86 583.36,-86 583.36,-122"/>
<text text-anchor="middle" x="507" y="-99.8" font-family="Times,serif" font-size="14.00">FilterWizardComponent</text>
</g>
<!-- FilterWizardModule -->
<g id="node4" class="node">
<title>FilterWizardModule</title>
<polygon fill="#8dd3c7" stroke="black" points="803.57,-187 800.57,-191 779.57,-191 776.57,-187 672.43,-187 672.43,-151 803.57,-151 803.57,-187"/>
<text text-anchor="middle" x="738" y="-164.8" font-family="Times,serif" font-size="14.00">FilterWizardModule</text>
</g>
<!-- FilterWizardComponent&#45;&gt;FilterWizardModule -->
<g id="edge1" class="edge">
<title>FilterWizardComponent&#45;&gt;FilterWizardModule</title>
<path fill="none" stroke="black" d="M507,-122.03C507,-138.4 507,-160 507,-160 507,-160 662.42,-160 662.42,-160"/>
<polygon fill="black" stroke="black" points="662.42,-163.5 672.42,-160 662.42,-156.5 662.42,-163.5"/>
</g>
<!-- PredefinedFilterComponent -->
<g id="node2" class="node">
<title>PredefinedFilterComponent</title>
<polygon fill="#ffffb3" stroke="black" points="412.3,-122 239.7,-122 239.7,-86 412.3,-86 412.3,-122"/>
<text text-anchor="middle" x="326" y="-99.8" font-family="Times,serif" font-size="14.00">PredefinedFilterComponent</text>
</g>
<!-- PredefinedFilterComponent&#45;&gt;FilterWizardModule -->
<g id="edge2" class="edge">
<title>PredefinedFilterComponent&#45;&gt;FilterWizardModule</title>
<path fill="none" stroke="black" d="M326,-122.11C326,-141.34 326,-169 326,-169 326,-169 662.26,-169 662.26,-169"/>
<polygon fill="black" stroke="black" points="662.26,-172.5 672.26,-169 662.26,-165.5 662.26,-172.5"/>
</g>
<!-- PredefinedFilterTreeComponent -->
<g id="node3" class="node">
<title>PredefinedFilterTreeComponent</title>
<polygon fill="#ffffb3" stroke="black" points="221.94,-122 24.06,-122 24.06,-86 221.94,-86 221.94,-122"/>
<text text-anchor="middle" x="123" y="-99.8" font-family="Times,serif" font-size="14.00">PredefinedFilterTreeComponent</text>
</g>
<!-- PredefinedFilterTreeComponent&#45;&gt;FilterWizardModule -->
<g id="edge3" class="edge">
<title>PredefinedFilterTreeComponent&#45;&gt;FilterWizardModule</title>
<path fill="none" stroke="black" d="M123,-122.29C123,-144.21 123,-178 123,-178 123,-178 662.18,-178 662.18,-178"/>
<polygon fill="black" stroke="black" points="662.18,-181.5 672.18,-178 662.18,-174.5 662.18,-181.5"/>
</g>
<!-- FilterWizardComponent  -->
<g id="node10" class="node">
<title>FilterWizardComponent </title>
<polygon fill="#fb8072" stroke="black" points="816.36,-252 659.64,-252 659.64,-216 816.36,-216 816.36,-252"/>
<text text-anchor="middle" x="738" y="-229.8" font-family="Times,serif" font-size="14.00">FilterWizardComponent </text>
</g>
<!-- FilterWizardModule&#45;&gt;FilterWizardComponent  -->
<g id="edge9" class="edge">
<title>FilterWizardModule&#45;&gt;FilterWizardComponent </title>
<path fill="none" stroke="black" stroke-dasharray="5,2" d="M738,-187.11C738,-187.11 738,-205.99 738,-205.99"/>
<polygon fill="black" stroke="black" points="734.5,-205.99 738,-215.99 741.5,-205.99 734.5,-205.99"/>
</g>
<!-- ClassloggerModule -->
<g id="node5" class="node">
<title>ClassloggerModule</title>
<polygon fill="#8dd3c7" stroke="black" points="1348.65,-122 1345.65,-126 1324.65,-126 1321.65,-122 1223.35,-122 1223.35,-86 1348.65,-86 1348.65,-122"/>
<text text-anchor="middle" x="1286" y="-99.8" font-family="Times,serif" font-size="14.00">ClassloggerModule</text>
</g>
<!-- ClassloggerModule&#45;&gt;FilterWizardModule -->
<g id="edge4" class="edge">
<title>ClassloggerModule&#45;&gt;FilterWizardModule</title>
<path fill="none" stroke="black" d="M1286,-122.29C1286,-144.21 1286,-178 1286,-178 1286,-178 813.56,-178 813.56,-178"/>
<polygon fill="black" stroke="black" points="813.56,-174.5 803.56,-178 813.56,-181.5 813.56,-174.5"/>
</g>
<!-- DataSourceToolbarModule -->
<g id="node6" class="node">
<title>DataSourceToolbarModule</title>
<polygon fill="#8dd3c7" stroke="black" points="1205.67,-122 1202.67,-126 1181.67,-126 1178.67,-122 1036.33,-122 1036.33,-86 1205.67,-86 1205.67,-122"/>
<text text-anchor="middle" x="1121" y="-99.8" font-family="Times,serif" font-size="14.00">DataSourceToolbarModule</text>
</g>
<!-- DataSourceToolbarModule&#45;&gt;FilterWizardModule -->
<g id="edge5" class="edge">
<title>DataSourceToolbarModule&#45;&gt;FilterWizardModule</title>
<path fill="none" stroke="black" d="M1121,-122.11C1121,-141.34 1121,-169 1121,-169 1121,-169 813.84,-169 813.84,-169"/>
<polygon fill="black" stroke="black" points="813.84,-165.5 803.84,-169 813.84,-172.5 813.84,-165.5"/>
</g>
<!-- LdsReplaceModule -->
<g id="node7" class="node">
<title>LdsReplaceModule</title>
<polygon fill="#8dd3c7" stroke="black" points="1018.63,-122 1015.63,-126 994.63,-126 991.63,-122 893.37,-122 893.37,-86 1018.63,-86 1018.63,-122"/>
<text text-anchor="middle" x="956" y="-99.8" font-family="Times,serif" font-size="14.00">LdsReplaceModule</text>
</g>
<!-- LdsReplaceModule&#45;&gt;FilterWizardModule -->
<g id="edge6" class="edge">
<title>LdsReplaceModule&#45;&gt;FilterWizardModule</title>
<path fill="none" stroke="black" d="M956,-122.03C956,-138.4 956,-160 956,-160 956,-160 813.7,-160 813.7,-160"/>
<polygon fill="black" stroke="black" points="813.7,-156.5 803.7,-160 813.7,-163.5 813.7,-156.5"/>
</g>
<!-- SidenavTreeModule -->
<g id="node8" class="node">
<title>SidenavTreeModule</title>
<polygon fill="#8dd3c7" stroke="black" points="875.29,-122 872.29,-126 851.29,-126 848.29,-122 744.71,-122 744.71,-86 875.29,-86 875.29,-122"/>
<text text-anchor="middle" x="810" y="-99.8" font-family="Times,serif" font-size="14.00">SidenavTreeModule</text>
</g>
<!-- SidenavTreeModule&#45;&gt;FilterWizardModule -->
<g id="edge7" class="edge">
<title>SidenavTreeModule&#45;&gt;FilterWizardModule</title>
<path fill="none" stroke="black" d="M774.19,-122.11C774.19,-122.11 774.19,-140.99 774.19,-140.99"/>
<polygon fill="black" stroke="black" points="770.7,-140.99 774.19,-150.99 777.7,-140.99 770.7,-140.99"/>
</g>
<!-- SqlWizardModule -->
<g id="node9" class="node">
<title>SqlWizardModule</title>
<polygon fill="#8dd3c7" stroke="black" points="726.92,-122 723.92,-126 702.92,-126 699.92,-122 607.08,-122 607.08,-86 726.92,-86 726.92,-122"/>
<text text-anchor="middle" x="667" y="-99.8" font-family="Times,serif" font-size="14.00">SqlWizardModule</text>
</g>
<!-- SqlWizardModule&#45;&gt;FilterWizardModule -->
<g id="edge8" class="edge">
<title>SqlWizardModule&#45;&gt;FilterWizardModule</title>
<path fill="none" stroke="black" d="M699.59,-122.11C699.59,-122.11 699.59,-140.99 699.59,-140.99"/>
<polygon fill="black" stroke="black" points="696.09,-140.99 699.59,-150.99 703.09,-140.99 696.09,-140.99"/>
</g>
</g>
</svg>
