<?xml version="1.0" encoding="UTF-8" standalone="no"?>
<!DOCTYPE svg PUBLIC "-//W3C//DTD SVG 1.1//EN"
 "http://www.w3.org/Graphics/SVG/1.1/DTD/svg11.dtd">
<!-- Generated by graphviz version 2.47.0 (20210316.0004)
 -->
<!-- Title: dependencies Pages: 1 -->
<svg width="1751pt" height="284pt"
 viewBox="0.00 0.00 1751.00 284.00" xmlns="http://www.w3.org/2000/svg" xmlns:xlink="http://www.w3.org/1999/xlink">
<g id="graph0" class="graph" transform="scale(1 1) rotate(0) translate(4 280)">
<title>dependencies</title>
<polygon fill="white" stroke="transparent" points="-4,4 -4,-280 1747,-280 1747,4 -4,4"/>
<text text-anchor="start" x="850.51" y="-42.4" font-family="Times-12" font-weight="bold" font-size="14.00">Legend</text>
<polygon fill="#ffffb3" stroke="transparent" points="637.5,-10 637.5,-30 657.5,-30 657.5,-10 637.5,-10"/>
<text text-anchor="start" x="661.13" y="-15.4" font-family="Times-12" font-size="14.00"> &#160;Declarations</text>
<polygon fill="#8dd3c7" stroke="transparent" points="750.5,-10 750.5,-30 770.5,-30 770.5,-10 750.5,-10"/>
<text text-anchor="start" x="774.23" y="-15.4" font-family="Times-12" font-size="14.00"> &#160;Module</text>
<polygon fill="#80b1d3" stroke="transparent" points="836.5,-10 836.5,-30 856.5,-30 856.5,-10 836.5,-10"/>
<text text-anchor="start" x="860.28" y="-15.4" font-family="Times-12" font-size="14.00"> &#160;Bootstrap</text>
<polygon fill="#fdb462" stroke="transparent" points="933.5,-10 933.5,-30 953.5,-30 953.5,-10 933.5,-10"/>
<text text-anchor="start" x="957.17" y="-15.4" font-family="Times-12" font-size="14.00"> &#160;Providers</text>
<polygon fill="#fb8072" stroke="transparent" points="1029.5,-10 1029.5,-30 1049.5,-30 1049.5,-10 1029.5,-10"/>
<text text-anchor="start" x="1053.23" y="-15.4" font-family="Times-12" font-size="14.00"> &#160;Exports</text>
<g id="clust1" class="cluster">
<title>cluster_EntityModule</title>
<polygon fill="none" stroke="black" stroke-dasharray="1,5" points="8,-70 8,-268 1735,-268 1735,-70 8,-70"/>
</g>
<g id="clust11" class="cluster">
<title>cluster_EntityModule_providers</title>
<polygon fill="none" stroke="black" points="1583,-78 1583,-130 1727,-130 1727,-78 1583,-78"/>
</g>
<g id="clust9" class="cluster">
<title>cluster_EntityModule_exports</title>
<polygon fill="none" stroke="black" points="649,-208 649,-260 1026,-260 1026,-208 649,-208"/>
</g>
<g id="clust2" class="cluster">
<title>cluster_EntityModule_declarations</title>
<polygon fill="none" stroke="black" points="530,-78 530,-130 1575,-130 1575,-78 530,-78"/>
</g>
<g id="clust8" class="cluster">
<title>cluster_EntityModule_imports</title>
<polygon fill="none" stroke="black" points="16,-78 16,-130 522,-130 522,-78 16,-78"/>
</g>
<!-- EntitySelectComponent -->
<g id="node1" class="node">
<title>EntitySelectComponent</title>
<polygon fill="#ffffb3" stroke="black" points="1566.76,-122 1417.24,-122 1417.24,-86 1566.76,-86 1566.76,-122"/>
<text text-anchor="middle" x="1492" y="-99.8" font-family="Times,serif" font-size="14.00">EntitySelectComponent</text>
</g>
<!-- EntityModule -->
<g id="node6" class="node">
<title>EntityModule</title>
<polygon fill="#8dd3c7" stroke="black" points="892.77,-187 889.77,-191 868.77,-191 865.77,-187 799.23,-187 799.23,-151 892.77,-151 892.77,-187"/>
<text text-anchor="middle" x="846" y="-164.8" font-family="Times,serif" font-size="14.00">EntityModule</text>
</g>
<!-- EntitySelectComponent&#45;&gt;EntityModule -->
<g id="edge1" class="edge">
<title>EntitySelectComponent&#45;&gt;EntityModule</title>
<path fill="none" stroke="black" d="M1492,-122.13C1492,-142.57 1492,-173 1492,-173 1492,-173 902.98,-173 902.98,-173"/>
<polygon fill="black" stroke="black" points="902.98,-169.5 892.98,-173 902.98,-176.5 902.98,-169.5"/>
</g>
<!-- FkTableSelectComponent -->
<g id="node2" class="node">
<title>FkTableSelectComponent</title>
<polygon fill="#ffffb3" stroke="black" points="1399.2,-122 1236.8,-122 1236.8,-86 1399.2,-86 1399.2,-122"/>
<text text-anchor="middle" x="1318" y="-99.8" font-family="Times,serif" font-size="14.00">FkTableSelectComponent</text>
</g>
<!-- FkTableSelectComponent&#45;&gt;EntityModule -->
<g id="edge2" class="edge">
<title>FkTableSelectComponent&#45;&gt;EntityModule</title>
<path fill="none" stroke="black" d="M1318,-122.27C1318,-140.56 1318,-166 1318,-166 1318,-166 902.98,-166 902.98,-166"/>
<polygon fill="black" stroke="black" points="902.98,-162.5 892.98,-166 902.98,-169.5 902.98,-162.5"/>
</g>
<!-- TypedEntityCandidateSidesheetComponent -->
<g id="node3" class="node">
<title>TypedEntityCandidateSidesheetComponent</title>
<polygon fill="#ffffb3" stroke="black" points="1218.74,-122 957.26,-122 957.26,-86 1218.74,-86 1218.74,-122"/>
<text text-anchor="middle" x="1088" y="-99.8" font-family="Times,serif" font-size="14.00">TypedEntityCandidateSidesheetComponent</text>
</g>
<!-- TypedEntityCandidateSidesheetComponent&#45;&gt;EntityModule -->
<g id="edge3" class="edge">
<title>TypedEntityCandidateSidesheetComponent&#45;&gt;EntityModule</title>
<path fill="none" stroke="black" d="M987.38,-122.01C987.38,-138.05 987.38,-159 987.38,-159 987.38,-159 903.08,-159 903.08,-159"/>
<polygon fill="black" stroke="black" points="903.08,-155.5 893.08,-159 903.08,-162.5 903.08,-155.5"/>
</g>
<!-- TypedEntitySelectComponent -->
<g id="node4" class="node">
<title>TypedEntitySelectComponent</title>
<polygon fill="#ffffb3" stroke="black" points="938.53,-122 753.47,-122 753.47,-86 938.53,-86 938.53,-122"/>
<text text-anchor="middle" x="846" y="-99.8" font-family="Times,serif" font-size="14.00">TypedEntitySelectComponent</text>
</g>
<!-- TypedEntitySelectComponent&#45;&gt;EntityModule -->
<g id="edge4" class="edge">
<title>TypedEntitySelectComponent&#45;&gt;EntityModule</title>
<path fill="none" stroke="black" d="M846,-122.11C846,-122.11 846,-140.99 846,-140.99"/>
<polygon fill="black" stroke="black" points="842.5,-140.99 846,-150.99 849.5,-140.99 842.5,-140.99"/>
</g>
<!-- TypedEntitySelectorComponent -->
<g id="node5" class="node">
<title>TypedEntitySelectorComponent</title>
<polygon fill="#ffffb3" stroke="black" points="735.69,-122 538.31,-122 538.31,-86 735.69,-86 735.69,-122"/>
<text text-anchor="middle" x="637" y="-99.8" font-family="Times,serif" font-size="14.00">TypedEntitySelectorComponent</text>
</g>
<!-- TypedEntitySelectorComponent&#45;&gt;EntityModule -->
<g id="edge5" class="edge">
<title>TypedEntitySelectorComponent&#45;&gt;EntityModule</title>
<path fill="none" stroke="black" d="M696.54,-122.01C696.54,-138.05 696.54,-159 696.54,-159 696.54,-159 789.12,-159 789.12,-159"/>
<polygon fill="black" stroke="black" points="789.12,-162.5 799.12,-159 789.12,-155.5 789.12,-162.5"/>
</g>
<!-- EntitySelectComponent  -->
<g id="node10" class="node">
<title>EntitySelectComponent </title>
<polygon fill="#fb8072" stroke="black" points="1017.76,-252 864.24,-252 864.24,-216 1017.76,-216 1017.76,-252"/>
<text text-anchor="middle" x="941" y="-229.8" font-family="Times,serif" font-size="14.00">EntitySelectComponent </text>
</g>
<!-- EntityModule&#45;&gt;EntitySelectComponent  -->
<g id="edge9" class="edge">
<title>EntityModule&#45;&gt;EntitySelectComponent </title>
<path fill="none" stroke="black" stroke-dasharray="5,2" d="M878.63,-187.11C878.63,-187.11 878.63,-205.99 878.63,-205.99"/>
<polygon fill="black" stroke="black" points="875.13,-205.99 878.63,-215.99 882.13,-205.99 875.13,-205.99"/>
</g>
<!-- TypedEntitySelectComponent  -->
<g id="node11" class="node">
<title>TypedEntitySelectComponent </title>
<polygon fill="#fb8072" stroke="black" points="846.53,-252 657.47,-252 657.47,-216 846.53,-216 846.53,-252"/>
<text text-anchor="middle" x="752" y="-229.8" font-family="Times,serif" font-size="14.00">TypedEntitySelectComponent </text>
</g>
<!-- EntityModule&#45;&gt;TypedEntitySelectComponent  -->
<g id="edge10" class="edge">
<title>EntityModule&#45;&gt;TypedEntitySelectComponent </title>
<path fill="none" stroke="black" stroke-dasharray="5,2" d="M822.81,-187.11C822.81,-187.11 822.81,-205.99 822.81,-205.99"/>
<polygon fill="black" stroke="black" points="819.31,-205.99 822.81,-215.99 826.31,-205.99 819.31,-205.99"/>
</g>
<!-- DataSourceToolbarModule -->
<g id="node7" class="node">
<title>DataSourceToolbarModule</title>
<polygon fill="#8dd3c7" stroke="black" points="513.67,-122 510.67,-126 489.67,-126 486.67,-122 344.33,-122 344.33,-86 513.67,-86 513.67,-122"/>
<text text-anchor="middle" x="429" y="-99.8" font-family="Times,serif" font-size="14.00">DataSourceToolbarModule</text>
</g>
<!-- DataSourceToolbarModule&#45;&gt;EntityModule -->
<g id="edge6" class="edge">
<title>DataSourceToolbarModule&#45;&gt;EntityModule</title>
<path fill="none" stroke="black" d="M429,-122.27C429,-140.56 429,-166 429,-166 429,-166 788.98,-166 788.98,-166"/>
<polygon fill="black" stroke="black" points="788.98,-169.5 798.98,-166 788.98,-162.5 788.98,-169.5"/>
</g>
<!-- DataTableModule -->
<g id="node8" class="node">
<title>DataTableModule</title>
<polygon fill="#8dd3c7" stroke="black" points="325.85,-122 322.85,-126 301.85,-126 298.85,-122 208.15,-122 208.15,-86 325.85,-86 325.85,-122"/>
<text text-anchor="middle" x="267" y="-99.8" font-family="Times,serif" font-size="14.00">DataTableModule</text>
</g>
<!-- DataTableModule&#45;&gt;EntityModule -->
<g id="edge7" class="edge">
<title>DataTableModule&#45;&gt;EntityModule</title>
<path fill="none" stroke="black" d="M267,-122.13C267,-142.57 267,-173 267,-173 267,-173 789.11,-173 789.11,-173"/>
<polygon fill="black" stroke="black" points="789.11,-176.5 799.11,-173 789.11,-169.5 789.11,-176.5"/>
</g>
<!-- FkAdvancedPickerModule -->
<g id="node9" class="node">
<title>FkAdvancedPickerModule</title>
<polygon fill="#8dd3c7" stroke="black" points="190.35,-122 187.35,-126 166.35,-126 163.35,-122 23.65,-122 23.65,-86 190.35,-86 190.35,-122"/>
<text text-anchor="middle" x="107" y="-99.8" font-family="Times,serif" font-size="14.00">FkAdvancedPickerModule</text>
</g>
<!-- FkAdvancedPickerModule&#45;&gt;EntityModule -->
<g id="edge8" class="edge">
<title>FkAdvancedPickerModule&#45;&gt;EntityModule</title>
<path fill="none" stroke="black" d="M107,-122.01C107,-144.49 107,-180 107,-180 107,-180 789.21,-180 789.21,-180"/>
<polygon fill="black" stroke="black" points="789.21,-183.5 799.21,-180 789.21,-176.5 789.21,-183.5"/>
</g>
<!-- EntityService -->
<g id="node12" class="node">
<title>EntityService</title>
<ellipse fill="#fdb462" stroke="black" cx="1655" cy="-104" rx="63.7" ry="18"/>
<text text-anchor="middle" x="1655" y="-99.8" font-family="Times,serif" font-size="14.00">EntityService</text>
</g>
<!-- EntityService&#45;&gt;EntityModule -->
<g id="edge11" class="edge">
<title>EntityService&#45;&gt;EntityModule</title>
<path fill="none" stroke="black" d="M1655,-122.01C1655,-144.49 1655,-180 1655,-180 1655,-180 902.99,-180 902.99,-180"/>
<polygon fill="black" stroke="black" points="902.99,-176.5 892.99,-180 902.99,-183.5 902.99,-176.5"/>
</g>
</g>
</svg>
