<?xml version="1.0" encoding="UTF-8" standalone="no"?>
<!DOCTYPE svg PUBLIC "-//W3C//DTD SVG 1.1//EN"
 "http://www.w3.org/Graphics/SVG/1.1/DTD/svg11.dtd">
<!-- Generated by graphviz version 2.47.0 (20210316.0004)
 -->
<!-- Title: dependencies Pages: 1 -->
<svg width="509pt" height="284pt"
 viewBox="0.00 0.00 509.00 284.00" xmlns="http://www.w3.org/2000/svg" xmlns:xlink="http://www.w3.org/1999/xlink">
<g id="graph0" class="graph" transform="scale(1 1) rotate(0) translate(4 280)">
<title>dependencies</title>
<polygon fill="white" stroke="transparent" points="-4,4 -4,-280 505,-280 505,4 -4,4"/>
<text text-anchor="start" x="229.51" y="-42.4" font-family="Times-12" font-weight="bold" font-size="14.00">Legend</text>
<polygon fill="#ffffb3" stroke="transparent" points="16.5,-10 16.5,-30 36.5,-30 36.5,-10 16.5,-10"/>
<text text-anchor="start" x="40.13" y="-15.4" font-family="Times-12" font-size="14.00"> &#160;Declarations</text>
<polygon fill="#8dd3c7" stroke="transparent" points="129.5,-10 129.5,-30 149.5,-30 149.5,-10 129.5,-10"/>
<text text-anchor="start" x="153.23" y="-15.4" font-family="Times-12" font-size="14.00"> &#160;Module</text>
<polygon fill="#80b1d3" stroke="transparent" points="215.5,-10 215.5,-30 235.5,-30 235.5,-10 215.5,-10"/>
<text text-anchor="start" x="239.28" y="-15.4" font-family="Times-12" font-size="14.00"> &#160;Bootstrap</text>
<polygon fill="#fdb462" stroke="transparent" points="312.5,-10 312.5,-30 332.5,-30 332.5,-10 312.5,-10"/>
<text text-anchor="start" x="336.17" y="-15.4" font-family="Times-12" font-size="14.00"> &#160;Providers</text>
<polygon fill="#fb8072" stroke="transparent" points="408.5,-10 408.5,-30 428.5,-30 428.5,-10 408.5,-10"/>
<text text-anchor="start" x="432.23" y="-15.4" font-family="Times-12" font-size="14.00"> &#160;Exports</text>
<g id="clust1" class="cluster">
<title>cluster_OrgChartModule</title>
<polygon fill="none" stroke="black" stroke-dasharray="1,5" points="8,-70 8,-268 493,-268 493,-70 8,-70"/>
</g>
<g id="clust2" class="cluster">
<title>cluster_OrgChartModule_declarations</title>
<polygon fill="none" stroke="black" points="192,-78 192,-130 485,-130 485,-78 192,-78"/>
</g>
<g id="clust6" class="cluster">
<title>cluster_OrgChartModule_exports</title>
<polygon fill="none" stroke="black" points="112,-208 112,-260 412,-260 412,-208 112,-208"/>
</g>
<g id="clust8" class="cluster">
<title>cluster_OrgChartModule_providers</title>
<polygon fill="none" stroke="black" points="16,-78 16,-130 184,-130 184,-78 16,-78"/>
</g>
<!-- IdentityComponent -->
<g id="node1" class="node">
<title>IdentityComponent</title>
<polygon fill="#ffffb3" stroke="black" points="477.38,-122 352.62,-122 352.62,-86 477.38,-86 477.38,-122"/>
<text text-anchor="middle" x="415" y="-99.8" font-family="Times,serif" font-size="14.00">IdentityComponent</text>
</g>
<!-- OrgChartModule -->
<g id="node3" class="node">
<title>OrgChartModule</title>
<polygon fill="#8dd3c7" stroke="black" points="323.42,-187 320.42,-191 299.42,-191 296.42,-187 210.58,-187 210.58,-151 323.42,-151 323.42,-187"/>
<text text-anchor="middle" x="267" y="-164.8" font-family="Times,serif" font-size="14.00">OrgChartModule</text>
</g>
<!-- IdentityComponent&#45;&gt;OrgChartModule -->
<g id="edge1" class="edge">
<title>IdentityComponent&#45;&gt;OrgChartModule</title>
<path fill="none" stroke="black" d="M378.38,-122.11C378.38,-141.34 378.38,-169 378.38,-169 378.38,-169 333.34,-169 333.34,-169"/>
<polygon fill="black" stroke="black" points="333.34,-165.5 323.34,-169 333.34,-172.5 333.34,-165.5"/>
</g>
<!-- OrgChartComponent -->
<g id="node2" class="node">
<title>OrgChartComponent</title>
<polygon fill="#ffffb3" stroke="black" points="334.2,-122 199.8,-122 199.8,-86 334.2,-86 334.2,-122"/>
<text text-anchor="middle" x="267" y="-99.8" font-family="Times,serif" font-size="14.00">OrgChartComponent</text>
</g>
<!-- OrgChartComponent&#45;&gt;OrgChartModule -->
<g id="edge2" class="edge">
<title>OrgChartComponent&#45;&gt;OrgChartModule</title>
<path fill="none" stroke="black" d="M267,-122.11C267,-122.11 267,-140.99 267,-140.99"/>
<polygon fill="black" stroke="black" points="263.5,-140.99 267,-150.99 270.5,-140.99 263.5,-140.99"/>
</g>
<!-- IdentityComponent  -->
<g id="node4" class="node">
<title>IdentityComponent </title>
<polygon fill="#fb8072" stroke="black" points="404.38,-252 275.62,-252 275.62,-216 404.38,-216 404.38,-252"/>
<text text-anchor="middle" x="340" y="-229.8" font-family="Times,serif" font-size="14.00">IdentityComponent </text>
</g>
<!-- OrgChartModule&#45;&gt;IdentityComponent  -->
<g id="edge3" class="edge">
<title>OrgChartModule&#45;&gt;IdentityComponent </title>
<path fill="none" stroke="black" stroke-dasharray="5,2" d="M299.51,-187.11C299.51,-187.11 299.51,-205.99 299.51,-205.99"/>
<polygon fill="black" stroke="black" points="296.01,-205.99 299.51,-215.99 303.01,-205.99 296.01,-205.99"/>
</g>
<!-- OrgChartComponent  -->
<g id="node5" class="node">
<title>OrgChartComponent </title>
<polygon fill="#fb8072" stroke="black" points="257.7,-252 120.3,-252 120.3,-216 257.7,-216 257.7,-252"/>
<text text-anchor="middle" x="189" y="-229.8" font-family="Times,serif" font-size="14.00">OrgChartComponent </text>
</g>
<!-- OrgChartModule&#45;&gt;OrgChartComponent  -->
<g id="edge4" class="edge">
<title>OrgChartModule&#45;&gt;OrgChartComponent </title>
<path fill="none" stroke="black" stroke-dasharray="5,2" d="M234.32,-187.11C234.32,-187.11 234.32,-205.99 234.32,-205.99"/>
<polygon fill="black" stroke="black" points="230.82,-205.99 234.32,-215.99 237.82,-205.99 230.82,-205.99"/>
</g>
<!-- OrgChartService -->
<g id="node6" class="node">
<title>OrgChartService</title>
<ellipse fill="#fdb462" stroke="black" cx="100" cy="-104" rx="76.42" ry="18"/>
<text text-anchor="middle" x="100" y="-99.8" font-family="Times,serif" font-size="14.00">OrgChartService</text>
</g>
<!-- OrgChartService&#45;&gt;OrgChartModule -->
<g id="edge5" class="edge">
<title>OrgChartService&#45;&gt;OrgChartModule</title>
<path fill="none" stroke="black" d="M148.3,-118.1C148.3,-137.22 148.3,-169 148.3,-169 148.3,-169 200.78,-169 200.78,-169"/>
<polygon fill="black" stroke="black" points="200.78,-172.5 210.78,-169 200.78,-165.5 200.78,-172.5"/>
</g>
</g>
</svg>
