<?xml version="1.0" encoding="UTF-8" standalone="no"?>
<!DOCTYPE svg PUBLIC "-//W3C//DTD SVG 1.1//EN"
 "http://www.w3.org/Graphics/SVG/1.1/DTD/svg11.dtd">
<!-- Generated by graphviz version 2.47.0 (20210316.0004)
 -->
<!-- Title: dependencies Pages: 1 -->
<svg width="504pt" height="284pt"
 viewBox="0.00 0.00 504.00 284.00" xmlns="http://www.w3.org/2000/svg" xmlns:xlink="http://www.w3.org/1999/xlink">
<g id="graph0" class="graph" transform="scale(1 1) rotate(0) translate(4 280)">
<title>dependencies</title>
<polygon fill="white" stroke="transparent" points="-4,4 -4,-280 500,-280 500,4 -4,4"/>
<text text-anchor="start" x="227.01" y="-42.4" font-family="Times-12" font-weight="bold" font-size="14.00">Legend</text>
<polygon fill="#ffffb3" stroke="transparent" points="14,-10 14,-30 34,-30 34,-10 14,-10"/>
<text text-anchor="start" x="37.63" y="-15.4" font-family="Times-12" font-size="14.00"> &#160;Declarations</text>
<polygon fill="#8dd3c7" stroke="transparent" points="127,-10 127,-30 147,-30 147,-10 127,-10"/>
<text text-anchor="start" x="150.73" y="-15.4" font-family="Times-12" font-size="14.00"> &#160;Module</text>
<polygon fill="#80b1d3" stroke="transparent" points="213,-10 213,-30 233,-30 233,-10 213,-10"/>
<text text-anchor="start" x="236.78" y="-15.4" font-family="Times-12" font-size="14.00"> &#160;Bootstrap</text>
<polygon fill="#fdb462" stroke="transparent" points="310,-10 310,-30 330,-30 330,-10 310,-10"/>
<text text-anchor="start" x="333.67" y="-15.4" font-family="Times-12" font-size="14.00"> &#160;Providers</text>
<polygon fill="#fb8072" stroke="transparent" points="406,-10 406,-30 426,-30 426,-10 406,-10"/>
<text text-anchor="start" x="429.73" y="-15.4" font-family="Times-12" font-size="14.00"> &#160;Exports</text>
<g id="clust1" class="cluster">
<title>cluster_RiskConfigModule</title>
<polygon fill="none" stroke="black" stroke-dasharray="1,5" points="50,-70 50,-268 446,-268 446,-70 50,-70"/>
</g>
<g id="clust2" class="cluster">
<title>cluster_RiskConfigModule_declarations</title>
<polygon fill="none" stroke="black" points="58,-78 58,-130 438,-130 438,-78 58,-78"/>
</g>
<g id="clust6" class="cluster">
<title>cluster_RiskConfigModule_exports</title>
<polygon fill="none" stroke="black" points="177,-208 177,-260 343,-260 343,-208 177,-208"/>
</g>
<!-- RiskConfigComponent -->
<g id="node1" class="node">
<title>RiskConfigComponent</title>
<polygon fill="#ffffb3" stroke="black" points="429.89,-122 284.11,-122 284.11,-86 429.89,-86 429.89,-122"/>
<text text-anchor="middle" x="357" y="-99.8" font-family="Times,serif" font-size="14.00">RiskConfigComponent</text>
</g>
<!-- RiskConfigModule -->
<g id="node3" class="node">
<title>RiskConfigModule</title>
<polygon fill="#8dd3c7" stroke="black" points="322.11,-187 319.11,-191 298.11,-191 295.11,-187 197.89,-187 197.89,-151 322.11,-151 322.11,-187"/>
<text text-anchor="middle" x="260" y="-164.8" font-family="Times,serif" font-size="14.00">RiskConfigModule</text>
</g>
<!-- RiskConfigComponent&#45;&gt;RiskConfigModule -->
<g id="edge1" class="edge">
<title>RiskConfigComponent&#45;&gt;RiskConfigModule</title>
<path fill="none" stroke="black" d="M303.05,-122.11C303.05,-122.11 303.05,-140.99 303.05,-140.99"/>
<polygon fill="black" stroke="black" points="299.55,-140.99 303.05,-150.99 306.55,-140.99 299.55,-140.99"/>
</g>
<!-- RiskConfigSidesheetComponent -->
<g id="node2" class="node">
<title>RiskConfigSidesheetComponent</title>
<polygon fill="#ffffb3" stroke="black" points="265.54,-122 66.46,-122 66.46,-86 265.54,-86 265.54,-122"/>
<text text-anchor="middle" x="166" y="-99.8" font-family="Times,serif" font-size="14.00">RiskConfigSidesheetComponent</text>
</g>
<!-- RiskConfigSidesheetComponent&#45;&gt;RiskConfigModule -->
<g id="edge2" class="edge">
<title>RiskConfigSidesheetComponent&#45;&gt;RiskConfigModule</title>
<path fill="none" stroke="black" d="M231.86,-122.11C231.86,-122.11 231.86,-140.99 231.86,-140.99"/>
<polygon fill="black" stroke="black" points="228.36,-140.99 231.86,-150.99 235.36,-140.99 228.36,-140.99"/>
</g>
<!-- RiskConfigComponent  -->
<g id="node4" class="node">
<title>RiskConfigComponent </title>
<polygon fill="#fb8072" stroke="black" points="334.89,-252 185.11,-252 185.11,-216 334.89,-216 334.89,-252"/>
<text text-anchor="middle" x="260" y="-229.8" font-family="Times,serif" font-size="14.00">RiskConfigComponent </text>
</g>
<!-- RiskConfigModule&#45;&gt;RiskConfigComponent  -->
<g id="edge3" class="edge">
<title>RiskConfigModule&#45;&gt;RiskConfigComponent </title>
<path fill="none" stroke="black" stroke-dasharray="5,2" d="M260,-187.11C260,-187.11 260,-205.99 260,-205.99"/>
<polygon fill="black" stroke="black" points="256.5,-205.99 260,-215.99 263.5,-205.99 256.5,-205.99"/>
</g>
</g>
</svg>
