<?xml version="1.0" encoding="UTF-8" standalone="no"?>
<!DOCTYPE svg PUBLIC "-//W3C//DTD SVG 1.1//EN"
 "http://www.w3.org/Graphics/SVG/1.1/DTD/svg11.dtd">
<!-- Generated by graphviz version 2.47.0 (20210316.0004)
 -->
<!-- Title: dependencies Pages: 1 -->
<svg width="600pt" height="284pt"
 viewBox="0.00 0.00 600.00 284.00" xmlns="http://www.w3.org/2000/svg" xmlns:xlink="http://www.w3.org/1999/xlink">
<g id="graph0" class="graph" transform="scale(1 1) rotate(0) translate(4 280)">
<title>dependencies</title>
<polygon fill="white" stroke="transparent" points="-4,4 -4,-280 596,-280 596,4 -4,4"/>
<text text-anchor="start" x="275.01" y="-42.4" font-family="Times-12" font-weight="bold" font-size="14.00">Legend</text>
<polygon fill="#ffffb3" stroke="transparent" points="62,-10 62,-30 82,-30 82,-10 62,-10"/>
<text text-anchor="start" x="85.63" y="-15.4" font-family="Times-12" font-size="14.00"> &#160;Declarations</text>
<polygon fill="#8dd3c7" stroke="transparent" points="175,-10 175,-30 195,-30 195,-10 175,-10"/>
<text text-anchor="start" x="198.73" y="-15.4" font-family="Times-12" font-size="14.00"> &#160;Module</text>
<polygon fill="#80b1d3" stroke="transparent" points="261,-10 261,-30 281,-30 281,-10 261,-10"/>
<text text-anchor="start" x="284.78" y="-15.4" font-family="Times-12" font-size="14.00"> &#160;Bootstrap</text>
<polygon fill="#fdb462" stroke="transparent" points="358,-10 358,-30 378,-30 378,-10 358,-10"/>
<text text-anchor="start" x="381.67" y="-15.4" font-family="Times-12" font-size="14.00"> &#160;Providers</text>
<polygon fill="#fb8072" stroke="transparent" points="454,-10 454,-30 474,-30 474,-10 454,-10"/>
<text text-anchor="start" x="477.73" y="-15.4" font-family="Times-12" font-size="14.00"> &#160;Exports</text>
<g id="clust1" class="cluster">
<title>cluster_ServiceItemsEditFormModule</title>
<polygon fill="none" stroke="black" stroke-dasharray="1,5" points="8,-70 8,-268 584,-268 584,-70 8,-70"/>
</g>
<g id="clust5" class="cluster">
<title>cluster_ServiceItemsEditFormModule_exports</title>
<polygon fill="none" stroke="black" points="152,-208 152,-260 380,-260 380,-208 152,-208"/>
</g>
<g id="clust2" class="cluster">
<title>cluster_ServiceItemsEditFormModule_declarations</title>
<polygon fill="none" stroke="black" points="352,-78 352,-130 576,-130 576,-78 352,-78"/>
</g>
<g id="clust4" class="cluster">
<title>cluster_ServiceItemsEditFormModule_imports</title>
<polygon fill="none" stroke="black" points="16,-78 16,-130 344,-130 344,-78 16,-78"/>
</g>
<!-- ServiceItemsEditFormComponent -->
<g id="node1" class="node">
<title>ServiceItemsEditFormComponent</title>
<polygon fill="#ffffb3" stroke="black" points="568.08,-122 359.92,-122 359.92,-86 568.08,-86 568.08,-122"/>
<text text-anchor="middle" x="464" y="-99.8" font-family="Times,serif" font-size="14.00">ServiceItemsEditFormComponent</text>
</g>
<!-- ServiceItemsEditFormModule -->
<g id="node2" class="node">
<title>ServiceItemsEditFormModule</title>
<polygon fill="#8dd3c7" stroke="black" points="359.3,-187 356.3,-191 335.3,-191 332.3,-187 172.7,-187 172.7,-151 359.3,-151 359.3,-187"/>
<text text-anchor="middle" x="266" y="-164.8" font-family="Times,serif" font-size="14.00">ServiceItemsEditFormModule</text>
</g>
<!-- ServiceItemsEditFormComponent&#45;&gt;ServiceItemsEditFormModule -->
<g id="edge1" class="edge">
<title>ServiceItemsEditFormComponent&#45;&gt;ServiceItemsEditFormModule</title>
<path fill="none" stroke="black" d="M365.88,-122.11C365.88,-141.34 365.88,-169 365.88,-169 365.88,-169 365.22,-169 365.22,-169"/>
<polygon fill="black" stroke="black" points="369.32,-165.5 359.32,-169 369.32,-172.5 369.32,-165.5"/>
</g>
<!-- ServiceItemsEditFormComponent  -->
<g id="node5" class="node">
<title>ServiceItemsEditFormComponent </title>
<polygon fill="#fb8072" stroke="black" points="371.58,-252 160.42,-252 160.42,-216 371.58,-216 371.58,-252"/>
<text text-anchor="middle" x="266" y="-229.8" font-family="Times,serif" font-size="14.00">ServiceItemsEditFormComponent </text>
</g>
<!-- ServiceItemsEditFormModule&#45;&gt;ServiceItemsEditFormComponent  -->
<g id="edge4" class="edge">
<title>ServiceItemsEditFormModule&#45;&gt;ServiceItemsEditFormComponent </title>
<path fill="none" stroke="black" stroke-dasharray="5,2" d="M266,-187.11C266,-187.11 266,-205.99 266,-205.99"/>
<polygon fill="black" stroke="black" points="262.5,-205.99 266,-215.99 269.5,-205.99 262.5,-205.99"/>
</g>
<!-- OwnerControlModule -->
<g id="node3" class="node">
<title>OwnerControlModule</title>
<polygon fill="#8dd3c7" stroke="black" points="336.42,-122 333.42,-126 312.42,-126 309.42,-122 195.58,-122 195.58,-86 336.42,-86 336.42,-122"/>
<text text-anchor="middle" x="266" y="-99.8" font-family="Times,serif" font-size="14.00">OwnerControlModule</text>
</g>
<!-- OwnerControlModule&#45;&gt;ServiceItemsEditFormModule -->
<g id="edge2" class="edge">
<title>OwnerControlModule&#45;&gt;ServiceItemsEditFormModule</title>
<path fill="none" stroke="black" d="M266,-122.11C266,-122.11 266,-140.99 266,-140.99"/>
<polygon fill="black" stroke="black" points="262.5,-140.99 266,-150.99 269.5,-140.99 262.5,-140.99"/>
</g>
<!-- ServiceItemTagsModule -->
<g id="node4" class="node">
<title>ServiceItemTagsModule</title>
<polygon fill="#8dd3c7" stroke="black" points="178.4,-122 175.4,-126 154.4,-126 151.4,-122 23.6,-122 23.6,-86 178.4,-86 178.4,-122"/>
<text text-anchor="middle" x="101" y="-99.8" font-family="Times,serif" font-size="14.00">ServiceItemTagsModule</text>
</g>
<!-- ServiceItemTagsModule&#45;&gt;ServiceItemsEditFormModule -->
<g id="edge3" class="edge">
<title>ServiceItemTagsModule&#45;&gt;ServiceItemsEditFormModule</title>
<path fill="none" stroke="black" d="M166.53,-122.11C166.53,-141.34 166.53,-169 166.53,-169 166.53,-169 167.15,-169 167.15,-169"/>
<polygon fill="black" stroke="black" points="162.75,-172.5 172.75,-169 162.75,-165.5 162.75,-172.5"/>
</g>
</g>
</svg>
