<?xml version="1.0" encoding="UTF-8" standalone="no"?>
<!DOCTYPE svg PUBLIC "-//W3C//DTD SVG 1.1//EN"
 "http://www.w3.org/Graphics/SVG/1.1/DTD/svg11.dtd">
<!-- Generated by graphviz version 2.47.0 (20210316.0004)
 -->
<!-- Title: dependencies Pages: 1 -->
<svg width="1349pt" height="284pt"
 viewBox="0.00 0.00 1349.00 284.00" xmlns="http://www.w3.org/2000/svg" xmlns:xlink="http://www.w3.org/1999/xlink">
<g id="graph0" class="graph" transform="scale(1 1) rotate(0) translate(4 280)">
<title>dependencies</title>
<polygon fill="white" stroke="transparent" points="-4,4 -4,-280 1345,-280 1345,4 -4,4"/>
<text text-anchor="start" x="649.51" y="-42.4" font-family="Times-12" font-weight="bold" font-size="14.00">Legend</text>
<polygon fill="#ffffb3" stroke="transparent" points="436.5,-10 436.5,-30 456.5,-30 456.5,-10 436.5,-10"/>
<text text-anchor="start" x="460.13" y="-15.4" font-family="Times-12" font-size="14.00"> &#160;Declarations</text>
<polygon fill="#8dd3c7" stroke="transparent" points="549.5,-10 549.5,-30 569.5,-30 569.5,-10 549.5,-10"/>
<text text-anchor="start" x="573.23" y="-15.4" font-family="Times-12" font-size="14.00"> &#160;Module</text>
<polygon fill="#80b1d3" stroke="transparent" points="635.5,-10 635.5,-30 655.5,-30 655.5,-10 635.5,-10"/>
<text text-anchor="start" x="659.28" y="-15.4" font-family="Times-12" font-size="14.00"> &#160;Bootstrap</text>
<polygon fill="#fdb462" stroke="transparent" points="732.5,-10 732.5,-30 752.5,-30 752.5,-10 732.5,-10"/>
<text text-anchor="start" x="756.17" y="-15.4" font-family="Times-12" font-size="14.00"> &#160;Providers</text>
<polygon fill="#fb8072" stroke="transparent" points="828.5,-10 828.5,-30 848.5,-30 848.5,-10 828.5,-10"/>
<text text-anchor="start" x="852.23" y="-15.4" font-family="Times-12" font-size="14.00"> &#160;Exports</text>
<g id="clust1" class="cluster">
<title>cluster_ShoppingCartValidationDetailModule</title>
<polygon fill="none" stroke="black" stroke-dasharray="1,5" points="8,-70 8,-268 1333,-268 1333,-70 8,-70"/>
</g>
<g id="clust11" class="cluster">
<title>cluster_ShoppingCartValidationDetailModule_providers</title>
<polygon fill="none" stroke="black" points="993,-78 993,-130 1325,-130 1325,-78 993,-78"/>
</g>
<g id="clust2" class="cluster">
<title>cluster_ShoppingCartValidationDetailModule_declarations</title>
<polygon fill="none" stroke="black" points="16,-78 16,-130 985,-130 985,-78 16,-78"/>
</g>
<g id="clust9" class="cluster">
<title>cluster_ShoppingCartValidationDetailModule_exports</title>
<polygon fill="none" stroke="black" points="257,-208 257,-260 993,-260 993,-208 257,-208"/>
</g>
<!-- BaseViewerComponent -->
<g id="node1" class="node">
<title>BaseViewerComponent</title>
<polygon fill="#ffffb3" stroke="black" points="976.74,-122 827.26,-122 827.26,-86 976.74,-86 976.74,-122"/>
<text text-anchor="middle" x="902" y="-99.8" font-family="Times,serif" font-size="14.00">BaseViewerComponent</text>
</g>
<!-- ShoppingCartValidationDetailModule -->
<g id="node6" class="node">
<title>ShoppingCartValidationDetailModule</title>
<polygon fill="#8dd3c7" stroke="black" points="755.13,-187 752.13,-191 731.13,-191 728.13,-187 524.87,-187 524.87,-151 755.13,-151 755.13,-187"/>
<text text-anchor="middle" x="640" y="-164.8" font-family="Times,serif" font-size="14.00">ShoppingCartValidationDetailModule</text>
</g>
<!-- BaseViewerComponent&#45;&gt;ShoppingCartValidationDetailModule -->
<g id="edge1" class="edge">
<title>BaseViewerComponent&#45;&gt;ShoppingCartValidationDetailModule</title>
<path fill="none" stroke="black" d="M928.37,-122.03C928.37,-138.4 928.37,-160 928.37,-160 928.37,-160 765.22,-160 765.22,-160"/>
<polygon fill="black" stroke="black" points="765.22,-156.5 755.22,-160 765.22,-163.5 765.22,-156.5"/>
</g>
<!-- DetailViewerComponent -->
<g id="node2" class="node">
<title>DetailViewerComponent</title>
<polygon fill="#ffffb3" stroke="black" points="809.23,-122 652.77,-122 652.77,-86 809.23,-86 809.23,-122"/>
<text text-anchor="middle" x="731" y="-99.8" font-family="Times,serif" font-size="14.00">DetailViewerComponent</text>
</g>
<!-- DetailViewerComponent&#45;&gt;ShoppingCartValidationDetailModule -->
<g id="edge2" class="edge">
<title>DetailViewerComponent&#45;&gt;ShoppingCartValidationDetailModule</title>
<path fill="none" stroke="black" d="M703.97,-122.11C703.97,-122.11 703.97,-140.99 703.97,-140.99"/>
<polygon fill="black" stroke="black" points="700.47,-140.99 703.97,-150.99 707.47,-140.99 700.47,-140.99"/>
</g>
<!-- DuplicateCheckComponent -->
<g id="node3" class="node">
<title>DuplicateCheckComponent</title>
<polygon fill="#ffffb3" stroke="black" points="634.52,-122 463.48,-122 463.48,-86 634.52,-86 634.52,-122"/>
<text text-anchor="middle" x="549" y="-99.8" font-family="Times,serif" font-size="14.00">DuplicateCheckComponent</text>
</g>
<!-- DuplicateCheckComponent&#45;&gt;ShoppingCartValidationDetailModule -->
<g id="edge3" class="edge">
<title>DuplicateCheckComponent&#45;&gt;ShoppingCartValidationDetailModule</title>
<path fill="none" stroke="black" d="M579.72,-122.11C579.72,-122.11 579.72,-140.99 579.72,-140.99"/>
<polygon fill="black" stroke="black" points="576.22,-140.99 579.72,-150.99 583.22,-140.99 576.22,-140.99"/>
</g>
<!-- ExclusionCheckComponent -->
<g id="node4" class="node">
<title>ExclusionCheckComponent</title>
<polygon fill="#ffffb3" stroke="black" points="445.59,-122 272.41,-122 272.41,-86 445.59,-86 445.59,-122"/>
<text text-anchor="middle" x="359" y="-99.8" font-family="Times,serif" font-size="14.00">ExclusionCheckComponent</text>
</g>
<!-- ExclusionCheckComponent&#45;&gt;ShoppingCartValidationDetailModule -->
<g id="edge4" class="edge">
<title>ExclusionCheckComponent&#45;&gt;ShoppingCartValidationDetailModule</title>
<path fill="none" stroke="black" d="M385.02,-122.03C385.02,-138.4 385.02,-160 385.02,-160 385.02,-160 514.82,-160 514.82,-160"/>
<polygon fill="black" stroke="black" points="514.82,-163.5 524.82,-160 514.82,-156.5 514.82,-163.5"/>
</g>
<!-- ProductDependencyCheckComponent -->
<g id="node5" class="node">
<title>ProductDependencyCheckComponent</title>
<polygon fill="#ffffb3" stroke="black" points="254.11,-122 23.89,-122 23.89,-86 254.11,-86 254.11,-122"/>
<text text-anchor="middle" x="139" y="-99.8" font-family="Times,serif" font-size="14.00">ProductDependencyCheckComponent</text>
</g>
<!-- ProductDependencyCheckComponent&#45;&gt;ShoppingCartValidationDetailModule -->
<g id="edge5" class="edge">
<title>ProductDependencyCheckComponent&#45;&gt;ShoppingCartValidationDetailModule</title>
<path fill="none" stroke="black" d="M139,-122.11C139,-141.34 139,-169 139,-169 139,-169 514.75,-169 514.75,-169"/>
<polygon fill="black" stroke="black" points="514.75,-172.5 524.75,-169 514.75,-165.5 514.75,-172.5"/>
</g>
<!-- BaseViewerComponent  -->
<g id="node7" class="node">
<title>BaseViewerComponent </title>
<polygon fill="#fb8072" stroke="black" points="984.74,-252 831.26,-252 831.26,-216 984.74,-216 984.74,-252"/>
<text text-anchor="middle" x="908" y="-229.8" font-family="Times,serif" font-size="14.00">BaseViewerComponent </text>
</g>
<!-- ShoppingCartValidationDetailModule&#45;&gt;BaseViewerComponent  -->
<g id="edge6" class="edge">
<title>ShoppingCartValidationDetailModule&#45;&gt;BaseViewerComponent </title>
<path fill="none" stroke="black" stroke-dasharray="5,2" d="M755.37,-178C816.82,-178 879.88,-178 879.88,-178 879.88,-178 879.88,-205.97 879.88,-205.97"/>
<polygon fill="black" stroke="black" points="876.38,-205.97 879.88,-215.97 883.38,-205.97 876.38,-205.97"/>
</g>
<!-- DetailViewerComponent  -->
<g id="node8" class="node">
<title>DetailViewerComponent </title>
<polygon fill="#fb8072" stroke="black" points="813.23,-252 652.77,-252 652.77,-216 813.23,-216 813.23,-252"/>
<text text-anchor="middle" x="733" y="-229.8" font-family="Times,serif" font-size="14.00">DetailViewerComponent </text>
</g>
<!-- ShoppingCartValidationDetailModule&#45;&gt;DetailViewerComponent  -->
<g id="edge7" class="edge">
<title>ShoppingCartValidationDetailModule&#45;&gt;DetailViewerComponent </title>
<path fill="none" stroke="black" stroke-dasharray="5,2" d="M704.1,-187.11C704.1,-187.11 704.1,-205.99 704.1,-205.99"/>
<polygon fill="black" stroke="black" points="700.6,-205.99 704.1,-215.99 707.6,-205.99 700.6,-205.99"/>
</g>
<!-- DuplicateCheckComponent  -->
<g id="node9" class="node">
<title>DuplicateCheckComponent </title>
<polygon fill="#fb8072" stroke="black" points="634.52,-252 459.48,-252 459.48,-216 634.52,-216 634.52,-252"/>
<text text-anchor="middle" x="547" y="-229.8" font-family="Times,serif" font-size="14.00">DuplicateCheckComponent </text>
</g>
<!-- ShoppingCartValidationDetailModule&#45;&gt;DuplicateCheckComponent  -->
<g id="edge8" class="edge">
<title>ShoppingCartValidationDetailModule&#45;&gt;DuplicateCheckComponent </title>
<path fill="none" stroke="black" stroke-dasharray="5,2" d="M579.6,-187.11C579.6,-187.11 579.6,-205.99 579.6,-205.99"/>
<polygon fill="black" stroke="black" points="576.1,-205.99 579.6,-215.99 583.1,-205.99 576.1,-205.99"/>
</g>
<!-- ExclusionCheckComponent  -->
<g id="node10" class="node">
<title>ExclusionCheckComponent </title>
<polygon fill="#fb8072" stroke="black" points="441.09,-252 264.91,-252 264.91,-216 441.09,-216 441.09,-252"/>
<text text-anchor="middle" x="353" y="-229.8" font-family="Times,serif" font-size="14.00">ExclusionCheckComponent </text>
</g>
<!-- ShoppingCartValidationDetailModule&#45;&gt;ExclusionCheckComponent  -->
<g id="edge9" class="edge">
<title>ShoppingCartValidationDetailModule&#45;&gt;ExclusionCheckComponent </title>
<path fill="none" stroke="black" stroke-dasharray="5,2" d="M524.54,-178C435.96,-178 328.73,-178 328.73,-178 328.73,-178 328.73,-205.97 328.73,-205.97"/>
<polygon fill="black" stroke="black" points="325.23,-205.97 328.73,-215.97 332.23,-205.97 325.23,-205.97"/>
</g>
<!-- ShoppingCartValidationDetailService -->
<g id="node11" class="node">
<title>ShoppingCartValidationDetailService</title>
<ellipse fill="#fdb462" stroke="black" cx="1159" cy="-104" rx="158" ry="18"/>
<text text-anchor="middle" x="1159" y="-99.8" font-family="Times,serif" font-size="14.00">ShoppingCartValidationDetailService</text>
</g>
<!-- ShoppingCartValidationDetailService&#45;&gt;ShoppingCartValidationDetailModule -->
<g id="edge10" class="edge">
<title>ShoppingCartValidationDetailService&#45;&gt;ShoppingCartValidationDetailModule</title>
<path fill="none" stroke="black" d="M1159,-122.11C1159,-141.34 1159,-169 1159,-169 1159,-169 765.18,-169 765.18,-169"/>
<polygon fill="black" stroke="black" points="765.18,-165.5 755.18,-169 765.18,-172.5 765.18,-165.5"/>
</g>
</g>
</svg>
