<?xml version="1.0" encoding="UTF-8" standalone="no"?>
<!DOCTYPE svg PUBLIC "-//W3C//DTD SVG 1.1//EN"
 "http://www.w3.org/Graphics/SVG/1.1/DTD/svg11.dtd">
<!-- Generated by graphviz version 2.47.0 (20210316.0004)
 -->
<!-- Title: dependencies Pages: 1 -->
<svg width="600pt" height="284pt"
 viewBox="0.00 0.00 600.00 284.00" xmlns="http://www.w3.org/2000/svg" xmlns:xlink="http://www.w3.org/1999/xlink">
<g id="graph0" class="graph" transform="scale(1 1) rotate(0) translate(4 280)">
<title>dependencies</title>
<polygon fill="white" stroke="transparent" points="-4,4 -4,-280 596,-280 596,4 -4,4"/>
<text text-anchor="start" x="275.01" y="-42.4" font-family="Times-12" font-weight="bold" font-size="14.00">Legend</text>
<polygon fill="#ffffb3" stroke="transparent" points="62,-10 62,-30 82,-30 82,-10 62,-10"/>
<text text-anchor="start" x="85.63" y="-15.4" font-family="Times-12" font-size="14.00"> &#160;Declarations</text>
<polygon fill="#8dd3c7" stroke="transparent" points="175,-10 175,-30 195,-30 195,-10 175,-10"/>
<text text-anchor="start" x="198.73" y="-15.4" font-family="Times-12" font-size="14.00"> &#160;Module</text>
<polygon fill="#80b1d3" stroke="transparent" points="261,-10 261,-30 281,-30 281,-10 261,-10"/>
<text text-anchor="start" x="284.78" y="-15.4" font-family="Times-12" font-size="14.00"> &#160;Bootstrap</text>
<polygon fill="#fdb462" stroke="transparent" points="358,-10 358,-30 378,-30 378,-10 358,-10"/>
<text text-anchor="start" x="381.67" y="-15.4" font-family="Times-12" font-size="14.00"> &#160;Providers</text>
<polygon fill="#fb8072" stroke="transparent" points="454,-10 454,-30 474,-30 474,-10 454,-10"/>
<text text-anchor="start" x="477.73" y="-15.4" font-family="Times-12" font-size="14.00"> &#160;Exports</text>
<g id="clust1" class="cluster">
<title>cluster_ServiceItemsEditFormModule</title>
<polygon fill="none" stroke="black" stroke-dasharray="1,5" points="8,-70 8,-268 584,-268 584,-70 8,-70"/>
</g>
<g id="clust4" class="cluster">
<title>cluster_ServiceItemsEditFormModule_imports</title>
<polygon fill="none" stroke="black" points="248,-78 248,-130 576,-130 576,-78 248,-78"/>
</g>
<g id="clust5" class="cluster">
<title>cluster_ServiceItemsEditFormModule_exports</title>
<polygon fill="none" stroke="black" points="219,-208 219,-260 447,-260 447,-208 219,-208"/>
</g>
<g id="clust2" class="cluster">
<title>cluster_ServiceItemsEditFormModule_declarations</title>
<polygon fill="none" stroke="black" points="16,-78 16,-130 240,-130 240,-78 16,-78"/>
</g>
<!-- ServiceItemsEditFormComponent -->
<g id="node1" class="node">
<title>ServiceItemsEditFormComponent</title>
<polygon fill="#ffffb3" stroke="black" points="232.08,-122 23.92,-122 23.92,-86 232.08,-86 232.08,-122"/>
<text text-anchor="middle" x="128" y="-99.8" font-family="Times,serif" font-size="14.00">ServiceItemsEditFormComponent</text>
</g>
<!-- ServiceItemsEditFormModule -->
<g id="node2" class="node">
<title>ServiceItemsEditFormModule</title>
<polygon fill="#8dd3c7" stroke="black" points="426.3,-187 423.3,-191 402.3,-191 399.3,-187 239.7,-187 239.7,-151 426.3,-151 426.3,-187"/>
<text text-anchor="middle" x="333" y="-164.8" font-family="Times,serif" font-size="14.00">ServiceItemsEditFormModule</text>
</g>
<!-- ServiceItemsEditFormComponent&#45;&gt;ServiceItemsEditFormModule -->
<g id="edge1" class="edge">
<title>ServiceItemsEditFormComponent&#45;&gt;ServiceItemsEditFormModule</title>
<path fill="none" stroke="black" d="M232.16,-104C241.68,-104 247.83,-104 247.83,-104 247.83,-104 247.83,-140.89 247.83,-140.89"/>
<polygon fill="black" stroke="black" points="244.33,-140.89 247.83,-150.89 251.33,-140.89 244.33,-140.89"/>
</g>
<!-- ServiceItemsEditFormComponent  -->
<g id="node5" class="node">
<title>ServiceItemsEditFormComponent </title>
<polygon fill="#fb8072" stroke="black" points="438.58,-252 227.42,-252 227.42,-216 438.58,-216 438.58,-252"/>
<text text-anchor="middle" x="333" y="-229.8" font-family="Times,serif" font-size="14.00">ServiceItemsEditFormComponent </text>
</g>
<!-- ServiceItemsEditFormModule&#45;&gt;ServiceItemsEditFormComponent  -->
<g id="edge4" class="edge">
<title>ServiceItemsEditFormModule&#45;&gt;ServiceItemsEditFormComponent </title>
<path fill="none" stroke="black" stroke-dasharray="5,2" d="M333,-187.11C333,-187.11 333,-205.99 333,-205.99"/>
<polygon fill="black" stroke="black" points="329.5,-205.99 333,-215.99 336.5,-205.99 329.5,-205.99"/>
</g>
<!-- OwnerControlModule -->
<g id="node3" class="node">
<title>OwnerControlModule</title>
<polygon fill="#8dd3c7" stroke="black" points="568.42,-122 565.42,-126 544.42,-126 541.42,-122 427.58,-122 427.58,-86 568.42,-86 568.42,-122"/>
<text text-anchor="middle" x="498" y="-99.8" font-family="Times,serif" font-size="14.00">OwnerControlModule</text>
</g>
<!-- OwnerControlModule&#45;&gt;ServiceItemsEditFormModule -->
<g id="edge2" class="edge">
<title>OwnerControlModule&#45;&gt;ServiceItemsEditFormModule</title>
<path fill="none" stroke="black" d="M433.29,-122.11C433.29,-141.34 433.29,-169 433.29,-169 433.29,-169 432.6,-169 432.6,-169"/>
<polygon fill="black" stroke="black" points="436.4,-165.5 426.4,-169 436.4,-172.5 436.4,-165.5"/>
</g>
<!-- ServiceItemTagsModule -->
<g id="node4" class="node">
<title>ServiceItemTagsModule</title>
<polygon fill="#8dd3c7" stroke="black" points="410.4,-122 407.4,-126 386.4,-126 383.4,-122 255.6,-122 255.6,-86 410.4,-86 410.4,-122"/>
<text text-anchor="middle" x="333" y="-99.8" font-family="Times,serif" font-size="14.00">ServiceItemTagsModule</text>
</g>
<!-- ServiceItemTagsModule&#45;&gt;ServiceItemsEditFormModule -->
<g id="edge3" class="edge">
<title>ServiceItemTagsModule&#45;&gt;ServiceItemsEditFormModule</title>
<path fill="none" stroke="black" d="M333,-122.11C333,-122.11 333,-140.99 333,-140.99"/>
<polygon fill="black" stroke="black" points="329.5,-140.99 333,-150.99 336.5,-140.99 329.5,-140.99"/>
</g>
</g>
</svg>
