<?xml version="1.0" encoding="UTF-8" standalone="no"?>
<!DOCTYPE svg PUBLIC "-//W3C//DTD SVG 1.1//EN"
 "http://www.w3.org/Graphics/SVG/1.1/DTD/svg11.dtd">
<!-- Generated by graphviz version 2.47.0 (20210316.0004)
 -->
<!-- Title: dependencies Pages: 1 -->
<svg width="646pt" height="284pt"
 viewBox="0.00 0.00 646.00 284.00" xmlns="http://www.w3.org/2000/svg" xmlns:xlink="http://www.w3.org/1999/xlink">
<g id="graph0" class="graph" transform="scale(1 1) rotate(0) translate(4 280)">
<title>dependencies</title>
<polygon fill="white" stroke="transparent" points="-4,4 -4,-280 642,-280 642,4 -4,4"/>
<text text-anchor="start" x="298.01" y="-42.4" font-family="Times-12" font-weight="bold" font-size="14.00">Legend</text>
<polygon fill="#ffffb3" stroke="transparent" points="85,-10 85,-30 105,-30 105,-10 85,-10"/>
<text text-anchor="start" x="108.63" y="-15.4" font-family="Times-12" font-size="14.00"> &#160;Declarations</text>
<polygon fill="#8dd3c7" stroke="transparent" points="198,-10 198,-30 218,-30 218,-10 198,-10"/>
<text text-anchor="start" x="221.73" y="-15.4" font-family="Times-12" font-size="14.00"> &#160;Module</text>
<polygon fill="#80b1d3" stroke="transparent" points="284,-10 284,-30 304,-30 304,-10 284,-10"/>
<text text-anchor="start" x="307.78" y="-15.4" font-family="Times-12" font-size="14.00"> &#160;Bootstrap</text>
<polygon fill="#fdb462" stroke="transparent" points="381,-10 381,-30 401,-30 401,-10 381,-10"/>
<text text-anchor="start" x="404.67" y="-15.4" font-family="Times-12" font-size="14.00"> &#160;Providers</text>
<polygon fill="#fb8072" stroke="transparent" points="477,-10 477,-30 497,-30 497,-10 477,-10"/>
<text text-anchor="start" x="500.73" y="-15.4" font-family="Times-12" font-size="14.00"> &#160;Exports</text>
<g id="clust1" class="cluster">
<title>cluster_SourceDetectiveModule</title>
<polygon fill="none" stroke="black" stroke-dasharray="1,5" points="8,-70 8,-268 630,-268 630,-70 8,-70"/>
</g>
<g id="clust2" class="cluster">
<title>cluster_SourceDetectiveModule_declarations</title>
<polygon fill="none" stroke="black" points="186,-78 186,-130 622,-130 622,-78 186,-78"/>
</g>
<g id="clust6" class="cluster">
<title>cluster_SourceDetectiveModule_exports</title>
<polygon fill="none" stroke="black" points="211,-208 211,-260 405,-260 405,-208 211,-208"/>
</g>
<g id="clust5" class="cluster">
<title>cluster_SourceDetectiveModule_imports</title>
<polygon fill="none" stroke="black" points="16,-78 16,-130 178,-130 178,-78 16,-78"/>
</g>
<!-- SourceDetectiveComponent -->
<g id="node1" class="node">
<title>SourceDetectiveComponent</title>
<polygon fill="#ffffb3" stroke="black" points="613.84,-122 440.16,-122 440.16,-86 613.84,-86 613.84,-122"/>
<text text-anchor="middle" x="527" y="-99.8" font-family="Times,serif" font-size="14.00">SourceDetectiveComponent</text>
</g>
<!-- SourceDetectiveModule -->
<g id="node3" class="node">
<title>SourceDetectiveModule</title>
<polygon fill="#8dd3c7" stroke="black" points="384.06,-187 381.06,-191 360.06,-191 357.06,-187 231.94,-187 231.94,-151 384.06,-151 384.06,-187"/>
<text text-anchor="middle" x="308" y="-164.8" font-family="Times,serif" font-size="14.00">SourceDetectiveModule</text>
</g>
<!-- SourceDetectiveComponent&#45;&gt;SourceDetectiveModule -->
<g id="edge1" class="edge">
<title>SourceDetectiveComponent&#45;&gt;SourceDetectiveModule</title>
<path fill="none" stroke="black" d="M527,-122.11C527,-141.34 527,-169 527,-169 527,-169 394.29,-169 394.29,-169"/>
<polygon fill="black" stroke="black" points="394.29,-165.5 384.29,-169 394.29,-172.5 394.29,-165.5"/>
</g>
<!-- SourceDetectiveSidesheetComponent -->
<g id="node2" class="node">
<title>SourceDetectiveSidesheetComponent</title>
<polygon fill="#ffffb3" stroke="black" points="421.99,-122 194.01,-122 194.01,-86 421.99,-86 421.99,-122"/>
<text text-anchor="middle" x="308" y="-99.8" font-family="Times,serif" font-size="14.00">SourceDetectiveSidesheetComponent</text>
</g>
<!-- SourceDetectiveSidesheetComponent&#45;&gt;SourceDetectiveModule -->
<g id="edge2" class="edge">
<title>SourceDetectiveSidesheetComponent&#45;&gt;SourceDetectiveModule</title>
<path fill="none" stroke="black" d="M308,-122.11C308,-122.11 308,-140.99 308,-140.99"/>
<polygon fill="black" stroke="black" points="304.5,-140.99 308,-150.99 311.5,-140.99 304.5,-140.99"/>
</g>
<!-- SourceDetectiveComponent  -->
<g id="node5" class="node">
<title>SourceDetectiveComponent </title>
<polygon fill="#fb8072" stroke="black" points="396.84,-252 219.16,-252 219.16,-216 396.84,-216 396.84,-252"/>
<text text-anchor="middle" x="308" y="-229.8" font-family="Times,serif" font-size="14.00">SourceDetectiveComponent </text>
</g>
<!-- SourceDetectiveModule&#45;&gt;SourceDetectiveComponent  -->
<g id="edge4" class="edge">
<title>SourceDetectiveModule&#45;&gt;SourceDetectiveComponent </title>
<path fill="none" stroke="black" stroke-dasharray="5,2" d="M308,-187.11C308,-187.11 308,-205.99 308,-205.99"/>
<polygon fill="black" stroke="black" points="304.5,-205.99 308,-215.99 311.5,-205.99 304.5,-205.99"/>
</g>
<!-- RequestHistoryModule -->
<g id="node4" class="node">
<title>RequestHistoryModule</title>
<polygon fill="#8dd3c7" stroke="black" points="170.14,-122 167.14,-126 146.14,-126 143.14,-122 23.86,-122 23.86,-86 170.14,-86 170.14,-122"/>
<text text-anchor="middle" x="97" y="-99.8" font-family="Times,serif" font-size="14.00">RequestHistoryModule</text>
</g>
<!-- RequestHistoryModule&#45;&gt;SourceDetectiveModule -->
<g id="edge3" class="edge">
<title>RequestHistoryModule&#45;&gt;SourceDetectiveModule</title>
<path fill="none" stroke="black" d="M97,-122.11C97,-141.34 97,-169 97,-169 97,-169 221.82,-169 221.82,-169"/>
<polygon fill="black" stroke="black" points="221.82,-172.5 231.82,-169 221.82,-165.5 221.82,-172.5"/>
</g>
</g>
</svg>
