<?xml version="1.0" encoding="UTF-8" standalone="no"?>
<!DOCTYPE svg PUBLIC "-//W3C//DTD SVG 1.1//EN"
 "http://www.w3.org/Graphics/SVG/1.1/DTD/svg11.dtd">
<!-- Generated by graphviz version 2.47.0 (20210316.0004)
 -->
<!-- Title: dependencies Pages: 1 -->
<svg width="504pt" height="284pt"
 viewBox="0.00 0.00 504.00 284.00" xmlns="http://www.w3.org/2000/svg" xmlns:xlink="http://www.w3.org/1999/xlink">
<g id="graph0" class="graph" transform="scale(1 1) rotate(0) translate(4 280)">
<title>dependencies</title>
<polygon fill="white" stroke="transparent" points="-4,4 -4,-280 500,-280 500,4 -4,4"/>
<text text-anchor="start" x="227.01" y="-42.4" font-family="Times-12" font-weight="bold" font-size="14.00">Legend</text>
<polygon fill="#ffffb3" stroke="transparent" points="14,-10 14,-30 34,-30 34,-10 14,-10"/>
<text text-anchor="start" x="37.63" y="-15.4" font-family="Times-12" font-size="14.00"> &#160;Declarations</text>
<polygon fill="#8dd3c7" stroke="transparent" points="127,-10 127,-30 147,-30 147,-10 127,-10"/>
<text text-anchor="start" x="150.73" y="-15.4" font-family="Times-12" font-size="14.00"> &#160;Module</text>
<polygon fill="#80b1d3" stroke="transparent" points="213,-10 213,-30 233,-30 233,-10 213,-10"/>
<text text-anchor="start" x="236.78" y="-15.4" font-family="Times-12" font-size="14.00"> &#160;Bootstrap</text>
<polygon fill="#fdb462" stroke="transparent" points="310,-10 310,-30 330,-30 330,-10 310,-10"/>
<text text-anchor="start" x="333.67" y="-15.4" font-family="Times-12" font-size="14.00"> &#160;Providers</text>
<polygon fill="#fb8072" stroke="transparent" points="406,-10 406,-30 426,-30 426,-10 406,-10"/>
<text text-anchor="start" x="429.73" y="-15.4" font-family="Times-12" font-size="14.00"> &#160;Exports</text>
<g id="clust1" class="cluster">
<title>cluster_MenuModule</title>
<polygon fill="none" stroke="black" stroke-dasharray="1,5" points="100,-70 100,-268 396,-268 396,-70 100,-70"/>
</g>
<g id="clust2" class="cluster">
<title>cluster_MenuModule_declarations</title>
<polygon fill="none" stroke="black" points="258,-78 258,-130 388,-130 388,-78 258,-78"/>
</g>
<g id="clust7" class="cluster">
<title>cluster_MenuModule_providers</title>
<polygon fill="none" stroke="black" points="108,-78 108,-130 250,-130 250,-78 108,-78"/>
</g>
<g id="clust5" class="cluster">
<title>cluster_MenuModule_exports</title>
<polygon fill="none" stroke="black" points="183,-208 183,-260 317,-260 317,-208 183,-208"/>
</g>
<!-- MenuComponent -->
<g id="node1" class="node">
<title>MenuComponent</title>
<polygon fill="#ffffb3" stroke="black" points="379.99,-122 266.01,-122 266.01,-86 379.99,-86 379.99,-122"/>
<text text-anchor="middle" x="323" y="-99.8" font-family="Times,serif" font-size="14.00">MenuComponent</text>
</g>
<!-- MenuModule -->
<g id="node2" class="node">
<title>MenuModule</title>
<polygon fill="#8dd3c7" stroke="black" points="296.21,-187 293.21,-191 272.21,-191 269.21,-187 203.79,-187 203.79,-151 296.21,-151 296.21,-187"/>
<text text-anchor="middle" x="250" y="-164.8" font-family="Times,serif" font-size="14.00">MenuModule</text>
</g>
<!-- MenuComponent&#45;&gt;MenuModule -->
<g id="edge1" class="edge">
<title>MenuComponent&#45;&gt;MenuModule</title>
<path fill="none" stroke="black" d="M281.05,-122.11C281.05,-122.11 281.05,-140.99 281.05,-140.99"/>
<polygon fill="black" stroke="black" points="277.55,-140.99 281.05,-150.99 284.55,-140.99 277.55,-140.99"/>
</g>
<!-- MenuComponent  -->
<g id="node3" class="node">
<title>MenuComponent </title>
<polygon fill="#fb8072" stroke="black" points="308.99,-252 191.01,-252 191.01,-216 308.99,-216 308.99,-252"/>
<text text-anchor="middle" x="250" y="-229.8" font-family="Times,serif" font-size="14.00">MenuComponent </text>
</g>
<!-- MenuModule&#45;&gt;MenuComponent  -->
<g id="edge2" class="edge">
<title>MenuModule&#45;&gt;MenuComponent </title>
<path fill="none" stroke="black" stroke-dasharray="5,2" d="M250,-187.11C250,-187.11 250,-205.99 250,-205.99"/>
<polygon fill="black" stroke="black" points="246.5,-205.99 250,-215.99 253.5,-205.99 246.5,-205.99"/>
</g>
<!-- MenuService -->
<g id="node4" class="node">
<title>MenuService</title>
<ellipse fill="#fdb462" stroke="black" cx="179" cy="-104" rx="62.54" ry="18"/>
<text text-anchor="middle" x="179" y="-99.8" font-family="Times,serif" font-size="14.00">MenuService</text>
</g>
<!-- MenuService&#45;&gt;MenuModule -->
<g id="edge3" class="edge">
<title>MenuService&#45;&gt;MenuModule</title>
<path fill="none" stroke="black" d="M222.71,-117.15C222.71,-117.15 222.71,-140.69 222.71,-140.69"/>
<polygon fill="black" stroke="black" points="219.21,-140.69 222.71,-150.69 226.21,-140.69 219.21,-140.69"/>
</g>
</g>
</svg>
