<?xml version="1.0" encoding="UTF-8" standalone="no"?>
<!DOCTYPE svg PUBLIC "-//W3C//DTD SVG 1.1//EN"
 "http://www.w3.org/Graphics/SVG/1.1/DTD/svg11.dtd">
<!-- Generated by graphviz version 2.47.0 (20210316.0004)
 -->
<!-- Title: dependencies Pages: 1 -->
<svg width="2590pt" height="284pt"
 viewBox="0.00 0.00 2590.00 284.00" xmlns="http://www.w3.org/2000/svg" xmlns:xlink="http://www.w3.org/1999/xlink">
<g id="graph0" class="graph" transform="scale(1 1) rotate(0) translate(4 280)">
<title>dependencies</title>
<polygon fill="white" stroke="transparent" points="-4,4 -4,-280 2586,-280 2586,4 -4,4"/>
<text text-anchor="start" x="1270.01" y="-42.4" font-family="Times-12" font-weight="bold" font-size="14.00">Legend</text>
<polygon fill="#ffffb3" stroke="transparent" points="1057,-10 1057,-30 1077,-30 1077,-10 1057,-10"/>
<text text-anchor="start" x="1080.63" y="-15.4" font-family="Times-12" font-size="14.00"> &#160;Declarations</text>
<polygon fill="#8dd3c7" stroke="transparent" points="1170,-10 1170,-30 1190,-30 1190,-10 1170,-10"/>
<text text-anchor="start" x="1193.73" y="-15.4" font-family="Times-12" font-size="14.00"> &#160;Module</text>
<polygon fill="#80b1d3" stroke="transparent" points="1256,-10 1256,-30 1276,-30 1276,-10 1256,-10"/>
<text text-anchor="start" x="1279.78" y="-15.4" font-family="Times-12" font-size="14.00"> &#160;Bootstrap</text>
<polygon fill="#fdb462" stroke="transparent" points="1353,-10 1353,-30 1373,-30 1373,-10 1353,-10"/>
<text text-anchor="start" x="1376.67" y="-15.4" font-family="Times-12" font-size="14.00"> &#160;Providers</text>
<polygon fill="#fb8072" stroke="transparent" points="1449,-10 1449,-30 1469,-30 1469,-10 1449,-10"/>
<text text-anchor="start" x="1472.73" y="-15.4" font-family="Times-12" font-size="14.00"> &#160;Exports</text>
<g id="clust1" class="cluster">
<title>cluster_RoleManangementModule</title>
<polygon fill="none" stroke="black" stroke-dasharray="1,5" points="8,-70 8,-268 2574,-268 2574,-70 8,-70"/>
</g>
<g id="clust16" class="cluster">
<title>cluster_RoleManangementModule_exports</title>
<polygon fill="none" stroke="black" points="1134,-208 1134,-260 1486,-260 1486,-208 1134,-208"/>
</g>
<g id="clust15" class="cluster">
<title>cluster_RoleManangementModule_imports</title>
<polygon fill="none" stroke="black" points="2082,-78 2082,-130 2566,-130 2566,-78 2082,-78"/>
</g>
<g id="clust2" class="cluster">
<title>cluster_RoleManangementModule_declarations</title>
<polygon fill="none" stroke="black" points="16,-78 16,-130 2074,-130 2074,-78 16,-78"/>
</g>
<!-- CompareComponent -->
<g id="node1" class="node">
<title>CompareComponent</title>
<polygon fill="#ffffb3" stroke="black" points="2066.15,-122 1933.85,-122 1933.85,-86 2066.15,-86 2066.15,-122"/>
<text text-anchor="middle" x="2000" y="-99.8" font-family="Times,serif" font-size="14.00">CompareComponent</text>
</g>
<!-- RoleManangementModule -->
<g id="node13" class="node">
<title>RoleManangementModule</title>
<polygon fill="#8dd3c7" stroke="black" points="1399.08,-187 1396.08,-191 1375.08,-191 1372.08,-187 1232.92,-187 1232.92,-151 1399.08,-151 1399.08,-187"/>
<text text-anchor="middle" x="1316" y="-164.8" font-family="Times,serif" font-size="14.00">RoleManangementModule</text>
</g>
<!-- CompareComponent&#45;&gt;RoleManangementModule -->
<g id="edge1" class="edge">
<title>CompareComponent&#45;&gt;RoleManangementModule</title>
<path fill="none" stroke="black" d="M2000,-122.22C2000,-140.83 2000,-167 2000,-167 2000,-167 1409.19,-167 1409.19,-167"/>
<polygon fill="black" stroke="black" points="1409.19,-163.5 1399.19,-167 1409.19,-170.5 1409.19,-163.5"/>
</g>
<!-- CompareItemComponent -->
<g id="node2" class="node">
<title>CompareItemComponent</title>
<polygon fill="#ffffb3" stroke="black" points="1916.31,-122 1757.69,-122 1757.69,-86 1916.31,-86 1916.31,-122"/>
<text text-anchor="middle" x="1837" y="-99.8" font-family="Times,serif" font-size="14.00">CompareItemComponent</text>
</g>
<!-- CompareItemComponent&#45;&gt;RoleManangementModule -->
<g id="edge2" class="edge">
<title>CompareItemComponent&#45;&gt;RoleManangementModule</title>
<path fill="none" stroke="black" d="M1837,-122.03C1837,-139.06 1837,-162 1837,-162 1837,-162 1409.13,-162 1409.13,-162"/>
<polygon fill="black" stroke="black" points="1409.13,-158.5 1399.13,-162 1409.13,-165.5 1409.13,-158.5"/>
</g>
<!-- EntitlementSelectorComponent -->
<g id="node3" class="node">
<title>EntitlementSelectorComponent</title>
<polygon fill="#ffffb3" stroke="black" points="1740.03,-122 1547.97,-122 1547.97,-86 1740.03,-86 1740.03,-122"/>
<text text-anchor="middle" x="1644" y="-99.8" font-family="Times,serif" font-size="14.00">EntitlementSelectorComponent</text>
</g>
<!-- EntitlementSelectorComponent&#45;&gt;RoleManangementModule -->
<g id="edge3" class="edge">
<title>EntitlementSelectorComponent&#45;&gt;RoleManangementModule</title>
<path fill="none" stroke="black" d="M1644,-122.24C1644,-137.57 1644,-157 1644,-157 1644,-157 1409.19,-157 1409.19,-157"/>
<polygon fill="black" stroke="black" points="1409.19,-153.5 1399.19,-157 1409.19,-160.5 1409.19,-153.5"/>
</g>
<!-- NewRoleComponent -->
<g id="node4" class="node">
<title>NewRoleComponent</title>
<polygon fill="#ffffb3" stroke="black" points="1530.2,-122 1395.8,-122 1395.8,-86 1530.2,-86 1530.2,-122"/>
<text text-anchor="middle" x="1463" y="-99.8" font-family="Times,serif" font-size="14.00">NewRoleComponent</text>
</g>
<!-- NewRoleComponent&#45;&gt;RoleManangementModule -->
<g id="edge4" class="edge">
<title>NewRoleComponent&#45;&gt;RoleManangementModule</title>
<path fill="none" stroke="black" d="M1395.69,-104C1390.36,-104 1386.97,-104 1386.97,-104 1386.97,-104 1386.97,-140.89 1386.97,-140.89"/>
<polygon fill="black" stroke="black" points="1383.47,-140.89 1386.97,-150.89 1390.47,-140.89 1383.47,-140.89"/>
</g>
<!-- RestoreComponent -->
<g id="node5" class="node">
<title>RestoreComponent</title>
<polygon fill="#ffffb3" stroke="black" points="1378.09,-122 1253.91,-122 1253.91,-86 1378.09,-86 1378.09,-122"/>
<text text-anchor="middle" x="1316" y="-99.8" font-family="Times,serif" font-size="14.00">RestoreComponent</text>
</g>
<!-- RestoreComponent&#45;&gt;RoleManangementModule -->
<g id="edge5" class="edge">
<title>RestoreComponent&#45;&gt;RoleManangementModule</title>
<path fill="none" stroke="black" d="M1316,-122.11C1316,-122.11 1316,-140.99 1316,-140.99"/>
<polygon fill="black" stroke="black" points="1312.5,-140.99 1316,-150.99 1319.5,-140.99 1312.5,-140.99"/>
</g>
<!-- RoleDetailComponent -->
<g id="node6" class="node">
<title>RoleDetailComponent</title>
<polygon fill="#ffffb3" stroke="black" points="1235.98,-122 1094.02,-122 1094.02,-86 1235.98,-86 1235.98,-122"/>
<text text-anchor="middle" x="1165" y="-99.8" font-family="Times,serif" font-size="14.00">RoleDetailComponent</text>
</g>
<!-- RoleDetailComponent&#45;&gt;RoleManangementModule -->
<g id="edge6" class="edge">
<title>RoleDetailComponent&#45;&gt;RoleManangementModule</title>
<path fill="none" stroke="black" d="M1236.11,-104C1241.54,-104 1244.97,-104 1244.97,-104 1244.97,-104 1244.97,-140.89 1244.97,-140.89"/>
<polygon fill="black" stroke="black" points="1241.47,-140.89 1244.97,-150.89 1248.47,-140.89 1241.47,-140.89"/>
</g>
<!-- RoleEntitlementsComponent -->
<g id="node7" class="node">
<title>RoleEntitlementsComponent</title>
<polygon fill="#ffffb3" stroke="black" points="1076.04,-122 897.96,-122 897.96,-86 1076.04,-86 1076.04,-122"/>
<text text-anchor="middle" x="987" y="-99.8" font-family="Times,serif" font-size="14.00">RoleEntitlementsComponent</text>
</g>
<!-- RoleEntitlementsComponent&#45;&gt;RoleManangementModule -->
<g id="edge7" class="edge">
<title>RoleEntitlementsComponent&#45;&gt;RoleManangementModule</title>
<path fill="none" stroke="black" d="M987,-122.24C987,-137.57 987,-157 987,-157 987,-157 1222.55,-157 1222.55,-157"/>
<polygon fill="black" stroke="black" points="1222.55,-160.5 1232.55,-157 1222.55,-153.5 1222.55,-160.5"/>
</g>
<!-- RoleMainDataComponent -->
<g id="node8" class="node">
<title>RoleMainDataComponent</title>
<polygon fill="#ffffb3" stroke="black" points="879.75,-122 716.25,-122 716.25,-86 879.75,-86 879.75,-122"/>
<text text-anchor="middle" x="798" y="-99.8" font-family="Times,serif" font-size="14.00">RoleMainDataComponent</text>
</g>
<!-- RoleMainDataComponent&#45;&gt;RoleManangementModule -->
<g id="edge8" class="edge">
<title>RoleMainDataComponent&#45;&gt;RoleManangementModule</title>
<path fill="none" stroke="black" d="M798,-122.03C798,-139.06 798,-162 798,-162 798,-162 1222.77,-162 1222.77,-162"/>
<polygon fill="black" stroke="black" points="1222.77,-165.5 1232.77,-162 1222.77,-158.5 1222.77,-165.5"/>
</g>
<!-- RoleRecommendationsComponent -->
<g id="node9" class="node">
<title>RoleRecommendationsComponent</title>
<polygon fill="#ffffb3" stroke="black" points="697.98,-122 486.02,-122 486.02,-86 697.98,-86 697.98,-122"/>
<text text-anchor="middle" x="592" y="-99.8" font-family="Times,serif" font-size="14.00">RoleRecommendationsComponent</text>
</g>
<!-- RoleRecommendationsComponent&#45;&gt;RoleManangementModule -->
<g id="edge9" class="edge">
<title>RoleRecommendationsComponent&#45;&gt;RoleManangementModule</title>
<path fill="none" stroke="black" d="M592,-122.22C592,-140.83 592,-167 592,-167 592,-167 1222.95,-167 1222.95,-167"/>
<polygon fill="black" stroke="black" points="1222.95,-170.5 1232.95,-167 1222.95,-163.5 1222.95,-170.5"/>
</g>
<!-- RolesOverviewComponent -->
<g id="node10" class="node">
<title>RolesOverviewComponent</title>
<polygon fill="#ffffb3" stroke="black" points="468.41,-122 299.59,-122 299.59,-86 468.41,-86 468.41,-122"/>
<text text-anchor="middle" x="384" y="-99.8" font-family="Times,serif" font-size="14.00">RolesOverviewComponent</text>
</g>
<!-- RolesOverviewComponent&#45;&gt;RoleManangementModule -->
<g id="edge10" class="edge">
<title>RolesOverviewComponent&#45;&gt;RoleManangementModule</title>
<path fill="none" stroke="black" d="M384,-122.22C384,-142.37 384,-172 384,-172 384,-172 1222.88,-172 1222.88,-172"/>
<polygon fill="black" stroke="black" points="1222.88,-175.5 1232.88,-172 1222.88,-168.5 1222.88,-175.5"/>
</g>
<!-- RollbackComponent -->
<g id="node11" class="node">
<title>RollbackComponent</title>
<polygon fill="#ffffb3" stroke="black" points="281.88,-122 150.12,-122 150.12,-86 281.88,-86 281.88,-122"/>
<text text-anchor="middle" x="216" y="-99.8" font-family="Times,serif" font-size="14.00">RollbackComponent</text>
</g>
<!-- RollbackComponent&#45;&gt;RoleManangementModule -->
<g id="edge11" class="edge">
<title>RollbackComponent&#45;&gt;RoleManangementModule</title>
<path fill="none" stroke="black" d="M216,-122.04C216,-143.66 216,-177 216,-177 216,-177 1222.87,-177 1222.87,-177"/>
<polygon fill="black" stroke="black" points="1222.87,-180.5 1232.87,-177 1222.87,-173.5 1222.87,-180.5"/>
</g>
<!-- SplitComponent -->
<g id="node12" class="node">
<title>SplitComponent</title>
<polygon fill="#ffffb3" stroke="black" points="131.79,-122 24.21,-122 24.21,-86 131.79,-86 131.79,-122"/>
<text text-anchor="middle" x="78" y="-99.8" font-family="Times,serif" font-size="14.00">SplitComponent</text>
</g>
<!-- SplitComponent&#45;&gt;RoleManangementModule -->
<g id="edge12" class="edge">
<title>SplitComponent&#45;&gt;RoleManangementModule</title>
<path fill="none" stroke="black" d="M78,-122.09C78,-145.13 78,-182 78,-182 78,-182 1222.85,-182 1222.85,-182"/>
<polygon fill="black" stroke="black" points="1222.85,-185.5 1232.85,-182 1222.85,-178.5 1222.85,-185.5"/>
</g>
<!-- RoleDetailComponent  -->
<g id="node17" class="node">
<title>RoleDetailComponent </title>
<polygon fill="#fb8072" stroke="black" points="1477.98,-252 1332.02,-252 1332.02,-216 1477.98,-216 1477.98,-252"/>
<text text-anchor="middle" x="1405" y="-229.8" font-family="Times,serif" font-size="14.00">RoleDetailComponent </text>
</g>
<!-- RoleManangementModule&#45;&gt;RoleDetailComponent  -->
<g id="edge16" class="edge">
<title>RoleManangementModule&#45;&gt;RoleDetailComponent </title>
<path fill="none" stroke="black" stroke-dasharray="5,2" d="M1365.65,-187.11C1365.65,-187.11 1365.65,-205.99 1365.65,-205.99"/>
<polygon fill="black" stroke="black" points="1362.15,-205.99 1365.65,-215.99 1369.15,-205.99 1362.15,-205.99"/>
</g>
<!-- RolesOverviewComponent  -->
<g id="node18" class="node">
<title>RolesOverviewComponent </title>
<polygon fill="#fb8072" stroke="black" points="1313.91,-252 1142.09,-252 1142.09,-216 1313.91,-216 1313.91,-252"/>
<text text-anchor="middle" x="1228" y="-229.8" font-family="Times,serif" font-size="14.00">RolesOverviewComponent </text>
</g>
<!-- RoleManangementModule&#45;&gt;RolesOverviewComponent  -->
<g id="edge17" class="edge">
<title>RoleManangementModule&#45;&gt;RolesOverviewComponent </title>
<path fill="none" stroke="black" stroke-dasharray="5,2" d="M1273.46,-187.11C1273.46,-187.11 1273.46,-205.99 1273.46,-205.99"/>
<polygon fill="black" stroke="black" points="1269.96,-205.99 1273.46,-215.99 1276.96,-205.99 1269.96,-205.99"/>
</g>
<!-- ObjectHyperviewModule -->
<g id="node14" class="node">
<title>ObjectHyperviewModule</title>
<polygon fill="#8dd3c7" stroke="black" points="2557.56,-122 2554.56,-126 2533.56,-126 2530.56,-122 2398.44,-122 2398.44,-86 2557.56,-86 2557.56,-122"/>
<text text-anchor="middle" x="2478" y="-99.8" font-family="Times,serif" font-size="14.00">ObjectHyperviewModule</text>
</g>
<!-- ObjectHyperviewModule&#45;&gt;RoleManangementModule -->
<g id="edge13" class="edge">
<title>ObjectHyperviewModule&#45;&gt;RoleManangementModule</title>
<path fill="none" stroke="black" d="M2478,-122.09C2478,-145.13 2478,-182 2478,-182 2478,-182 1409.1,-182 1409.1,-182"/>
<polygon fill="black" stroke="black" points="1409.1,-178.5 1399.1,-182 1409.1,-185.5 1409.1,-178.5"/>
</g>
<!-- RoleMembershipsModule -->
<g id="node15" class="node">
<title>RoleMembershipsModule</title>
<polygon fill="#8dd3c7" stroke="black" points="2380.2,-122 2377.2,-126 2356.2,-126 2353.2,-122 2217.8,-122 2217.8,-86 2380.2,-86 2380.2,-122"/>
<text text-anchor="middle" x="2299" y="-99.8" font-family="Times,serif" font-size="14.00">RoleMembershipsModule</text>
</g>
<!-- RoleMembershipsModule&#45;&gt;RoleManangementModule -->
<g id="edge14" class="edge">
<title>RoleMembershipsModule&#45;&gt;RoleManangementModule</title>
<path fill="none" stroke="black" d="M2299,-122.04C2299,-143.66 2299,-177 2299,-177 2299,-177 1409.39,-177 1409.39,-177"/>
<polygon fill="black" stroke="black" points="1409.39,-173.5 1399.39,-177 1409.39,-180.5 1409.39,-173.5"/>
</g>
<!-- StatisticsModule -->
<g id="node16" class="node">
<title>StatisticsModule</title>
<polygon fill="#8dd3c7" stroke="black" points="2200.1,-122 2197.1,-126 2176.1,-126 2173.1,-122 2089.9,-122 2089.9,-86 2200.1,-86 2200.1,-122"/>
<text text-anchor="middle" x="2145" y="-99.8" font-family="Times,serif" font-size="14.00">StatisticsModule</text>
</g>
<!-- StatisticsModule&#45;&gt;RoleManangementModule -->
<g id="edge15" class="edge">
<title>StatisticsModule&#45;&gt;RoleManangementModule</title>
<path fill="none" stroke="black" d="M2145,-122.22C2145,-142.37 2145,-172 2145,-172 2145,-172 1409.28,-172 1409.28,-172"/>
<polygon fill="black" stroke="black" points="1409.28,-168.5 1399.28,-172 1409.28,-175.5 1409.28,-168.5"/>
</g>
</g>
</svg>
