<?xml version="1.0" encoding="UTF-8" standalone="no"?>
<!DOCTYPE svg PUBLIC "-//W3C//DTD SVG 1.1//EN"
 "http://www.w3.org/Graphics/SVG/1.1/DTD/svg11.dtd">
<!-- Generated by graphviz version 2.47.0 (20210316.0004)
 -->
<!-- Title: dependencies Pages: 1 -->
<svg width="504pt" height="284pt"
 viewBox="0.00 0.00 504.00 284.00" xmlns="http://www.w3.org/2000/svg" xmlns:xlink="http://www.w3.org/1999/xlink">
<g id="graph0" class="graph" transform="scale(1 1) rotate(0) translate(4 280)">
<title>dependencies</title>
<polygon fill="white" stroke="transparent" points="-4,4 -4,-280 500,-280 500,4 -4,4"/>
<text text-anchor="start" x="227.01" y="-42.4" font-family="Times-12" font-weight="bold" font-size="14.00">Legend</text>
<polygon fill="#ffffb3" stroke="transparent" points="14,-10 14,-30 34,-30 34,-10 14,-10"/>
<text text-anchor="start" x="37.63" y="-15.4" font-family="Times-12" font-size="14.00"> &#160;Declarations</text>
<polygon fill="#8dd3c7" stroke="transparent" points="127,-10 127,-30 147,-30 147,-10 127,-10"/>
<text text-anchor="start" x="150.73" y="-15.4" font-family="Times-12" font-size="14.00"> &#160;Module</text>
<polygon fill="#80b1d3" stroke="transparent" points="213,-10 213,-30 233,-30 233,-10 213,-10"/>
<text text-anchor="start" x="236.78" y="-15.4" font-family="Times-12" font-size="14.00"> &#160;Bootstrap</text>
<polygon fill="#fdb462" stroke="transparent" points="310,-10 310,-30 330,-30 330,-10 310,-10"/>
<text text-anchor="start" x="333.67" y="-15.4" font-family="Times-12" font-size="14.00"> &#160;Providers</text>
<polygon fill="#fb8072" stroke="transparent" points="406,-10 406,-30 426,-30 426,-10 406,-10"/>
<text text-anchor="start" x="429.73" y="-15.4" font-family="Times-12" font-size="14.00"> &#160;Exports</text>
<g id="clust1" class="cluster">
<title>cluster_UserMessageModule</title>
<polygon fill="none" stroke="black" stroke-dasharray="1,5" points="50,-70 50,-268 446,-268 446,-70 50,-70"/>
</g>
<g id="clust2" class="cluster">
<title>cluster_UserMessageModule_declarations</title>
<polygon fill="none" stroke="black" points="266,-78 266,-130 438,-130 438,-78 266,-78"/>
</g>
<g id="clust5" class="cluster">
<title>cluster_UserMessageModule_exports</title>
<polygon fill="none" stroke="black" points="166,-208 166,-260 342,-260 342,-208 166,-208"/>
</g>
<g id="clust7" class="cluster">
<title>cluster_UserMessageModule_providers</title>
<polygon fill="none" stroke="black" points="58,-78 58,-130 258,-130 258,-78 58,-78"/>
</g>
<!-- UserMessageComponent -->
<g id="node1" class="node">
<title>UserMessageComponent</title>
<polygon fill="#ffffb3" stroke="black" points="430.24,-122 273.76,-122 273.76,-86 430.24,-86 430.24,-122"/>
<text text-anchor="middle" x="352" y="-99.8" font-family="Times,serif" font-size="14.00">UserMessageComponent</text>
</g>
<!-- UserMessageModule -->
<g id="node2" class="node">
<title>UserMessageModule</title>
<polygon fill="#8dd3c7" stroke="black" points="321.45,-187 318.45,-191 297.45,-191 294.45,-187 186.55,-187 186.55,-151 321.45,-151 321.45,-187"/>
<text text-anchor="middle" x="254" y="-164.8" font-family="Times,serif" font-size="14.00">UserMessageModule</text>
</g>
<!-- UserMessageComponent&#45;&gt;UserMessageModule -->
<g id="edge1" class="edge">
<title>UserMessageComponent&#45;&gt;UserMessageModule</title>
<path fill="none" stroke="black" d="M297.55,-122.11C297.55,-122.11 297.55,-140.99 297.55,-140.99"/>
<polygon fill="black" stroke="black" points="294.05,-140.99 297.55,-150.99 301.05,-140.99 294.05,-140.99"/>
</g>
<!-- UserMessageComponent  -->
<g id="node3" class="node">
<title>UserMessageComponent </title>
<polygon fill="#fb8072" stroke="black" points="334.24,-252 173.76,-252 173.76,-216 334.24,-216 334.24,-252"/>
<text text-anchor="middle" x="254" y="-229.8" font-family="Times,serif" font-size="14.00">UserMessageComponent </text>
</g>
<!-- UserMessageModule&#45;&gt;UserMessageComponent  -->
<g id="edge2" class="edge">
<title>UserMessageModule&#45;&gt;UserMessageComponent </title>
<path fill="none" stroke="black" stroke-dasharray="5,2" d="M254,-187.11C254,-187.11 254,-205.99 254,-205.99"/>
<polygon fill="black" stroke="black" points="250.5,-205.99 254,-215.99 257.5,-205.99 250.5,-205.99"/>
</g>
<!-- UserMessageService -->
<g id="node4" class="node">
<title>UserMessageService</title>
<ellipse fill="#fdb462" stroke="black" cx="158" cy="-104" rx="92.01" ry="18"/>
<text text-anchor="middle" x="158" y="-99.8" font-family="Times,serif" font-size="14.00">UserMessageService</text>
</g>
<!-- UserMessageService&#45;&gt;UserMessageModule -->
<g id="edge3" class="edge">
<title>UserMessageService&#45;&gt;UserMessageModule</title>
<path fill="none" stroke="black" d="M218.26,-117.78C218.26,-117.78 218.26,-140.55 218.26,-140.55"/>
<polygon fill="black" stroke="black" points="214.76,-140.55 218.26,-150.55 221.76,-140.55 214.76,-140.55"/>
</g>
</g>
</svg>
