<?xml version="1.0" encoding="UTF-8" standalone="no"?>
<!DOCTYPE svg PUBLIC "-//W3C//DTD SVG 1.1//EN"
 "http://www.w3.org/Graphics/SVG/1.1/DTD/svg11.dtd">
<!-- Generated by graphviz version 2.47.0 (20210316.0004)
 -->
<!-- Title: dependencies Pages: 1 -->
<svg width="3788pt" height="284pt"
 viewBox="0.00 0.00 3788.00 284.00" xmlns="http://www.w3.org/2000/svg" xmlns:xlink="http://www.w3.org/1999/xlink">
<g id="graph0" class="graph" transform="scale(1 1) rotate(0) translate(4 280)">
<title>dependencies</title>
<polygon fill="white" stroke="transparent" points="-4,4 -4,-280 3784,-280 3784,4 -4,4"/>
<text text-anchor="start" x="1869.01" y="-42.4" font-family="Times-12" font-weight="bold" font-size="14.00">Legend</text>
<polygon fill="#ffffb3" stroke="transparent" points="1656,-10 1656,-30 1676,-30 1676,-10 1656,-10"/>
<text text-anchor="start" x="1679.63" y="-15.4" font-family="Times-12" font-size="14.00"> &#160;Declarations</text>
<polygon fill="#8dd3c7" stroke="transparent" points="1769,-10 1769,-30 1789,-30 1789,-10 1769,-10"/>
<text text-anchor="start" x="1792.73" y="-15.4" font-family="Times-12" font-size="14.00"> &#160;Module</text>
<polygon fill="#80b1d3" stroke="transparent" points="1855,-10 1855,-30 1875,-30 1875,-10 1855,-10"/>
<text text-anchor="start" x="1878.78" y="-15.4" font-family="Times-12" font-size="14.00"> &#160;Bootstrap</text>
<polygon fill="#fdb462" stroke="transparent" points="1952,-10 1952,-30 1972,-30 1972,-10 1952,-10"/>
<text text-anchor="start" x="1975.67" y="-15.4" font-family="Times-12" font-size="14.00"> &#160;Providers</text>
<polygon fill="#fb8072" stroke="transparent" points="2048,-10 2048,-30 2068,-30 2068,-10 2048,-10"/>
<text text-anchor="start" x="2071.73" y="-15.4" font-family="Times-12" font-size="14.00"> &#160;Exports</text>
<g id="clust1" class="cluster">
<title>cluster_StatisticsModule</title>
<polygon fill="none" stroke="black" stroke-dasharray="1,5" points="8,-70 8,-268 3772,-268 3772,-70 8,-70"/>
</g>
<g id="clust2" class="cluster">
<title>cluster_StatisticsModule_declarations</title>
<polygon fill="none" stroke="black" points="16,-78 16,-130 3764,-130 3764,-78 16,-78"/>
</g>
<g id="clust23" class="cluster">
<title>cluster_StatisticsModule_exports</title>
<polygon fill="none" stroke="black" points="1922,-208 1922,-260 2136,-260 2136,-208 1922,-208"/>
</g>
<!-- BlockDetailSidesheetComponent -->
<g id="node1" class="node">
<title>BlockDetailSidesheetComponent</title>
<polygon fill="#ffffb3" stroke="black" points="3756.13,-122 3553.87,-122 3553.87,-86 3756.13,-86 3756.13,-122"/>
<text text-anchor="middle" x="3655" y="-99.8" font-family="Times,serif" font-size="14.00">BlockDetailSidesheetComponent</text>
</g>
<!-- StatisticsModule -->
<g id="node20" class="node">
<title>StatisticsModule</title>
<polygon fill="#8dd3c7" stroke="black" points="2084.1,-187 2081.1,-191 2060.1,-191 2057.1,-187 1973.9,-187 1973.9,-151 2084.1,-151 2084.1,-187"/>
<text text-anchor="middle" x="2029" y="-164.8" font-family="Times,serif" font-size="14.00">StatisticsModule</text>
</g>
<!-- BlockDetailSidesheetComponent&#45;&gt;StatisticsModule -->
<g id="edge1" class="edge">
<title>BlockDetailSidesheetComponent&#45;&gt;StatisticsModule</title>
<path fill="none" stroke="black" d="M3655,-122.15C3655,-145.76 3655,-184 3655,-184 3655,-184 2094.5,-184 2094.5,-184"/>
<polygon fill="black" stroke="black" points="2094.5,-180.5 2084.5,-184 2094.5,-187.5 2094.5,-180.5"/>
</g>
<!-- ChartTableComponent -->
<g id="node2" class="node">
<title>ChartTableComponent</title>
<polygon fill="#ffffb3" stroke="black" points="3536.31,-122 3391.69,-122 3391.69,-86 3536.31,-86 3536.31,-122"/>
<text text-anchor="middle" x="3464" y="-99.8" font-family="Times,serif" font-size="14.00">ChartTableComponent</text>
</g>
<!-- ChartTableComponent&#45;&gt;StatisticsModule -->
<g id="edge2" class="edge">
<title>ChartTableComponent&#45;&gt;StatisticsModule</title>
<path fill="none" stroke="black" d="M3464,-122.01C3464,-144.49 3464,-180 3464,-180 3464,-180 2094.37,-180 2094.37,-180"/>
<polygon fill="black" stroke="black" points="2094.37,-176.5 2084.37,-180 2094.37,-183.5 2094.37,-176.5"/>
</g>
<!-- ChartTileComponent -->
<g id="node3" class="node">
<title>ChartTileComponent</title>
<polygon fill="#ffffb3" stroke="black" points="3373.48,-122 3238.52,-122 3238.52,-86 3373.48,-86 3373.48,-122"/>
<text text-anchor="middle" x="3306" y="-99.8" font-family="Times,serif" font-size="14.00">ChartTileComponent</text>
</g>
<!-- ChartTileComponent&#45;&gt;StatisticsModule -->
<g id="edge3" class="edge">
<title>ChartTileComponent&#45;&gt;StatisticsModule</title>
<path fill="none" stroke="black" d="M3306,-122.04C3306,-143.66 3306,-177 3306,-177 3306,-177 2094.28,-177 2094.28,-177"/>
<polygon fill="black" stroke="black" points="2094.28,-173.5 2084.28,-177 2094.28,-180.5 2094.28,-173.5"/>
</g>
<!-- ChartsSidesheetComponent -->
<g id="node4" class="node">
<title>ChartsSidesheetComponent</title>
<polygon fill="#ffffb3" stroke="black" points="3220.53,-122 3049.47,-122 3049.47,-86 3220.53,-86 3220.53,-122"/>
<text text-anchor="middle" x="3135" y="-99.8" font-family="Times,serif" font-size="14.00">ChartsSidesheetComponent</text>
</g>
<!-- ChartsSidesheetComponent&#45;&gt;StatisticsModule -->
<g id="edge4" class="edge">
<title>ChartsSidesheetComponent&#45;&gt;StatisticsModule</title>
<path fill="none" stroke="black" d="M3135,-122.13C3135,-142.57 3135,-173 3135,-173 3135,-173 2094.23,-173 2094.23,-173"/>
<polygon fill="black" stroke="black" points="2094.23,-169.5 2084.23,-173 2094.23,-176.5 2094.23,-169.5"/>
</g>
<!-- DiscreteLegendComponent -->
<g id="node5" class="node">
<title>DiscreteLegendComponent</title>
<polygon fill="#ffffb3" stroke="black" points="3030.95,-122 2861.05,-122 2861.05,-86 3030.95,-86 3030.95,-122"/>
<text text-anchor="middle" x="2946" y="-99.8" font-family="Times,serif" font-size="14.00">DiscreteLegendComponent</text>
</g>
<!-- DiscreteLegendComponent&#45;&gt;StatisticsModule -->
<g id="edge5" class="edge">
<title>DiscreteLegendComponent&#45;&gt;StatisticsModule</title>
<path fill="none" stroke="black" d="M2946,-122.11C2946,-141.34 2946,-169 2946,-169 2946,-169 2094.3,-169 2094.3,-169"/>
<polygon fill="black" stroke="black" points="2094.3,-165.5 2084.3,-169 2094.3,-172.5 2094.3,-165.5"/>
</g>
<!-- FavoritesTabComponent -->
<g id="node6" class="node">
<title>FavoritesTabComponent</title>
<polygon fill="#ffffb3" stroke="black" points="2842.7,-122 2687.3,-122 2687.3,-86 2842.7,-86 2842.7,-122"/>
<text text-anchor="middle" x="2765" y="-99.8" font-family="Times,serif" font-size="14.00">FavoritesTabComponent</text>
</g>
<!-- FavoritesTabComponent&#45;&gt;StatisticsModule -->
<g id="edge6" class="edge">
<title>FavoritesTabComponent&#45;&gt;StatisticsModule</title>
<path fill="none" stroke="black" d="M2765,-122.27C2765,-140.56 2765,-166 2765,-166 2765,-166 2094.32,-166 2094.32,-166"/>
<polygon fill="black" stroke="black" points="2094.32,-162.5 2084.32,-166 2094.32,-169.5 2094.32,-162.5"/>
</g>
<!-- HeatmapChartComponent -->
<g id="node7" class="node">
<title>HeatmapChartComponent</title>
<polygon fill="#ffffb3" stroke="black" points="2669.47,-122 2506.53,-122 2506.53,-86 2669.47,-86 2669.47,-122"/>
<text text-anchor="middle" x="2588" y="-99.8" font-family="Times,serif" font-size="14.00">HeatmapChartComponent</text>
</g>
<!-- HeatmapChartComponent&#45;&gt;StatisticsModule -->
<g id="edge7" class="edge">
<title>HeatmapChartComponent&#45;&gt;StatisticsModule</title>
<path fill="none" stroke="black" d="M2588,-122.03C2588,-139.06 2588,-162 2588,-162 2588,-162 2094.13,-162 2094.13,-162"/>
<polygon fill="black" stroke="black" points="2094.13,-158.5 2084.13,-162 2094.13,-165.5 2094.13,-158.5"/>
</g>
<!-- HeatmapSidesheetComponent -->
<g id="node8" class="node">
<title>HeatmapSidesheetComponent</title>
<polygon fill="#ffffb3" stroke="black" points="2488.52,-122 2303.48,-122 2303.48,-86 2488.52,-86 2488.52,-122"/>
<text text-anchor="middle" x="2396" y="-99.8" font-family="Times,serif" font-size="14.00">HeatmapSidesheetComponent</text>
</g>
<!-- HeatmapSidesheetComponent&#45;&gt;StatisticsModule -->
<g id="edge8" class="edge">
<title>HeatmapSidesheetComponent&#45;&gt;StatisticsModule</title>
<path fill="none" stroke="black" d="M2396,-122.01C2396,-138.05 2396,-159 2396,-159 2396,-159 2094.34,-159 2094.34,-159"/>
<polygon fill="black" stroke="black" points="2094.34,-155.5 2084.34,-159 2094.34,-162.5 2094.34,-155.5"/>
</g>
<!-- HeatmapTileComponent -->
<g id="node9" class="node">
<title>HeatmapTileComponent</title>
<polygon fill="#ffffb3" stroke="black" points="2285.41,-122 2130.59,-122 2130.59,-86 2285.41,-86 2285.41,-122"/>
<text text-anchor="middle" x="2208" y="-99.8" font-family="Times,serif" font-size="14.00">HeatmapTileComponent</text>
</g>
<!-- HeatmapTileComponent&#45;&gt;StatisticsModule -->
<g id="edge9" class="edge">
<title>HeatmapTileComponent&#45;&gt;StatisticsModule</title>
<path fill="none" stroke="black" d="M2208,-122.12C2208,-136.78 2208,-155 2208,-155 2208,-155 2094.17,-155 2094.17,-155"/>
<polygon fill="black" stroke="black" points="2094.17,-151.5 2084.17,-155 2094.17,-158.5 2094.17,-151.5"/>
</g>
<!-- HeatmapVisualComponent -->
<g id="node10" class="node">
<title>HeatmapVisualComponent</title>
<polygon fill="#ffffb3" stroke="black" points="2113.41,-122 1944.59,-122 1944.59,-86 2113.41,-86 2113.41,-122"/>
<text text-anchor="middle" x="2029" y="-99.8" font-family="Times,serif" font-size="14.00">HeatmapVisualComponent</text>
</g>
<!-- HeatmapVisualComponent&#45;&gt;StatisticsModule -->
<g id="edge10" class="edge">
<title>HeatmapVisualComponent&#45;&gt;StatisticsModule</title>
<path fill="none" stroke="black" d="M2029,-122.11C2029,-122.11 2029,-140.99 2029,-140.99"/>
<polygon fill="black" stroke="black" points="2025.5,-140.99 2029,-150.99 2032.5,-140.99 2025.5,-140.99"/>
</g>
<!-- PointStatVisualComponent -->
<g id="node11" class="node">
<title>PointStatVisualComponent</title>
<polygon fill="#ffffb3" stroke="black" points="1926.72,-122 1757.28,-122 1757.28,-86 1926.72,-86 1926.72,-122"/>
<text text-anchor="middle" x="1842" y="-99.8" font-family="Times,serif" font-size="14.00">PointStatVisualComponent</text>
</g>
<!-- PointStatVisualComponent&#45;&gt;StatisticsModule -->
<g id="edge11" class="edge">
<title>PointStatVisualComponent&#45;&gt;StatisticsModule</title>
<path fill="none" stroke="black" d="M1842,-122.12C1842,-136.78 1842,-155 1842,-155 1842,-155 1963.91,-155 1963.91,-155"/>
<polygon fill="black" stroke="black" points="1963.91,-158.5 1973.91,-155 1963.91,-151.5 1963.91,-158.5"/>
</g>
<!-- StatisticsCardsComponent -->
<g id="node12" class="node">
<title>StatisticsCardsComponent</title>
<polygon fill="#ffffb3" stroke="black" points="1739.04,-122 1574.96,-122 1574.96,-86 1739.04,-86 1739.04,-122"/>
<text text-anchor="middle" x="1657" y="-99.8" font-family="Times,serif" font-size="14.00">StatisticsCardsComponent</text>
</g>
<!-- StatisticsCardsComponent&#45;&gt;StatisticsModule -->
<g id="edge12" class="edge">
<title>StatisticsCardsComponent&#45;&gt;StatisticsModule</title>
<path fill="none" stroke="black" d="M1657,-122.01C1657,-138.05 1657,-159 1657,-159 1657,-159 1963.71,-159 1963.71,-159"/>
<polygon fill="black" stroke="black" points="1963.71,-162.5 1973.71,-159 1963.71,-155.5 1963.71,-162.5"/>
</g>
<!-- StatisticsCardsVisualsComponent -->
<g id="node13" class="node">
<title>StatisticsCardsVisualsComponent</title>
<polygon fill="#ffffb3" stroke="black" points="1556.03,-122 1349.97,-122 1349.97,-86 1556.03,-86 1556.03,-122"/>
<text text-anchor="middle" x="1453" y="-99.8" font-family="Times,serif" font-size="14.00">StatisticsCardsVisualsComponent</text>
</g>
<!-- StatisticsCardsVisualsComponent&#45;&gt;StatisticsModule -->
<g id="edge13" class="edge">
<title>StatisticsCardsVisualsComponent&#45;&gt;StatisticsModule</title>
<path fill="none" stroke="black" d="M1453,-122.03C1453,-139.06 1453,-162 1453,-162 1453,-162 1963.77,-162 1963.77,-162"/>
<polygon fill="black" stroke="black" points="1963.77,-165.5 1973.77,-162 1963.77,-158.5 1963.77,-165.5"/>
</g>
<!-- StatisticsForObjectsComponent -->
<g id="node14" class="node">
<title>StatisticsForObjectsComponent</title>
<polygon fill="#ffffb3" stroke="black" points="1332.09,-122 1137.91,-122 1137.91,-86 1332.09,-86 1332.09,-122"/>
<text text-anchor="middle" x="1235" y="-99.8" font-family="Times,serif" font-size="14.00">StatisticsForObjectsComponent</text>
</g>
<!-- StatisticsForObjectsComponent&#45;&gt;StatisticsModule -->
<g id="edge14" class="edge">
<title>StatisticsForObjectsComponent&#45;&gt;StatisticsModule</title>
<path fill="none" stroke="black" d="M1235,-122.27C1235,-140.56 1235,-166 1235,-166 1235,-166 1963.8,-166 1963.8,-166"/>
<polygon fill="black" stroke="black" points="1963.8,-169.5 1973.8,-166 1963.8,-162.5 1963.8,-169.5"/>
</g>
<!-- StatisticsHomePageComponent -->
<g id="node15" class="node">
<title>StatisticsHomePageComponent</title>
<polygon fill="#ffffb3" stroke="black" points="1119.81,-122 926.19,-122 926.19,-86 1119.81,-86 1119.81,-122"/>
<text text-anchor="middle" x="1023" y="-99.8" font-family="Times,serif" font-size="14.00">StatisticsHomePageComponent</text>
</g>
<!-- StatisticsHomePageComponent&#45;&gt;StatisticsModule -->
<g id="edge15" class="edge">
<title>StatisticsHomePageComponent&#45;&gt;StatisticsModule</title>
<path fill="none" stroke="black" d="M1023,-122.11C1023,-141.34 1023,-169 1023,-169 1023,-169 1963.84,-169 1963.84,-169"/>
<polygon fill="black" stroke="black" points="1963.84,-172.5 1973.84,-169 1963.84,-165.5 1963.84,-172.5"/>
</g>
<!-- StatisticsOrderingSidesheetComponent -->
<g id="node16" class="node">
<title>StatisticsOrderingSidesheetComponent</title>
<polygon fill="#ffffb3" stroke="black" points="908.07,-122 671.93,-122 671.93,-86 908.07,-86 908.07,-122"/>
<text text-anchor="middle" x="790" y="-99.8" font-family="Times,serif" font-size="14.00">StatisticsOrderingSidesheetComponent</text>
</g>
<!-- StatisticsOrderingSidesheetComponent&#45;&gt;StatisticsModule -->
<g id="edge16" class="edge">
<title>StatisticsOrderingSidesheetComponent&#45;&gt;StatisticsModule</title>
<path fill="none" stroke="black" d="M790,-122.13C790,-142.57 790,-173 790,-173 790,-173 1963.76,-173 1963.76,-173"/>
<polygon fill="black" stroke="black" points="1963.76,-176.5 1973.76,-173 1963.76,-169.5 1963.76,-176.5"/>
</g>
<!-- StatisticsOrderingSidesheetDialogComponent -->
<g id="node17" class="node">
<title>StatisticsOrderingSidesheetDialogComponent</title>
<polygon fill="#ffffb3" stroke="black" points="654.17,-122 379.83,-122 379.83,-86 654.17,-86 654.17,-122"/>
<text text-anchor="middle" x="517" y="-99.8" font-family="Times,serif" font-size="14.00">StatisticsOrderingSidesheetDialogComponent</text>
</g>
<!-- StatisticsOrderingSidesheetDialogComponent&#45;&gt;StatisticsModule -->
<g id="edge17" class="edge">
<title>StatisticsOrderingSidesheetDialogComponent&#45;&gt;StatisticsModule</title>
<path fill="none" stroke="black" d="M517,-122.04C517,-143.66 517,-177 517,-177 517,-177 1963.84,-177 1963.84,-177"/>
<polygon fill="black" stroke="black" points="1963.84,-180.5 1973.84,-177 1963.84,-173.5 1963.84,-180.5"/>
</g>
<!-- StatisticsTreeComponent -->
<g id="node18" class="node">
<title>StatisticsTreeComponent</title>
<polygon fill="#ffffb3" stroke="black" points="361.53,-122 204.47,-122 204.47,-86 361.53,-86 361.53,-122"/>
<text text-anchor="middle" x="283" y="-99.8" font-family="Times,serif" font-size="14.00">StatisticsTreeComponent</text>
</g>
<!-- StatisticsTreeComponent&#45;&gt;StatisticsModule -->
<g id="edge18" class="edge">
<title>StatisticsTreeComponent&#45;&gt;StatisticsModule</title>
<path fill="none" stroke="black" d="M283,-122.01C283,-144.49 283,-180 283,-180 283,-180 1963.86,-180 1963.86,-180"/>
<polygon fill="black" stroke="black" points="1963.86,-183.5 1973.86,-180 1963.86,-176.5 1963.86,-183.5"/>
</g>
<!-- TreemapChartComponent -->
<g id="node19" class="node">
<title>TreemapChartComponent</title>
<polygon fill="#ffffb3" stroke="black" points="186.18,-122 23.82,-122 23.82,-86 186.18,-86 186.18,-122"/>
<text text-anchor="middle" x="105" y="-99.8" font-family="Times,serif" font-size="14.00">TreemapChartComponent</text>
</g>
<!-- TreemapChartComponent&#45;&gt;StatisticsModule -->
<g id="edge19" class="edge">
<title>TreemapChartComponent&#45;&gt;StatisticsModule</title>
<path fill="none" stroke="black" d="M105,-122.15C105,-145.76 105,-184 105,-184 105,-184 1963.75,-184 1963.75,-184"/>
<polygon fill="black" stroke="black" points="1963.75,-187.5 1973.75,-184 1963.75,-180.5 1963.75,-187.5"/>
</g>
<!-- StatisticsForObjectsComponent  -->
<g id="node21" class="node">
<title>StatisticsForObjectsComponent </title>
<polygon fill="#fb8072" stroke="black" points="2127.59,-252 1930.41,-252 1930.41,-216 2127.59,-216 2127.59,-252"/>
<text text-anchor="middle" x="2029" y="-229.8" font-family="Times,serif" font-size="14.00">StatisticsForObjectsComponent </text>
</g>
<!-- StatisticsModule&#45;&gt;StatisticsForObjectsComponent  -->
<g id="edge20" class="edge">
<title>StatisticsModule&#45;&gt;StatisticsForObjectsComponent </title>
<path fill="none" stroke="black" stroke-dasharray="5,2" d="M2029,-187.11C2029,-187.11 2029,-205.99 2029,-205.99"/>
<polygon fill="black" stroke="black" points="2025.5,-205.99 2029,-215.99 2032.5,-205.99 2025.5,-205.99"/>
</g>
</g>
</svg>
