<?xml version="1.0" encoding="UTF-8" standalone="no"?>
<!DOCTYPE svg PUBLIC "-//W3C//DTD SVG 1.1//EN"
 "http://www.w3.org/Graphics/SVG/1.1/DTD/svg11.dtd">
<!-- Generated by graphviz version 2.47.0 (20210316.0004)
 -->
<!-- Title: dependencies Pages: 1 -->
<svg width="588pt" height="211pt"
 viewBox="0.00 0.00 588.00 211.00" xmlns="http://www.w3.org/2000/svg" xmlns:xlink="http://www.w3.org/1999/xlink">
<g id="graph0" class="graph" transform="scale(1 1) rotate(0) translate(4 207)">
<title>dependencies</title>
<polygon fill="white" stroke="transparent" points="-4,4 -4,-207 584,-207 584,4 -4,4"/>
<text text-anchor="start" x="269.01" y="-42.4" font-family="Times-12" font-weight="bold" font-size="14.00">Legend</text>
<polygon fill="#ffffb3" stroke="transparent" points="56,-10 56,-30 76,-30 76,-10 56,-10"/>
<text text-anchor="start" x="79.63" y="-15.4" font-family="Times-12" font-size="14.00"> &#160;Declarations</text>
<polygon fill="#8dd3c7" stroke="transparent" points="169,-10 169,-30 189,-30 189,-10 169,-10"/>
<text text-anchor="start" x="192.73" y="-15.4" font-family="Times-12" font-size="14.00"> &#160;Module</text>
<polygon fill="#80b1d3" stroke="transparent" points="255,-10 255,-30 275,-30 275,-10 255,-10"/>
<text text-anchor="start" x="278.78" y="-15.4" font-family="Times-12" font-size="14.00"> &#160;Bootstrap</text>
<polygon fill="#fdb462" stroke="transparent" points="352,-10 352,-30 372,-30 372,-10 352,-10"/>
<text text-anchor="start" x="375.67" y="-15.4" font-family="Times-12" font-size="14.00"> &#160;Providers</text>
<polygon fill="#fb8072" stroke="transparent" points="448,-10 448,-30 468,-30 468,-10 448,-10"/>
<text text-anchor="start" x="471.73" y="-15.4" font-family="Times-12" font-size="14.00"> &#160;Exports</text>
<g id="clust1" class="cluster">
<title>cluster_ServiceCategoriesModule</title>
<polygon fill="none" stroke="black" stroke-dasharray="1,5" points="8,-70 8,-195 572,-195 572,-70 8,-70"/>
</g>
<g id="clust5" class="cluster">
<title>cluster_ServiceCategoriesModule_imports</title>
<polygon fill="none" stroke="black" points="416,-78 416,-130 564,-130 564,-78 416,-78"/>
</g>
<g id="clust2" class="cluster">
<title>cluster_ServiceCategoriesModule_declarations</title>
<polygon fill="none" stroke="black" points="16,-78 16,-130 408,-130 408,-78 16,-78"/>
</g>
<!-- ServiceCategoriesComponent -->
<g id="node1" class="node">
<title>ServiceCategoriesComponent</title>
<polygon fill="#ffffb3" stroke="black" points="399.68,-122 216.32,-122 216.32,-86 399.68,-86 399.68,-122"/>
<text text-anchor="middle" x="308" y="-99.8" font-family="Times,serif" font-size="14.00">ServiceCategoriesComponent</text>
</g>
<!-- ServiceCategoriesModule -->
<g id="node3" class="node">
<title>ServiceCategoriesModule</title>
<polygon fill="#8dd3c7" stroke="black" points="388.89,-187 385.89,-191 364.89,-191 361.89,-187 227.11,-187 227.11,-151 388.89,-151 388.89,-187"/>
<text text-anchor="middle" x="308" y="-164.8" font-family="Times,serif" font-size="14.00">ServiceCategoriesModule</text>
</g>
<!-- ServiceCategoriesComponent&#45;&gt;ServiceCategoriesModule -->
<g id="edge1" class="edge">
<title>ServiceCategoriesComponent&#45;&gt;ServiceCategoriesModule</title>
<path fill="none" stroke="black" d="M308,-122.11C308,-122.11 308,-140.99 308,-140.99"/>
<polygon fill="black" stroke="black" points="304.5,-140.99 308,-150.99 311.5,-140.99 304.5,-140.99"/>
</g>
<!-- ServiceCategoryComponent -->
<g id="node2" class="node">
<title>ServiceCategoryComponent</title>
<polygon fill="#ffffb3" stroke="black" points="198.13,-122 23.87,-122 23.87,-86 198.13,-86 198.13,-122"/>
<text text-anchor="middle" x="111" y="-99.8" font-family="Times,serif" font-size="14.00">ServiceCategoryComponent</text>
</g>
<!-- ServiceCategoryComponent&#45;&gt;ServiceCategoriesModule -->
<g id="edge2" class="edge">
<title>ServiceCategoryComponent&#45;&gt;ServiceCategoriesModule</title>
<path fill="none" stroke="black" d="M111,-122.11C111,-141.34 111,-169 111,-169 111,-169 217.02,-169 217.02,-169"/>
<polygon fill="black" stroke="black" points="217.02,-172.5 227.02,-169 217.02,-165.5 217.02,-172.5"/>
</g>
<!-- ServiceItemsModule -->
<g id="node4" class="node">
<title>ServiceItemsModule</title>
<polygon fill="#8dd3c7" stroke="black" points="556.13,-122 553.13,-126 532.13,-126 529.13,-122 423.87,-122 423.87,-86 556.13,-86 556.13,-122"/>
<text text-anchor="middle" x="490" y="-99.8" font-family="Times,serif" font-size="14.00">ServiceItemsModule</text>
</g>
<!-- ServiceItemsModule&#45;&gt;ServiceCategoriesModule -->
<g id="edge3" class="edge">
<title>ServiceItemsModule&#45;&gt;ServiceCategoriesModule</title>
<path fill="none" stroke="black" d="M490,-122.11C490,-141.34 490,-169 490,-169 490,-169 398.89,-169 398.89,-169"/>
<polygon fill="black" stroke="black" points="398.89,-165.5 388.89,-169 398.89,-172.5 398.89,-165.5"/>
</g>
</g>
</svg>
