<?xml version="1.0" encoding="UTF-8" standalone="no"?>
<!DOCTYPE svg PUBLIC "-//W3C//DTD SVG 1.1//EN"
 "http://www.w3.org/Graphics/SVG/1.1/DTD/svg11.dtd">
<!-- Generated by graphviz version 2.47.0 (20210316.0004)
 -->
<!-- Title: dependencies Pages: 1 -->
<svg width="598pt" height="284pt"
 viewBox="0.00 0.00 598.00 284.00" xmlns="http://www.w3.org/2000/svg" xmlns:xlink="http://www.w3.org/1999/xlink">
<g id="graph0" class="graph" transform="scale(1 1) rotate(0) translate(4 280)">
<title>dependencies</title>
<polygon fill="white" stroke="transparent" points="-4,4 -4,-280 594,-280 594,4 -4,4"/>
<text text-anchor="start" x="274.01" y="-42.4" font-family="Times-12" font-weight="bold" font-size="14.00">Legend</text>
<polygon fill="#ffffb3" stroke="transparent" points="61,-10 61,-30 81,-30 81,-10 61,-10"/>
<text text-anchor="start" x="84.63" y="-15.4" font-family="Times-12" font-size="14.00"> &#160;Declarations</text>
<polygon fill="#8dd3c7" stroke="transparent" points="174,-10 174,-30 194,-30 194,-10 174,-10"/>
<text text-anchor="start" x="197.73" y="-15.4" font-family="Times-12" font-size="14.00"> &#160;Module</text>
<polygon fill="#80b1d3" stroke="transparent" points="260,-10 260,-30 280,-30 280,-10 260,-10"/>
<text text-anchor="start" x="283.78" y="-15.4" font-family="Times-12" font-size="14.00"> &#160;Bootstrap</text>
<polygon fill="#fdb462" stroke="transparent" points="357,-10 357,-30 377,-30 377,-10 357,-10"/>
<text text-anchor="start" x="380.67" y="-15.4" font-family="Times-12" font-size="14.00"> &#160;Providers</text>
<polygon fill="#fb8072" stroke="transparent" points="453,-10 453,-30 473,-30 473,-10 453,-10"/>
<text text-anchor="start" x="476.73" y="-15.4" font-family="Times-12" font-size="14.00"> &#160;Exports</text>
<g id="clust1" class="cluster">
<title>cluster_OpsModule</title>
<polygon fill="none" stroke="black" stroke-dasharray="1,5" points="8,-70 8,-268 582,-268 582,-70 8,-70"/>
</g>
<g id="clust2" class="cluster">
<title>cluster_OpsModule_declarations</title>
<polygon fill="none" stroke="black" points="154,-78 154,-130 574,-130 574,-78 154,-78"/>
</g>
<g id="clust6" class="cluster">
<title>cluster_OpsModule_exports</title>
<polygon fill="none" stroke="black" points="82,-208 82,-260 509,-260 509,-208 82,-208"/>
</g>
<g id="clust5" class="cluster">
<title>cluster_OpsModule_imports</title>
<polygon fill="none" stroke="black" points="16,-78 16,-130 146,-130 146,-78 16,-78"/>
</g>
<!-- ObjectOverviewPersonComponent -->
<g id="node1" class="node">
<title>ObjectOverviewPersonComponent</title>
<polygon fill="#ffffb3" stroke="black" points="565.95,-122 354.05,-122 354.05,-86 565.95,-86 565.95,-122"/>
<text text-anchor="middle" x="460" y="-99.8" font-family="Times,serif" font-size="14.00">ObjectOverviewPersonComponent</text>
</g>
<!-- OpsModule -->
<g id="node3" class="node">
<title>OpsModule</title>
<polygon fill="#8dd3c7" stroke="black" points="290.1,-187 287.1,-191 266.1,-191 263.1,-187 207.9,-187 207.9,-151 290.1,-151 290.1,-187"/>
<text text-anchor="middle" x="249" y="-164.8" font-family="Times,serif" font-size="14.00">OpsModule</text>
</g>
<!-- ObjectOverviewPersonComponent&#45;&gt;OpsModule -->
<g id="edge1" class="edge">
<title>ObjectOverviewPersonComponent&#45;&gt;OpsModule</title>
<path fill="none" stroke="black" d="M427.38,-122.11C427.38,-141.34 427.38,-169 427.38,-169 427.38,-169 300.37,-169 300.37,-169"/>
<polygon fill="black" stroke="black" points="300.37,-165.5 290.37,-169 300.37,-172.5 300.37,-165.5"/>
</g>
<!-- PasscodeViewerComponent -->
<g id="node2" class="node">
<title>PasscodeViewerComponent</title>
<polygon fill="#ffffb3" stroke="black" points="335.84,-122 162.16,-122 162.16,-86 335.84,-86 335.84,-122"/>
<text text-anchor="middle" x="249" y="-99.8" font-family="Times,serif" font-size="14.00">PasscodeViewerComponent</text>
</g>
<!-- PasscodeViewerComponent&#45;&gt;OpsModule -->
<g id="edge2" class="edge">
<title>PasscodeViewerComponent&#45;&gt;OpsModule</title>
<path fill="none" stroke="black" d="M249,-122.11C249,-122.11 249,-140.99 249,-140.99"/>
<polygon fill="black" stroke="black" points="245.5,-140.99 249,-150.99 252.5,-140.99 245.5,-140.99"/>
</g>
<!-- ObjectOverviewPersonComponent  -->
<g id="node5" class="node">
<title>ObjectOverviewPersonComponent </title>
<polygon fill="#fb8072" stroke="black" points="500.95,-252 285.05,-252 285.05,-216 500.95,-216 500.95,-252"/>
<text text-anchor="middle" x="393" y="-229.8" font-family="Times,serif" font-size="14.00">ObjectOverviewPersonComponent </text>
</g>
<!-- OpsModule&#45;&gt;ObjectOverviewPersonComponent  -->
<g id="edge4" class="edge">
<title>OpsModule&#45;&gt;ObjectOverviewPersonComponent </title>
<path fill="none" stroke="black" stroke-dasharray="5,2" d="M276.47,-187.11C276.47,-206.34 276.47,-234 276.47,-234 276.47,-234 277.35,-234 277.35,-234"/>
<polygon fill="black" stroke="black" points="275.23,-237.5 285.23,-234 275.23,-230.5 275.23,-237.5"/>
</g>
<!-- PasscodeViewerComponent  -->
<g id="node6" class="node">
<title>PasscodeViewerComponent </title>
<polygon fill="#fb8072" stroke="black" points="267.84,-252 90.16,-252 90.16,-216 267.84,-216 267.84,-252"/>
<text text-anchor="middle" x="179" y="-229.8" font-family="Times,serif" font-size="14.00">PasscodeViewerComponent </text>
</g>
<!-- OpsModule&#45;&gt;PasscodeViewerComponent  -->
<g id="edge5" class="edge">
<title>OpsModule&#45;&gt;PasscodeViewerComponent </title>
<path fill="none" stroke="black" stroke-dasharray="5,2" d="M237.81,-187.11C237.81,-187.11 237.81,-205.99 237.81,-205.99"/>
<polygon fill="black" stroke="black" points="234.31,-205.99 237.81,-215.99 241.31,-205.99 234.31,-205.99"/>
</g>
<!-- PasswordModule -->
<g id="node4" class="node">
<title>PasswordModule</title>
<polygon fill="#8dd3c7" stroke="black" points="137.7,-122 134.7,-126 113.7,-126 110.7,-122 24.3,-122 24.3,-86 137.7,-86 137.7,-122"/>
<text text-anchor="middle" x="81" y="-99.8" font-family="Times,serif" font-size="14.00">PasswordModule</text>
</g>
<!-- PasswordModule&#45;&gt;OpsModule -->
<g id="edge3" class="edge">
<title>PasswordModule&#45;&gt;OpsModule</title>
<path fill="none" stroke="black" d="M113.97,-122.11C113.97,-141.34 113.97,-169 113.97,-169 113.97,-169 197.75,-169 197.75,-169"/>
<polygon fill="black" stroke="black" points="197.75,-172.5 207.75,-169 197.75,-165.5 197.75,-172.5"/>
</g>
</g>
</svg>
