<?xml version="1.0" encoding="UTF-8" standalone="no"?>
<!DOCTYPE svg PUBLIC "-//W3C//DTD SVG 1.1//EN"
 "http://www.w3.org/Graphics/SVG/1.1/DTD/svg11.dtd">
<!-- Generated by graphviz version 2.47.0 (20210316.0004)
 -->
<!-- Title: dependencies Pages: 1 -->
<svg width="1142pt" height="211pt"
 viewBox="0.00 0.00 1142.00 211.00" xmlns="http://www.w3.org/2000/svg" xmlns:xlink="http://www.w3.org/1999/xlink">
<g id="graph0" class="graph" transform="scale(1 1) rotate(0) translate(4 207)">
<title>dependencies</title>
<polygon fill="white" stroke="transparent" points="-4,4 -4,-207 1138,-207 1138,4 -4,4"/>
<text text-anchor="start" x="546.01" y="-42.4" font-family="Times-12" font-weight="bold" font-size="14.00">Legend</text>
<polygon fill="#ffffb3" stroke="transparent" points="333,-10 333,-30 353,-30 353,-10 333,-10"/>
<text text-anchor="start" x="356.63" y="-15.4" font-family="Times-12" font-size="14.00"> &#160;Declarations</text>
<polygon fill="#8dd3c7" stroke="transparent" points="446,-10 446,-30 466,-30 466,-10 446,-10"/>
<text text-anchor="start" x="469.73" y="-15.4" font-family="Times-12" font-size="14.00"> &#160;Module</text>
<polygon fill="#80b1d3" stroke="transparent" points="532,-10 532,-30 552,-30 552,-10 532,-10"/>
<text text-anchor="start" x="555.78" y="-15.4" font-family="Times-12" font-size="14.00"> &#160;Bootstrap</text>
<polygon fill="#fdb462" stroke="transparent" points="629,-10 629,-30 649,-30 649,-10 629,-10"/>
<text text-anchor="start" x="652.67" y="-15.4" font-family="Times-12" font-size="14.00"> &#160;Providers</text>
<polygon fill="#fb8072" stroke="transparent" points="725,-10 725,-30 745,-30 745,-10 725,-10"/>
<text text-anchor="start" x="748.73" y="-15.4" font-family="Times-12" font-size="14.00"> &#160;Exports</text>
<g id="clust1" class="cluster">
<title>cluster_TeamResponsibilitiesModule</title>
<polygon fill="none" stroke="black" stroke-dasharray="1,5" points="8,-70 8,-195 1126,-195 1126,-70 8,-70"/>
</g>
<g id="clust9" class="cluster">
<title>cluster_TeamResponsibilitiesModule_providers</title>
<polygon fill="none" stroke="black" points="854,-78 854,-130 1118,-130 1118,-78 854,-78"/>
</g>
<g id="clust2" class="cluster">
<title>cluster_TeamResponsibilitiesModule_declarations</title>
<polygon fill="none" stroke="black" points="128,-78 128,-130 846,-130 846,-78 128,-78"/>
</g>
<g id="clust6" class="cluster">
<title>cluster_TeamResponsibilitiesModule_imports</title>
<polygon fill="none" stroke="black" points="16,-78 16,-130 120,-130 120,-78 16,-78"/>
</g>
<!-- TeamResponsibilitiesComponent -->
<g id="node1" class="node">
<title>TeamResponsibilitiesComponent</title>
<polygon fill="#ffffb3" stroke="black" points="838.15,-122 635.85,-122 635.85,-86 838.15,-86 838.15,-122"/>
<text text-anchor="middle" x="737" y="-99.8" font-family="Times,serif" font-size="14.00">TeamResponsibilitiesComponent</text>
</g>
<!-- TeamResponsibilitiesModule -->
<g id="node4" class="node">
<title>TeamResponsibilitiesModule</title>
<polygon fill="#8dd3c7" stroke="black" points="584.37,-187 581.37,-191 560.37,-191 557.37,-187 403.63,-187 403.63,-151 584.37,-151 584.37,-187"/>
<text text-anchor="middle" x="494" y="-164.8" font-family="Times,serif" font-size="14.00">TeamResponsibilitiesModule</text>
</g>
<!-- TeamResponsibilitiesComponent&#45;&gt;TeamResponsibilitiesModule -->
<g id="edge1" class="edge">
<title>TeamResponsibilitiesComponent&#45;&gt;TeamResponsibilitiesModule</title>
<path fill="none" stroke="black" d="M737,-122.02C737,-139.37 737,-163 737,-163 737,-163 594.48,-163 594.48,-163"/>
<polygon fill="black" stroke="black" points="594.48,-159.5 584.48,-163 594.48,-166.5 594.48,-159.5"/>
</g>
<!-- TeamResponsibilitySidesheetComponent -->
<g id="node2" class="node">
<title>TeamResponsibilitySidesheetComponent</title>
<polygon fill="#ffffb3" stroke="black" points="617.75,-122 370.25,-122 370.25,-86 617.75,-86 617.75,-122"/>
<text text-anchor="middle" x="494" y="-99.8" font-family="Times,serif" font-size="14.00">TeamResponsibilitySidesheetComponent</text>
</g>
<!-- TeamResponsibilitySidesheetComponent&#45;&gt;TeamResponsibilitiesModule -->
<g id="edge2" class="edge">
<title>TeamResponsibilitySidesheetComponent&#45;&gt;TeamResponsibilitiesModule</title>
<path fill="none" stroke="black" d="M494,-122.11C494,-122.11 494,-140.99 494,-140.99"/>
<polygon fill="black" stroke="black" points="490.5,-140.99 494,-150.99 497.5,-140.99 490.5,-140.99"/>
</g>
<!-- TeamResponsibilityTileComponent -->
<g id="node3" class="node">
<title>TeamResponsibilityTileComponent</title>
<polygon fill="#ffffb3" stroke="black" points="352.15,-122 135.85,-122 135.85,-86 352.15,-86 352.15,-122"/>
<text text-anchor="middle" x="244" y="-99.8" font-family="Times,serif" font-size="14.00">TeamResponsibilityTileComponent</text>
</g>
<!-- TeamResponsibilityTileComponent&#45;&gt;TeamResponsibilitiesModule -->
<g id="edge3" class="edge">
<title>TeamResponsibilityTileComponent&#45;&gt;TeamResponsibilitiesModule</title>
<path fill="none" stroke="black" d="M244,-122.02C244,-139.37 244,-163 244,-163 244,-163 393.39,-163 393.39,-163"/>
<polygon fill="black" stroke="black" points="393.39,-166.5 403.39,-163 393.39,-159.5 393.39,-166.5"/>
</g>
<!-- TilesModule -->
<g id="node5" class="node">
<title>TilesModule</title>
<polygon fill="#8dd3c7" stroke="black" points="111.54,-122 108.54,-126 87.54,-126 84.54,-122 24.46,-122 24.46,-86 111.54,-86 111.54,-122"/>
<text text-anchor="middle" x="68" y="-99.8" font-family="Times,serif" font-size="14.00">TilesModule</text>
</g>
<!-- TilesModule&#45;&gt;TeamResponsibilitiesModule -->
<g id="edge4" class="edge">
<title>TilesModule&#45;&gt;TeamResponsibilitiesModule</title>
<path fill="none" stroke="black" d="M68,-122.28C68,-143.32 68,-175 68,-175 68,-175 393.4,-175 393.4,-175"/>
<polygon fill="black" stroke="black" points="393.4,-178.5 403.4,-175 393.4,-171.5 393.4,-178.5"/>
</g>
<!-- TeamResponsibilitiesService -->
<g id="node6" class="node">
<title>TeamResponsibilitiesService</title>
<ellipse fill="#fdb462" stroke="black" cx="986" cy="-104" rx="123.85" ry="18"/>
<text text-anchor="middle" x="986" y="-99.8" font-family="Times,serif" font-size="14.00">TeamResponsibilitiesService</text>
</g>
<!-- TeamResponsibilitiesService&#45;&gt;TeamResponsibilitiesModule -->
<g id="edge5" class="edge">
<title>TeamResponsibilitiesService&#45;&gt;TeamResponsibilitiesModule</title>
<path fill="none" stroke="black" d="M986,-122.28C986,-143.32 986,-175 986,-175 986,-175 594.53,-175 594.53,-175"/>
<polygon fill="black" stroke="black" points="594.53,-171.5 584.53,-175 594.53,-178.5 594.53,-171.5"/>
</g>
</g>
</svg>
