<?xml version="1.0" encoding="UTF-8" standalone="no"?>
<!DOCTYPE svg PUBLIC "-//W3C//DTD SVG 1.1//EN"
 "http://www.w3.org/Graphics/SVG/1.1/DTD/svg11.dtd">
<!-- Generated by graphviz version 2.47.0 (20210316.0004)
 -->
<!-- Title: dependencies Pages: 1 -->
<svg width="886pt" height="284pt"
 viewBox="0.00 0.00 886.00 284.00" xmlns="http://www.w3.org/2000/svg" xmlns:xlink="http://www.w3.org/1999/xlink">
<g id="graph0" class="graph" transform="scale(1 1) rotate(0) translate(4 280)">
<title>dependencies</title>
<polygon fill="white" stroke="transparent" points="-4,4 -4,-280 882,-280 882,4 -4,4"/>
<text text-anchor="start" x="418.01" y="-42.4" font-family="Times-12" font-weight="bold" font-size="14.00">Legend</text>
<polygon fill="#ffffb3" stroke="transparent" points="205,-10 205,-30 225,-30 225,-10 205,-10"/>
<text text-anchor="start" x="228.63" y="-15.4" font-family="Times-12" font-size="14.00"> &#160;Declarations</text>
<polygon fill="#8dd3c7" stroke="transparent" points="318,-10 318,-30 338,-30 338,-10 318,-10"/>
<text text-anchor="start" x="341.73" y="-15.4" font-family="Times-12" font-size="14.00"> &#160;Module</text>
<polygon fill="#80b1d3" stroke="transparent" points="404,-10 404,-30 424,-30 424,-10 404,-10"/>
<text text-anchor="start" x="427.78" y="-15.4" font-family="Times-12" font-size="14.00"> &#160;Bootstrap</text>
<polygon fill="#fdb462" stroke="transparent" points="501,-10 501,-30 521,-30 521,-10 501,-10"/>
<text text-anchor="start" x="524.67" y="-15.4" font-family="Times-12" font-size="14.00"> &#160;Providers</text>
<polygon fill="#fb8072" stroke="transparent" points="597,-10 597,-30 617,-30 617,-10 597,-10"/>
<text text-anchor="start" x="620.73" y="-15.4" font-family="Times-12" font-size="14.00"> &#160;Exports</text>
<g id="clust1" class="cluster">
<title>cluster_JobQueueOverviewModule</title>
<polygon fill="none" stroke="black" stroke-dasharray="1,5" points="8,-70 8,-268 870,-268 870,-70 8,-70"/>
</g>
<g id="clust7" class="cluster">
<title>cluster_JobQueueOverviewModule_providers</title>
<polygon fill="none" stroke="black" points="232,-78 232,-130 862,-130 862,-78 232,-78"/>
</g>
<g id="clust2" class="cluster">
<title>cluster_JobQueueOverviewModule_declarations</title>
<polygon fill="none" stroke="black" points="16,-78 16,-130 224,-130 224,-78 16,-78"/>
</g>
<g id="clust5" class="cluster">
<title>cluster_JobQueueOverviewModule_exports</title>
<polygon fill="none" stroke="black" points="335,-208 335,-260 547,-260 547,-208 335,-208"/>
</g>
<!-- JobQueueOverviewComponent -->
<g id="node1" class="node">
<title>JobQueueOverviewComponent</title>
<polygon fill="#ffffb3" stroke="black" points="216.01,-122 23.99,-122 23.99,-86 216.01,-86 216.01,-122"/>
<text text-anchor="middle" x="120" y="-99.8" font-family="Times,serif" font-size="14.00">JobQueueOverviewComponent</text>
</g>
<!-- JobQueueOverviewModule -->
<g id="node2" class="node">
<title>JobQueueOverviewModule</title>
<polygon fill="#8dd3c7" stroke="black" points="526.22,-187 523.22,-191 502.22,-191 499.22,-187 355.78,-187 355.78,-151 526.22,-151 526.22,-187"/>
<text text-anchor="middle" x="441" y="-164.8" font-family="Times,serif" font-size="14.00">JobQueueOverviewModule</text>
</g>
<!-- JobQueueOverviewComponent&#45;&gt;JobQueueOverviewModule -->
<g id="edge1" class="edge">
<title>JobQueueOverviewComponent&#45;&gt;JobQueueOverviewModule</title>
<path fill="none" stroke="black" d="M120,-122.11C120,-141.34 120,-169 120,-169 120,-169 345.4,-169 345.4,-169"/>
<polygon fill="black" stroke="black" points="345.4,-172.5 355.4,-169 345.4,-165.5 345.4,-172.5"/>
</g>
<!-- JobQueueOverviewComponent  -->
<g id="node3" class="node">
<title>JobQueueOverviewComponent </title>
<polygon fill="#fb8072" stroke="black" points="539.01,-252 342.99,-252 342.99,-216 539.01,-216 539.01,-252"/>
<text text-anchor="middle" x="441" y="-229.8" font-family="Times,serif" font-size="14.00">JobQueueOverviewComponent </text>
</g>
<!-- JobQueueOverviewModule&#45;&gt;JobQueueOverviewComponent  -->
<g id="edge2" class="edge">
<title>JobQueueOverviewModule&#45;&gt;JobQueueOverviewComponent </title>
<path fill="none" stroke="black" stroke-dasharray="5,2" d="M441,-187.11C441,-187.11 441,-205.99 441,-205.99"/>
<polygon fill="black" stroke="black" points="437.5,-205.99 441,-215.99 444.5,-205.99 437.5,-205.99"/>
</g>
<!-- AppConfigService -->
<g id="node4" class="node">
<title>AppConfigService</title>
<ellipse fill="#fdb462" stroke="black" cx="771" cy="-104" rx="83.39" ry="18"/>
<text text-anchor="middle" x="771" y="-99.8" font-family="Times,serif" font-size="14.00">AppConfigService</text>
</g>
<!-- AppConfigService&#45;&gt;JobQueueOverviewModule -->
<g id="edge3" class="edge">
<title>AppConfigService&#45;&gt;JobQueueOverviewModule</title>
<path fill="none" stroke="black" d="M771,-122.11C771,-141.34 771,-169 771,-169 771,-169 536.41,-169 536.41,-169"/>
<polygon fill="black" stroke="black" points="536.41,-165.5 526.41,-169 536.41,-172.5 536.41,-165.5"/>
</g>
<!-- JobQueueOverviewService -->
<g id="node5" class="node">
<title>JobQueueOverviewService</title>
<ellipse fill="#fdb462" stroke="black" cx="553" cy="-104" rx="116.86" ry="18"/>
<text text-anchor="middle" x="553" y="-99.8" font-family="Times,serif" font-size="14.00">JobQueueOverviewService</text>
</g>
<!-- JobQueueOverviewService&#45;&gt;JobQueueOverviewModule -->
<g id="edge4" class="edge">
<title>JobQueueOverviewService&#45;&gt;JobQueueOverviewModule</title>
<path fill="none" stroke="black" d="M481.34,-118.43C481.34,-118.43 481.34,-140.89 481.34,-140.89"/>
<polygon fill="black" stroke="black" points="477.84,-140.89 481.34,-150.89 484.84,-140.89 477.84,-140.89"/>
</g>
<!-- imx_SessionService -->
<g id="node6" class="node">
<title>imx_SessionService</title>
<ellipse fill="#fdb462" stroke="black" cx="329" cy="-104" rx="89.2" ry="18"/>
<text text-anchor="middle" x="329" y="-99.8" font-family="Times,serif" font-size="14.00">imx_SessionService</text>
</g>
<!-- imx_SessionService&#45;&gt;JobQueueOverviewModule -->
<g id="edge5" class="edge">
<title>imx_SessionService&#45;&gt;JobQueueOverviewModule</title>
<path fill="none" stroke="black" d="M386.99,-117.78C386.99,-117.78 386.99,-140.55 386.99,-140.55"/>
<polygon fill="black" stroke="black" points="383.49,-140.55 386.99,-150.55 390.49,-140.55 383.49,-140.55"/>
</g>
</g>
</svg>
