<?xml version="1.0" encoding="UTF-8" standalone="no"?>
<!DOCTYPE svg PUBLIC "-//W3C//DTD SVG 1.1//EN"
 "http://www.w3.org/Graphics/SVG/1.1/DTD/svg11.dtd">
<!-- Generated by graphviz version 2.47.0 (20210316.0004)
 -->
<!-- Title: dependencies Pages: 1 -->
<svg width="1194pt" height="211pt"
 viewBox="0.00 0.00 1194.00 211.00" xmlns="http://www.w3.org/2000/svg" xmlns:xlink="http://www.w3.org/1999/xlink">
<g id="graph0" class="graph" transform="scale(1 1) rotate(0) translate(4 207)">
<title>dependencies</title>
<polygon fill="white" stroke="transparent" points="-4,4 -4,-207 1190,-207 1190,4 -4,4"/>
<text text-anchor="start" x="572.01" y="-42.4" font-family="Times-12" font-weight="bold" font-size="14.00">Legend</text>
<polygon fill="#ffffb3" stroke="transparent" points="359,-10 359,-30 379,-30 379,-10 359,-10"/>
<text text-anchor="start" x="382.63" y="-15.4" font-family="Times-12" font-size="14.00"> &#160;Declarations</text>
<polygon fill="#8dd3c7" stroke="transparent" points="472,-10 472,-30 492,-30 492,-10 472,-10"/>
<text text-anchor="start" x="495.73" y="-15.4" font-family="Times-12" font-size="14.00"> &#160;Module</text>
<polygon fill="#80b1d3" stroke="transparent" points="558,-10 558,-30 578,-30 578,-10 558,-10"/>
<text text-anchor="start" x="581.78" y="-15.4" font-family="Times-12" font-size="14.00"> &#160;Bootstrap</text>
<polygon fill="#fdb462" stroke="transparent" points="655,-10 655,-30 675,-30 675,-10 655,-10"/>
<text text-anchor="start" x="678.67" y="-15.4" font-family="Times-12" font-size="14.00"> &#160;Providers</text>
<polygon fill="#fb8072" stroke="transparent" points="751,-10 751,-30 771,-30 771,-10 751,-10"/>
<text text-anchor="start" x="774.73" y="-15.4" font-family="Times-12" font-size="14.00"> &#160;Exports</text>
<g id="clust1" class="cluster">
<title>cluster_RelatedApplicationsModule</title>
<polygon fill="none" stroke="black" stroke-dasharray="1,5" points="8,-70 8,-195 1178,-195 1178,-70 8,-70"/>
</g>
<g id="clust2" class="cluster">
<title>cluster_RelatedApplicationsModule_declarations</title>
<polygon fill="none" stroke="black" points="16,-78 16,-130 1170,-130 1170,-78 16,-78"/>
</g>
<!-- ApplicationDetailsComponent -->
<g id="node1" class="node">
<title>ApplicationDetailsComponent</title>
<polygon fill="#ffffb3" stroke="black" points="1161.58,-122 974.42,-122 974.42,-86 1161.58,-86 1161.58,-122"/>
<text text-anchor="middle" x="1068" y="-99.8" font-family="Times,serif" font-size="14.00">ApplicationDetailsComponent</text>
</g>
<!-- RelatedApplicationsModule -->
<g id="node6" class="node">
<title>RelatedApplicationsModule</title>
<polygon fill="#8dd3c7" stroke="black" points="715.85,-187 712.85,-191 691.85,-191 688.85,-187 542.15,-187 542.15,-151 715.85,-151 715.85,-187"/>
<text text-anchor="middle" x="629" y="-164.8" font-family="Times,serif" font-size="14.00">RelatedApplicationsModule</text>
</g>
<!-- ApplicationDetailsComponent&#45;&gt;RelatedApplicationsModule -->
<g id="edge1" class="edge">
<title>ApplicationDetailsComponent&#45;&gt;RelatedApplicationsModule</title>
<path fill="none" stroke="black" d="M1068,-122.28C1068,-143.32 1068,-175 1068,-175 1068,-175 725.99,-175 725.99,-175"/>
<polygon fill="black" stroke="black" points="725.99,-171.5 715.99,-175 725.99,-178.5 725.99,-171.5"/>
</g>
<!-- ApplicationDialogComponent -->
<g id="node2" class="node">
<title>ApplicationDialogComponent</title>
<polygon fill="#ffffb3" stroke="black" points="956.53,-122 771.47,-122 771.47,-86 956.53,-86 956.53,-122"/>
<text text-anchor="middle" x="864" y="-99.8" font-family="Times,serif" font-size="14.00">ApplicationDialogComponent</text>
</g>
<!-- ApplicationDialogComponent&#45;&gt;RelatedApplicationsModule -->
<g id="edge2" class="edge">
<title>ApplicationDialogComponent&#45;&gt;RelatedApplicationsModule</title>
<path fill="none" stroke="black" d="M864,-122.02C864,-139.37 864,-163 864,-163 864,-163 726.17,-163 726.17,-163"/>
<polygon fill="black" stroke="black" points="726.17,-159.5 716.17,-163 726.17,-166.5 726.17,-159.5"/>
</g>
<!-- RelatedApplicationMenuItemComponent -->
<g id="node3" class="node">
<title>RelatedApplicationMenuItemComponent</title>
<polygon fill="#ffffb3" stroke="black" points="753.01,-122 504.99,-122 504.99,-86 753.01,-86 753.01,-122"/>
<text text-anchor="middle" x="629" y="-99.8" font-family="Times,serif" font-size="14.00">RelatedApplicationMenuItemComponent</text>
</g>
<!-- RelatedApplicationMenuItemComponent&#45;&gt;RelatedApplicationsModule -->
<g id="edge3" class="edge">
<title>RelatedApplicationMenuItemComponent&#45;&gt;RelatedApplicationsModule</title>
<path fill="none" stroke="black" d="M629,-122.11C629,-122.11 629,-140.99 629,-140.99"/>
<polygon fill="black" stroke="black" points="625.5,-140.99 629,-150.99 632.5,-140.99 625.5,-140.99"/>
</g>
<!-- RelatedApplicationsComponent -->
<g id="node4" class="node">
<title>RelatedApplicationsComponent</title>
<polygon fill="#ffffb3" stroke="black" points="486.64,-122 291.36,-122 291.36,-86 486.64,-86 486.64,-122"/>
<text text-anchor="middle" x="389" y="-99.8" font-family="Times,serif" font-size="14.00">RelatedApplicationsComponent</text>
</g>
<!-- RelatedApplicationsComponent&#45;&gt;RelatedApplicationsModule -->
<g id="edge4" class="edge">
<title>RelatedApplicationsComponent&#45;&gt;RelatedApplicationsModule</title>
<path fill="none" stroke="black" d="M389,-122.02C389,-139.37 389,-163 389,-163 389,-163 532.02,-163 532.02,-163"/>
<polygon fill="black" stroke="black" points="532.02,-166.5 542.02,-163 532.02,-159.5 532.02,-166.5"/>
</g>
<!-- RelatedApplicationsSidesheetComponent -->
<g id="node5" class="node">
<title>RelatedApplicationsSidesheetComponent</title>
<polygon fill="#ffffb3" stroke="black" points="273.79,-122 24.21,-122 24.21,-86 273.79,-86 273.79,-122"/>
<text text-anchor="middle" x="149" y="-99.8" font-family="Times,serif" font-size="14.00">RelatedApplicationsSidesheetComponent</text>
</g>
<!-- RelatedApplicationsSidesheetComponent&#45;&gt;RelatedApplicationsModule -->
<g id="edge5" class="edge">
<title>RelatedApplicationsSidesheetComponent&#45;&gt;RelatedApplicationsModule</title>
<path fill="none" stroke="black" d="M149,-122.28C149,-143.32 149,-175 149,-175 149,-175 532.08,-175 532.08,-175"/>
<polygon fill="black" stroke="black" points="532.08,-178.5 542.08,-175 532.08,-171.5 532.08,-178.5"/>
</g>
</g>
</svg>
