<?xml version="1.0" encoding="UTF-8" standalone="no"?>
<!DOCTYPE svg PUBLIC "-//W3C//DTD SVG 1.1//EN"
 "http://www.w3.org/Graphics/SVG/1.1/DTD/svg11.dtd">
<!-- Generated by graphviz version 2.47.0 (20210316.0004)
 -->
<!-- Title: dependencies Pages: 1 -->
<svg width="1929pt" height="211pt"
 viewBox="0.00 0.00 1929.00 211.00" xmlns="http://www.w3.org/2000/svg" xmlns:xlink="http://www.w3.org/1999/xlink">
<g id="graph0" class="graph" transform="scale(1 1) rotate(0) translate(4 207)">
<title>dependencies</title>
<polygon fill="white" stroke="transparent" points="-4,4 -4,-207 1925,-207 1925,4 -4,4"/>
<text text-anchor="start" x="939.51" y="-42.4" font-family="Times-12" font-weight="bold" font-size="14.00">Legend</text>
<polygon fill="#ffffb3" stroke="transparent" points="726.5,-10 726.5,-30 746.5,-30 746.5,-10 726.5,-10"/>
<text text-anchor="start" x="750.13" y="-15.4" font-family="Times-12" font-size="14.00"> &#160;Declarations</text>
<polygon fill="#8dd3c7" stroke="transparent" points="839.5,-10 839.5,-30 859.5,-30 859.5,-10 839.5,-10"/>
<text text-anchor="start" x="863.23" y="-15.4" font-family="Times-12" font-size="14.00"> &#160;Module</text>
<polygon fill="#80b1d3" stroke="transparent" points="925.5,-10 925.5,-30 945.5,-30 945.5,-10 925.5,-10"/>
<text text-anchor="start" x="949.28" y="-15.4" font-family="Times-12" font-size="14.00"> &#160;Bootstrap</text>
<polygon fill="#fdb462" stroke="transparent" points="1022.5,-10 1022.5,-30 1042.5,-30 1042.5,-10 1022.5,-10"/>
<text text-anchor="start" x="1046.17" y="-15.4" font-family="Times-12" font-size="14.00"> &#160;Providers</text>
<polygon fill="#fb8072" stroke="transparent" points="1118.5,-10 1118.5,-30 1138.5,-30 1138.5,-10 1118.5,-10"/>
<text text-anchor="start" x="1142.23" y="-15.4" font-family="Times-12" font-size="14.00"> &#160;Exports</text>
<g id="clust1" class="cluster">
<title>cluster_ApprovalWorkFlowModule</title>
<polygon fill="none" stroke="black" stroke-dasharray="1,5" points="8,-70 8,-195 1913,-195 1913,-70 8,-70"/>
</g>
<g id="clust2" class="cluster">
<title>cluster_ApprovalWorkFlowModule_declarations</title>
<polygon fill="none" stroke="black" points="16,-78 16,-130 1905,-130 1905,-78 16,-78"/>
</g>
<!-- ApprovalLevelFormComponent -->
<g id="node1" class="node">
<title>ApprovalLevelFormComponent</title>
<polygon fill="#ffffb3" stroke="black" points="1897.41,-122 1700.59,-122 1700.59,-86 1897.41,-86 1897.41,-122"/>
<text text-anchor="middle" x="1799" y="-99.8" font-family="Times,serif" font-size="14.00">ApprovalLevelFormComponent</text>
</g>
<!-- ApprovalWorkFlowModule -->
<g id="node10" class="node">
<title>ApprovalWorkFlowModule</title>
<polygon fill="#8dd3c7" stroke="black" points="961.58,-187 958.58,-191 937.58,-191 934.58,-187 788.42,-187 788.42,-151 961.58,-151 961.58,-187"/>
<text text-anchor="middle" x="875" y="-164.8" font-family="Times,serif" font-size="14.00">ApprovalWorkFlowModule</text>
</g>
<!-- ApprovalLevelFormComponent&#45;&gt;ApprovalWorkFlowModule -->
<g id="edge1" class="edge">
<title>ApprovalLevelFormComponent&#45;&gt;ApprovalWorkFlowModule</title>
<path fill="none" stroke="black" d="M1799,-122.09C1799,-145.13 1799,-182 1799,-182 1799,-182 971.93,-182 971.93,-182"/>
<polygon fill="black" stroke="black" points="971.93,-178.5 961.93,-182 971.93,-185.5 971.93,-178.5"/>
</g>
<!-- ApprovalStepFormComponent -->
<g id="node2" class="node">
<title>ApprovalStepFormComponent</title>
<polygon fill="#ffffb3" stroke="black" points="1682.93,-122 1493.07,-122 1493.07,-86 1682.93,-86 1682.93,-122"/>
<text text-anchor="middle" x="1588" y="-99.8" font-family="Times,serif" font-size="14.00">ApprovalStepFormComponent</text>
</g>
<!-- ApprovalStepFormComponent&#45;&gt;ApprovalWorkFlowModule -->
<g id="edge2" class="edge">
<title>ApprovalStepFormComponent&#45;&gt;ApprovalWorkFlowModule</title>
<path fill="none" stroke="black" d="M1556.43,-122.11C1556.43,-141.34 1556.43,-169 1556.43,-169 1556.43,-169 971.65,-169 971.65,-169"/>
<polygon fill="black" stroke="black" points="971.65,-165.5 961.65,-169 971.65,-172.5 971.65,-165.5"/>
</g>
<!-- ApprovalStepFormComponent&#45;&gt;ApprovalWorkFlowModule -->
<g id="edge3" class="edge">
<title>ApprovalStepFormComponent&#45;&gt;ApprovalWorkFlowModule</title>
<path fill="none" stroke="black" d="M1619.57,-122.28C1619.57,-143.32 1619.57,-175 1619.57,-175 1619.57,-175 971.87,-175 971.87,-175"/>
<polygon fill="black" stroke="black" points="971.87,-171.5 961.87,-175 971.87,-178.5 971.87,-171.5"/>
</g>
<!-- ApprovalWorkflowEditComponent -->
<g id="node3" class="node">
<title>ApprovalWorkflowEditComponent</title>
<polygon fill="#ffffb3" stroke="black" points="1475.57,-122 1260.43,-122 1260.43,-86 1475.57,-86 1475.57,-122"/>
<text text-anchor="middle" x="1368" y="-99.8" font-family="Times,serif" font-size="14.00">ApprovalWorkflowEditComponent</text>
</g>
<!-- ApprovalWorkflowEditComponent&#45;&gt;ApprovalWorkFlowModule -->
<g id="edge4" class="edge">
<title>ApprovalWorkflowEditComponent&#45;&gt;ApprovalWorkFlowModule</title>
<path fill="none" stroke="black" d="M1368,-122.02C1368,-139.37 1368,-163 1368,-163 1368,-163 971.72,-163 971.72,-163"/>
<polygon fill="black" stroke="black" points="971.72,-159.5 961.72,-163 971.72,-166.5 971.72,-159.5"/>
</g>
<!-- ApprovalWorkflowEditInfoComponent -->
<g id="node4" class="node">
<title>ApprovalWorkflowEditInfoComponent</title>
<polygon fill="#ffffb3" stroke="black" points="1242.39,-122 1003.61,-122 1003.61,-86 1242.39,-86 1242.39,-122"/>
<text text-anchor="middle" x="1123" y="-99.8" font-family="Times,serif" font-size="14.00">ApprovalWorkflowEditInfoComponent</text>
</g>
<!-- ApprovalWorkflowEditInfoComponent&#45;&gt;ApprovalWorkFlowModule -->
<g id="edge5" class="edge">
<title>ApprovalWorkflowEditInfoComponent&#45;&gt;ApprovalWorkFlowModule</title>
<path fill="none" stroke="black" d="M1123,-122.24C1123,-137.57 1123,-157 1123,-157 1123,-157 971.74,-157 971.74,-157"/>
<polygon fill="black" stroke="black" points="971.74,-153.5 961.74,-157 971.74,-160.5 971.74,-153.5"/>
</g>
<!-- ApprovalWorkflowFormComponent -->
<g id="node5" class="node">
<title>ApprovalWorkflowFormComponent</title>
<polygon fill="#ffffb3" stroke="black" points="986.07,-122 763.93,-122 763.93,-86 986.07,-86 986.07,-122"/>
<text text-anchor="middle" x="875" y="-99.8" font-family="Times,serif" font-size="14.00">ApprovalWorkflowFormComponent</text>
</g>
<!-- ApprovalWorkflowFormComponent&#45;&gt;ApprovalWorkFlowModule -->
<g id="edge6" class="edge">
<title>ApprovalWorkflowFormComponent&#45;&gt;ApprovalWorkFlowModule</title>
<path fill="none" stroke="black" d="M903.85,-122.11C903.85,-122.11 903.85,-140.99 903.85,-140.99"/>
<polygon fill="black" stroke="black" points="900.35,-140.99 903.85,-150.99 907.35,-140.99 900.35,-140.99"/>
</g>
<!-- ApprovalWorkflowFormComponent&#45;&gt;ApprovalWorkFlowModule -->
<g id="edge7" class="edge">
<title>ApprovalWorkflowFormComponent&#45;&gt;ApprovalWorkFlowModule</title>
<path fill="none" stroke="black" d="M846.15,-122.11C846.15,-122.11 846.15,-140.99 846.15,-140.99"/>
<polygon fill="black" stroke="black" points="842.65,-140.99 846.15,-150.99 849.65,-140.99 842.65,-140.99"/>
</g>
<!-- ApprovalWorkflowHomeComponent -->
<g id="node6" class="node">
<title>ApprovalWorkflowHomeComponent</title>
<polygon fill="#ffffb3" stroke="black" points="745.95,-122 520.05,-122 520.05,-86 745.95,-86 745.95,-122"/>
<text text-anchor="middle" x="633" y="-99.8" font-family="Times,serif" font-size="14.00">ApprovalWorkflowHomeComponent</text>
</g>
<!-- ApprovalWorkflowHomeComponent&#45;&gt;ApprovalWorkFlowModule -->
<g id="edge8" class="edge">
<title>ApprovalWorkflowHomeComponent&#45;&gt;ApprovalWorkFlowModule</title>
<path fill="none" stroke="black" d="M633,-122.01C633,-138.05 633,-159 633,-159 633,-159 778.32,-159 778.32,-159"/>
<polygon fill="black" stroke="black" points="778.32,-162.5 788.32,-159 778.32,-155.5 778.32,-162.5"/>
</g>
<!-- ContainerDomComponent -->
<g id="node7" class="node">
<title>ContainerDomComponent</title>
<polygon fill="#ffffb3" stroke="black" points="502.04,-122 337.96,-122 337.96,-86 502.04,-86 502.04,-122"/>
<text text-anchor="middle" x="420" y="-99.8" font-family="Times,serif" font-size="14.00">ContainerDomComponent</text>
</g>
<!-- ContainerDomComponent&#45;&gt;ApprovalWorkFlowModule -->
<g id="edge9" class="edge">
<title>ContainerDomComponent&#45;&gt;ApprovalWorkFlowModule</title>
<path fill="none" stroke="black" d="M420,-122.27C420,-140.56 420,-166 420,-166 420,-166 778.35,-166 778.35,-166"/>
<polygon fill="black" stroke="black" points="778.35,-169.5 788.35,-166 778.35,-162.5 778.35,-169.5"/>
</g>
<!-- EdgeDomComponent -->
<g id="node8" class="node">
<title>EdgeDomComponent</title>
<polygon fill="#ffffb3" stroke="black" points="320.1,-122 181.9,-122 181.9,-86 320.1,-86 320.1,-122"/>
<text text-anchor="middle" x="251" y="-99.8" font-family="Times,serif" font-size="14.00">EdgeDomComponent</text>
</g>
<!-- EdgeDomComponent&#45;&gt;ApprovalWorkFlowModule -->
<g id="edge10" class="edge">
<title>EdgeDomComponent&#45;&gt;ApprovalWorkFlowModule</title>
<path fill="none" stroke="black" d="M251,-122.13C251,-142.57 251,-173 251,-173 251,-173 778.24,-173 778.24,-173"/>
<polygon fill="black" stroke="black" points="778.24,-176.5 788.24,-173 778.24,-169.5 778.24,-176.5"/>
</g>
<!-- NodeDomComponent -->
<g id="node9" class="node">
<title>NodeDomComponent</title>
<polygon fill="#ffffb3" stroke="black" points="163.65,-122 24.35,-122 24.35,-86 163.65,-86 163.65,-122"/>
<text text-anchor="middle" x="94" y="-99.8" font-family="Times,serif" font-size="14.00">NodeDomComponent</text>
</g>
<!-- NodeDomComponent&#45;&gt;ApprovalWorkFlowModule -->
<g id="edge11" class="edge">
<title>NodeDomComponent&#45;&gt;ApprovalWorkFlowModule</title>
<path fill="none" stroke="black" d="M94,-122.01C94,-144.49 94,-180 94,-180 94,-180 778.44,-180 778.44,-180"/>
<polygon fill="black" stroke="black" points="778.44,-183.5 788.44,-180 778.44,-176.5 778.44,-183.5"/>
</g>
</g>
</svg>
