<?xml version="1.0" encoding="UTF-8" standalone="no"?>
<!DOCTYPE svg PUBLIC "-//W3C//DTD SVG 1.1//EN"
 "http://www.w3.org/Graphics/SVG/1.1/DTD/svg11.dtd">
<!-- Generated by graphviz version 2.47.0 (20210316.0004)
 -->
<!-- Title: dependencies Pages: 1 -->
<svg width="504pt" height="284pt"
 viewBox="0.00 0.00 504.00 284.00" xmlns="http://www.w3.org/2000/svg" xmlns:xlink="http://www.w3.org/1999/xlink">
<g id="graph0" class="graph" transform="scale(1 1) rotate(0) translate(4 280)">
<title>dependencies</title>
<polygon fill="white" stroke="transparent" points="-4,4 -4,-280 500,-280 500,4 -4,4"/>
<text text-anchor="start" x="227.01" y="-42.4" font-family="Times-12" font-weight="bold" font-size="14.00">Legend</text>
<polygon fill="#ffffb3" stroke="transparent" points="14,-10 14,-30 34,-30 34,-10 14,-10"/>
<text text-anchor="start" x="37.63" y="-15.4" font-family="Times-12" font-size="14.00"> &#160;Declarations</text>
<polygon fill="#8dd3c7" stroke="transparent" points="127,-10 127,-30 147,-30 147,-10 127,-10"/>
<text text-anchor="start" x="150.73" y="-15.4" font-family="Times-12" font-size="14.00"> &#160;Module</text>
<polygon fill="#80b1d3" stroke="transparent" points="213,-10 213,-30 233,-30 233,-10 213,-10"/>
<text text-anchor="start" x="236.78" y="-15.4" font-family="Times-12" font-size="14.00"> &#160;Bootstrap</text>
<polygon fill="#fdb462" stroke="transparent" points="310,-10 310,-30 330,-30 330,-10 310,-10"/>
<text text-anchor="start" x="333.67" y="-15.4" font-family="Times-12" font-size="14.00"> &#160;Providers</text>
<polygon fill="#fb8072" stroke="transparent" points="406,-10 406,-30 426,-30 426,-10 406,-10"/>
<text text-anchor="start" x="429.73" y="-15.4" font-family="Times-12" font-size="14.00"> &#160;Exports</text>
<g id="clust1" class="cluster">
<title>cluster_ServiceItemTagsModule</title>
<polygon fill="none" stroke="black" stroke-dasharray="1,5" points="27,-70 27,-268 469,-268 469,-70 27,-70"/>
</g>
<g id="clust5" class="cluster">
<title>cluster_ServiceItemTagsModule_exports</title>
<polygon fill="none" stroke="black" points="157,-208 157,-260 353,-260 353,-208 157,-208"/>
</g>
<g id="clust2" class="cluster">
<title>cluster_ServiceItemTagsModule_declarations</title>
<polygon fill="none" stroke="black" points="269,-78 269,-130 461,-130 461,-78 269,-78"/>
</g>
<g id="clust7" class="cluster">
<title>cluster_ServiceItemTagsModule_providers</title>
<polygon fill="none" stroke="black" points="35,-78 35,-130 261,-130 261,-78 35,-78"/>
</g>
<!-- ServiceItemTagsComponent -->
<g id="node1" class="node">
<title>ServiceItemTagsComponent</title>
<polygon fill="#ffffb3" stroke="black" points="453.18,-122 276.82,-122 276.82,-86 453.18,-86 453.18,-122"/>
<text text-anchor="middle" x="365" y="-99.8" font-family="Times,serif" font-size="14.00">ServiceItemTagsComponent</text>
</g>
<!-- ServiceItemTagsModule -->
<g id="node2" class="node">
<title>ServiceItemTagsModule</title>
<polygon fill="#8dd3c7" stroke="black" points="332.4,-187 329.4,-191 308.4,-191 305.4,-187 177.6,-187 177.6,-151 332.4,-151 332.4,-187"/>
<text text-anchor="middle" x="255" y="-164.8" font-family="Times,serif" font-size="14.00">ServiceItemTagsModule</text>
</g>
<!-- ServiceItemTagsComponent&#45;&gt;ServiceItemTagsModule -->
<g id="edge1" class="edge">
<title>ServiceItemTagsComponent&#45;&gt;ServiceItemTagsModule</title>
<path fill="none" stroke="black" d="M304.55,-122.11C304.55,-122.11 304.55,-140.99 304.55,-140.99"/>
<polygon fill="black" stroke="black" points="301.05,-140.99 304.55,-150.99 308.05,-140.99 301.05,-140.99"/>
</g>
<!-- ServiceItemTagsComponent  -->
<g id="node3" class="node">
<title>ServiceItemTagsComponent </title>
<polygon fill="#fb8072" stroke="black" points="344.68,-252 165.32,-252 165.32,-216 344.68,-216 344.68,-252"/>
<text text-anchor="middle" x="255" y="-229.8" font-family="Times,serif" font-size="14.00">ServiceItemTagsComponent </text>
</g>
<!-- ServiceItemTagsModule&#45;&gt;ServiceItemTagsComponent  -->
<g id="edge2" class="edge">
<title>ServiceItemTagsModule&#45;&gt;ServiceItemTagsComponent </title>
<path fill="none" stroke="black" stroke-dasharray="5,2" d="M255,-187.11C255,-187.11 255,-205.99 255,-205.99"/>
<polygon fill="black" stroke="black" points="251.5,-205.99 255,-215.99 258.5,-205.99 251.5,-205.99"/>
</g>
<!-- ServiceItemTagsService -->
<g id="node4" class="node">
<title>ServiceItemTagsService</title>
<ellipse fill="#fdb462" stroke="black" cx="148" cy="-104" rx="105.33" ry="18"/>
<text text-anchor="middle" x="148" y="-99.8" font-family="Times,serif" font-size="14.00">ServiceItemTagsService</text>
</g>
<!-- ServiceItemTagsService&#45;&gt;ServiceItemTagsModule -->
<g id="edge3" class="edge">
<title>ServiceItemTagsService&#45;&gt;ServiceItemTagsModule</title>
<path fill="none" stroke="black" d="M215.61,-118.1C215.61,-118.1 215.61,-140.72 215.61,-140.72"/>
<polygon fill="black" stroke="black" points="212.11,-140.72 215.61,-150.72 219.11,-140.72 212.11,-140.72"/>
</g>
</g>
</svg>
