<?xml version="1.0" encoding="UTF-8" standalone="no"?>
<!DOCTYPE svg PUBLIC "-//W3C//DTD SVG 1.1//EN"
 "http://www.w3.org/Graphics/SVG/1.1/DTD/svg11.dtd">
<!-- Generated by graphviz version 2.47.0 (20210316.0004)
 -->
<!-- Title: dependencies Pages: 1 -->
<svg width="596pt" height="211pt"
 viewBox="0.00 0.00 596.00 211.00" xmlns="http://www.w3.org/2000/svg" xmlns:xlink="http://www.w3.org/1999/xlink">
<g id="graph0" class="graph" transform="scale(1 1) rotate(0) translate(4 207)">
<title>dependencies</title>
<polygon fill="white" stroke="transparent" points="-4,4 -4,-207 592,-207 592,4 -4,4"/>
<text text-anchor="start" x="273.01" y="-42.4" font-family="Times-12" font-weight="bold" font-size="14.00">Legend</text>
<polygon fill="#ffffb3" stroke="transparent" points="60,-10 60,-30 80,-30 80,-10 60,-10"/>
<text text-anchor="start" x="83.63" y="-15.4" font-family="Times-12" font-size="14.00"> &#160;Declarations</text>
<polygon fill="#8dd3c7" stroke="transparent" points="173,-10 173,-30 193,-30 193,-10 173,-10"/>
<text text-anchor="start" x="196.73" y="-15.4" font-family="Times-12" font-size="14.00"> &#160;Module</text>
<polygon fill="#80b1d3" stroke="transparent" points="259,-10 259,-30 279,-30 279,-10 259,-10"/>
<text text-anchor="start" x="282.78" y="-15.4" font-family="Times-12" font-size="14.00"> &#160;Bootstrap</text>
<polygon fill="#fdb462" stroke="transparent" points="356,-10 356,-30 376,-30 376,-10 356,-10"/>
<text text-anchor="start" x="379.67" y="-15.4" font-family="Times-12" font-size="14.00"> &#160;Providers</text>
<polygon fill="#fb8072" stroke="transparent" points="452,-10 452,-30 472,-30 472,-10 452,-10"/>
<text text-anchor="start" x="475.73" y="-15.4" font-family="Times-12" font-size="14.00"> &#160;Exports</text>
<g id="clust1" class="cluster">
<title>cluster_MyResponsibilitiesViewModule</title>
<polygon fill="none" stroke="black" stroke-dasharray="1,5" points="8,-70 8,-195 580,-195 580,-70 8,-70"/>
</g>
<g id="clust2" class="cluster">
<title>cluster_MyResponsibilitiesViewModule_declarations</title>
<polygon fill="none" stroke="black" points="336,-78 336,-130 572,-130 572,-78 336,-78"/>
</g>
<g id="clust7" class="cluster">
<title>cluster_MyResponsibilitiesViewModule_providers</title>
<polygon fill="none" stroke="black" points="16,-78 16,-130 328,-130 328,-78 16,-78"/>
</g>
<!-- MyResponsibilitiesViewComponent -->
<g id="node1" class="node">
<title>MyResponsibilitiesViewComponent</title>
<polygon fill="#ffffb3" stroke="black" points="564.04,-122 343.96,-122 343.96,-86 564.04,-86 564.04,-122"/>
<text text-anchor="middle" x="454" y="-99.8" font-family="Times,serif" font-size="14.00">MyResponsibilitiesViewComponent</text>
</g>
<!-- MyResponsibilitiesViewModule -->
<g id="node2" class="node">
<title>MyResponsibilitiesViewModule</title>
<polygon fill="#8dd3c7" stroke="black" points="412.26,-187 409.26,-191 388.26,-191 385.26,-187 213.74,-187 213.74,-151 412.26,-151 412.26,-187"/>
<text text-anchor="middle" x="313" y="-164.8" font-family="Times,serif" font-size="14.00">MyResponsibilitiesViewModule</text>
</g>
<!-- MyResponsibilitiesViewComponent&#45;&gt;MyResponsibilitiesViewModule -->
<g id="edge1" class="edge">
<title>MyResponsibilitiesViewComponent&#45;&gt;MyResponsibilitiesViewModule</title>
<path fill="none" stroke="black" d="M378.05,-122.11C378.05,-122.11 378.05,-140.99 378.05,-140.99"/>
<polygon fill="black" stroke="black" points="374.55,-140.99 378.05,-150.99 381.55,-140.99 374.55,-140.99"/>
</g>
<!-- MyResponsibilitiesRegistryService -->
<g id="node3" class="node">
<title>MyResponsibilitiesRegistryService</title>
<ellipse fill="#fdb462" stroke="black" cx="172" cy="-104" rx="147.64" ry="18"/>
<text text-anchor="middle" x="172" y="-99.8" font-family="Times,serif" font-size="14.00">MyResponsibilitiesRegistryService</text>
</g>
<!-- MyResponsibilitiesRegistryService&#45;&gt;MyResponsibilitiesViewModule -->
<g id="edge2" class="edge">
<title>MyResponsibilitiesRegistryService&#45;&gt;MyResponsibilitiesViewModule</title>
<path fill="none" stroke="black" d="M266.72,-118.1C266.72,-118.1 266.72,-140.72 266.72,-140.72"/>
<polygon fill="black" stroke="black" points="263.22,-140.72 266.72,-150.72 270.22,-140.72 263.22,-140.72"/>
</g>
</g>
</svg>
