<?xml version="1.0" encoding="UTF-8" standalone="no"?>
<!DOCTYPE svg PUBLIC "-//W3C//DTD SVG 1.1//EN"
 "http://www.w3.org/Graphics/SVG/1.1/DTD/svg11.dtd">
<!-- Generated by graphviz version 2.47.0 (20210316.0004)
 -->
<!-- Title: dependencies Pages: 1 -->
<svg width="544pt" height="284pt"
 viewBox="0.00 0.00 544.00 284.00" xmlns="http://www.w3.org/2000/svg" xmlns:xlink="http://www.w3.org/1999/xlink">
<g id="graph0" class="graph" transform="scale(1 1) rotate(0) translate(4 280)">
<title>dependencies</title>
<polygon fill="white" stroke="transparent" points="-4,4 -4,-280 540,-280 540,4 -4,4"/>
<text text-anchor="start" x="247.01" y="-42.4" font-family="Times-12" font-weight="bold" font-size="14.00">Legend</text>
<polygon fill="#ffffb3" stroke="transparent" points="34,-10 34,-30 54,-30 54,-10 34,-10"/>
<text text-anchor="start" x="57.63" y="-15.4" font-family="Times-12" font-size="14.00"> &#160;Declarations</text>
<polygon fill="#8dd3c7" stroke="transparent" points="147,-10 147,-30 167,-30 167,-10 147,-10"/>
<text text-anchor="start" x="170.73" y="-15.4" font-family="Times-12" font-size="14.00"> &#160;Module</text>
<polygon fill="#80b1d3" stroke="transparent" points="233,-10 233,-30 253,-30 253,-10 233,-10"/>
<text text-anchor="start" x="256.78" y="-15.4" font-family="Times-12" font-size="14.00"> &#160;Bootstrap</text>
<polygon fill="#fdb462" stroke="transparent" points="330,-10 330,-30 350,-30 350,-10 330,-10"/>
<text text-anchor="start" x="353.67" y="-15.4" font-family="Times-12" font-size="14.00"> &#160;Providers</text>
<polygon fill="#fb8072" stroke="transparent" points="426,-10 426,-30 446,-30 446,-10 426,-10"/>
<text text-anchor="start" x="449.73" y="-15.4" font-family="Times-12" font-size="14.00"> &#160;Exports</text>
<g id="clust1" class="cluster">
<title>cluster_TilesModule</title>
<polygon fill="none" stroke="black" stroke-dasharray="1,5" points="8,-70 8,-268 528,-268 528,-70 8,-70"/>
</g>
<g id="clust2" class="cluster">
<title>cluster_TilesModule_declarations</title>
<polygon fill="none" stroke="black" points="22,-78 22,-130 514,-130 514,-78 22,-78"/>
</g>
<g id="clust7" class="cluster">
<title>cluster_TilesModule_exports</title>
<polygon fill="none" stroke="black" points="16,-208 16,-260 520,-260 520,-208 16,-208"/>
</g>
<!-- BadgeTileComponent -->
<g id="node1" class="node">
<title>BadgeTileComponent</title>
<polygon fill="#ffffb3" stroke="black" points="505.65,-122 366.35,-122 366.35,-86 505.65,-86 505.65,-122"/>
<text text-anchor="middle" x="436" y="-99.8" font-family="Times,serif" font-size="14.00">BadgeTileComponent</text>
</g>
<!-- TilesModule -->
<g id="node4" class="node">
<title>TilesModule</title>
<polygon fill="#8dd3c7" stroke="black" points="327.54,-187 324.54,-191 303.54,-191 300.54,-187 240.46,-187 240.46,-151 327.54,-151 327.54,-187"/>
<text text-anchor="middle" x="284" y="-164.8" font-family="Times,serif" font-size="14.00">TilesModule</text>
</g>
<!-- BadgeTileComponent&#45;&gt;TilesModule -->
<g id="edge1" class="edge">
<title>BadgeTileComponent&#45;&gt;TilesModule</title>
<path fill="none" stroke="black" d="M460.02,-122.02C460.02,-139.37 460.02,-163 460.02,-163 460.02,-163 337.96,-163 337.96,-163"/>
<polygon fill="black" stroke="black" points="337.96,-159.5 327.96,-163 337.96,-166.5 337.96,-159.5"/>
</g>
<!-- IconTileComponent -->
<g id="node2" class="node">
<title>IconTileComponent</title>
<polygon fill="#ffffb3" stroke="black" points="348.26,-122 219.74,-122 219.74,-86 348.26,-86 348.26,-122"/>
<text text-anchor="middle" x="284" y="-99.8" font-family="Times,serif" font-size="14.00">IconTileComponent</text>
</g>
<!-- IconTileComponent&#45;&gt;TilesModule -->
<g id="edge2" class="edge">
<title>IconTileComponent&#45;&gt;TilesModule</title>
<path fill="none" stroke="black" d="M284,-122.11C284,-122.11 284,-140.99 284,-140.99"/>
<polygon fill="black" stroke="black" points="280.5,-140.99 284,-150.99 287.5,-140.99 280.5,-140.99"/>
</g>
<!-- NotificationTileComponent -->
<g id="node3" class="node">
<title>NotificationTileComponent</title>
<polygon fill="#ffffb3" stroke="black" points="201.53,-122 30.47,-122 30.47,-86 201.53,-86 201.53,-122"/>
<text text-anchor="middle" x="116" y="-99.8" font-family="Times,serif" font-size="14.00">NotificationTileComponent</text>
</g>
<!-- NotificationTileComponent&#45;&gt;TilesModule -->
<g id="edge3" class="edge">
<title>NotificationTileComponent&#45;&gt;TilesModule</title>
<path fill="none" stroke="black" d="M143.09,-122.02C143.09,-139.37 143.09,-163 143.09,-163 143.09,-163 230.19,-163 230.19,-163"/>
<polygon fill="black" stroke="black" points="230.19,-166.5 240.19,-163 230.19,-159.5 230.19,-166.5"/>
</g>
<!-- BadgeTileComponent  -->
<g id="node5" class="node">
<title>BadgeTileComponent </title>
<polygon fill="#fb8072" stroke="black" points="511.65,-252 368.35,-252 368.35,-216 511.65,-216 511.65,-252"/>
<text text-anchor="middle" x="440" y="-229.8" font-family="Times,serif" font-size="14.00">BadgeTileComponent </text>
</g>
<!-- TilesModule&#45;&gt;BadgeTileComponent  -->
<g id="edge4" class="edge">
<title>TilesModule&#45;&gt;BadgeTileComponent </title>
<path fill="none" stroke="black" stroke-dasharray="5,2" d="M327.73,-175C365.56,-175 414.23,-175 414.23,-175 414.23,-175 414.23,-205.98 414.23,-205.98"/>
<polygon fill="black" stroke="black" points="410.73,-205.98 414.23,-215.98 417.73,-205.98 410.73,-205.98"/>
</g>
<!-- IconTileComponent  -->
<g id="node6" class="node">
<title>IconTileComponent </title>
<polygon fill="#fb8072" stroke="black" points="350.26,-252 217.74,-252 217.74,-216 350.26,-216 350.26,-252"/>
<text text-anchor="middle" x="284" y="-229.8" font-family="Times,serif" font-size="14.00">IconTileComponent </text>
</g>
<!-- TilesModule&#45;&gt;IconTileComponent  -->
<g id="edge5" class="edge">
<title>TilesModule&#45;&gt;IconTileComponent </title>
<path fill="none" stroke="black" stroke-dasharray="5,2" d="M284,-187.11C284,-187.11 284,-205.99 284,-205.99"/>
<polygon fill="black" stroke="black" points="280.5,-205.99 284,-215.99 287.5,-205.99 280.5,-205.99"/>
</g>
<!-- NotificationTileComponent  -->
<g id="node7" class="node">
<title>NotificationTileComponent </title>
<polygon fill="#fb8072" stroke="black" points="199.53,-252 24.47,-252 24.47,-216 199.53,-216 199.53,-252"/>
<text text-anchor="middle" x="112" y="-229.8" font-family="Times,serif" font-size="14.00">NotificationTileComponent </text>
</g>
<!-- TilesModule&#45;&gt;NotificationTileComponent  -->
<g id="edge6" class="edge">
<title>TilesModule&#45;&gt;NotificationTileComponent </title>
<path fill="none" stroke="black" stroke-dasharray="5,2" d="M240.2,-175C182.07,-175 86.66,-175 86.66,-175 86.66,-175 86.66,-205.98 86.66,-205.98"/>
<polygon fill="black" stroke="black" points="83.16,-205.98 86.66,-215.98 90.16,-205.98 83.16,-205.98"/>
</g>
</g>
</svg>
