<?xml version="1.0" encoding="UTF-8" standalone="no"?>
<!DOCTYPE svg PUBLIC "-//W3C//DTD SVG 1.1//EN"
 "http://www.w3.org/Graphics/SVG/1.1/DTD/svg11.dtd">
<!-- Generated by graphviz version 2.47.0 (20210316.0004)
 -->
<!-- Title: dependencies Pages: 1 -->
<svg width="1929pt" height="284pt"
 viewBox="0.00 0.00 1929.00 284.00" xmlns="http://www.w3.org/2000/svg" xmlns:xlink="http://www.w3.org/1999/xlink">
<g id="graph0" class="graph" transform="scale(1 1) rotate(0) translate(4 280)">
<title>dependencies</title>
<polygon fill="white" stroke="transparent" points="-4,4 -4,-280 1925,-280 1925,4 -4,4"/>
<text text-anchor="start" x="939.51" y="-42.4" font-family="Times-12" font-weight="bold" font-size="14.00">Legend</text>
<polygon fill="#ffffb3" stroke="transparent" points="726.5,-10 726.5,-30 746.5,-30 746.5,-10 726.5,-10"/>
<text text-anchor="start" x="750.13" y="-15.4" font-family="Times-12" font-size="14.00"> &#160;Declarations</text>
<polygon fill="#8dd3c7" stroke="transparent" points="839.5,-10 839.5,-30 859.5,-30 859.5,-10 839.5,-10"/>
<text text-anchor="start" x="863.23" y="-15.4" font-family="Times-12" font-size="14.00"> &#160;Module</text>
<polygon fill="#80b1d3" stroke="transparent" points="925.5,-10 925.5,-30 945.5,-30 945.5,-10 925.5,-10"/>
<text text-anchor="start" x="949.28" y="-15.4" font-family="Times-12" font-size="14.00"> &#160;Bootstrap</text>
<polygon fill="#fdb462" stroke="transparent" points="1022.5,-10 1022.5,-30 1042.5,-30 1042.5,-10 1022.5,-10"/>
<text text-anchor="start" x="1046.17" y="-15.4" font-family="Times-12" font-size="14.00"> &#160;Providers</text>
<polygon fill="#fb8072" stroke="transparent" points="1118.5,-10 1118.5,-30 1138.5,-30 1138.5,-10 1118.5,-10"/>
<text text-anchor="start" x="1142.23" y="-15.4" font-family="Times-12" font-size="14.00"> &#160;Exports</text>
<g id="clust1" class="cluster">
<title>cluster_EntityModule</title>
<polygon fill="none" stroke="black" stroke-dasharray="1,5" points="8,-70 8,-268 1913,-268 1913,-70 8,-70"/>
</g>
<g id="clust11" class="cluster">
<title>cluster_EntityModule_providers</title>
<polygon fill="none" stroke="black" points="1761,-78 1761,-130 1905,-130 1905,-78 1761,-78"/>
</g>
<g id="clust2" class="cluster">
<title>cluster_EntityModule_declarations</title>
<polygon fill="none" stroke="black" points="708,-78 708,-130 1753,-130 1753,-78 708,-78"/>
</g>
<g id="clust9" class="cluster">
<title>cluster_EntityModule_exports</title>
<polygon fill="none" stroke="black" points="722,-208 722,-260 1099,-260 1099,-208 722,-208"/>
</g>
<g id="clust8" class="cluster">
<title>cluster_EntityModule_imports</title>
<polygon fill="none" stroke="black" points="16,-78 16,-130 700,-130 700,-78 16,-78"/>
</g>
<!-- EntitySelectComponent -->
<g id="node1" class="node">
<title>EntitySelectComponent</title>
<polygon fill="#ffffb3" stroke="black" points="1744.76,-122 1595.24,-122 1595.24,-86 1744.76,-86 1744.76,-122"/>
<text text-anchor="middle" x="1670" y="-99.8" font-family="Times,serif" font-size="14.00">EntitySelectComponent</text>
</g>
<!-- EntityModule -->
<g id="node6" class="node">
<title>EntityModule</title>
<polygon fill="#8dd3c7" stroke="black" points="965.77,-187 962.77,-191 941.77,-191 938.77,-187 872.23,-187 872.23,-151 965.77,-151 965.77,-187"/>
<text text-anchor="middle" x="919" y="-164.8" font-family="Times,serif" font-size="14.00">EntityModule</text>
</g>
<!-- EntitySelectComponent&#45;&gt;EntityModule -->
<g id="edge1" class="edge">
<title>EntitySelectComponent&#45;&gt;EntityModule</title>
<path fill="none" stroke="black" d="M1670,-122.13C1670,-142.57 1670,-173 1670,-173 1670,-173 975.98,-173 975.98,-173"/>
<polygon fill="black" stroke="black" points="975.98,-169.5 965.98,-173 975.98,-176.5 975.98,-169.5"/>
</g>
<!-- FkTableSelectComponent -->
<g id="node2" class="node">
<title>FkTableSelectComponent</title>
<polygon fill="#ffffb3" stroke="black" points="1577.2,-122 1414.8,-122 1414.8,-86 1577.2,-86 1577.2,-122"/>
<text text-anchor="middle" x="1496" y="-99.8" font-family="Times,serif" font-size="14.00">FkTableSelectComponent</text>
</g>
<!-- FkTableSelectComponent&#45;&gt;EntityModule -->
<g id="edge2" class="edge">
<title>FkTableSelectComponent&#45;&gt;EntityModule</title>
<path fill="none" stroke="black" d="M1496,-122.27C1496,-140.56 1496,-166 1496,-166 1496,-166 976.22,-166 976.22,-166"/>
<polygon fill="black" stroke="black" points="976.22,-162.5 966.22,-166 976.22,-169.5 976.22,-162.5"/>
</g>
<!-- TypedEntityCandidateSidesheetComponent -->
<g id="node3" class="node">
<title>TypedEntityCandidateSidesheetComponent</title>
<polygon fill="#ffffb3" stroke="black" points="1396.74,-122 1135.26,-122 1135.26,-86 1396.74,-86 1396.74,-122"/>
<text text-anchor="middle" x="1266" y="-99.8" font-family="Times,serif" font-size="14.00">TypedEntityCandidateSidesheetComponent</text>
</g>
<!-- TypedEntityCandidateSidesheetComponent&#45;&gt;EntityModule -->
<g id="edge3" class="edge">
<title>TypedEntityCandidateSidesheetComponent&#45;&gt;EntityModule</title>
<path fill="none" stroke="black" d="M1266,-122.01C1266,-138.05 1266,-159 1266,-159 1266,-159 975.8,-159 975.8,-159"/>
<polygon fill="black" stroke="black" points="975.8,-155.5 965.8,-159 975.8,-162.5 975.8,-155.5"/>
</g>
<!-- TypedEntitySelectComponent -->
<g id="node4" class="node">
<title>TypedEntitySelectComponent</title>
<polygon fill="#ffffb3" stroke="black" points="1116.53,-122 931.47,-122 931.47,-86 1116.53,-86 1116.53,-122"/>
<text text-anchor="middle" x="1024" y="-99.8" font-family="Times,serif" font-size="14.00">TypedEntitySelectComponent</text>
</g>
<!-- TypedEntitySelectComponent&#45;&gt;EntityModule -->
<g id="edge4" class="edge">
<title>TypedEntitySelectComponent&#45;&gt;EntityModule</title>
<path fill="none" stroke="black" d="M948.56,-122.11C948.56,-122.11 948.56,-140.99 948.56,-140.99"/>
<polygon fill="black" stroke="black" points="945.06,-140.99 948.56,-150.99 952.06,-140.99 945.06,-140.99"/>
</g>
<!-- TypedEntitySelectorComponent -->
<g id="node5" class="node">
<title>TypedEntitySelectorComponent</title>
<polygon fill="#ffffb3" stroke="black" points="913.69,-122 716.31,-122 716.31,-86 913.69,-86 913.69,-122"/>
<text text-anchor="middle" x="815" y="-99.8" font-family="Times,serif" font-size="14.00">TypedEntitySelectorComponent</text>
</g>
<!-- TypedEntitySelectorComponent&#45;&gt;EntityModule -->
<g id="edge5" class="edge">
<title>TypedEntitySelectorComponent&#45;&gt;EntityModule</title>
<path fill="none" stroke="black" d="M892.85,-122.11C892.85,-122.11 892.85,-140.99 892.85,-140.99"/>
<polygon fill="black" stroke="black" points="889.35,-140.99 892.85,-150.99 896.35,-140.99 889.35,-140.99"/>
</g>
<!-- EntitySelectComponent  -->
<g id="node11" class="node">
<title>EntitySelectComponent </title>
<polygon fill="#fb8072" stroke="black" points="1090.76,-252 937.24,-252 937.24,-216 1090.76,-216 1090.76,-252"/>
<text text-anchor="middle" x="1014" y="-229.8" font-family="Times,serif" font-size="14.00">EntitySelectComponent </text>
</g>
<!-- EntityModule&#45;&gt;EntitySelectComponent  -->
<g id="edge10" class="edge">
<title>EntityModule&#45;&gt;EntitySelectComponent </title>
<path fill="none" stroke="black" stroke-dasharray="5,2" d="M951.63,-187.11C951.63,-187.11 951.63,-205.99 951.63,-205.99"/>
<polygon fill="black" stroke="black" points="948.13,-205.99 951.63,-215.99 955.13,-205.99 948.13,-205.99"/>
</g>
<!-- TypedEntitySelectComponent  -->
<g id="node12" class="node">
<title>TypedEntitySelectComponent </title>
<polygon fill="#fb8072" stroke="black" points="919.53,-252 730.47,-252 730.47,-216 919.53,-216 919.53,-252"/>
<text text-anchor="middle" x="825" y="-229.8" font-family="Times,serif" font-size="14.00">TypedEntitySelectComponent </text>
</g>
<!-- EntityModule&#45;&gt;TypedEntitySelectComponent  -->
<g id="edge11" class="edge">
<title>EntityModule&#45;&gt;TypedEntitySelectComponent </title>
<path fill="none" stroke="black" stroke-dasharray="5,2" d="M895.81,-187.11C895.81,-187.11 895.81,-205.99 895.81,-205.99"/>
<polygon fill="black" stroke="black" points="892.31,-205.99 895.81,-215.99 899.31,-205.99 892.31,-205.99"/>
</g>
<!-- DataSourceToolbarModule -->
<g id="node7" class="node">
<title>DataSourceToolbarModule</title>
<polygon fill="#8dd3c7" stroke="black" points="691.67,-122 688.67,-126 667.67,-126 664.67,-122 522.33,-122 522.33,-86 691.67,-86 691.67,-122"/>
<text text-anchor="middle" x="607" y="-99.8" font-family="Times,serif" font-size="14.00">DataSourceToolbarModule</text>
</g>
<!-- DataSourceToolbarModule&#45;&gt;EntityModule -->
<g id="edge6" class="edge">
<title>DataSourceToolbarModule&#45;&gt;EntityModule</title>
<path fill="none" stroke="black" d="M607,-122.01C607,-138.05 607,-159 607,-159 607,-159 861.95,-159 861.95,-159"/>
<polygon fill="black" stroke="black" points="861.95,-162.5 871.95,-159 861.95,-155.5 861.95,-162.5"/>
</g>
<!-- DataTableModule -->
<g id="node8" class="node">
<title>DataTableModule</title>
<polygon fill="#8dd3c7" stroke="black" points="503.85,-122 500.85,-126 479.85,-126 476.85,-122 386.15,-122 386.15,-86 503.85,-86 503.85,-122"/>
<text text-anchor="middle" x="445" y="-99.8" font-family="Times,serif" font-size="14.00">DataTableModule</text>
</g>
<!-- DataTableModule&#45;&gt;EntityModule -->
<g id="edge7" class="edge">
<title>DataTableModule&#45;&gt;EntityModule</title>
<path fill="none" stroke="black" d="M445,-122.27C445,-140.56 445,-166 445,-166 445,-166 861.82,-166 861.82,-166"/>
<polygon fill="black" stroke="black" points="861.82,-169.5 871.82,-166 861.82,-162.5 861.82,-169.5"/>
</g>
<!-- FkAdvancedPickerModule -->
<g id="node9" class="node">
<title>FkAdvancedPickerModule</title>
<polygon fill="#8dd3c7" stroke="black" points="368.35,-122 365.35,-126 344.35,-126 341.35,-122 201.65,-122 201.65,-86 368.35,-86 368.35,-122"/>
<text text-anchor="middle" x="285" y="-99.8" font-family="Times,serif" font-size="14.00">FkAdvancedPickerModule</text>
</g>
<!-- FkAdvancedPickerModule&#45;&gt;EntityModule -->
<g id="edge8" class="edge">
<title>FkAdvancedPickerModule&#45;&gt;EntityModule</title>
<path fill="none" stroke="black" d="M285,-122.13C285,-142.57 285,-173 285,-173 285,-173 862.12,-173 862.12,-173"/>
<polygon fill="black" stroke="black" points="862.12,-176.5 872.12,-173 862.12,-169.5 862.12,-176.5"/>
</g>
<!-- SelectedElementsModule -->
<g id="node10" class="node">
<title>SelectedElementsModule</title>
<polygon fill="#8dd3c7" stroke="black" points="183.57,-122 180.57,-126 159.57,-126 156.57,-122 24.43,-122 24.43,-86 183.57,-86 183.57,-122"/>
<text text-anchor="middle" x="104" y="-99.8" font-family="Times,serif" font-size="14.00">SelectedElementsModule</text>
</g>
<!-- SelectedElementsModule&#45;&gt;EntityModule -->
<g id="edge9" class="edge">
<title>SelectedElementsModule&#45;&gt;EntityModule</title>
<path fill="none" stroke="black" d="M104,-122.01C104,-144.49 104,-180 104,-180 104,-180 861.96,-180 861.96,-180"/>
<polygon fill="black" stroke="black" points="861.96,-183.5 871.96,-180 861.96,-176.5 861.96,-183.5"/>
</g>
<!-- EntityService -->
<g id="node13" class="node">
<title>EntityService</title>
<ellipse fill="#fdb462" stroke="black" cx="1833" cy="-104" rx="63.7" ry="18"/>
<text text-anchor="middle" x="1833" y="-99.8" font-family="Times,serif" font-size="14.00">EntityService</text>
</g>
<!-- EntityService&#45;&gt;EntityModule -->
<g id="edge12" class="edge">
<title>EntityService&#45;&gt;EntityModule</title>
<path fill="none" stroke="black" d="M1833,-122.01C1833,-144.49 1833,-180 1833,-180 1833,-180 975.9,-180 975.9,-180"/>
<polygon fill="black" stroke="black" points="975.9,-176.5 965.9,-180 975.9,-183.5 975.9,-176.5"/>
</g>
</g>
</svg>
