<?xml version="1.0" encoding="UTF-8" standalone="no"?>
<!DOCTYPE svg PUBLIC "-//W3C//DTD SVG 1.1//EN"
 "http://www.w3.org/Graphics/SVG/1.1/DTD/svg11.dtd">
<!-- Generated by graphviz version 2.47.0 (20210316.0004)
 -->
<!-- Title: dependencies Pages: 1 -->
<svg width="2490pt" height="211pt"
 viewBox="0.00 0.00 2490.00 211.00" xmlns="http://www.w3.org/2000/svg" xmlns:xlink="http://www.w3.org/1999/xlink">
<g id="graph0" class="graph" transform="scale(1 1) rotate(0) translate(4 207)">
<title>dependencies</title>
<polygon fill="white" stroke="transparent" points="-4,4 -4,-207 2486,-207 2486,4 -4,4"/>
<text text-anchor="start" x="1220.01" y="-42.4" font-family="Times-12" font-weight="bold" font-size="14.00">Legend</text>
<polygon fill="#ffffb3" stroke="transparent" points="1007,-10 1007,-30 1027,-30 1027,-10 1007,-10"/>
<text text-anchor="start" x="1030.63" y="-15.4" font-family="Times-12" font-size="14.00"> &#160;Declarations</text>
<polygon fill="#8dd3c7" stroke="transparent" points="1120,-10 1120,-30 1140,-30 1140,-10 1120,-10"/>
<text text-anchor="start" x="1143.73" y="-15.4" font-family="Times-12" font-size="14.00"> &#160;Module</text>
<polygon fill="#80b1d3" stroke="transparent" points="1206,-10 1206,-30 1226,-30 1226,-10 1206,-10"/>
<text text-anchor="start" x="1229.78" y="-15.4" font-family="Times-12" font-size="14.00"> &#160;Bootstrap</text>
<polygon fill="#fdb462" stroke="transparent" points="1303,-10 1303,-30 1323,-30 1323,-10 1303,-10"/>
<text text-anchor="start" x="1326.67" y="-15.4" font-family="Times-12" font-size="14.00"> &#160;Providers</text>
<polygon fill="#fb8072" stroke="transparent" points="1399,-10 1399,-30 1419,-30 1419,-10 1399,-10"/>
<text text-anchor="start" x="1422.73" y="-15.4" font-family="Times-12" font-size="14.00"> &#160;Exports</text>
<g id="clust1" class="cluster">
<title>cluster_RequestConfigModule</title>
<polygon fill="none" stroke="black" stroke-dasharray="1,5" points="8,-70 8,-195 2474,-195 2474,-70 8,-70"/>
</g>
<g id="clust2" class="cluster">
<title>cluster_RequestConfigModule_declarations</title>
<polygon fill="none" stroke="black" points="568,-78 568,-130 2466,-130 2466,-78 568,-78"/>
</g>
<g id="clust12" class="cluster">
<title>cluster_RequestConfigModule_imports</title>
<polygon fill="none" stroke="black" points="16,-78 16,-130 560,-130 560,-78 16,-78"/>
</g>
<!-- MemberSelectorComponent -->
<g id="node1" class="node">
<title>MemberSelectorComponent</title>
<polygon fill="#ffffb3" stroke="black" points="2458.13,-122 2283.87,-122 2283.87,-86 2458.13,-86 2458.13,-122"/>
<text text-anchor="middle" x="2371" y="-99.8" font-family="Times,serif" font-size="14.00">MemberSelectorComponent</text>
</g>
<!-- RequestConfigModule -->
<g id="node10" class="node">
<title>RequestConfigModule</title>
<polygon fill="#8dd3c7" stroke="black" points="1216.54,-187 1213.54,-191 1192.54,-191 1189.54,-187 1073.46,-187 1073.46,-151 1216.54,-151 1216.54,-187"/>
<text text-anchor="middle" x="1145" y="-164.8" font-family="Times,serif" font-size="14.00">RequestConfigModule</text>
</g>
<!-- MemberSelectorComponent&#45;&gt;RequestConfigModule -->
<g id="edge1" class="edge">
<title>MemberSelectorComponent&#45;&gt;RequestConfigModule</title>
<path fill="none" stroke="black" d="M2371,-122.09C2371,-145.13 2371,-182 2371,-182 2371,-182 1226.66,-182 1226.66,-182"/>
<polygon fill="black" stroke="black" points="1226.66,-178.5 1216.66,-182 1226.66,-185.5 1226.66,-178.5"/>
</g>
<!-- ReasonSidesheetComponent -->
<g id="node2" class="node">
<title>ReasonSidesheetComponent</title>
<polygon fill="#ffffb3" stroke="black" points="2266.2,-122 2089.8,-122 2089.8,-86 2266.2,-86 2266.2,-122"/>
<text text-anchor="middle" x="2178" y="-99.8" font-family="Times,serif" font-size="14.00">ReasonSidesheetComponent</text>
</g>
<!-- ReasonSidesheetComponent&#45;&gt;RequestConfigModule -->
<g id="edge2" class="edge">
<title>ReasonSidesheetComponent&#45;&gt;RequestConfigModule</title>
<path fill="none" stroke="black" d="M2178,-122.28C2178,-143.32 2178,-175 2178,-175 2178,-175 1226.82,-175 1226.82,-175"/>
<polygon fill="black" stroke="black" points="1226.82,-171.5 1216.82,-175 1226.82,-178.5 1226.82,-171.5"/>
</g>
<!-- RequestConfigMembersComponent -->
<g id="node3" class="node">
<title>RequestConfigMembersComponent</title>
<polygon fill="#ffffb3" stroke="black" points="2072.19,-122 1853.81,-122 1853.81,-86 2072.19,-86 2072.19,-122"/>
<text text-anchor="middle" x="1963" y="-99.8" font-family="Times,serif" font-size="14.00">RequestConfigMembersComponent</text>
</g>
<!-- RequestConfigMembersComponent&#45;&gt;RequestConfigModule -->
<g id="edge3" class="edge">
<title>RequestConfigMembersComponent&#45;&gt;RequestConfigModule</title>
<path fill="none" stroke="black" d="M1963,-122.11C1963,-141.34 1963,-169 1963,-169 1963,-169 1226.88,-169 1226.88,-169"/>
<polygon fill="black" stroke="black" points="1226.88,-165.5 1216.88,-169 1226.88,-172.5 1226.88,-165.5"/>
</g>
<!-- RequestConfigSidesheetComponent -->
<g id="node4" class="node">
<title>RequestConfigSidesheetComponent</title>
<polygon fill="#ffffb3" stroke="black" points="1835.47,-122 1616.53,-122 1616.53,-86 1835.47,-86 1835.47,-122"/>
<text text-anchor="middle" x="1726" y="-99.8" font-family="Times,serif" font-size="14.00">RequestConfigSidesheetComponent</text>
</g>
<!-- RequestConfigSidesheetComponent&#45;&gt;RequestConfigModule -->
<g id="edge4" class="edge">
<title>RequestConfigSidesheetComponent&#45;&gt;RequestConfigModule</title>
<path fill="none" stroke="black" d="M1726,-122.02C1726,-139.37 1726,-163 1726,-163 1726,-163 1226.82,-163 1226.82,-163"/>
<polygon fill="black" stroke="black" points="1226.82,-159.5 1216.82,-163 1226.82,-166.5 1226.82,-159.5"/>
</g>
<!-- RequestShelfEntitlementsComponent -->
<g id="node5" class="node">
<title>RequestShelfEntitlementsComponent</title>
<polygon fill="#ffffb3" stroke="black" points="1598.25,-122 1371.75,-122 1371.75,-86 1598.25,-86 1598.25,-122"/>
<text text-anchor="middle" x="1485" y="-99.8" font-family="Times,serif" font-size="14.00">RequestShelfEntitlementsComponent</text>
</g>
<!-- RequestShelfEntitlementsComponent&#45;&gt;RequestConfigModule -->
<g id="edge5" class="edge">
<title>RequestShelfEntitlementsComponent&#45;&gt;RequestConfigModule</title>
<path fill="none" stroke="black" d="M1485,-122.24C1485,-137.57 1485,-157 1485,-157 1485,-157 1226.69,-157 1226.69,-157"/>
<polygon fill="black" stroke="black" points="1226.69,-153.5 1216.69,-157 1226.69,-160.5 1226.69,-153.5"/>
</g>
<!-- RequestShelfSidesheetComponent -->
<g id="node6" class="node">
<title>RequestShelfSidesheetComponent</title>
<polygon fill="#ffffb3" stroke="black" points="1353.63,-122 1144.37,-122 1144.37,-86 1353.63,-86 1353.63,-122"/>
<text text-anchor="middle" x="1249" y="-99.8" font-family="Times,serif" font-size="14.00">RequestShelfSidesheetComponent</text>
</g>
<!-- RequestShelfSidesheetComponent&#45;&gt;RequestConfigModule -->
<g id="edge6" class="edge">
<title>RequestShelfSidesheetComponent&#45;&gt;RequestConfigModule</title>
<path fill="none" stroke="black" d="M1180.48,-122.11C1180.48,-122.11 1180.48,-140.99 1180.48,-140.99"/>
<polygon fill="black" stroke="black" points="1176.98,-140.99 1180.48,-150.99 1183.98,-140.99 1176.98,-140.99"/>
</g>
<!-- RequestShelvesComponent -->
<g id="node7" class="node">
<title>RequestShelvesComponent</title>
<polygon fill="#ffffb3" stroke="black" points="1125.98,-122 956.02,-122 956.02,-86 1125.98,-86 1125.98,-122"/>
<text text-anchor="middle" x="1041" y="-99.8" font-family="Times,serif" font-size="14.00">RequestShelvesComponent</text>
</g>
<!-- RequestShelvesComponent&#45;&gt;RequestConfigModule -->
<g id="edge7" class="edge">
<title>RequestShelvesComponent&#45;&gt;RequestConfigModule</title>
<path fill="none" stroke="black" d="M1099.61,-122.11C1099.61,-122.11 1099.61,-140.99 1099.61,-140.99"/>
<polygon fill="black" stroke="black" points="1096.11,-140.99 1099.61,-150.99 1103.11,-140.99 1096.11,-140.99"/>
</g>
<!-- RequestsComponent -->
<g id="node8" class="node">
<title>RequestsComponent</title>
<polygon fill="#ffffb3" stroke="black" points="937.88,-122 806.12,-122 806.12,-86 937.88,-86 937.88,-122"/>
<text text-anchor="middle" x="872" y="-99.8" font-family="Times,serif" font-size="14.00">RequestsComponent</text>
</g>
<!-- RequestsComponent&#45;&gt;RequestConfigModule -->
<g id="edge8" class="edge">
<title>RequestsComponent&#45;&gt;RequestConfigModule</title>
<path fill="none" stroke="black" d="M872,-122.24C872,-137.57 872,-157 872,-157 872,-157 1063.27,-157 1063.27,-157"/>
<polygon fill="black" stroke="black" points="1063.27,-160.5 1073.27,-157 1063.27,-153.5 1063.27,-160.5"/>
</g>
<!-- RequestsEntitySelectorComponent -->
<g id="node9" class="node">
<title>RequestsEntitySelectorComponent</title>
<polygon fill="#ffffb3" stroke="black" points="787.97,-122 576.03,-122 576.03,-86 787.97,-86 787.97,-122"/>
<text text-anchor="middle" x="682" y="-99.8" font-family="Times,serif" font-size="14.00">RequestsEntitySelectorComponent</text>
</g>
<!-- RequestsEntitySelectorComponent&#45;&gt;RequestConfigModule -->
<g id="edge9" class="edge">
<title>RequestsEntitySelectorComponent&#45;&gt;RequestConfigModule</title>
<path fill="none" stroke="black" d="M682,-122.02C682,-139.37 682,-163 682,-163 682,-163 1063.42,-163 1063.42,-163"/>
<polygon fill="black" stroke="black" points="1063.42,-166.5 1073.42,-163 1063.42,-159.5 1063.42,-166.5"/>
</g>
<!-- DynamicExclusionDialogModule -->
<g id="node11" class="node">
<title>DynamicExclusionDialogModule</title>
<polygon fill="#8dd3c7" stroke="black" points="552.46,-122 549.46,-126 528.46,-126 525.46,-122 347.54,-122 347.54,-86 552.46,-86 552.46,-122"/>
<text text-anchor="middle" x="450" y="-99.8" font-family="Times,serif" font-size="14.00">DynamicExclusionDialogModule</text>
</g>
<!-- DynamicExclusionDialogModule&#45;&gt;RequestConfigModule -->
<g id="edge10" class="edge">
<title>DynamicExclusionDialogModule&#45;&gt;RequestConfigModule</title>
<path fill="none" stroke="black" d="M450,-122.11C450,-141.34 450,-169 450,-169 450,-169 1063.24,-169 1063.24,-169"/>
<polygon fill="black" stroke="black" points="1063.24,-172.5 1073.24,-169 1063.24,-165.5 1063.24,-172.5"/>
</g>
<!-- JustificationModule -->
<g id="node12" class="node">
<title>JustificationModule</title>
<polygon fill="#8dd3c7" stroke="black" points="329.98,-122 326.98,-126 305.98,-126 302.98,-122 202.02,-122 202.02,-86 329.98,-86 329.98,-122"/>
<text text-anchor="middle" x="266" y="-99.8" font-family="Times,serif" font-size="14.00">JustificationModule</text>
</g>
<!-- JustificationModule&#45;&gt;RequestConfigModule -->
<g id="edge11" class="edge">
<title>JustificationModule&#45;&gt;RequestConfigModule</title>
<path fill="none" stroke="black" d="M266,-122.28C266,-143.32 266,-175 266,-175 266,-175 1063.44,-175 1063.44,-175"/>
<polygon fill="black" stroke="black" points="1063.44,-178.5 1073.44,-175 1063.44,-171.5 1063.44,-178.5"/>
</g>
<!-- ObjectHyperviewModule -->
<g id="node13" class="node">
<title>ObjectHyperviewModule</title>
<polygon fill="#8dd3c7" stroke="black" points="183.56,-122 180.56,-126 159.56,-126 156.56,-122 24.44,-122 24.44,-86 183.56,-86 183.56,-122"/>
<text text-anchor="middle" x="104" y="-99.8" font-family="Times,serif" font-size="14.00">ObjectHyperviewModule</text>
</g>
<!-- ObjectHyperviewModule&#45;&gt;RequestConfigModule -->
<g id="edge12" class="edge">
<title>ObjectHyperviewModule&#45;&gt;RequestConfigModule</title>
<path fill="none" stroke="black" d="M104,-122.09C104,-145.13 104,-182 104,-182 104,-182 1063.45,-182 1063.45,-182"/>
<polygon fill="black" stroke="black" points="1063.45,-185.5 1073.45,-182 1063.45,-178.5 1063.45,-185.5"/>
</g>
</g>
</svg>
