<?xml version="1.0" encoding="UTF-8" standalone="no"?>
<!DOCTYPE svg PUBLIC "-//W3C//DTD SVG 1.1//EN"
 "http://www.w3.org/Graphics/SVG/1.1/DTD/svg11.dtd">
<!-- Generated by graphviz version 2.47.0 (20210316.0004)
 -->
<!-- Title: dependencies Pages: 1 -->
<svg width="738pt" height="284pt"
 viewBox="0.00 0.00 738.00 284.00" xmlns="http://www.w3.org/2000/svg" xmlns:xlink="http://www.w3.org/1999/xlink">
<g id="graph0" class="graph" transform="scale(1 1) rotate(0) translate(4 280)">
<title>dependencies</title>
<polygon fill="white" stroke="transparent" points="-4,4 -4,-280 734,-280 734,4 -4,4"/>
<text text-anchor="start" x="344.01" y="-42.4" font-family="Times-12" font-weight="bold" font-size="14.00">Legend</text>
<polygon fill="#ffffb3" stroke="transparent" points="131,-10 131,-30 151,-30 151,-10 131,-10"/>
<text text-anchor="start" x="154.63" y="-15.4" font-family="Times-12" font-size="14.00"> &#160;Declarations</text>
<polygon fill="#8dd3c7" stroke="transparent" points="244,-10 244,-30 264,-30 264,-10 244,-10"/>
<text text-anchor="start" x="267.73" y="-15.4" font-family="Times-12" font-size="14.00"> &#160;Module</text>
<polygon fill="#80b1d3" stroke="transparent" points="330,-10 330,-30 350,-30 350,-10 330,-10"/>
<text text-anchor="start" x="353.78" y="-15.4" font-family="Times-12" font-size="14.00"> &#160;Bootstrap</text>
<polygon fill="#fdb462" stroke="transparent" points="427,-10 427,-30 447,-30 447,-10 427,-10"/>
<text text-anchor="start" x="450.67" y="-15.4" font-family="Times-12" font-size="14.00"> &#160;Providers</text>
<polygon fill="#fb8072" stroke="transparent" points="523,-10 523,-30 543,-30 543,-10 523,-10"/>
<text text-anchor="start" x="546.73" y="-15.4" font-family="Times-12" font-size="14.00"> &#160;Exports</text>
<g id="clust1" class="cluster">
<title>cluster_SelectedElementsModule</title>
<polygon fill="none" stroke="black" stroke-dasharray="1,5" points="8,-70 8,-268 722,-268 722,-70 8,-70"/>
</g>
<g id="clust5" class="cluster">
<title>cluster_SelectedElementsModule_imports</title>
<polygon fill="none" stroke="black" points="392,-78 392,-130 714,-130 714,-78 392,-78"/>
</g>
<g id="clust6" class="cluster">
<title>cluster_SelectedElementsModule_exports</title>
<polygon fill="none" stroke="black" points="272,-208 272,-260 472,-260 472,-208 272,-208"/>
</g>
<g id="clust2" class="cluster">
<title>cluster_SelectedElementsModule_declarations</title>
<polygon fill="none" stroke="black" points="16,-78 16,-130 384,-130 384,-78 16,-78"/>
</g>
<!-- SelectedElementsComponent -->
<g id="node1" class="node">
<title>SelectedElementsComponent</title>
<polygon fill="#ffffb3" stroke="black" points="376.35,-122 195.65,-122 195.65,-86 376.35,-86 376.35,-122"/>
<text text-anchor="middle" x="286" y="-99.8" font-family="Times,serif" font-size="14.00">SelectedElementsComponent</text>
</g>
<!-- SelectedElementsModule -->
<g id="node3" class="node">
<title>SelectedElementsModule</title>
<polygon fill="#8dd3c7" stroke="black" points="451.57,-187 448.57,-191 427.57,-191 424.57,-187 292.43,-187 292.43,-151 451.57,-151 451.57,-187"/>
<text text-anchor="middle" x="372" y="-164.8" font-family="Times,serif" font-size="14.00">SelectedElementsModule</text>
</g>
<!-- SelectedElementsComponent&#45;&gt;SelectedElementsModule -->
<g id="edge1" class="edge">
<title>SelectedElementsComponent&#45;&gt;SelectedElementsModule</title>
<path fill="none" stroke="black" d="M334.45,-122.11C334.45,-122.11 334.45,-140.99 334.45,-140.99"/>
<polygon fill="black" stroke="black" points="330.95,-140.99 334.45,-150.99 337.95,-140.99 330.95,-140.99"/>
</g>
<!-- SelectedElementsDialog -->
<g id="node2" class="node">
<title>SelectedElementsDialog</title>
<polygon fill="#ffffb3" stroke="black" points="177.62,-122 24.38,-122 24.38,-86 177.62,-86 177.62,-122"/>
<text text-anchor="middle" x="101" y="-99.8" font-family="Times,serif" font-size="14.00">SelectedElementsDialog</text>
</g>
<!-- SelectedElementsDialog&#45;&gt;SelectedElementsModule -->
<g id="edge2" class="edge">
<title>SelectedElementsDialog&#45;&gt;SelectedElementsModule</title>
<path fill="none" stroke="black" d="M101,-122.11C101,-141.34 101,-169 101,-169 101,-169 282.16,-169 282.16,-169"/>
<polygon fill="black" stroke="black" points="282.16,-172.5 292.16,-169 282.16,-165.5 282.16,-172.5"/>
</g>
<!-- SelectedElementsComponent  -->
<g id="node6" class="node">
<title>SelectedElementsComponent </title>
<polygon fill="#fb8072" stroke="black" points="464.35,-252 279.65,-252 279.65,-216 464.35,-216 464.35,-252"/>
<text text-anchor="middle" x="372" y="-229.8" font-family="Times,serif" font-size="14.00">SelectedElementsComponent </text>
</g>
<!-- SelectedElementsModule&#45;&gt;SelectedElementsComponent  -->
<g id="edge5" class="edge">
<title>SelectedElementsModule&#45;&gt;SelectedElementsComponent </title>
<path fill="none" stroke="black" stroke-dasharray="5,2" d="M372,-187.11C372,-187.11 372,-205.99 372,-205.99"/>
<polygon fill="black" stroke="black" points="368.5,-205.99 372,-215.99 375.5,-205.99 368.5,-205.99"/>
</g>
<!-- DataSourceToolbarModule -->
<g id="node4" class="node">
<title>DataSourceToolbarModule</title>
<polygon fill="#8dd3c7" stroke="black" points="705.67,-122 702.67,-126 681.67,-126 678.67,-122 536.33,-122 536.33,-86 705.67,-86 705.67,-122"/>
<text text-anchor="middle" x="621" y="-99.8" font-family="Times,serif" font-size="14.00">DataSourceToolbarModule</text>
</g>
<!-- DataSourceToolbarModule&#45;&gt;SelectedElementsModule -->
<g id="edge3" class="edge">
<title>DataSourceToolbarModule&#45;&gt;SelectedElementsModule</title>
<path fill="none" stroke="black" d="M621,-122.11C621,-141.34 621,-169 621,-169 621,-169 461.81,-169 461.81,-169"/>
<polygon fill="black" stroke="black" points="461.81,-165.5 451.81,-169 461.81,-172.5 461.81,-165.5"/>
</g>
<!-- DataTableModule -->
<g id="node5" class="node">
<title>DataTableModule</title>
<polygon fill="#8dd3c7" stroke="black" points="517.85,-122 514.85,-126 493.85,-126 490.85,-122 400.15,-122 400.15,-86 517.85,-86 517.85,-122"/>
<text text-anchor="middle" x="459" y="-99.8" font-family="Times,serif" font-size="14.00">DataTableModule</text>
</g>
<!-- DataTableModule&#45;&gt;SelectedElementsModule -->
<g id="edge4" class="edge">
<title>DataTableModule&#45;&gt;SelectedElementsModule</title>
<path fill="none" stroke="black" d="M425.81,-122.11C425.81,-122.11 425.81,-140.99 425.81,-140.99"/>
<polygon fill="black" stroke="black" points="422.31,-140.99 425.81,-150.99 429.31,-140.99 422.31,-140.99"/>
</g>
</g>
</svg>
