<?xml version="1.0" encoding="UTF-8" standalone="no"?>
<!DOCTYPE svg PUBLIC "-//W3C//DTD SVG 1.1//EN"
 "http://www.w3.org/Graphics/SVG/1.1/DTD/svg11.dtd">
<!-- Generated by graphviz version 2.47.0 (20210316.0004)
 -->
<!-- Title: dependencies Pages: 1 -->
<svg width="643pt" height="284pt"
 viewBox="0.00 0.00 643.00 284.00" xmlns="http://www.w3.org/2000/svg" xmlns:xlink="http://www.w3.org/1999/xlink">
<g id="graph0" class="graph" transform="scale(1 1) rotate(0) translate(4 280)">
<title>dependencies</title>
<polygon fill="white" stroke="transparent" points="-4,4 -4,-280 639,-280 639,4 -4,4"/>
<text text-anchor="start" x="296.51" y="-42.4" font-family="Times-12" font-weight="bold" font-size="14.00">Legend</text>
<polygon fill="#ffffb3" stroke="transparent" points="83.5,-10 83.5,-30 103.5,-30 103.5,-10 83.5,-10"/>
<text text-anchor="start" x="107.13" y="-15.4" font-family="Times-12" font-size="14.00"> &#160;Declarations</text>
<polygon fill="#8dd3c7" stroke="transparent" points="196.5,-10 196.5,-30 216.5,-30 216.5,-10 196.5,-10"/>
<text text-anchor="start" x="220.23" y="-15.4" font-family="Times-12" font-size="14.00"> &#160;Module</text>
<polygon fill="#80b1d3" stroke="transparent" points="282.5,-10 282.5,-30 302.5,-30 302.5,-10 282.5,-10"/>
<text text-anchor="start" x="306.28" y="-15.4" font-family="Times-12" font-size="14.00"> &#160;Bootstrap</text>
<polygon fill="#fdb462" stroke="transparent" points="379.5,-10 379.5,-30 399.5,-30 399.5,-10 379.5,-10"/>
<text text-anchor="start" x="403.17" y="-15.4" font-family="Times-12" font-size="14.00"> &#160;Providers</text>
<polygon fill="#fb8072" stroke="transparent" points="475.5,-10 475.5,-30 495.5,-30 495.5,-10 475.5,-10"/>
<text text-anchor="start" x="499.23" y="-15.4" font-family="Times-12" font-size="14.00"> &#160;Exports</text>
<g id="clust1" class="cluster">
<title>cluster_ViewDevicesModule</title>
<polygon fill="none" stroke="black" stroke-dasharray="1,5" points="8,-70 8,-268 627,-268 627,-70 8,-70"/>
</g>
<g id="clust2" class="cluster">
<title>cluster_ViewDevicesModule_declarations</title>
<polygon fill="none" stroke="black" points="16,-78 16,-130 619,-130 619,-78 16,-78"/>
</g>
<g id="clust7" class="cluster">
<title>cluster_ViewDevicesModule_exports</title>
<polygon fill="none" stroke="black" points="243,-208 243,-260 419,-260 419,-208 243,-208"/>
</g>
<!-- CreateNewDeviceComponent -->
<g id="node1" class="node">
<title>CreateNewDeviceComponent</title>
<polygon fill="#ffffb3" stroke="black" points="610.93,-122 427.07,-122 427.07,-86 610.93,-86 610.93,-122"/>
<text text-anchor="middle" x="519" y="-99.8" font-family="Times,serif" font-size="14.00">CreateNewDeviceComponent</text>
</g>
<!-- ViewDevicesModule -->
<g id="node4" class="node">
<title>ViewDevicesModule</title>
<polygon fill="#8dd3c7" stroke="black" points="398.45,-187 395.45,-191 374.45,-191 371.45,-187 263.55,-187 263.55,-151 398.45,-151 398.45,-187"/>
<text text-anchor="middle" x="331" y="-164.8" font-family="Times,serif" font-size="14.00">ViewDevicesModule</text>
</g>
<!-- CreateNewDeviceComponent&#45;&gt;ViewDevicesModule -->
<g id="edge1" class="edge">
<title>CreateNewDeviceComponent&#45;&gt;ViewDevicesModule</title>
<path fill="none" stroke="black" d="M519,-122.11C519,-141.34 519,-169 519,-169 519,-169 408.61,-169 408.61,-169"/>
<polygon fill="black" stroke="black" points="408.61,-165.5 398.61,-169 408.61,-172.5 408.61,-165.5"/>
</g>
<!-- ViewDevicesComponent -->
<g id="node2" class="node">
<title>ViewDevicesComponent</title>
<polygon fill="#ffffb3" stroke="black" points="409.24,-122 252.76,-122 252.76,-86 409.24,-86 409.24,-122"/>
<text text-anchor="middle" x="331" y="-99.8" font-family="Times,serif" font-size="14.00">ViewDevicesComponent</text>
</g>
<!-- ViewDevicesComponent&#45;&gt;ViewDevicesModule -->
<g id="edge2" class="edge">
<title>ViewDevicesComponent&#45;&gt;ViewDevicesModule</title>
<path fill="none" stroke="black" d="M331,-122.11C331,-122.11 331,-140.99 331,-140.99"/>
<polygon fill="black" stroke="black" points="327.5,-140.99 331,-150.99 334.5,-140.99 327.5,-140.99"/>
</g>
<!-- ViewDevicesSidesheetComponent -->
<g id="node3" class="node">
<title>ViewDevicesSidesheetComponent</title>
<polygon fill="#ffffb3" stroke="black" points="234.39,-122 23.61,-122 23.61,-86 234.39,-86 234.39,-122"/>
<text text-anchor="middle" x="129" y="-99.8" font-family="Times,serif" font-size="14.00">ViewDevicesSidesheetComponent</text>
</g>
<!-- ViewDevicesSidesheetComponent&#45;&gt;ViewDevicesModule -->
<g id="edge3" class="edge">
<title>ViewDevicesSidesheetComponent&#45;&gt;ViewDevicesModule</title>
<path fill="none" stroke="black" d="M129,-122.11C129,-141.34 129,-169 129,-169 129,-169 253.46,-169 253.46,-169"/>
<polygon fill="black" stroke="black" points="253.46,-172.5 263.46,-169 253.46,-165.5 253.46,-172.5"/>
</g>
<!-- ViewDevicesComponent  -->
<g id="node5" class="node">
<title>ViewDevicesComponent </title>
<polygon fill="#fb8072" stroke="black" points="411.24,-252 250.76,-252 250.76,-216 411.24,-216 411.24,-252"/>
<text text-anchor="middle" x="331" y="-229.8" font-family="Times,serif" font-size="14.00">ViewDevicesComponent </text>
</g>
<!-- ViewDevicesModule&#45;&gt;ViewDevicesComponent  -->
<g id="edge4" class="edge">
<title>ViewDevicesModule&#45;&gt;ViewDevicesComponent </title>
<path fill="none" stroke="black" stroke-dasharray="5,2" d="M331,-187.11C331,-187.11 331,-205.99 331,-205.99"/>
<polygon fill="black" stroke="black" points="327.5,-205.99 331,-215.99 334.5,-205.99 327.5,-205.99"/>
</g>
</g>
</svg>
