<?xml version="1.0" encoding="UTF-8" standalone="no"?>
<!DOCTYPE svg PUBLIC "-//W3C//DTD SVG 1.1//EN"
 "http://www.w3.org/Graphics/SVG/1.1/DTD/svg11.dtd">
<!-- Generated by graphviz version 2.47.0 (20210316.0004)
 -->
<!-- Title: dependencies Pages: 1 -->
<svg width="504pt" height="284pt"
 viewBox="0.00 0.00 504.00 284.00" xmlns="http://www.w3.org/2000/svg" xmlns:xlink="http://www.w3.org/1999/xlink">
<g id="graph0" class="graph" transform="scale(1 1) rotate(0) translate(4 280)">
<title>dependencies</title>
<polygon fill="white" stroke="transparent" points="-4,4 -4,-280 500,-280 500,4 -4,4"/>
<text text-anchor="start" x="227.01" y="-42.4" font-family="Times-12" font-weight="bold" font-size="14.00">Legend</text>
<polygon fill="#ffffb3" stroke="transparent" points="14,-10 14,-30 34,-30 34,-10 14,-10"/>
<text text-anchor="start" x="37.63" y="-15.4" font-family="Times-12" font-size="14.00"> &#160;Declarations</text>
<polygon fill="#8dd3c7" stroke="transparent" points="127,-10 127,-30 147,-30 147,-10 127,-10"/>
<text text-anchor="start" x="150.73" y="-15.4" font-family="Times-12" font-size="14.00"> &#160;Module</text>
<polygon fill="#80b1d3" stroke="transparent" points="213,-10 213,-30 233,-30 233,-10 213,-10"/>
<text text-anchor="start" x="236.78" y="-15.4" font-family="Times-12" font-size="14.00"> &#160;Bootstrap</text>
<polygon fill="#fdb462" stroke="transparent" points="310,-10 310,-30 330,-30 330,-10 310,-10"/>
<text text-anchor="start" x="333.67" y="-15.4" font-family="Times-12" font-size="14.00"> &#160;Providers</text>
<polygon fill="#fb8072" stroke="transparent" points="406,-10 406,-30 426,-30 426,-10 406,-10"/>
<text text-anchor="start" x="429.73" y="-15.4" font-family="Times-12" font-size="14.00"> &#160;Exports</text>
<g id="clust1" class="cluster">
<title>cluster_SidenavTreeModule</title>
<polygon fill="none" stroke="black" stroke-dasharray="1,5" points="59,-70 59,-268 437,-268 437,-70 59,-70"/>
</g>
<g id="clust5" class="cluster">
<title>cluster_SidenavTreeModule_exports</title>
<polygon fill="none" stroke="black" points="158,-208 158,-260 330,-260 330,-208 158,-208"/>
</g>
<g id="clust4" class="cluster">
<title>cluster_SidenavTreeModule_imports</title>
<polygon fill="none" stroke="black" points="243,-78 243,-130 429,-130 429,-78 243,-78"/>
</g>
<g id="clust2" class="cluster">
<title>cluster_SidenavTreeModule_declarations</title>
<polygon fill="none" stroke="black" points="67,-78 67,-130 235,-130 235,-78 67,-78"/>
</g>
<!-- SidenavTreeComponent -->
<g id="node1" class="node">
<title>SidenavTreeComponent</title>
<polygon fill="#ffffb3" stroke="black" points="227.08,-122 74.92,-122 74.92,-86 227.08,-86 227.08,-122"/>
<text text-anchor="middle" x="151" y="-99.8" font-family="Times,serif" font-size="14.00">SidenavTreeComponent</text>
</g>
<!-- SidenavTreeModule -->
<g id="node2" class="node">
<title>SidenavTreeModule</title>
<polygon fill="#8dd3c7" stroke="black" points="309.29,-187 306.29,-191 285.29,-191 282.29,-187 178.71,-187 178.71,-151 309.29,-151 309.29,-187"/>
<text text-anchor="middle" x="244" y="-164.8" font-family="Times,serif" font-size="14.00">SidenavTreeModule</text>
</g>
<!-- SidenavTreeComponent&#45;&gt;SidenavTreeModule -->
<g id="edge1" class="edge">
<title>SidenavTreeComponent&#45;&gt;SidenavTreeModule</title>
<path fill="none" stroke="black" d="M202.95,-122.11C202.95,-122.11 202.95,-140.99 202.95,-140.99"/>
<polygon fill="black" stroke="black" points="199.45,-140.99 202.95,-150.99 206.45,-140.99 199.45,-140.99"/>
</g>
<!-- SidenavTreeComponent  -->
<g id="node4" class="node">
<title>SidenavTreeComponent </title>
<polygon fill="#fb8072" stroke="black" points="321.58,-252 166.42,-252 166.42,-216 321.58,-216 321.58,-252"/>
<text text-anchor="middle" x="244" y="-229.8" font-family="Times,serif" font-size="14.00">SidenavTreeComponent </text>
</g>
<!-- SidenavTreeModule&#45;&gt;SidenavTreeComponent  -->
<g id="edge3" class="edge">
<title>SidenavTreeModule&#45;&gt;SidenavTreeComponent </title>
<path fill="none" stroke="black" stroke-dasharray="5,2" d="M244,-187.11C244,-187.11 244,-205.99 244,-205.99"/>
<polygon fill="black" stroke="black" points="240.5,-205.99 244,-215.99 247.5,-205.99 240.5,-205.99"/>
</g>
<!-- DataSourceToolbarModule -->
<g id="node3" class="node">
<title>DataSourceToolbarModule</title>
<polygon fill="#8dd3c7" stroke="black" points="420.67,-122 417.67,-126 396.67,-126 393.67,-122 251.33,-122 251.33,-86 420.67,-86 420.67,-122"/>
<text text-anchor="middle" x="336" y="-99.8" font-family="Times,serif" font-size="14.00">DataSourceToolbarModule</text>
</g>
<!-- DataSourceToolbarModule&#45;&gt;SidenavTreeModule -->
<g id="edge2" class="edge">
<title>DataSourceToolbarModule&#45;&gt;SidenavTreeModule</title>
<path fill="none" stroke="black" d="M280.28,-122.11C280.28,-122.11 280.28,-140.99 280.28,-140.99"/>
<polygon fill="black" stroke="black" points="276.78,-140.99 280.28,-150.99 283.78,-140.99 276.78,-140.99"/>
</g>
</g>
</svg>
