<?xml version="1.0" encoding="UTF-8" standalone="no"?>
<!DOCTYPE svg PUBLIC "-//W3C//DTD SVG 1.1//EN"
 "http://www.w3.org/Graphics/SVG/1.1/DTD/svg11.dtd">
<!-- Generated by graphviz version 2.47.0 (20210316.0004)
 -->
<!-- Title: dependencies Pages: 1 -->
<svg width="518pt" height="211pt"
 viewBox="0.00 0.00 518.00 211.00" xmlns="http://www.w3.org/2000/svg" xmlns:xlink="http://www.w3.org/1999/xlink">
<g id="graph0" class="graph" transform="scale(1 1) rotate(0) translate(4 207)">
<title>dependencies</title>
<polygon fill="white" stroke="transparent" points="-4,4 -4,-207 514,-207 514,4 -4,4"/>
<text text-anchor="start" x="234.01" y="-42.4" font-family="Times-12" font-weight="bold" font-size="14.00">Legend</text>
<polygon fill="#ffffb3" stroke="transparent" points="21,-10 21,-30 41,-30 41,-10 21,-10"/>
<text text-anchor="start" x="44.63" y="-15.4" font-family="Times-12" font-size="14.00"> &#160;Declarations</text>
<polygon fill="#8dd3c7" stroke="transparent" points="134,-10 134,-30 154,-30 154,-10 134,-10"/>
<text text-anchor="start" x="157.73" y="-15.4" font-family="Times-12" font-size="14.00"> &#160;Module</text>
<polygon fill="#80b1d3" stroke="transparent" points="220,-10 220,-30 240,-30 240,-10 220,-10"/>
<text text-anchor="start" x="243.78" y="-15.4" font-family="Times-12" font-size="14.00"> &#160;Bootstrap</text>
<polygon fill="#fdb462" stroke="transparent" points="317,-10 317,-30 337,-30 337,-10 317,-10"/>
<text text-anchor="start" x="340.67" y="-15.4" font-family="Times-12" font-size="14.00"> &#160;Providers</text>
<polygon fill="#fb8072" stroke="transparent" points="413,-10 413,-30 433,-30 433,-10 413,-10"/>
<text text-anchor="start" x="436.73" y="-15.4" font-family="Times-12" font-size="14.00"> &#160;Exports</text>
<g id="clust1" class="cluster">
<title>cluster_DataExplorerViewModule</title>
<polygon fill="none" stroke="black" stroke-dasharray="1,5" points="8,-70 8,-195 502,-195 502,-70 8,-70"/>
</g>
<g id="clust2" class="cluster">
<title>cluster_DataExplorerViewModule_declarations</title>
<polygon fill="none" stroke="black" points="290,-78 290,-130 494,-130 494,-78 290,-78"/>
</g>
<g id="clust7" class="cluster">
<title>cluster_DataExplorerViewModule_providers</title>
<polygon fill="none" stroke="black" points="16,-78 16,-130 282,-130 282,-78 16,-78"/>
</g>
<!-- DataExplorerViewComponent -->
<g id="node1" class="node">
<title>DataExplorerViewComponent</title>
<polygon fill="#ffffb3" stroke="black" points="485.56,-122 298.44,-122 298.44,-86 485.56,-86 485.56,-122"/>
<text text-anchor="middle" x="392" y="-99.8" font-family="Times,serif" font-size="14.00">DataExplorerViewComponent</text>
</g>
<!-- DataExplorerViewModule -->
<g id="node2" class="node">
<title>DataExplorerViewModule</title>
<polygon fill="#8dd3c7" stroke="black" points="352.77,-187 349.77,-191 328.77,-191 325.77,-187 187.23,-187 187.23,-151 352.77,-151 352.77,-187"/>
<text text-anchor="middle" x="270" y="-164.8" font-family="Times,serif" font-size="14.00">DataExplorerViewModule</text>
</g>
<!-- DataExplorerViewComponent&#45;&gt;DataExplorerViewModule -->
<g id="edge1" class="edge">
<title>DataExplorerViewComponent&#45;&gt;DataExplorerViewModule</title>
<path fill="none" stroke="black" d="M325.55,-122.11C325.55,-122.11 325.55,-140.99 325.55,-140.99"/>
<polygon fill="black" stroke="black" points="322.05,-140.99 325.55,-150.99 329.05,-140.99 322.05,-140.99"/>
</g>
<!-- DataExplorerRegistryService -->
<g id="node3" class="node">
<title>DataExplorerRegistryService</title>
<ellipse fill="#fdb462" stroke="black" cx="149" cy="-104" rx="124.95" ry="18"/>
<text text-anchor="middle" x="149" y="-99.8" font-family="Times,serif" font-size="14.00">DataExplorerRegistryService</text>
</g>
<!-- DataExplorerRegistryService&#45;&gt;DataExplorerViewModule -->
<g id="edge2" class="edge">
<title>DataExplorerRegistryService&#45;&gt;DataExplorerViewModule</title>
<path fill="none" stroke="black" d="M230.54,-117.78C230.54,-117.78 230.54,-140.55 230.54,-140.55"/>
<polygon fill="black" stroke="black" points="227.05,-140.55 230.54,-150.55 234.05,-140.55 227.05,-140.55"/>
</g>
</g>
</svg>
