<?xml version="1.0" encoding="UTF-8" standalone="no"?>
<!DOCTYPE svg PUBLIC "-//W3C//DTD SVG 1.1//EN"
 "http://www.w3.org/Graphics/SVG/1.1/DTD/svg11.dtd">
<!-- Generated by graphviz version 2.47.0 (20210316.0004)
 -->
<!-- Title: dependencies Pages: 1 -->
<svg width="1452pt" height="284pt"
 viewBox="0.00 0.00 1452.00 284.00" xmlns="http://www.w3.org/2000/svg" xmlns:xlink="http://www.w3.org/1999/xlink">
<g id="graph0" class="graph" transform="scale(1 1) rotate(0) translate(4 280)">
<title>dependencies</title>
<polygon fill="white" stroke="transparent" points="-4,4 -4,-280 1448,-280 1448,4 -4,4"/>
<text text-anchor="start" x="701.01" y="-42.4" font-family="Times-12" font-weight="bold" font-size="14.00">Legend</text>
<polygon fill="#ffffb3" stroke="transparent" points="488,-10 488,-30 508,-30 508,-10 488,-10"/>
<text text-anchor="start" x="511.63" y="-15.4" font-family="Times-12" font-size="14.00"> &#160;Declarations</text>
<polygon fill="#8dd3c7" stroke="transparent" points="601,-10 601,-30 621,-30 621,-10 601,-10"/>
<text text-anchor="start" x="624.73" y="-15.4" font-family="Times-12" font-size="14.00"> &#160;Module</text>
<polygon fill="#80b1d3" stroke="transparent" points="687,-10 687,-30 707,-30 707,-10 687,-10"/>
<text text-anchor="start" x="710.78" y="-15.4" font-family="Times-12" font-size="14.00"> &#160;Bootstrap</text>
<polygon fill="#fdb462" stroke="transparent" points="784,-10 784,-30 804,-30 804,-10 784,-10"/>
<text text-anchor="start" x="807.67" y="-15.4" font-family="Times-12" font-size="14.00"> &#160;Providers</text>
<polygon fill="#fb8072" stroke="transparent" points="880,-10 880,-30 900,-30 900,-10 880,-10"/>
<text text-anchor="start" x="903.73" y="-15.4" font-family="Times-12" font-size="14.00"> &#160;Exports</text>
<g id="clust1" class="cluster">
<title>cluster_ItshopModule</title>
<polygon fill="none" stroke="black" stroke-dasharray="1,5" points="8,-70 8,-268 1436,-268 1436,-70 8,-70"/>
</g>
<g id="clust2" class="cluster">
<title>cluster_ItshopModule_declarations</title>
<polygon fill="none" stroke="black" points="307,-78 307,-130 1428,-130 1428,-78 307,-78"/>
</g>
<g id="clust10" class="cluster">
<title>cluster_ItshopModule_exports</title>
<polygon fill="none" stroke="black" points="390,-208 390,-260 927,-260 927,-208 390,-208"/>
</g>
<g id="clust12" class="cluster">
<title>cluster_ItshopModule_providers</title>
<polygon fill="none" stroke="black" points="16,-78 16,-130 299,-130 299,-78 16,-78"/>
</g>
<!-- DecisionHistoryComponent -->
<g id="node1" class="node">
<title>DecisionHistoryComponent</title>
<polygon fill="#ffffb3" stroke="black" points="1419.59,-122 1246.41,-122 1246.41,-86 1419.59,-86 1419.59,-122"/>
<text text-anchor="middle" x="1333" y="-99.8" font-family="Times,serif" font-size="14.00">DecisionHistoryComponent</text>
</g>
<!-- ItshopModule -->
<g id="node7" class="node">
<title>ItshopModule</title>
<polygon fill="#8dd3c7" stroke="black" points="726.05,-187 723.05,-191 702.05,-191 699.05,-187 631.95,-187 631.95,-151 726.05,-151 726.05,-187"/>
<text text-anchor="middle" x="679" y="-164.8" font-family="Times,serif" font-size="14.00">ItshopModule</text>
</g>
<!-- DecisionHistoryComponent&#45;&gt;ItshopModule -->
<g id="edge1" class="edge">
<title>DecisionHistoryComponent&#45;&gt;ItshopModule</title>
<path fill="none" stroke="black" d="M1333,-122.13C1333,-142.57 1333,-173 1333,-173 1333,-173 736.3,-173 736.3,-173"/>
<polygon fill="black" stroke="black" points="736.3,-169.5 726.3,-173 736.3,-176.5 736.3,-169.5"/>
</g>
<!-- NonRequestableItemsComponent -->
<g id="node2" class="node">
<title>NonRequestableItemsComponent</title>
<polygon fill="#ffffb3" stroke="black" points="1228.46,-122 1023.54,-122 1023.54,-86 1228.46,-86 1228.46,-122"/>
<text text-anchor="middle" x="1126" y="-99.8" font-family="Times,serif" font-size="14.00">NonRequestableItemsComponent</text>
</g>
<!-- NonRequestableItemsComponent&#45;&gt;ItshopModule -->
<g id="edge2" class="edge">
<title>NonRequestableItemsComponent&#45;&gt;ItshopModule</title>
<path fill="none" stroke="black" d="M1126,-122.27C1126,-140.56 1126,-166 1126,-166 1126,-166 736.41,-166 736.41,-166"/>
<polygon fill="black" stroke="black" points="736.41,-162.5 726.41,-166 736.41,-169.5 736.41,-162.5"/>
</g>
<!-- PeerGroupComponent -->
<g id="node3" class="node">
<title>PeerGroupComponent</title>
<polygon fill="#ffffb3" stroke="black" points="1005.97,-122 864.03,-122 864.03,-86 1005.97,-86 1005.97,-122"/>
<text text-anchor="middle" x="935" y="-99.8" font-family="Times,serif" font-size="14.00">PeerGroupComponent</text>
</g>
<!-- PeerGroupComponent&#45;&gt;ItshopModule -->
<g id="edge3" class="edge">
<title>PeerGroupComponent&#45;&gt;ItshopModule</title>
<path fill="none" stroke="black" d="M891.38,-122.01C891.38,-138.05 891.38,-159 891.38,-159 891.38,-159 736.13,-159 736.13,-159"/>
<polygon fill="black" stroke="black" points="736.13,-155.5 726.13,-159 736.13,-162.5 736.13,-155.5"/>
</g>
<!-- RequestInfoComponent -->
<g id="node4" class="node">
<title>RequestInfoComponent</title>
<polygon fill="#ffffb3" stroke="black" points="845.75,-122 696.25,-122 696.25,-86 845.75,-86 845.75,-122"/>
<text text-anchor="middle" x="771" y="-99.8" font-family="Times,serif" font-size="14.00">RequestInfoComponent</text>
</g>
<!-- RequestInfoComponent&#45;&gt;ItshopModule -->
<g id="edge4" class="edge">
<title>RequestInfoComponent&#45;&gt;ItshopModule</title>
<path fill="none" stroke="black" d="M711.2,-122.11C711.2,-122.11 711.2,-140.99 711.2,-140.99"/>
<polygon fill="black" stroke="black" points="707.7,-140.99 711.2,-150.99 714.7,-140.99 707.7,-140.99"/>
</g>
<!-- ServiceItemDetailComponent -->
<g id="node5" class="node">
<title>ServiceItemDetailComponent</title>
<polygon fill="#ffffb3" stroke="black" points="678.67,-122 495.33,-122 495.33,-86 678.67,-86 678.67,-122"/>
<text text-anchor="middle" x="587" y="-99.8" font-family="Times,serif" font-size="14.00">ServiceItemDetailComponent</text>
</g>
<!-- ServiceItemDetailComponent&#45;&gt;ItshopModule -->
<g id="edge5" class="edge">
<title>ServiceItemDetailComponent&#45;&gt;ItshopModule</title>
<path fill="none" stroke="black" d="M655.16,-122.11C655.16,-122.11 655.16,-140.99 655.16,-140.99"/>
<polygon fill="black" stroke="black" points="651.66,-140.99 655.16,-150.99 658.66,-140.99 651.66,-140.99"/>
</g>
<!-- ShelfSelectionComponent -->
<g id="node6" class="node">
<title>ShelfSelectionComponent</title>
<polygon fill="#ffffb3" stroke="black" points="477.48,-122 314.52,-122 314.52,-86 477.48,-86 477.48,-122"/>
<text text-anchor="middle" x="396" y="-99.8" font-family="Times,serif" font-size="14.00">ShelfSelectionComponent</text>
</g>
<!-- ShelfSelectionComponent&#45;&gt;ItshopModule -->
<g id="edge6" class="edge">
<title>ShelfSelectionComponent&#45;&gt;ItshopModule</title>
<path fill="none" stroke="black" d="M437.58,-122.01C437.58,-138.05 437.58,-159 437.58,-159 437.58,-159 621.88,-159 621.88,-159"/>
<polygon fill="black" stroke="black" points="621.88,-162.5 631.88,-159 621.88,-155.5 621.88,-162.5"/>
</g>
<!-- PeerGroupComponent  -->
<g id="node8" class="node">
<title>PeerGroupComponent </title>
<polygon fill="#fb8072" stroke="black" points="918.97,-252 773.03,-252 773.03,-216 918.97,-216 918.97,-252"/>
<text text-anchor="middle" x="846" y="-229.8" font-family="Times,serif" font-size="14.00">PeerGroupComponent </text>
</g>
<!-- ItshopModule&#45;&gt;PeerGroupComponent  -->
<g id="edge7" class="edge">
<title>ItshopModule&#45;&gt;PeerGroupComponent </title>
<path fill="none" stroke="black" stroke-dasharray="5,2" d="M726.14,-180C763.54,-180 809.57,-180 809.57,-180 809.57,-180 809.57,-205.72 809.57,-205.72"/>
<polygon fill="black" stroke="black" points="806.07,-205.72 809.57,-215.72 813.07,-205.72 806.07,-205.72"/>
</g>
<!-- RequestInfoComponent  -->
<g id="node9" class="node">
<title>RequestInfoComponent </title>
<polygon fill="#fb8072" stroke="black" points="755.75,-252 602.25,-252 602.25,-216 755.75,-216 755.75,-252"/>
<text text-anchor="middle" x="679" y="-229.8" font-family="Times,serif" font-size="14.00">RequestInfoComponent </text>
</g>
<!-- ItshopModule&#45;&gt;RequestInfoComponent  -->
<g id="edge8" class="edge">
<title>ItshopModule&#45;&gt;RequestInfoComponent </title>
<path fill="none" stroke="black" stroke-dasharray="5,2" d="M679,-187.11C679,-187.11 679,-205.99 679,-205.99"/>
<polygon fill="black" stroke="black" points="675.5,-205.99 679,-215.99 682.5,-205.99 675.5,-205.99"/>
</g>
<!-- ServiceItemDetailComponent  -->
<g id="node10" class="node">
<title>ServiceItemDetailComponent </title>
<polygon fill="#fb8072" stroke="black" points="584.17,-252 397.83,-252 397.83,-216 584.17,-216 584.17,-252"/>
<text text-anchor="middle" x="491" y="-229.8" font-family="Times,serif" font-size="14.00">ServiceItemDetailComponent </text>
</g>
<!-- ItshopModule&#45;&gt;ServiceItemDetailComponent  -->
<g id="edge9" class="edge">
<title>ItshopModule&#45;&gt;ServiceItemDetailComponent </title>
<path fill="none" stroke="black" stroke-dasharray="5,2" d="M631.9,-180C591.54,-180 539.88,-180 539.88,-180 539.88,-180 539.88,-205.72 539.88,-205.72"/>
<polygon fill="black" stroke="black" points="536.38,-205.72 539.88,-215.72 543.38,-205.72 536.38,-205.72"/>
</g>
<!-- ItshopService -->
<g id="node11" class="node">
<title>ItshopService</title>
<ellipse fill="#fdb462" stroke="black" cx="227" cy="-104" rx="64.26" ry="18"/>
<text text-anchor="middle" x="227" y="-99.8" font-family="Times,serif" font-size="14.00">ItshopService</text>
</g>
<!-- ItshopService&#45;&gt;ItshopModule -->
<g id="edge10" class="edge">
<title>ItshopService&#45;&gt;ItshopModule</title>
<path fill="none" stroke="black" d="M227,-122.27C227,-140.56 227,-166 227,-166 227,-166 621.91,-166 621.91,-166"/>
<polygon fill="black" stroke="black" points="621.91,-169.5 631.91,-166 621.91,-162.5 621.91,-169.5"/>
</g>
<!-- ShelfService -->
<g id="node12" class="node">
<title>ShelfService</title>
<ellipse fill="#fdb462" stroke="black" cx="84" cy="-104" rx="60.25" ry="18"/>
<text text-anchor="middle" x="84" y="-99.8" font-family="Times,serif" font-size="14.00">ShelfService</text>
</g>
<!-- ShelfService&#45;&gt;ItshopModule -->
<g id="edge11" class="edge">
<title>ShelfService&#45;&gt;ItshopModule</title>
<path fill="none" stroke="black" d="M84,-122.13C84,-142.57 84,-173 84,-173 84,-173 621.81,-173 621.81,-173"/>
<polygon fill="black" stroke="black" points="621.81,-176.5 631.81,-173 621.81,-169.5 621.81,-176.5"/>
</g>
</g>
</svg>
