<?xml version="1.0" encoding="UTF-8" standalone="no"?>
<!DOCTYPE svg PUBLIC "-//W3C//DTD SVG 1.1//EN"
 "http://www.w3.org/Graphics/SVG/1.1/DTD/svg11.dtd">
<!-- Generated by graphviz version 2.47.0 (20210316.0004)
 -->
<!-- Title: dependencies Pages: 1 -->
<svg width="1349pt" height="284pt"
 viewBox="0.00 0.00 1349.00 284.00" xmlns="http://www.w3.org/2000/svg" xmlns:xlink="http://www.w3.org/1999/xlink">
<g id="graph0" class="graph" transform="scale(1 1) rotate(0) translate(4 280)">
<title>dependencies</title>
<polygon fill="white" stroke="transparent" points="-4,4 -4,-280 1345,-280 1345,4 -4,4"/>
<text text-anchor="start" x="649.51" y="-42.4" font-family="Times-12" font-weight="bold" font-size="14.00">Legend</text>
<polygon fill="#ffffb3" stroke="transparent" points="436.5,-10 436.5,-30 456.5,-30 456.5,-10 436.5,-10"/>
<text text-anchor="start" x="460.13" y="-15.4" font-family="Times-12" font-size="14.00"> &#160;Declarations</text>
<polygon fill="#8dd3c7" stroke="transparent" points="549.5,-10 549.5,-30 569.5,-30 569.5,-10 549.5,-10"/>
<text text-anchor="start" x="573.23" y="-15.4" font-family="Times-12" font-size="14.00"> &#160;Module</text>
<polygon fill="#80b1d3" stroke="transparent" points="635.5,-10 635.5,-30 655.5,-30 655.5,-10 635.5,-10"/>
<text text-anchor="start" x="659.28" y="-15.4" font-family="Times-12" font-size="14.00"> &#160;Bootstrap</text>
<polygon fill="#fdb462" stroke="transparent" points="732.5,-10 732.5,-30 752.5,-30 752.5,-10 732.5,-10"/>
<text text-anchor="start" x="756.17" y="-15.4" font-family="Times-12" font-size="14.00"> &#160;Providers</text>
<polygon fill="#fb8072" stroke="transparent" points="828.5,-10 828.5,-30 848.5,-30 848.5,-10 828.5,-10"/>
<text text-anchor="start" x="852.23" y="-15.4" font-family="Times-12" font-size="14.00"> &#160;Exports</text>
<g id="clust1" class="cluster">
<title>cluster_ShoppingCartValidationDetailModule</title>
<polygon fill="none" stroke="black" stroke-dasharray="1,5" points="8,-70 8,-268 1333,-268 1333,-70 8,-70"/>
</g>
<g id="clust9" class="cluster">
<title>cluster_ShoppingCartValidationDetailModule_exports</title>
<polygon fill="none" stroke="black" points="406,-208 406,-260 1142,-260 1142,-208 406,-208"/>
</g>
<g id="clust2" class="cluster">
<title>cluster_ShoppingCartValidationDetailModule_declarations</title>
<polygon fill="none" stroke="black" points="356,-78 356,-130 1325,-130 1325,-78 356,-78"/>
</g>
<g id="clust11" class="cluster">
<title>cluster_ShoppingCartValidationDetailModule_providers</title>
<polygon fill="none" stroke="black" points="16,-78 16,-130 348,-130 348,-78 16,-78"/>
</g>
<!-- BaseViewerComponent -->
<g id="node1" class="node">
<title>BaseViewerComponent</title>
<polygon fill="#ffffb3" stroke="black" points="1316.74,-122 1167.26,-122 1167.26,-86 1316.74,-86 1316.74,-122"/>
<text text-anchor="middle" x="1242" y="-99.8" font-family="Times,serif" font-size="14.00">BaseViewerComponent</text>
</g>
<!-- ShoppingCartValidationDetailModule -->
<g id="node6" class="node">
<title>ShoppingCartValidationDetailModule</title>
<polygon fill="#8dd3c7" stroke="black" points="904.13,-187 901.13,-191 880.13,-191 877.13,-187 673.87,-187 673.87,-151 904.13,-151 904.13,-187"/>
<text text-anchor="middle" x="789" y="-164.8" font-family="Times,serif" font-size="14.00">ShoppingCartValidationDetailModule</text>
</g>
<!-- BaseViewerComponent&#45;&gt;ShoppingCartValidationDetailModule -->
<g id="edge1" class="edge">
<title>BaseViewerComponent&#45;&gt;ShoppingCartValidationDetailModule</title>
<path fill="none" stroke="black" d="M1242,-122.11C1242,-141.34 1242,-169 1242,-169 1242,-169 914.19,-169 914.19,-169"/>
<polygon fill="black" stroke="black" points="914.19,-165.5 904.19,-169 914.19,-172.5 914.19,-165.5"/>
</g>
<!-- DetailViewerComponent -->
<g id="node2" class="node">
<title>DetailViewerComponent</title>
<polygon fill="#ffffb3" stroke="black" points="1149.23,-122 992.77,-122 992.77,-86 1149.23,-86 1149.23,-122"/>
<text text-anchor="middle" x="1071" y="-99.8" font-family="Times,serif" font-size="14.00">DetailViewerComponent</text>
</g>
<!-- DetailViewerComponent&#45;&gt;ShoppingCartValidationDetailModule -->
<g id="edge2" class="edge">
<title>DetailViewerComponent&#45;&gt;ShoppingCartValidationDetailModule</title>
<path fill="none" stroke="black" d="M1063.13,-122.03C1063.13,-138.4 1063.13,-160 1063.13,-160 1063.13,-160 914.46,-160 914.46,-160"/>
<polygon fill="black" stroke="black" points="914.46,-156.5 904.46,-160 914.46,-163.5 914.46,-156.5"/>
</g>
<!-- DuplicateCheckComponent -->
<g id="node3" class="node">
<title>DuplicateCheckComponent</title>
<polygon fill="#ffffb3" stroke="black" points="974.52,-122 803.48,-122 803.48,-86 974.52,-86 974.52,-122"/>
<text text-anchor="middle" x="889" y="-99.8" font-family="Times,serif" font-size="14.00">DuplicateCheckComponent</text>
</g>
<!-- DuplicateCheckComponent&#45;&gt;ShoppingCartValidationDetailModule -->
<g id="edge3" class="edge">
<title>DuplicateCheckComponent&#45;&gt;ShoppingCartValidationDetailModule</title>
<path fill="none" stroke="black" d="M853.78,-122.11C853.78,-122.11 853.78,-140.99 853.78,-140.99"/>
<polygon fill="black" stroke="black" points="850.28,-140.99 853.78,-150.99 857.28,-140.99 850.28,-140.99"/>
</g>
<!-- ExclusionCheckComponent -->
<g id="node4" class="node">
<title>ExclusionCheckComponent</title>
<polygon fill="#ffffb3" stroke="black" points="785.59,-122 612.41,-122 612.41,-86 785.59,-86 785.59,-122"/>
<text text-anchor="middle" x="699" y="-99.8" font-family="Times,serif" font-size="14.00">ExclusionCheckComponent</text>
</g>
<!-- ExclusionCheckComponent&#45;&gt;ShoppingCartValidationDetailModule -->
<g id="edge4" class="edge">
<title>ExclusionCheckComponent&#45;&gt;ShoppingCartValidationDetailModule</title>
<path fill="none" stroke="black" d="M729.62,-122.11C729.62,-122.11 729.62,-140.99 729.62,-140.99"/>
<polygon fill="black" stroke="black" points="726.12,-140.99 729.62,-150.99 733.12,-140.99 726.12,-140.99"/>
</g>
<!-- ProductDependencyCheckComponent -->
<g id="node5" class="node">
<title>ProductDependencyCheckComponent</title>
<polygon fill="#ffffb3" stroke="black" points="594.11,-122 363.89,-122 363.89,-86 594.11,-86 594.11,-122"/>
<text text-anchor="middle" x="479" y="-99.8" font-family="Times,serif" font-size="14.00">ProductDependencyCheckComponent</text>
</g>
<!-- ProductDependencyCheckComponent&#45;&gt;ShoppingCartValidationDetailModule -->
<g id="edge5" class="edge">
<title>ProductDependencyCheckComponent&#45;&gt;ShoppingCartValidationDetailModule</title>
<path fill="none" stroke="black" d="M472.57,-122.03C472.57,-138.4 472.57,-160 472.57,-160 472.57,-160 663.87,-160 663.87,-160"/>
<polygon fill="black" stroke="black" points="663.87,-163.5 673.87,-160 663.87,-156.5 663.87,-163.5"/>
</g>
<!-- BaseViewerComponent  -->
<g id="node7" class="node">
<title>BaseViewerComponent </title>
<polygon fill="#fb8072" stroke="black" points="1133.74,-252 980.26,-252 980.26,-216 1133.74,-216 1133.74,-252"/>
<text text-anchor="middle" x="1057" y="-229.8" font-family="Times,serif" font-size="14.00">BaseViewerComponent </text>
</g>
<!-- ShoppingCartValidationDetailModule&#45;&gt;BaseViewerComponent  -->
<g id="edge6" class="edge">
<title>ShoppingCartValidationDetailModule&#45;&gt;BaseViewerComponent </title>
<path fill="none" stroke="black" stroke-dasharray="5,2" d="M904.18,-178C947.51,-178 986.51,-178 986.51,-178 986.51,-178 986.51,-205.97 986.51,-205.97"/>
<polygon fill="black" stroke="black" points="983.01,-205.97 986.51,-215.97 990.01,-205.97 983.01,-205.97"/>
</g>
<!-- DetailViewerComponent  -->
<g id="node8" class="node">
<title>DetailViewerComponent </title>
<polygon fill="#fb8072" stroke="black" points="962.23,-252 801.77,-252 801.77,-216 962.23,-216 962.23,-252"/>
<text text-anchor="middle" x="882" y="-229.8" font-family="Times,serif" font-size="14.00">DetailViewerComponent </text>
</g>
<!-- ShoppingCartValidationDetailModule&#45;&gt;DetailViewerComponent  -->
<g id="edge7" class="edge">
<title>ShoppingCartValidationDetailModule&#45;&gt;DetailViewerComponent </title>
<path fill="none" stroke="black" stroke-dasharray="5,2" d="M853.1,-187.11C853.1,-187.11 853.1,-205.99 853.1,-205.99"/>
<polygon fill="black" stroke="black" points="849.6,-205.99 853.1,-215.99 856.6,-205.99 849.6,-205.99"/>
</g>
<!-- DuplicateCheckComponent  -->
<g id="node9" class="node">
<title>DuplicateCheckComponent </title>
<polygon fill="#fb8072" stroke="black" points="783.52,-252 608.48,-252 608.48,-216 783.52,-216 783.52,-252"/>
<text text-anchor="middle" x="696" y="-229.8" font-family="Times,serif" font-size="14.00">DuplicateCheckComponent </text>
</g>
<!-- ShoppingCartValidationDetailModule&#45;&gt;DuplicateCheckComponent  -->
<g id="edge8" class="edge">
<title>ShoppingCartValidationDetailModule&#45;&gt;DuplicateCheckComponent </title>
<path fill="none" stroke="black" stroke-dasharray="5,2" d="M728.6,-187.11C728.6,-187.11 728.6,-205.99 728.6,-205.99"/>
<polygon fill="black" stroke="black" points="725.1,-205.99 728.6,-215.99 732.1,-205.99 725.1,-205.99"/>
</g>
<!-- ExclusionCheckComponent  -->
<g id="node10" class="node">
<title>ExclusionCheckComponent </title>
<polygon fill="#fb8072" stroke="black" points="590.09,-252 413.91,-252 413.91,-216 590.09,-216 590.09,-252"/>
<text text-anchor="middle" x="502" y="-229.8" font-family="Times,serif" font-size="14.00">ExclusionCheckComponent </text>
</g>
<!-- ShoppingCartValidationDetailModule&#45;&gt;ExclusionCheckComponent  -->
<g id="edge9" class="edge">
<title>ShoppingCartValidationDetailModule&#45;&gt;ExclusionCheckComponent </title>
<path fill="none" stroke="black" stroke-dasharray="5,2" d="M673.78,-178C605.2,-178 531.43,-178 531.43,-178 531.43,-178 531.43,-205.97 531.43,-205.97"/>
<polygon fill="black" stroke="black" points="527.93,-205.97 531.43,-215.97 534.93,-205.97 527.93,-205.97"/>
</g>
<!-- ShoppingCartValidationDetailService -->
<g id="node11" class="node">
<title>ShoppingCartValidationDetailService</title>
<ellipse fill="#fdb462" stroke="black" cx="182" cy="-104" rx="158" ry="18"/>
<text text-anchor="middle" x="182" y="-99.8" font-family="Times,serif" font-size="14.00">ShoppingCartValidationDetailService</text>
</g>
<!-- ShoppingCartValidationDetailService&#45;&gt;ShoppingCartValidationDetailModule -->
<g id="edge10" class="edge">
<title>ShoppingCartValidationDetailService&#45;&gt;ShoppingCartValidationDetailModule</title>
<path fill="none" stroke="black" d="M182,-122.11C182,-141.34 182,-169 182,-169 182,-169 663.76,-169 663.76,-169"/>
<polygon fill="black" stroke="black" points="663.76,-172.5 673.76,-169 663.76,-165.5 663.76,-172.5"/>
</g>
</g>
</svg>
