<?xml version="1.0" encoding="UTF-8" standalone="no"?>
<!DOCTYPE svg PUBLIC "-//W3C//DTD SVG 1.1//EN"
 "http://www.w3.org/Graphics/SVG/1.1/DTD/svg11.dtd">
<!-- Generated by graphviz version 2.47.0 (20210316.0004)
 -->
<!-- Title: dependencies Pages: 1 -->
<svg width="570pt" height="284pt"
 viewBox="0.00 0.00 570.00 284.00" xmlns="http://www.w3.org/2000/svg" xmlns:xlink="http://www.w3.org/1999/xlink">
<g id="graph0" class="graph" transform="scale(1 1) rotate(0) translate(4 280)">
<title>dependencies</title>
<polygon fill="white" stroke="transparent" points="-4,4 -4,-280 566,-280 566,4 -4,4"/>
<text text-anchor="start" x="260.01" y="-42.4" font-family="Times-12" font-weight="bold" font-size="14.00">Legend</text>
<polygon fill="#ffffb3" stroke="transparent" points="47,-10 47,-30 67,-30 67,-10 47,-10"/>
<text text-anchor="start" x="70.63" y="-15.4" font-family="Times-12" font-size="14.00"> &#160;Declarations</text>
<polygon fill="#8dd3c7" stroke="transparent" points="160,-10 160,-30 180,-30 180,-10 160,-10"/>
<text text-anchor="start" x="183.73" y="-15.4" font-family="Times-12" font-size="14.00"> &#160;Module</text>
<polygon fill="#80b1d3" stroke="transparent" points="246,-10 246,-30 266,-30 266,-10 246,-10"/>
<text text-anchor="start" x="269.78" y="-15.4" font-family="Times-12" font-size="14.00"> &#160;Bootstrap</text>
<polygon fill="#fdb462" stroke="transparent" points="343,-10 343,-30 363,-30 363,-10 343,-10"/>
<text text-anchor="start" x="366.67" y="-15.4" font-family="Times-12" font-size="14.00"> &#160;Providers</text>
<polygon fill="#fb8072" stroke="transparent" points="439,-10 439,-30 459,-30 459,-10 439,-10"/>
<text text-anchor="start" x="462.73" y="-15.4" font-family="Times-12" font-size="14.00"> &#160;Exports</text>
<g id="clust1" class="cluster">
<title>cluster_SideNavigationViewModule</title>
<polygon fill="none" stroke="black" stroke-dasharray="1,5" points="8,-70 8,-268 554,-268 554,-70 8,-70"/>
</g>
<g id="clust5" class="cluster">
<title>cluster_SideNavigationViewModule_exports</title>
<polygon fill="none" stroke="black" points="200,-208 200,-260 418,-260 418,-208 200,-208"/>
</g>
<g id="clust4" class="cluster">
<title>cluster_SideNavigationViewModule_imports</title>
<polygon fill="none" stroke="black" points="238,-78 238,-130 546,-130 546,-78 238,-78"/>
</g>
<g id="clust2" class="cluster">
<title>cluster_SideNavigationViewModule_declarations</title>
<polygon fill="none" stroke="black" points="16,-78 16,-130 230,-130 230,-78 16,-78"/>
</g>
<!-- SideNavigationViewComponent -->
<g id="node1" class="node">
<title>SideNavigationViewComponent</title>
<polygon fill="#ffffb3" stroke="black" points="222.25,-122 23.75,-122 23.75,-86 222.25,-86 222.25,-122"/>
<text text-anchor="middle" x="123" y="-99.8" font-family="Times,serif" font-size="14.00">SideNavigationViewComponent</text>
</g>
<!-- SideNavigationViewModule -->
<g id="node2" class="node">
<title>SideNavigationViewModule</title>
<polygon fill="#8dd3c7" stroke="black" points="397.46,-187 394.46,-191 373.46,-191 370.46,-187 220.54,-187 220.54,-151 397.46,-151 397.46,-187"/>
<text text-anchor="middle" x="309" y="-164.8" font-family="Times,serif" font-size="14.00">SideNavigationViewModule</text>
</g>
<!-- SideNavigationViewComponent&#45;&gt;SideNavigationViewModule -->
<g id="edge1" class="edge">
<title>SideNavigationViewComponent&#45;&gt;SideNavigationViewModule</title>
<path fill="none" stroke="black" d="M214.2,-122.11C214.2,-141.34 214.2,-169 214.2,-169 214.2,-169 214.82,-169 214.82,-169"/>
<polygon fill="black" stroke="black" points="210.42,-172.5 220.42,-169 210.42,-165.5 210.42,-172.5"/>
</g>
<!-- SideNavigationViewComponent  -->
<g id="node5" class="node">
<title>SideNavigationViewComponent </title>
<polygon fill="#fb8072" stroke="black" points="410.25,-252 207.75,-252 207.75,-216 410.25,-216 410.25,-252"/>
<text text-anchor="middle" x="309" y="-229.8" font-family="Times,serif" font-size="14.00">SideNavigationViewComponent </text>
</g>
<!-- SideNavigationViewModule&#45;&gt;SideNavigationViewComponent  -->
<g id="edge4" class="edge">
<title>SideNavigationViewModule&#45;&gt;SideNavigationViewComponent </title>
<path fill="none" stroke="black" stroke-dasharray="5,2" d="M309,-187.11C309,-187.11 309,-205.99 309,-205.99"/>
<polygon fill="black" stroke="black" points="305.5,-205.99 309,-215.99 312.5,-205.99 305.5,-205.99"/>
</g>
<!-- HelpContextualModule -->
<g id="node3" class="node">
<title>HelpContextualModule</title>
<polygon fill="#8dd3c7" stroke="black" points="538.2,-122 535.2,-126 514.2,-126 511.2,-122 389.8,-122 389.8,-86 538.2,-86 538.2,-122"/>
<text text-anchor="middle" x="464" y="-99.8" font-family="Times,serif" font-size="14.00">HelpContextualModule</text>
</g>
<!-- HelpContextualModule&#45;&gt;SideNavigationViewModule -->
<g id="edge2" class="edge">
<title>HelpContextualModule&#45;&gt;SideNavigationViewModule</title>
<path fill="none" stroke="black" d="M393.69,-122.11C393.69,-122.11 393.69,-140.99 393.69,-140.99"/>
<polygon fill="black" stroke="black" points="390.19,-140.99 393.69,-150.99 397.19,-140.99 390.19,-140.99"/>
</g>
<!-- LdsReplaceModule -->
<g id="node4" class="node">
<title>LdsReplaceModule</title>
<polygon fill="#8dd3c7" stroke="black" points="371.63,-122 368.63,-126 347.63,-126 344.63,-122 246.37,-122 246.37,-86 371.63,-86 371.63,-122"/>
<text text-anchor="middle" x="309" y="-99.8" font-family="Times,serif" font-size="14.00">LdsReplaceModule</text>
</g>
<!-- LdsReplaceModule&#45;&gt;SideNavigationViewModule -->
<g id="edge3" class="edge">
<title>LdsReplaceModule&#45;&gt;SideNavigationViewModule</title>
<path fill="none" stroke="black" d="M309,-122.11C309,-122.11 309,-140.99 309,-140.99"/>
<polygon fill="black" stroke="black" points="305.5,-140.99 309,-150.99 312.5,-140.99 305.5,-140.99"/>
</g>
</g>
</svg>
