<?xml version="1.0" encoding="UTF-8" standalone="no"?>
<!DOCTYPE svg PUBLIC "-//W3C//DTD SVG 1.1//EN"
 "http://www.w3.org/Graphics/SVG/1.1/DTD/svg11.dtd">
<!-- Generated by graphviz version 2.47.0 (20210316.0004)
 -->
<!-- Title: dependencies Pages: 1 -->
<svg width="840pt" height="323pt"
 viewBox="0.00 0.00 840.00 322.59" xmlns="http://www.w3.org/2000/svg" xmlns:xlink="http://www.w3.org/1999/xlink">
<g id="graph0" class="graph" transform="scale(1 1) rotate(0) translate(4 318.59)">
<title>dependencies</title>
<polygon fill="white" stroke="transparent" points="-4,4 -4,-318.59 836,-318.59 836,4 -4,4"/>
<text text-anchor="start" x="395.01" y="-42.4" font-family="Times-12" font-weight="bold" font-size="14.00">Legend</text>
<polygon fill="#ffffb3" stroke="transparent" points="182,-10 182,-30 202,-30 202,-10 182,-10"/>
<text text-anchor="start" x="205.63" y="-15.4" font-family="Times-12" font-size="14.00"> &#160;Declarations</text>
<polygon fill="#8dd3c7" stroke="transparent" points="295,-10 295,-30 315,-30 315,-10 295,-10"/>
<text text-anchor="start" x="318.73" y="-15.4" font-family="Times-12" font-size="14.00"> &#160;Module</text>
<polygon fill="#80b1d3" stroke="transparent" points="381,-10 381,-30 401,-30 401,-10 381,-10"/>
<text text-anchor="start" x="404.78" y="-15.4" font-family="Times-12" font-size="14.00"> &#160;Bootstrap</text>
<polygon fill="#fdb462" stroke="transparent" points="478,-10 478,-30 498,-30 498,-10 478,-10"/>
<text text-anchor="start" x="501.67" y="-15.4" font-family="Times-12" font-size="14.00"> &#160;Providers</text>
<polygon fill="#fb8072" stroke="transparent" points="574,-10 574,-30 594,-30 594,-10 574,-10"/>
<text text-anchor="start" x="597.73" y="-15.4" font-family="Times-12" font-size="14.00"> &#160;Exports</text>
<g id="clust1" class="cluster">
<title>cluster_DelegationModule</title>
<polygon fill="none" stroke="black" stroke-dasharray="1,5" points="8,-70 8,-306.59 824,-306.59 824,-70 8,-70"/>
</g>
<g id="clust2" class="cluster">
<title>cluster_DelegationModule_declarations</title>
<polygon fill="none" stroke="black" points="337,-189.59 337,-241.59 495,-241.59 495,-189.59 337,-189.59"/>
</g>
<g id="clust3" class="cluster">
<title>cluster_DelegationModule_DelegationComponent_providers</title>
<polygon fill="none" stroke="black" points="16,-78 16,-176.59 816,-176.59 816,-78 16,-78"/>
</g>
<g id="clust7" class="cluster">
<title>cluster_DelegationModule_providers</title>
<polygon fill="none" stroke="black" points="149,-189.59 149,-241.59 329,-241.59 329,-189.59 149,-189.59"/>
</g>
<!-- DelegationComponent -->
<g id="node1" class="node">
<title>DelegationComponent</title>
<polygon fill="#ffffb3" stroke="black" points="487.25,-233.59 344.75,-233.59 344.75,-197.59 487.25,-197.59 487.25,-233.59"/>
<text text-anchor="middle" x="416" y="-211.39" font-family="Times,serif" font-size="14.00">DelegationComponent</text>
</g>
<!-- DelegationModule -->
<g id="node2" class="node">
<title>DelegationModule</title>
<polygon fill="#8dd3c7" stroke="black" points="387.47,-298.59 384.47,-302.59 363.47,-302.59 360.47,-298.59 266.53,-298.59 266.53,-262.59 387.47,-262.59 387.47,-298.59"/>
<text text-anchor="middle" x="327" y="-276.39" font-family="Times,serif" font-size="14.00">DelegationModule</text>
</g>
<!-- DelegationComponent&#45;&gt;DelegationModule -->
<g id="edge1" class="edge">
<title>DelegationComponent&#45;&gt;DelegationModule</title>
<path fill="none" stroke="black" d="M366.05,-233.7C366.05,-233.7 366.05,-252.58 366.05,-252.58"/>
<polygon fill="black" stroke="black" points="362.55,-252.58 366.05,-262.58 369.55,-252.58 362.55,-252.58"/>
</g>
<!-- {
 &#160;&#160;&#160;provide: STEPPER_GLOBAL_OPTIONS, useValue: { displayDefaultIndicatorType: false },
} -->
<g id="node3" class="node">
<title>{
 &#160;&#160;&#160;provide: STEPPER_GLOBAL_OPTIONS, useValue: { displayDefaultIndicatorType: false },
}</title>
<ellipse fill="#fdb462" stroke="black" cx="416" cy="-127.3" rx="391.9" ry="41.09"/>
<text text-anchor="middle" x="416" y="-139.9" font-family="Times,serif" font-size="14.00">{</text>
<text text-anchor="middle" x="416" y="-123.1" font-family="Times,serif" font-size="14.00"> &#160;&#160;&#160;provide: STEPPER_GLOBAL_OPTIONS, useValue: { displayDefaultIndicatorType: false },</text>
<text text-anchor="middle" x="416" y="-106.3" font-family="Times,serif" font-size="14.00">}</text>
</g>
<!-- {
 &#160;&#160;&#160;provide: STEPPER_GLOBAL_OPTIONS, useValue: { displayDefaultIndicatorType: false },
}&#45;&gt;DelegationComponent -->
<g id="edge2" class="edge">
<title>{
 &#160;&#160;&#160;provide: STEPPER_GLOBAL_OPTIONS, useValue: { displayDefaultIndicatorType: false },
}&#45;&gt;DelegationComponent</title>
<path fill="none" stroke="black" d="M416,-168.6C416,-168.6 416,-187.26 416,-187.26"/>
<polygon fill="black" stroke="black" points="412.5,-187.26 416,-197.26 419.5,-187.26 412.5,-187.26"/>
</g>
<!-- DelegationService -->
<g id="node4" class="node">
<title>DelegationService</title>
<ellipse fill="#fdb462" stroke="black" cx="239" cy="-215.59" rx="82.22" ry="18"/>
<text text-anchor="middle" x="239" y="-211.39" font-family="Times,serif" font-size="14.00">DelegationService</text>
</g>
<!-- DelegationService&#45;&gt;DelegationModule -->
<g id="edge3" class="edge">
<title>DelegationService&#45;&gt;DelegationModule</title>
<path fill="none" stroke="black" d="M293.94,-229.06C293.94,-229.06 293.94,-252.45 293.94,-252.45"/>
<polygon fill="black" stroke="black" points="290.44,-252.45 293.94,-262.45 297.44,-252.45 290.44,-252.45"/>
</g>
</g>
</svg>
