<?xml version="1.0" encoding="UTF-8" standalone="no"?>
<!DOCTYPE svg PUBLIC "-//W3C//DTD SVG 1.1//EN"
 "http://www.w3.org/Graphics/SVG/1.1/DTD/svg11.dtd">
<!-- Generated by graphviz version 2.47.0 (20210316.0004)
 -->
<!-- Title: dependencies Pages: 1 -->
<svg width="504pt" height="284pt"
 viewBox="0.00 0.00 504.00 284.00" xmlns="http://www.w3.org/2000/svg" xmlns:xlink="http://www.w3.org/1999/xlink">
<g id="graph0" class="graph" transform="scale(1 1) rotate(0) translate(4 280)">
<title>dependencies</title>
<polygon fill="white" stroke="transparent" points="-4,4 -4,-280 500,-280 500,4 -4,4"/>
<text text-anchor="start" x="227.01" y="-42.4" font-family="Times-12" font-weight="bold" font-size="14.00">Legend</text>
<polygon fill="#ffffb3" stroke="transparent" points="14,-10 14,-30 34,-30 34,-10 14,-10"/>
<text text-anchor="start" x="37.63" y="-15.4" font-family="Times-12" font-size="14.00"> &#160;Declarations</text>
<polygon fill="#8dd3c7" stroke="transparent" points="127,-10 127,-30 147,-30 147,-10 127,-10"/>
<text text-anchor="start" x="150.73" y="-15.4" font-family="Times-12" font-size="14.00"> &#160;Module</text>
<polygon fill="#80b1d3" stroke="transparent" points="213,-10 213,-30 233,-30 233,-10 213,-10"/>
<text text-anchor="start" x="236.78" y="-15.4" font-family="Times-12" font-size="14.00"> &#160;Bootstrap</text>
<polygon fill="#fdb462" stroke="transparent" points="310,-10 310,-30 330,-30 330,-10 310,-10"/>
<text text-anchor="start" x="333.67" y="-15.4" font-family="Times-12" font-size="14.00"> &#160;Providers</text>
<polygon fill="#fb8072" stroke="transparent" points="406,-10 406,-30 426,-30 426,-10 406,-10"/>
<text text-anchor="start" x="429.73" y="-15.4" font-family="Times-12" font-size="14.00"> &#160;Exports</text>
<g id="clust1" class="cluster">
<title>cluster_JustificationModule</title>
<polygon fill="none" stroke="black" stroke-dasharray="1,5" points="47,-70 47,-268 449,-268 449,-70 47,-70"/>
</g>
<g id="clust2" class="cluster">
<title>cluster_JustificationModule_declarations</title>
<polygon fill="none" stroke="black" points="253,-78 253,-130 441,-130 441,-78 253,-78"/>
</g>
<g id="clust5" class="cluster">
<title>cluster_JustificationModule_exports</title>
<polygon fill="none" stroke="black" points="152,-208 152,-260 344,-260 344,-208 152,-208"/>
</g>
<g id="clust7" class="cluster">
<title>cluster_JustificationModule_providers</title>
<polygon fill="none" stroke="black" points="55,-78 55,-130 245,-130 245,-78 55,-78"/>
</g>
<!-- DecisionReasonComponent -->
<g id="node1" class="node">
<title>DecisionReasonComponent</title>
<polygon fill="#ffffb3" stroke="black" points="433.3,-122 260.7,-122 260.7,-86 433.3,-86 433.3,-122"/>
<text text-anchor="middle" x="347" y="-99.8" font-family="Times,serif" font-size="14.00">DecisionReasonComponent</text>
</g>
<!-- JustificationModule -->
<g id="node2" class="node">
<title>JustificationModule</title>
<polygon fill="#8dd3c7" stroke="black" points="311.98,-187 308.98,-191 287.98,-191 284.98,-187 184.02,-187 184.02,-151 311.98,-151 311.98,-187"/>
<text text-anchor="middle" x="248" y="-164.8" font-family="Times,serif" font-size="14.00">JustificationModule</text>
</g>
<!-- DecisionReasonComponent&#45;&gt;JustificationModule -->
<g id="edge1" class="edge">
<title>DecisionReasonComponent&#45;&gt;JustificationModule</title>
<path fill="none" stroke="black" d="M286.42,-122.11C286.42,-122.11 286.42,-140.99 286.42,-140.99"/>
<polygon fill="black" stroke="black" points="282.92,-140.99 286.42,-150.99 289.92,-140.99 282.92,-140.99"/>
</g>
<!-- DecisionReasonComponent  -->
<g id="node3" class="node">
<title>DecisionReasonComponent </title>
<polygon fill="#fb8072" stroke="black" points="335.8,-252 160.2,-252 160.2,-216 335.8,-216 335.8,-252"/>
<text text-anchor="middle" x="248" y="-229.8" font-family="Times,serif" font-size="14.00">DecisionReasonComponent </text>
</g>
<!-- JustificationModule&#45;&gt;DecisionReasonComponent  -->
<g id="edge2" class="edge">
<title>JustificationModule&#45;&gt;DecisionReasonComponent </title>
<path fill="none" stroke="black" stroke-dasharray="5,2" d="M248,-187.11C248,-187.11 248,-205.99 248,-205.99"/>
<polygon fill="black" stroke="black" points="244.5,-205.99 248,-215.99 251.5,-205.99 244.5,-205.99"/>
</g>
<!-- JustificationService -->
<g id="node4" class="node">
<title>JustificationService</title>
<ellipse fill="#fdb462" stroke="black" cx="150" cy="-104" rx="87.39" ry="18"/>
<text text-anchor="middle" x="150" y="-99.8" font-family="Times,serif" font-size="14.00">JustificationService</text>
</g>
<!-- JustificationService&#45;&gt;JustificationModule -->
<g id="edge3" class="edge">
<title>JustificationService&#45;&gt;JustificationModule</title>
<path fill="none" stroke="black" d="M210.6,-117.15C210.6,-117.15 210.6,-140.69 210.6,-140.69"/>
<polygon fill="black" stroke="black" points="207.1,-140.69 210.6,-150.69 214.1,-140.69 207.1,-140.69"/>
</g>
</g>
</svg>
