<?xml version="1.0" encoding="UTF-8" standalone="no"?>
<!DOCTYPE svg PUBLIC "-//W3C//DTD SVG 1.1//EN"
 "http://www.w3.org/Graphics/SVG/1.1/DTD/svg11.dtd">
<!-- Generated by graphviz version 2.47.0 (20210316.0004)
 -->
<!-- Title: dependencies Pages: 1 -->
<svg width="2264pt" height="284pt"
 viewBox="0.00 0.00 2264.00 284.00" xmlns="http://www.w3.org/2000/svg" xmlns:xlink="http://www.w3.org/1999/xlink">
<g id="graph0" class="graph" transform="scale(1 1) rotate(0) translate(4 280)">
<title>dependencies</title>
<polygon fill="white" stroke="transparent" points="-4,4 -4,-280 2260,-280 2260,4 -4,4"/>
<text text-anchor="start" x="1107.01" y="-42.4" font-family="Times-12" font-weight="bold" font-size="14.00">Legend</text>
<polygon fill="#ffffb3" stroke="transparent" points="894,-10 894,-30 914,-30 914,-10 894,-10"/>
<text text-anchor="start" x="917.63" y="-15.4" font-family="Times-12" font-size="14.00"> &#160;Declarations</text>
<polygon fill="#8dd3c7" stroke="transparent" points="1007,-10 1007,-30 1027,-30 1027,-10 1007,-10"/>
<text text-anchor="start" x="1030.73" y="-15.4" font-family="Times-12" font-size="14.00"> &#160;Module</text>
<polygon fill="#80b1d3" stroke="transparent" points="1093,-10 1093,-30 1113,-30 1113,-10 1093,-10"/>
<text text-anchor="start" x="1116.78" y="-15.4" font-family="Times-12" font-size="14.00"> &#160;Bootstrap</text>
<polygon fill="#fdb462" stroke="transparent" points="1190,-10 1190,-30 1210,-30 1210,-10 1190,-10"/>
<text text-anchor="start" x="1213.67" y="-15.4" font-family="Times-12" font-size="14.00"> &#160;Providers</text>
<polygon fill="#fb8072" stroke="transparent" points="1286,-10 1286,-30 1306,-30 1306,-10 1286,-10"/>
<text text-anchor="start" x="1309.73" y="-15.4" font-family="Times-12" font-size="14.00"> &#160;Exports</text>
<g id="clust1" class="cluster">
<title>cluster_IdentitiesModule</title>
<polygon fill="none" stroke="black" stroke-dasharray="1,5" points="8,-70 8,-268 2248,-268 2248,-70 8,-70"/>
</g>
<g id="clust2" class="cluster">
<title>cluster_IdentitiesModule_declarations</title>
<polygon fill="none" stroke="black" points="1228,-78 1228,-130 2240,-130 2240,-78 1228,-78"/>
</g>
<g id="clust9" class="cluster">
<title>cluster_IdentitiesModule_exports</title>
<polygon fill="none" stroke="black" points="895,-208 895,-260 1123,-260 1123,-208 895,-208"/>
</g>
<g id="clust8" class="cluster">
<title>cluster_IdentitiesModule_imports</title>
<polygon fill="none" stroke="black" points="422,-78 422,-130 1220,-130 1220,-78 422,-78"/>
</g>
<g id="clust11" class="cluster">
<title>cluster_IdentitiesModule_providers</title>
<polygon fill="none" stroke="black" points="16,-78 16,-130 414,-130 414,-78 16,-78"/>
</g>
<!-- AssignmentsComponent -->
<g id="node1" class="node">
<title>AssignmentsComponent</title>
<polygon fill="#ffffb3" stroke="black" points="2231.66,-122 2078.34,-122 2078.34,-86 2231.66,-86 2231.66,-122"/>
<text text-anchor="middle" x="2155" y="-99.8" font-family="Times,serif" font-size="14.00">AssignmentsComponent</text>
</g>
<!-- IdentitiesModule -->
<g id="node6" class="node">
<title>IdentitiesModule</title>
<polygon fill="#8dd3c7" stroke="black" points="1064.65,-187 1061.65,-191 1040.65,-191 1037.65,-187 953.35,-187 953.35,-151 1064.65,-151 1064.65,-187"/>
<text text-anchor="middle" x="1009" y="-164.8" font-family="Times,serif" font-size="14.00">IdentitiesModule</text>
</g>
<!-- AssignmentsComponent&#45;&gt;IdentitiesModule -->
<g id="edge1" class="edge">
<title>AssignmentsComponent&#45;&gt;IdentitiesModule</title>
<path fill="none" stroke="black" d="M2155,-122.25C2155,-145.02 2155,-181 2155,-181 2155,-181 1074.66,-181 1074.66,-181"/>
<polygon fill="black" stroke="black" points="1074.66,-177.5 1064.66,-181 1074.66,-184.5 1074.66,-177.5"/>
</g>
<!-- CreateNewIdentityComponent -->
<g id="node2" class="node">
<title>CreateNewIdentityComponent</title>
<polygon fill="#ffffb3" stroke="black" points="2059.84,-122 1872.16,-122 1872.16,-86 2059.84,-86 2059.84,-122"/>
<text text-anchor="middle" x="1966" y="-99.8" font-family="Times,serif" font-size="14.00">CreateNewIdentityComponent</text>
</g>
<!-- CreateNewIdentityComponent&#45;&gt;IdentitiesModule -->
<g id="edge2" class="edge">
<title>CreateNewIdentityComponent&#45;&gt;IdentitiesModule</title>
<path fill="none" stroke="black" d="M1966,-122.28C1966,-143.32 1966,-175 1966,-175 1966,-175 1074.94,-175 1074.94,-175"/>
<polygon fill="black" stroke="black" points="1074.94,-171.5 1064.94,-175 1074.94,-178.5 1074.94,-171.5"/>
</g>
<!-- DataExplorerIdentitiesComponent -->
<g id="node3" class="node">
<title>DataExplorerIdentitiesComponent</title>
<polygon fill="#ffffb3" stroke="black" points="1854.33,-122 1645.67,-122 1645.67,-86 1854.33,-86 1854.33,-122"/>
<text text-anchor="middle" x="1750" y="-99.8" font-family="Times,serif" font-size="14.00">DataExplorerIdentitiesComponent</text>
</g>
<!-- DataExplorerIdentitiesComponent&#45;&gt;IdentitiesModule -->
<g id="edge3" class="edge">
<title>DataExplorerIdentitiesComponent&#45;&gt;IdentitiesModule</title>
<path fill="none" stroke="black" d="M1750,-122.11C1750,-141.34 1750,-169 1750,-169 1750,-169 1074.7,-169 1074.7,-169"/>
<polygon fill="black" stroke="black" points="1074.7,-165.5 1064.7,-169 1074.7,-172.5 1074.7,-165.5"/>
</g>
<!-- DuplicatesSidesheetComponent -->
<g id="node4" class="node">
<title>DuplicatesSidesheetComponent</title>
<polygon fill="#ffffb3" stroke="black" points="1627.35,-122 1432.65,-122 1432.65,-86 1627.35,-86 1627.35,-122"/>
<text text-anchor="middle" x="1530" y="-99.8" font-family="Times,serif" font-size="14.00">DuplicatesSidesheetComponent</text>
</g>
<!-- DuplicatesSidesheetComponent&#45;&gt;IdentitiesModule -->
<g id="edge4" class="edge">
<title>DuplicatesSidesheetComponent&#45;&gt;IdentitiesModule</title>
<path fill="none" stroke="black" d="M1530,-122.02C1530,-139.37 1530,-163 1530,-163 1530,-163 1074.76,-163 1074.76,-163"/>
<polygon fill="black" stroke="black" points="1074.76,-159.5 1064.76,-163 1074.76,-166.5 1074.76,-159.5"/>
</g>
<!-- IdentitySidesheetComponent -->
<g id="node5" class="node">
<title>IdentitySidesheetComponent</title>
<polygon fill="#ffffb3" stroke="black" points="1414.03,-122 1235.97,-122 1235.97,-86 1414.03,-86 1414.03,-122"/>
<text text-anchor="middle" x="1325" y="-99.8" font-family="Times,serif" font-size="14.00">IdentitySidesheetComponent</text>
</g>
<!-- IdentitySidesheetComponent&#45;&gt;IdentitiesModule -->
<g id="edge5" class="edge">
<title>IdentitySidesheetComponent&#45;&gt;IdentitiesModule</title>
<path fill="none" stroke="black" d="M1325,-122.24C1325,-137.57 1325,-157 1325,-157 1325,-157 1074.77,-157 1074.77,-157"/>
<polygon fill="black" stroke="black" points="1074.77,-153.5 1064.77,-157 1074.77,-160.5 1074.77,-153.5"/>
</g>
<!-- DataExplorerIdentitiesComponent  -->
<g id="node12" class="node">
<title>DataExplorerIdentitiesComponent </title>
<polygon fill="#fb8072" stroke="black" points="1115.33,-252 902.67,-252 902.67,-216 1115.33,-216 1115.33,-252"/>
<text text-anchor="middle" x="1009" y="-229.8" font-family="Times,serif" font-size="14.00">DataExplorerIdentitiesComponent </text>
</g>
<!-- IdentitiesModule&#45;&gt;DataExplorerIdentitiesComponent  -->
<g id="edge11" class="edge">
<title>IdentitiesModule&#45;&gt;DataExplorerIdentitiesComponent </title>
<path fill="none" stroke="black" stroke-dasharray="5,2" d="M1009,-187.11C1009,-187.11 1009,-205.99 1009,-205.99"/>
<polygon fill="black" stroke="black" points="1005.5,-205.99 1009,-215.99 1012.5,-205.99 1005.5,-205.99"/>
</g>
<!-- IdentityRoleMembershipsModule -->
<g id="node7" class="node">
<title>IdentityRoleMembershipsModule</title>
<polygon fill="#8dd3c7" stroke="black" points="1211.74,-122 1208.74,-126 1187.74,-126 1184.74,-122 1006.26,-122 1006.26,-86 1211.74,-86 1211.74,-122"/>
<text text-anchor="middle" x="1109" y="-99.8" font-family="Times,serif" font-size="14.00">IdentityRoleMembershipsModule</text>
</g>
<!-- IdentityRoleMembershipsModule&#45;&gt;IdentitiesModule -->
<g id="edge6" class="edge">
<title>IdentityRoleMembershipsModule&#45;&gt;IdentitiesModule</title>
<path fill="none" stroke="black" d="M1035.48,-122.11C1035.48,-122.11 1035.48,-140.99 1035.48,-140.99"/>
<polygon fill="black" stroke="black" points="1031.98,-140.99 1035.48,-150.99 1038.98,-140.99 1031.98,-140.99"/>
</g>
<!-- ObjectHyperviewModule -->
<g id="node8" class="node">
<title>ObjectHyperviewModule</title>
<polygon fill="#8dd3c7" stroke="black" points="988.56,-122 985.56,-126 964.56,-126 961.56,-122 829.44,-122 829.44,-86 988.56,-86 988.56,-122"/>
<text text-anchor="middle" x="909" y="-99.8" font-family="Times,serif" font-size="14.00">ObjectHyperviewModule</text>
</g>
<!-- ObjectHyperviewModule&#45;&gt;IdentitiesModule -->
<g id="edge7" class="edge">
<title>ObjectHyperviewModule&#45;&gt;IdentitiesModule</title>
<path fill="none" stroke="black" d="M970.85,-122.11C970.85,-122.11 970.85,-140.99 970.85,-140.99"/>
<polygon fill="black" stroke="black" points="967.35,-140.99 970.85,-150.99 974.35,-140.99 967.35,-140.99"/>
</g>
<!-- OrgChartModule -->
<g id="node9" class="node">
<title>OrgChartModule</title>
<polygon fill="#8dd3c7" stroke="black" points="811.42,-122 808.42,-126 787.42,-126 784.42,-122 698.58,-122 698.58,-86 811.42,-86 811.42,-122"/>
<text text-anchor="middle" x="755" y="-99.8" font-family="Times,serif" font-size="14.00">OrgChartModule</text>
</g>
<!-- OrgChartModule&#45;&gt;IdentitiesModule -->
<g id="edge8" class="edge">
<title>OrgChartModule&#45;&gt;IdentitiesModule</title>
<path fill="none" stroke="black" d="M755,-122.24C755,-137.57 755,-157 755,-157 755,-157 943.26,-157 943.26,-157"/>
<polygon fill="black" stroke="black" points="943.26,-160.5 953.26,-157 943.26,-153.5 943.26,-160.5"/>
</g>
<!-- RequestHistoryModule -->
<g id="node10" class="node">
<title>RequestHistoryModule</title>
<polygon fill="#8dd3c7" stroke="black" points="680.14,-122 677.14,-126 656.14,-126 653.14,-122 533.86,-122 533.86,-86 680.14,-86 680.14,-122"/>
<text text-anchor="middle" x="607" y="-99.8" font-family="Times,serif" font-size="14.00">RequestHistoryModule</text>
</g>
<!-- RequestHistoryModule&#45;&gt;IdentitiesModule -->
<g id="edge9" class="edge">
<title>RequestHistoryModule&#45;&gt;IdentitiesModule</title>
<path fill="none" stroke="black" d="M607,-122.02C607,-139.37 607,-163 607,-163 607,-163 943.1,-163 943.1,-163"/>
<polygon fill="black" stroke="black" points="943.1,-166.5 953.1,-163 943.1,-159.5 943.1,-166.5"/>
</g>
<!-- RiskModule -->
<g id="node11" class="node">
<title>RiskModule</title>
<polygon fill="#8dd3c7" stroke="black" points="515.72,-122 512.72,-126 491.72,-126 488.72,-122 430.28,-122 430.28,-86 515.72,-86 515.72,-122"/>
<text text-anchor="middle" x="473" y="-99.8" font-family="Times,serif" font-size="14.00">RiskModule</text>
</g>
<!-- RiskModule&#45;&gt;IdentitiesModule -->
<g id="edge10" class="edge">
<title>RiskModule&#45;&gt;IdentitiesModule</title>
<path fill="none" stroke="black" d="M473,-122.11C473,-141.34 473,-169 473,-169 473,-169 943.16,-169 943.16,-169"/>
<polygon fill="black" stroke="black" points="943.16,-172.5 953.16,-169 943.16,-165.5 943.16,-172.5"/>
</g>
<!-- IdentitiesReportsService -->
<g id="node13" class="node">
<title>IdentitiesReportsService</title>
<ellipse fill="#fdb462" stroke="black" cx="300" cy="-104" rx="105.93" ry="18"/>
<text text-anchor="middle" x="300" y="-99.8" font-family="Times,serif" font-size="14.00">IdentitiesReportsService</text>
</g>
<!-- IdentitiesReportsService&#45;&gt;IdentitiesModule -->
<g id="edge12" class="edge">
<title>IdentitiesReportsService&#45;&gt;IdentitiesModule</title>
<path fill="none" stroke="black" d="M300,-122.28C300,-143.32 300,-175 300,-175 300,-175 943.07,-175 943.07,-175"/>
<polygon fill="black" stroke="black" points="943.07,-178.5 953.07,-175 943.07,-171.5 943.07,-178.5"/>
</g>
<!-- IdentitiesService -->
<g id="node14" class="node">
<title>IdentitiesService</title>
<ellipse fill="#fdb462" stroke="black" cx="100" cy="-104" rx="75.85" ry="18"/>
<text text-anchor="middle" x="100" y="-99.8" font-family="Times,serif" font-size="14.00">IdentitiesService</text>
</g>
<!-- IdentitiesService&#45;&gt;IdentitiesModule -->
<g id="edge13" class="edge">
<title>IdentitiesService&#45;&gt;IdentitiesModule</title>
<path fill="none" stroke="black" d="M100,-122.25C100,-145.02 100,-181 100,-181 100,-181 943.17,-181 943.17,-181"/>
<polygon fill="black" stroke="black" points="943.17,-184.5 953.17,-181 943.17,-177.5 943.17,-184.5"/>
</g>
</g>
</svg>
