<?xml version="1.0" encoding="UTF-8" standalone="no"?>
<!DOCTYPE svg PUBLIC "-//W3C//DTD SVG 1.1//EN"
 "http://www.w3.org/Graphics/SVG/1.1/DTD/svg11.dtd">
<!-- Generated by graphviz version 2.47.0 (20210316.0004)
 -->
<!-- Title: dependencies Pages: 1 -->
<svg width="1659pt" height="211pt"
 viewBox="0.00 0.00 1659.00 211.00" xmlns="http://www.w3.org/2000/svg" xmlns:xlink="http://www.w3.org/1999/xlink">
<g id="graph0" class="graph" transform="scale(1 1) rotate(0) translate(4 207)">
<title>dependencies</title>
<polygon fill="white" stroke="transparent" points="-4,4 -4,-207 1655,-207 1655,4 -4,4"/>
<text text-anchor="start" x="804.51" y="-42.4" font-family="Times-12" font-weight="bold" font-size="14.00">Legend</text>
<polygon fill="#ffffb3" stroke="transparent" points="591.5,-10 591.5,-30 611.5,-30 611.5,-10 591.5,-10"/>
<text text-anchor="start" x="615.13" y="-15.4" font-family="Times-12" font-size="14.00"> &#160;Declarations</text>
<polygon fill="#8dd3c7" stroke="transparent" points="704.5,-10 704.5,-30 724.5,-30 724.5,-10 704.5,-10"/>
<text text-anchor="start" x="728.23" y="-15.4" font-family="Times-12" font-size="14.00"> &#160;Module</text>
<polygon fill="#80b1d3" stroke="transparent" points="790.5,-10 790.5,-30 810.5,-30 810.5,-10 790.5,-10"/>
<text text-anchor="start" x="814.28" y="-15.4" font-family="Times-12" font-size="14.00"> &#160;Bootstrap</text>
<polygon fill="#fdb462" stroke="transparent" points="887.5,-10 887.5,-30 907.5,-30 907.5,-10 887.5,-10"/>
<text text-anchor="start" x="911.17" y="-15.4" font-family="Times-12" font-size="14.00"> &#160;Providers</text>
<polygon fill="#fb8072" stroke="transparent" points="983.5,-10 983.5,-30 1003.5,-30 1003.5,-10 983.5,-10"/>
<text text-anchor="start" x="1007.23" y="-15.4" font-family="Times-12" font-size="14.00"> &#160;Exports</text>
<g id="clust1" class="cluster">
<title>cluster_ItshopPatternModule</title>
<polygon fill="none" stroke="black" stroke-dasharray="1,5" points="8,-70 8,-195 1643,-195 1643,-70 8,-70"/>
</g>
<g id="clust2" class="cluster">
<title>cluster_ItshopPatternModule_declarations</title>
<polygon fill="none" stroke="black" points="276,-78 276,-130 1635,-130 1635,-78 276,-78"/>
</g>
<g id="clust9" class="cluster">
<title>cluster_ItshopPatternModule_imports</title>
<polygon fill="none" stroke="black" points="16,-78 16,-130 268,-130 268,-78 16,-78"/>
</g>
<!-- DuplicatePatternItemsComponent -->
<g id="node1" class="node">
<title>DuplicatePatternItemsComponent</title>
<polygon fill="#ffffb3" stroke="black" points="1627.01,-122 1420.99,-122 1420.99,-86 1627.01,-86 1627.01,-122"/>
<text text-anchor="middle" x="1524" y="-99.8" font-family="Times,serif" font-size="14.00">DuplicatePatternItemsComponent</text>
</g>
<!-- ItshopPatternModule -->
<g id="node7" class="node">
<title>ItshopPatternModule</title>
<polygon fill="#8dd3c7" stroke="black" points="803.2,-187 800.2,-191 779.2,-191 776.2,-187 668.8,-187 668.8,-151 803.2,-151 803.2,-187"/>
<text text-anchor="middle" x="736" y="-164.8" font-family="Times,serif" font-size="14.00">ItshopPatternModule</text>
</g>
<!-- DuplicatePatternItemsComponent&#45;&gt;ItshopPatternModule -->
<g id="edge1" class="edge">
<title>DuplicatePatternItemsComponent&#45;&gt;ItshopPatternModule</title>
<path fill="none" stroke="black" d="M1524,-122.29C1524,-144.21 1524,-178 1524,-178 1524,-178 813.18,-178 813.18,-178"/>
<polygon fill="black" stroke="black" points="813.18,-174.5 803.18,-178 813.18,-181.5 813.18,-174.5"/>
</g>
<!-- ItshopPatternAddProductsComponent -->
<g id="node2" class="node">
<title>ItshopPatternAddProductsComponent</title>
<polygon fill="#ffffb3" stroke="black" points="1402.58,-122 1173.42,-122 1173.42,-86 1402.58,-86 1402.58,-122"/>
<text text-anchor="middle" x="1288" y="-99.8" font-family="Times,serif" font-size="14.00">ItshopPatternAddProductsComponent</text>
</g>
<!-- ItshopPatternAddProductsComponent&#45;&gt;ItshopPatternModule -->
<g id="edge2" class="edge">
<title>ItshopPatternAddProductsComponent&#45;&gt;ItshopPatternModule</title>
<path fill="none" stroke="black" d="M1288,-122.11C1288,-141.34 1288,-169 1288,-169 1288,-169 813.13,-169 813.13,-169"/>
<polygon fill="black" stroke="black" points="813.13,-165.5 803.13,-169 813.13,-172.5 813.13,-165.5"/>
</g>
<!-- ItshopPatternComponent -->
<g id="node3" class="node">
<title>ItshopPatternComponent</title>
<polygon fill="#ffffb3" stroke="black" points="1154.98,-122 999.02,-122 999.02,-86 1154.98,-86 1154.98,-122"/>
<text text-anchor="middle" x="1077" y="-99.8" font-family="Times,serif" font-size="14.00">ItshopPatternComponent</text>
</g>
<!-- ItshopPatternComponent&#45;&gt;ItshopPatternModule -->
<g id="edge3" class="edge">
<title>ItshopPatternComponent&#45;&gt;ItshopPatternModule</title>
<path fill="none" stroke="black" d="M1077,-122.03C1077,-138.4 1077,-160 1077,-160 1077,-160 813.37,-160 813.37,-160"/>
<polygon fill="black" stroke="black" points="813.37,-156.5 803.37,-160 813.37,-163.5 813.37,-156.5"/>
</g>
<!-- ItshopPatternCreateSidesheetComponent -->
<g id="node4" class="node">
<title>ItshopPatternCreateSidesheetComponent</title>
<polygon fill="#ffffb3" stroke="black" points="981.17,-122 734.83,-122 734.83,-86 981.17,-86 981.17,-122"/>
<text text-anchor="middle" x="858" y="-99.8" font-family="Times,serif" font-size="14.00">ItshopPatternCreateSidesheetComponent</text>
</g>
<!-- ItshopPatternCreateSidesheetComponent&#45;&gt;ItshopPatternModule -->
<g id="edge4" class="edge">
<title>ItshopPatternCreateSidesheetComponent&#45;&gt;ItshopPatternModule</title>
<path fill="none" stroke="black" d="M769.01,-122.11C769.01,-122.11 769.01,-140.99 769.01,-140.99"/>
<polygon fill="black" stroke="black" points="765.51,-140.99 769.01,-150.99 772.51,-140.99 765.51,-140.99"/>
</g>
<!-- ItshopPatternItemEditComponent -->
<g id="node5" class="node">
<title>ItshopPatternItemEditComponent</title>
<polygon fill="#ffffb3" stroke="black" points="716.47,-122 511.53,-122 511.53,-86 716.47,-86 716.47,-122"/>
<text text-anchor="middle" x="614" y="-99.8" font-family="Times,serif" font-size="14.00">ItshopPatternItemEditComponent</text>
</g>
<!-- ItshopPatternItemEditComponent&#45;&gt;ItshopPatternModule -->
<g id="edge5" class="edge">
<title>ItshopPatternItemEditComponent&#45;&gt;ItshopPatternModule</title>
<path fill="none" stroke="black" d="M692.69,-122.11C692.69,-122.11 692.69,-140.99 692.69,-140.99"/>
<polygon fill="black" stroke="black" points="689.19,-140.99 692.69,-150.99 696.19,-140.99 689.19,-140.99"/>
</g>
<!-- ItshopPatternSidesheetComponent -->
<g id="node6" class="node">
<title>ItshopPatternSidesheetComponent</title>
<polygon fill="#ffffb3" stroke="black" points="493.63,-122 284.37,-122 284.37,-86 493.63,-86 493.63,-122"/>
<text text-anchor="middle" x="389" y="-99.8" font-family="Times,serif" font-size="14.00">ItshopPatternSidesheetComponent</text>
</g>
<!-- ItshopPatternSidesheetComponent&#45;&gt;ItshopPatternModule -->
<g id="edge6" class="edge">
<title>ItshopPatternSidesheetComponent&#45;&gt;ItshopPatternModule</title>
<path fill="none" stroke="black" d="M389,-122.03C389,-138.4 389,-160 389,-160 389,-160 658.68,-160 658.68,-160"/>
<polygon fill="black" stroke="black" points="658.68,-163.5 668.68,-160 658.68,-156.5 658.68,-163.5"/>
</g>
<!-- ServiceItemsModule -->
<g id="node8" class="node">
<title>ServiceItemsModule</title>
<polygon fill="#8dd3c7" stroke="black" points="260.13,-122 257.13,-126 236.13,-126 233.13,-122 127.87,-122 127.87,-86 260.13,-86 260.13,-122"/>
<text text-anchor="middle" x="194" y="-99.8" font-family="Times,serif" font-size="14.00">ServiceItemsModule</text>
</g>
<!-- ServiceItemsModule&#45;&gt;ItshopPatternModule -->
<g id="edge7" class="edge">
<title>ServiceItemsModule&#45;&gt;ItshopPatternModule</title>
<path fill="none" stroke="black" d="M194,-122.11C194,-141.34 194,-169 194,-169 194,-169 658.72,-169 658.72,-169"/>
<polygon fill="black" stroke="black" points="658.72,-172.5 668.72,-169 658.72,-165.5 658.72,-172.5"/>
</g>
<!-- UserModule -->
<g id="node9" class="node">
<title>UserModule</title>
<polygon fill="#8dd3c7" stroke="black" points="109.98,-122 106.98,-126 85.98,-126 82.98,-122 24.02,-122 24.02,-86 109.98,-86 109.98,-122"/>
<text text-anchor="middle" x="67" y="-99.8" font-family="Times,serif" font-size="14.00">UserModule</text>
</g>
<!-- UserModule&#45;&gt;ItshopPatternModule -->
<g id="edge8" class="edge">
<title>UserModule&#45;&gt;ItshopPatternModule</title>
<path fill="none" stroke="black" d="M67,-122.29C67,-144.21 67,-178 67,-178 67,-178 658.79,-178 658.79,-178"/>
<polygon fill="black" stroke="black" points="658.79,-181.5 668.79,-178 658.79,-174.5 658.79,-181.5"/>
</g>
</g>
</svg>
