<?xml version="1.0" encoding="UTF-8" standalone="no"?>
<!DOCTYPE svg PUBLIC "-//W3C//DTD SVG 1.1//EN"
 "http://www.w3.org/Graphics/SVG/1.1/DTD/svg11.dtd">
<!-- Generated by graphviz version 2.47.0 (20210316.0004)
 -->
<!-- Title: dependencies Pages: 1 -->
<svg width="2341pt" height="284pt"
 viewBox="0.00 0.00 2341.00 284.00" xmlns="http://www.w3.org/2000/svg" xmlns:xlink="http://www.w3.org/1999/xlink">
<g id="graph0" class="graph" transform="scale(1 1) rotate(0) translate(4 280)">
<title>dependencies</title>
<polygon fill="white" stroke="transparent" points="-4,4 -4,-280 2337,-280 2337,4 -4,4"/>
<text text-anchor="start" x="1145.51" y="-42.4" font-family="Times-12" font-weight="bold" font-size="14.00">Legend</text>
<polygon fill="#ffffb3" stroke="transparent" points="932.5,-10 932.5,-30 952.5,-30 952.5,-10 932.5,-10"/>
<text text-anchor="start" x="956.13" y="-15.4" font-family="Times-12" font-size="14.00"> &#160;Declarations</text>
<polygon fill="#8dd3c7" stroke="transparent" points="1045.5,-10 1045.5,-30 1065.5,-30 1065.5,-10 1045.5,-10"/>
<text text-anchor="start" x="1069.23" y="-15.4" font-family="Times-12" font-size="14.00"> &#160;Module</text>
<polygon fill="#80b1d3" stroke="transparent" points="1131.5,-10 1131.5,-30 1151.5,-30 1151.5,-10 1131.5,-10"/>
<text text-anchor="start" x="1155.28" y="-15.4" font-family="Times-12" font-size="14.00"> &#160;Bootstrap</text>
<polygon fill="#fdb462" stroke="transparent" points="1228.5,-10 1228.5,-30 1248.5,-30 1248.5,-10 1228.5,-10"/>
<text text-anchor="start" x="1252.17" y="-15.4" font-family="Times-12" font-size="14.00"> &#160;Providers</text>
<polygon fill="#fb8072" stroke="transparent" points="1324.5,-10 1324.5,-30 1344.5,-30 1344.5,-10 1324.5,-10"/>
<text text-anchor="start" x="1348.23" y="-15.4" font-family="Times-12" font-size="14.00"> &#160;Exports</text>
<g id="clust1" class="cluster">
<title>cluster_ApprovalsModule</title>
<polygon fill="none" stroke="black" stroke-dasharray="1,5" points="8,-70 8,-268 2325,-268 2325,-70 8,-70"/>
</g>
<g id="clust2" class="cluster">
<title>cluster_ApprovalsModule_declarations</title>
<polygon fill="none" stroke="black" points="628,-78 628,-130 2317,-130 2317,-78 628,-78"/>
</g>
<g id="clust13" class="cluster">
<title>cluster_ApprovalsModule_exports</title>
<polygon fill="none" stroke="black" points="1032,-208 1032,-260 1286,-260 1286,-208 1032,-208"/>
</g>
<g id="clust12" class="cluster">
<title>cluster_ApprovalsModule_imports</title>
<polygon fill="none" stroke="black" points="200,-78 200,-130 620,-130 620,-78 200,-78"/>
</g>
<g id="clust15" class="cluster">
<title>cluster_ApprovalsModule_providers</title>
<polygon fill="none" stroke="black" points="16,-78 16,-130 192,-130 192,-78 16,-78"/>
</g>
<!-- ApprovalHistoryComponent -->
<g id="node1" class="node">
<title>ApprovalHistoryComponent</title>
<polygon fill="#ffffb3" stroke="black" points="2309.2,-122 2132.8,-122 2132.8,-86 2309.2,-86 2309.2,-122"/>
<text text-anchor="middle" x="2221" y="-99.8" font-family="Times,serif" font-size="14.00">ApprovalHistoryComponent</text>
</g>
<!-- ApprovalsModule -->
<g id="node10" class="node">
<title>ApprovalsModule</title>
<polygon fill="#8dd3c7" stroke="black" points="1217.87,-187 1214.87,-191 1193.87,-191 1190.87,-187 1100.13,-187 1100.13,-151 1217.87,-151 1217.87,-187"/>
<text text-anchor="middle" x="1159" y="-164.8" font-family="Times,serif" font-size="14.00">ApprovalsModule</text>
</g>
<!-- ApprovalHistoryComponent&#45;&gt;ApprovalsModule -->
<g id="edge1" class="edge">
<title>ApprovalHistoryComponent&#45;&gt;ApprovalsModule</title>
<path fill="none" stroke="black" d="M2221,-122.09C2221,-145.13 2221,-182 2221,-182 2221,-182 1227.99,-182 1227.99,-182"/>
<polygon fill="black" stroke="black" points="1227.99,-178.5 1217.99,-182 1227.99,-185.5 1227.99,-178.5"/>
</g>
<!-- ApprovalsComponent -->
<g id="node2" class="node">
<title>ApprovalsComponent</title>
<polygon fill="#ffffb3" stroke="black" points="2114.65,-122 1975.35,-122 1975.35,-86 2114.65,-86 2114.65,-122"/>
<text text-anchor="middle" x="2045" y="-99.8" font-family="Times,serif" font-size="14.00">ApprovalsComponent</text>
</g>
<!-- ApprovalsComponent&#45;&gt;ApprovalsModule -->
<g id="edge2" class="edge">
<title>ApprovalsComponent&#45;&gt;ApprovalsModule</title>
<path fill="none" stroke="black" d="M2045,-122.04C2045,-143.66 2045,-177 2045,-177 2045,-177 1228.16,-177 1228.16,-177"/>
<polygon fill="black" stroke="black" points="1228.16,-173.5 1218.16,-177 1228.16,-180.5 1228.16,-173.5"/>
</g>
<!-- ApprovalsSidesheetComponent -->
<g id="node3" class="node">
<title>ApprovalsSidesheetComponent</title>
<polygon fill="#ffffb3" stroke="black" points="1957.8,-122 1764.2,-122 1764.2,-86 1957.8,-86 1957.8,-122"/>
<text text-anchor="middle" x="1861" y="-99.8" font-family="Times,serif" font-size="14.00">ApprovalsSidesheetComponent</text>
</g>
<!-- ApprovalsSidesheetComponent&#45;&gt;ApprovalsModule -->
<g id="edge3" class="edge">
<title>ApprovalsSidesheetComponent&#45;&gt;ApprovalsModule</title>
<path fill="none" stroke="black" d="M1861,-122.22C1861,-142.37 1861,-172 1861,-172 1861,-172 1227.95,-172 1227.95,-172"/>
<polygon fill="black" stroke="black" points="1227.95,-168.5 1217.95,-172 1227.95,-175.5 1227.95,-168.5"/>
</g>
<!-- ApprovalsTableComponent -->
<g id="node4" class="node">
<title>ApprovalsTableComponent</title>
<polygon fill="#ffffb3" stroke="black" points="1746.52,-122 1575.48,-122 1575.48,-86 1746.52,-86 1746.52,-122"/>
<text text-anchor="middle" x="1661" y="-99.8" font-family="Times,serif" font-size="14.00">ApprovalsTableComponent</text>
</g>
<!-- ApprovalsTableComponent&#45;&gt;ApprovalsModule -->
<g id="edge4" class="edge">
<title>ApprovalsTableComponent&#45;&gt;ApprovalsModule</title>
<path fill="none" stroke="black" d="M1661,-122.22C1661,-140.83 1661,-167 1661,-167 1661,-167 1228.06,-167 1228.06,-167"/>
<polygon fill="black" stroke="black" points="1228.06,-163.5 1218.06,-167 1228.06,-170.5 1228.06,-163.5"/>
</g>
<!-- HistoryFilterComponent -->
<g id="node5" class="node">
<title>HistoryFilterComponent</title>
<polygon fill="#ffffb3" stroke="black" points="1556.66,-122 1403.34,-122 1403.34,-86 1556.66,-86 1556.66,-122"/>
<text text-anchor="middle" x="1480" y="-99.8" font-family="Times,serif" font-size="14.00">HistoryFilterComponent</text>
</g>
<!-- HistoryFilterComponent&#45;&gt;ApprovalsModule -->
<g id="edge5" class="edge">
<title>HistoryFilterComponent&#45;&gt;ApprovalsModule</title>
<path fill="none" stroke="black" d="M1480,-122.03C1480,-139.06 1480,-162 1480,-162 1480,-162 1227.88,-162 1227.88,-162"/>
<polygon fill="black" stroke="black" points="1227.88,-158.5 1217.88,-162 1227.88,-165.5 1227.88,-158.5"/>
</g>
<!-- InquiriesComponent -->
<g id="node6" class="node">
<title>InquiriesComponent</title>
<polygon fill="#ffffb3" stroke="black" points="1385.59,-122 1254.41,-122 1254.41,-86 1385.59,-86 1385.59,-122"/>
<text text-anchor="middle" x="1320" y="-99.8" font-family="Times,serif" font-size="14.00">InquiriesComponent</text>
</g>
<!-- InquiriesComponent&#45;&gt;ApprovalsModule -->
<g id="edge6" class="edge">
<title>InquiriesComponent&#45;&gt;ApprovalsModule</title>
<path fill="none" stroke="black" d="M1266.04,-122.24C1266.04,-137.57 1266.04,-157 1266.04,-157 1266.04,-157 1228.15,-157 1228.15,-157"/>
<polygon fill="black" stroke="black" points="1228.15,-153.5 1218.15,-157 1228.15,-160.5 1228.15,-153.5"/>
</g>
<!-- QueryPersonComponent -->
<g id="node7" class="node">
<title>QueryPersonComponent</title>
<polygon fill="#ffffb3" stroke="black" points="1236.42,-122 1081.58,-122 1081.58,-86 1236.42,-86 1236.42,-122"/>
<text text-anchor="middle" x="1159" y="-99.8" font-family="Times,serif" font-size="14.00">QueryPersonComponent</text>
</g>
<!-- QueryPersonComponent&#45;&gt;ApprovalsModule -->
<g id="edge7" class="edge">
<title>QueryPersonComponent&#45;&gt;ApprovalsModule</title>
<path fill="none" stroke="black" d="M1159,-122.11C1159,-122.11 1159,-140.99 1159,-140.99"/>
<polygon fill="black" stroke="black" points="1155.5,-140.99 1159,-150.99 1162.5,-140.99 1155.5,-140.99"/>
</g>
<!-- RecommendationSidesheetComponent -->
<g id="node8" class="node">
<title>RecommendationSidesheetComponent</title>
<polygon fill="#ffffb3" stroke="black" points="1063.74,-122 830.26,-122 830.26,-86 1063.74,-86 1063.74,-122"/>
<text text-anchor="middle" x="947" y="-99.8" font-family="Times,serif" font-size="14.00">RecommendationSidesheetComponent</text>
</g>
<!-- RecommendationSidesheetComponent&#45;&gt;ApprovalsModule -->
<g id="edge8" class="edge">
<title>RecommendationSidesheetComponent&#45;&gt;ApprovalsModule</title>
<path fill="none" stroke="black" d="M1052.12,-122.24C1052.12,-137.57 1052.12,-157 1052.12,-157 1052.12,-157 1089.94,-157 1089.94,-157"/>
<polygon fill="black" stroke="black" points="1089.94,-160.5 1099.94,-157 1089.94,-153.5 1089.94,-160.5"/>
</g>
<!-- WorkflowActionComponent -->
<g id="node9" class="node">
<title>WorkflowActionComponent</title>
<polygon fill="#ffffb3" stroke="black" points="812.47,-122 635.53,-122 635.53,-86 812.47,-86 812.47,-122"/>
<text text-anchor="middle" x="724" y="-99.8" font-family="Times,serif" font-size="14.00">WorkflowActionComponent</text>
</g>
<!-- WorkflowActionComponent&#45;&gt;ApprovalsModule -->
<g id="edge9" class="edge">
<title>WorkflowActionComponent&#45;&gt;ApprovalsModule</title>
<path fill="none" stroke="black" d="M724,-122.03C724,-139.06 724,-162 724,-162 724,-162 1089.88,-162 1089.88,-162"/>
<polygon fill="black" stroke="black" points="1089.88,-165.5 1099.88,-162 1089.88,-158.5 1089.88,-165.5"/>
</g>
<!-- RecommendationSidesheetComponent  -->
<g id="node14" class="node">
<title>RecommendationSidesheetComponent </title>
<polygon fill="#fb8072" stroke="black" points="1277.74,-252 1040.26,-252 1040.26,-216 1277.74,-216 1277.74,-252"/>
<text text-anchor="middle" x="1159" y="-229.8" font-family="Times,serif" font-size="14.00">RecommendationSidesheetComponent </text>
</g>
<!-- ApprovalsModule&#45;&gt;RecommendationSidesheetComponent  -->
<g id="edge13" class="edge">
<title>ApprovalsModule&#45;&gt;RecommendationSidesheetComponent </title>
<path fill="none" stroke="black" stroke-dasharray="5,2" d="M1159,-187.11C1159,-187.11 1159,-205.99 1159,-205.99"/>
<polygon fill="black" stroke="black" points="1155.5,-205.99 1159,-215.99 1162.5,-205.99 1155.5,-205.99"/>
</g>
<!-- ItshopModule -->
<g id="node11" class="node">
<title>ItshopModule</title>
<polygon fill="#8dd3c7" stroke="black" points="612.05,-122 609.05,-126 588.05,-126 585.05,-122 517.95,-122 517.95,-86 612.05,-86 612.05,-122"/>
<text text-anchor="middle" x="565" y="-99.8" font-family="Times,serif" font-size="14.00">ItshopModule</text>
</g>
<!-- ItshopModule&#45;&gt;ApprovalsModule -->
<g id="edge10" class="edge">
<title>ItshopModule&#45;&gt;ApprovalsModule</title>
<path fill="none" stroke="black" d="M565,-122.22C565,-140.83 565,-167 565,-167 565,-167 1089.87,-167 1089.87,-167"/>
<polygon fill="black" stroke="black" points="1089.87,-170.5 1099.87,-167 1089.87,-163.5 1089.87,-170.5"/>
</g>
<!-- JustificationModule -->
<g id="node12" class="node">
<title>JustificationModule</title>
<polygon fill="#8dd3c7" stroke="black" points="499.98,-122 496.98,-126 475.98,-126 472.98,-122 372.02,-122 372.02,-86 499.98,-86 499.98,-122"/>
<text text-anchor="middle" x="436" y="-99.8" font-family="Times,serif" font-size="14.00">JustificationModule</text>
</g>
<!-- JustificationModule&#45;&gt;ApprovalsModule -->
<g id="edge11" class="edge">
<title>JustificationModule&#45;&gt;ApprovalsModule</title>
<path fill="none" stroke="black" d="M436,-122.22C436,-142.37 436,-172 436,-172 436,-172 1089.83,-172 1089.83,-172"/>
<polygon fill="black" stroke="black" points="1089.83,-175.5 1099.83,-172 1089.83,-168.5 1089.83,-175.5"/>
</g>
<!-- RequestHistoryModule -->
<g id="node13" class="node">
<title>RequestHistoryModule</title>
<polygon fill="#8dd3c7" stroke="black" points="354.14,-122 351.14,-126 330.14,-126 327.14,-122 207.86,-122 207.86,-86 354.14,-86 354.14,-122"/>
<text text-anchor="middle" x="281" y="-99.8" font-family="Times,serif" font-size="14.00">RequestHistoryModule</text>
</g>
<!-- RequestHistoryModule&#45;&gt;ApprovalsModule -->
<g id="edge12" class="edge">
<title>RequestHistoryModule&#45;&gt;ApprovalsModule</title>
<path fill="none" stroke="black" d="M281,-122.04C281,-143.66 281,-177 281,-177 281,-177 1090.03,-177 1090.03,-177"/>
<polygon fill="black" stroke="black" points="1090.03,-180.5 1100.03,-177 1090.03,-173.5 1090.03,-180.5"/>
</g>
<!-- ApprovalsService -->
<g id="node15" class="node">
<title>ApprovalsService</title>
<ellipse fill="#fdb462" stroke="black" cx="104" cy="-104" rx="80.44" ry="18"/>
<text text-anchor="middle" x="104" y="-99.8" font-family="Times,serif" font-size="14.00">ApprovalsService</text>
</g>
<!-- ApprovalsService&#45;&gt;ApprovalsModule -->
<g id="edge14" class="edge">
<title>ApprovalsService&#45;&gt;ApprovalsModule</title>
<path fill="none" stroke="black" d="M104,-122.09C104,-145.13 104,-182 104,-182 104,-182 1090.02,-182 1090.02,-182"/>
<polygon fill="black" stroke="black" points="1090.02,-185.5 1100.02,-182 1090.02,-178.5 1090.02,-185.5"/>
</g>
</g>
</svg>
