<?xml version="1.0" encoding="UTF-8" standalone="no"?>
<!DOCTYPE svg PUBLIC "-//W3C//DTD SVG 1.1//EN"
 "http://www.w3.org/Graphics/SVG/1.1/DTD/svg11.dtd">
<!-- Generated by graphviz version 2.47.0 (20210316.0004)
 -->
<!-- Title: dependencies Pages: 1 -->
<svg width="504pt" height="284pt"
 viewBox="0.00 0.00 504.00 284.00" xmlns="http://www.w3.org/2000/svg" xmlns:xlink="http://www.w3.org/1999/xlink">
<g id="graph0" class="graph" transform="scale(1 1) rotate(0) translate(4 280)">
<title>dependencies</title>
<polygon fill="white" stroke="transparent" points="-4,4 -4,-280 500,-280 500,4 -4,4"/>
<text text-anchor="start" x="227.01" y="-42.4" font-family="Times-12" font-weight="bold" font-size="14.00">Legend</text>
<polygon fill="#ffffb3" stroke="transparent" points="14,-10 14,-30 34,-30 34,-10 14,-10"/>
<text text-anchor="start" x="37.63" y="-15.4" font-family="Times-12" font-size="14.00"> &#160;Declarations</text>
<polygon fill="#8dd3c7" stroke="transparent" points="127,-10 127,-30 147,-30 147,-10 127,-10"/>
<text text-anchor="start" x="150.73" y="-15.4" font-family="Times-12" font-size="14.00"> &#160;Module</text>
<polygon fill="#80b1d3" stroke="transparent" points="213,-10 213,-30 233,-30 233,-10 213,-10"/>
<text text-anchor="start" x="236.78" y="-15.4" font-family="Times-12" font-size="14.00"> &#160;Bootstrap</text>
<polygon fill="#fdb462" stroke="transparent" points="310,-10 310,-30 330,-30 330,-10 310,-10"/>
<text text-anchor="start" x="333.67" y="-15.4" font-family="Times-12" font-size="14.00"> &#160;Providers</text>
<polygon fill="#fb8072" stroke="transparent" points="406,-10 406,-30 426,-30 426,-10 406,-10"/>
<text text-anchor="start" x="429.73" y="-15.4" font-family="Times-12" font-size="14.00"> &#160;Exports</text>
<g id="clust1" class="cluster">
<title>cluster_DataTilesModule</title>
<polygon fill="none" stroke="black" stroke-dasharray="1,5" points="9,-70 9,-268 487,-268 487,-70 9,-70"/>
</g>
<g id="clust5" class="cluster">
<title>cluster_DataTilesModule_imports</title>
<polygon fill="none" stroke="black" points="325,-78 325,-130 479,-130 479,-78 325,-78"/>
</g>
<g id="clust2" class="cluster">
<title>cluster_DataTilesModule_declarations</title>
<polygon fill="none" stroke="black" points="17,-78 17,-130 317,-130 317,-78 17,-78"/>
</g>
<g id="clust6" class="cluster">
<title>cluster_DataTilesModule_exports</title>
<polygon fill="none" stroke="black" points="166,-208 166,-260 322,-260 322,-208 166,-208"/>
</g>
<!-- DataTileComponent -->
<g id="node1" class="node">
<title>DataTileComponent</title>
<polygon fill="#ffffb3" stroke="black" points="309.31,-122 178.69,-122 178.69,-86 309.31,-86 309.31,-122"/>
<text text-anchor="middle" x="244" y="-99.8" font-family="Times,serif" font-size="14.00">DataTileComponent</text>
</g>
<!-- DataTilesModule -->
<g id="node3" class="node">
<title>DataTilesModule</title>
<polygon fill="#8dd3c7" stroke="black" points="300.97,-187 297.97,-191 276.97,-191 273.97,-187 187.03,-187 187.03,-151 300.97,-151 300.97,-187"/>
<text text-anchor="middle" x="244" y="-164.8" font-family="Times,serif" font-size="14.00">DataTilesModule</text>
</g>
<!-- DataTileComponent&#45;&gt;DataTilesModule -->
<g id="edge1" class="edge">
<title>DataTileComponent&#45;&gt;DataTilesModule</title>
<path fill="none" stroke="black" d="M244,-122.11C244,-122.11 244,-140.99 244,-140.99"/>
<polygon fill="black" stroke="black" points="240.5,-140.99 244,-150.99 247.5,-140.99 240.5,-140.99"/>
</g>
<!-- DataTilesComponent -->
<g id="node2" class="node">
<title>DataTilesComponent</title>
<polygon fill="#ffffb3" stroke="black" points="160.75,-122 25.25,-122 25.25,-86 160.75,-86 160.75,-122"/>
<text text-anchor="middle" x="93" y="-99.8" font-family="Times,serif" font-size="14.00">DataTilesComponent</text>
</g>
<!-- DataTilesComponent&#45;&gt;DataTilesModule -->
<g id="edge2" class="edge">
<title>DataTilesComponent&#45;&gt;DataTilesModule</title>
<path fill="none" stroke="black" d="M93,-122.11C93,-141.34 93,-169 93,-169 93,-169 176.91,-169 176.91,-169"/>
<polygon fill="black" stroke="black" points="176.91,-172.5 186.91,-169 176.91,-165.5 176.91,-172.5"/>
</g>
<!-- DataTilesComponent  -->
<g id="node5" class="node">
<title>DataTilesComponent </title>
<polygon fill="#fb8072" stroke="black" points="313.75,-252 174.25,-252 174.25,-216 313.75,-216 313.75,-252"/>
<text text-anchor="middle" x="244" y="-229.8" font-family="Times,serif" font-size="14.00">DataTilesComponent </text>
</g>
<!-- DataTilesModule&#45;&gt;DataTilesComponent  -->
<g id="edge4" class="edge">
<title>DataTilesModule&#45;&gt;DataTilesComponent </title>
<path fill="none" stroke="black" stroke-dasharray="5,2" d="M244,-187.11C244,-187.11 244,-205.99 244,-205.99"/>
<polygon fill="black" stroke="black" points="240.5,-205.99 244,-215.99 247.5,-205.99 240.5,-205.99"/>
</g>
<!-- BusyIndicatorModule -->
<g id="node4" class="node">
<title>BusyIndicatorModule</title>
<polygon fill="#8dd3c7" stroke="black" points="471.36,-122 468.36,-126 447.36,-126 444.36,-122 332.64,-122 332.64,-86 471.36,-86 471.36,-122"/>
<text text-anchor="middle" x="402" y="-99.8" font-family="Times,serif" font-size="14.00">BusyIndicatorModule</text>
</g>
<!-- BusyIndicatorModule&#45;&gt;DataTilesModule -->
<g id="edge3" class="edge">
<title>BusyIndicatorModule&#45;&gt;DataTilesModule</title>
<path fill="none" stroke="black" d="M402,-122.11C402,-141.34 402,-169 402,-169 402,-169 311.04,-169 311.04,-169"/>
<polygon fill="black" stroke="black" points="311.04,-165.5 301.04,-169 311.04,-172.5 311.04,-165.5"/>
</g>
</g>
</svg>
