<?xml version="1.0" encoding="UTF-8" standalone="no"?>
<!DOCTYPE svg PUBLIC "-//W3C//DTD SVG 1.1//EN"
 "http://www.w3.org/Graphics/SVG/1.1/DTD/svg11.dtd">
<!-- Generated by graphviz version 2.47.0 (20210316.0004)
 -->
<!-- Title: dependencies Pages: 1 -->
<svg width="2280pt" height="284pt"
 viewBox="0.00 0.00 2280.00 284.00" xmlns="http://www.w3.org/2000/svg" xmlns:xlink="http://www.w3.org/1999/xlink">
<g id="graph0" class="graph" transform="scale(1 1) rotate(0) translate(4 280)">
<title>dependencies</title>
<polygon fill="white" stroke="transparent" points="-4,4 -4,-280 2276,-280 2276,4 -4,4"/>
<text text-anchor="start" x="1115.01" y="-42.4" font-family="Times-12" font-weight="bold" font-size="14.00">Legend</text>
<polygon fill="#ffffb3" stroke="transparent" points="902,-10 902,-30 922,-30 922,-10 902,-10"/>
<text text-anchor="start" x="925.63" y="-15.4" font-family="Times-12" font-size="14.00"> &#160;Declarations</text>
<polygon fill="#8dd3c7" stroke="transparent" points="1015,-10 1015,-30 1035,-30 1035,-10 1015,-10"/>
<text text-anchor="start" x="1038.73" y="-15.4" font-family="Times-12" font-size="14.00"> &#160;Module</text>
<polygon fill="#80b1d3" stroke="transparent" points="1101,-10 1101,-30 1121,-30 1121,-10 1101,-10"/>
<text text-anchor="start" x="1124.78" y="-15.4" font-family="Times-12" font-size="14.00"> &#160;Bootstrap</text>
<polygon fill="#fdb462" stroke="transparent" points="1198,-10 1198,-30 1218,-30 1218,-10 1198,-10"/>
<text text-anchor="start" x="1221.67" y="-15.4" font-family="Times-12" font-size="14.00"> &#160;Providers</text>
<polygon fill="#fb8072" stroke="transparent" points="1294,-10 1294,-30 1314,-30 1314,-10 1294,-10"/>
<text text-anchor="start" x="1317.73" y="-15.4" font-family="Times-12" font-size="14.00"> &#160;Exports</text>
<g id="clust1" class="cluster">
<title>cluster_RequestHistoryModule</title>
<polygon fill="none" stroke="black" stroke-dasharray="1,5" points="8,-70 8,-268 2264,-268 2264,-70 8,-70"/>
</g>
<g id="clust2" class="cluster">
<title>cluster_RequestHistoryModule_declarations</title>
<polygon fill="none" stroke="black" points="724,-78 724,-130 2256,-130 2256,-78 724,-78"/>
</g>
<g id="clust12" class="cluster">
<title>cluster_RequestHistoryModule_exports</title>
<polygon fill="none" stroke="black" points="820,-208 820,-260 1410,-260 1410,-208 820,-208"/>
</g>
<g id="clust11" class="cluster">
<title>cluster_RequestHistoryModule_imports</title>
<polygon fill="none" stroke="black" points="460,-78 460,-130 716,-130 716,-78 460,-78"/>
</g>
<g id="clust14" class="cluster">
<title>cluster_RequestHistoryModule_providers</title>
<polygon fill="none" stroke="black" points="16,-78 16,-130 452,-130 452,-78 16,-78"/>
</g>
<!-- DefaultRequestDisplayComponent -->
<g id="node1" class="node">
<title>DefaultRequestDisplayComponent</title>
<polygon fill="#ffffb3" stroke="black" points="2247.96,-122 2036.04,-122 2036.04,-86 2247.96,-86 2247.96,-122"/>
<text text-anchor="middle" x="2142" y="-99.8" font-family="Times,serif" font-size="14.00">DefaultRequestDisplayComponent</text>
</g>
<!-- RequestHistoryModule -->
<g id="node9" class="node">
<title>RequestHistoryModule</title>
<polygon fill="#8dd3c7" stroke="black" points="1182.14,-187 1179.14,-191 1158.14,-191 1155.14,-187 1035.86,-187 1035.86,-151 1182.14,-151 1182.14,-187"/>
<text text-anchor="middle" x="1109" y="-164.8" font-family="Times,serif" font-size="14.00">RequestHistoryModule</text>
</g>
<!-- DefaultRequestDisplayComponent&#45;&gt;RequestHistoryModule -->
<g id="edge1" class="edge">
<title>DefaultRequestDisplayComponent&#45;&gt;RequestHistoryModule</title>
<path fill="none" stroke="black" d="M2142,-122.04C2142,-143.66 2142,-177 2142,-177 2142,-177 1192.46,-177 1192.46,-177"/>
<polygon fill="black" stroke="black" points="1192.46,-173.5 1182.46,-177 1192.46,-180.5 1192.46,-173.5"/>
</g>
<!-- RequestActionComponent -->
<g id="node2" class="node">
<title>RequestActionComponent</title>
<polygon fill="#ffffb3" stroke="black" points="2018.04,-122 1853.96,-122 1853.96,-86 2018.04,-86 2018.04,-122"/>
<text text-anchor="middle" x="1936" y="-99.8" font-family="Times,serif" font-size="14.00">RequestActionComponent</text>
</g>
<!-- RequestActionComponent&#45;&gt;RequestHistoryModule -->
<g id="edge2" class="edge">
<title>RequestActionComponent&#45;&gt;RequestHistoryModule</title>
<path fill="none" stroke="black" d="M1936,-122.22C1936,-142.37 1936,-172 1936,-172 1936,-172 1192.39,-172 1192.39,-172"/>
<polygon fill="black" stroke="black" points="1192.39,-168.5 1182.39,-172 1192.39,-175.5 1192.39,-168.5"/>
</g>
<!-- RequestDetailComponent -->
<g id="node3" class="node">
<title>RequestDetailComponent</title>
<polygon fill="#ffffb3" stroke="black" points="1835.14,-122 1674.86,-122 1674.86,-86 1835.14,-86 1835.14,-122"/>
<text text-anchor="middle" x="1755" y="-99.8" font-family="Times,serif" font-size="14.00">RequestDetailComponent</text>
</g>
<!-- RequestDetailComponent&#45;&gt;RequestHistoryModule -->
<g id="edge3" class="edge">
<title>RequestDetailComponent&#45;&gt;RequestHistoryModule</title>
<path fill="none" stroke="black" d="M1755,-122.22C1755,-140.83 1755,-167 1755,-167 1755,-167 1192.16,-167 1192.16,-167"/>
<polygon fill="black" stroke="black" points="1192.16,-163.5 1182.16,-167 1192.16,-170.5 1192.16,-163.5"/>
</g>
<!-- RequestDisplayComponent -->
<g id="node4" class="node">
<title>RequestDisplayComponent</title>
<polygon fill="#ffffb3" stroke="black" points="1656.98,-122 1487.02,-122 1487.02,-86 1656.98,-86 1656.98,-122"/>
<text text-anchor="middle" x="1572" y="-99.8" font-family="Times,serif" font-size="14.00">RequestDisplayComponent</text>
</g>
<!-- RequestDisplayComponent&#45;&gt;RequestHistoryModule -->
<g id="edge4" class="edge">
<title>RequestDisplayComponent&#45;&gt;RequestHistoryModule</title>
<path fill="none" stroke="black" d="M1572,-122.03C1572,-139.06 1572,-162 1572,-162 1572,-162 1192.36,-162 1192.36,-162"/>
<polygon fill="black" stroke="black" points="1192.36,-158.5 1182.36,-162 1192.36,-165.5 1192.36,-158.5"/>
</g>
<!-- RequestFilterComponent -->
<g id="node5" class="node">
<title>RequestFilterComponent</title>
<polygon fill="#ffffb3" stroke="black" points="1469.26,-122 1312.74,-122 1312.74,-86 1469.26,-86 1469.26,-122"/>
<text text-anchor="middle" x="1391" y="-99.8" font-family="Times,serif" font-size="14.00">RequestFilterComponent</text>
</g>
<!-- RequestFilterComponent&#45;&gt;RequestHistoryModule -->
<g id="edge5" class="edge">
<title>RequestFilterComponent&#45;&gt;RequestHistoryModule</title>
<path fill="none" stroke="black" d="M1357.18,-122.24C1357.18,-137.57 1357.18,-157 1357.18,-157 1357.18,-157 1192.45,-157 1192.45,-157"/>
<polygon fill="black" stroke="black" points="1192.45,-153.5 1182.45,-157 1192.45,-160.5 1192.45,-153.5"/>
</g>
<!-- RequestHistoryComponent -->
<g id="node6" class="node">
<title>RequestHistoryComponent</title>
<polygon fill="#ffffb3" stroke="black" points="1294.43,-122 1125.57,-122 1125.57,-86 1294.43,-86 1294.43,-122"/>
<text text-anchor="middle" x="1210" y="-99.8" font-family="Times,serif" font-size="14.00">RequestHistoryComponent</text>
</g>
<!-- RequestHistoryComponent&#45;&gt;RequestHistoryModule -->
<g id="edge6" class="edge">
<title>RequestHistoryComponent&#45;&gt;RequestHistoryModule</title>
<path fill="none" stroke="black" d="M1154.05,-122.11C1154.05,-122.11 1154.05,-140.99 1154.05,-140.99"/>
<polygon fill="black" stroke="black" points="1150.55,-140.99 1154.05,-150.99 1157.55,-140.99 1150.55,-140.99"/>
</g>
<!-- RequestHistoryFilterComponent -->
<g id="node7" class="node">
<title>RequestHistoryFilterComponent</title>
<polygon fill="#ffffb3" stroke="black" points="1107.26,-122 908.74,-122 908.74,-86 1107.26,-86 1107.26,-122"/>
<text text-anchor="middle" x="1008" y="-99.8" font-family="Times,serif" font-size="14.00">RequestHistoryFilterComponent</text>
</g>
<!-- RequestHistoryFilterComponent&#45;&gt;RequestHistoryModule -->
<g id="edge7" class="edge">
<title>RequestHistoryFilterComponent&#45;&gt;RequestHistoryModule</title>
<path fill="none" stroke="black" d="M1071.53,-122.11C1071.53,-122.11 1071.53,-140.99 1071.53,-140.99"/>
<polygon fill="black" stroke="black" points="1068.03,-140.99 1071.53,-150.99 1075.03,-140.99 1068.03,-140.99"/>
</g>
<!-- RequestTableComponent -->
<g id="node8" class="node">
<title>RequestTableComponent</title>
<polygon fill="#ffffb3" stroke="black" points="890.31,-122 731.69,-122 731.69,-86 890.31,-86 890.31,-122"/>
<text text-anchor="middle" x="811" y="-99.8" font-family="Times,serif" font-size="14.00">RequestTableComponent</text>
</g>
<!-- RequestTableComponent&#45;&gt;RequestHistoryModule -->
<g id="edge8" class="edge">
<title>RequestTableComponent&#45;&gt;RequestHistoryModule</title>
<path fill="none" stroke="black" d="M859.12,-122.24C859.12,-137.57 859.12,-157 859.12,-157 859.12,-157 1025.72,-157 1025.72,-157"/>
<polygon fill="black" stroke="black" points="1025.72,-160.5 1035.72,-157 1025.72,-153.5 1025.72,-160.5"/>
</g>
<!-- RequestDisplayComponent  -->
<g id="node12" class="node">
<title>RequestDisplayComponent </title>
<polygon fill="#fb8072" stroke="black" points="1401.98,-252 1228.02,-252 1228.02,-216 1401.98,-216 1401.98,-252"/>
<text text-anchor="middle" x="1315" y="-229.8" font-family="Times,serif" font-size="14.00">RequestDisplayComponent </text>
</g>
<!-- RequestHistoryModule&#45;&gt;RequestDisplayComponent  -->
<g id="edge11" class="edge">
<title>RequestHistoryModule&#45;&gt;RequestDisplayComponent </title>
<path fill="none" stroke="black" stroke-dasharray="5,2" d="M1182.44,-182C1221.37,-182 1261.24,-182 1261.24,-182 1261.24,-182 1261.24,-205.81 1261.24,-205.81"/>
<polygon fill="black" stroke="black" points="1257.74,-205.81 1261.24,-215.81 1264.74,-205.81 1257.74,-205.81"/>
</g>
<!-- RequestHistoryFilterComponent  -->
<g id="node13" class="node">
<title>RequestHistoryFilterComponent </title>
<polygon fill="#fb8072" stroke="black" points="1210.26,-252 1007.74,-252 1007.74,-216 1210.26,-216 1210.26,-252"/>
<text text-anchor="middle" x="1109" y="-229.8" font-family="Times,serif" font-size="14.00">RequestHistoryFilterComponent </text>
</g>
<!-- RequestHistoryModule&#45;&gt;RequestHistoryFilterComponent  -->
<g id="edge12" class="edge">
<title>RequestHistoryModule&#45;&gt;RequestHistoryFilterComponent </title>
<path fill="none" stroke="black" stroke-dasharray="5,2" d="M1109,-187.11C1109,-187.11 1109,-205.99 1109,-205.99"/>
<polygon fill="black" stroke="black" points="1105.5,-205.99 1109,-215.99 1112.5,-205.99 1105.5,-205.99"/>
</g>
<!-- RequestTableComponent  -->
<g id="node14" class="node">
<title>RequestTableComponent </title>
<polygon fill="#fb8072" stroke="black" points="989.81,-252 828.19,-252 828.19,-216 989.81,-216 989.81,-252"/>
<text text-anchor="middle" x="909" y="-229.8" font-family="Times,serif" font-size="14.00">RequestTableComponent </text>
</g>
<!-- RequestHistoryModule&#45;&gt;RequestTableComponent  -->
<g id="edge13" class="edge">
<title>RequestHistoryModule&#45;&gt;RequestTableComponent </title>
<path fill="none" stroke="black" stroke-dasharray="5,2" d="M1035.68,-182C993.68,-182 949.26,-182 949.26,-182 949.26,-182 949.26,-205.81 949.26,-205.81"/>
<polygon fill="black" stroke="black" points="945.76,-205.81 949.26,-215.81 952.76,-205.81 945.76,-205.81"/>
</g>
<!-- ItshopModule -->
<g id="node10" class="node">
<title>ItshopModule</title>
<polygon fill="#8dd3c7" stroke="black" points="708.05,-122 705.05,-126 684.05,-126 681.05,-122 613.95,-122 613.95,-86 708.05,-86 708.05,-122"/>
<text text-anchor="middle" x="661" y="-99.8" font-family="Times,serif" font-size="14.00">ItshopModule</text>
</g>
<!-- ItshopModule&#45;&gt;RequestHistoryModule -->
<g id="edge9" class="edge">
<title>ItshopModule&#45;&gt;RequestHistoryModule</title>
<path fill="none" stroke="black" d="M661,-122.03C661,-139.06 661,-162 661,-162 661,-162 1025.77,-162 1025.77,-162"/>
<polygon fill="black" stroke="black" points="1025.77,-165.5 1035.77,-162 1025.77,-158.5 1025.77,-165.5"/>
</g>
<!-- JustificationModule -->
<g id="node11" class="node">
<title>JustificationModule</title>
<polygon fill="#8dd3c7" stroke="black" points="595.98,-122 592.98,-126 571.98,-126 568.98,-122 468.02,-122 468.02,-86 595.98,-86 595.98,-122"/>
<text text-anchor="middle" x="532" y="-99.8" font-family="Times,serif" font-size="14.00">JustificationModule</text>
</g>
<!-- JustificationModule&#45;&gt;RequestHistoryModule -->
<g id="edge10" class="edge">
<title>JustificationModule&#45;&gt;RequestHistoryModule</title>
<path fill="none" stroke="black" d="M532,-122.22C532,-140.83 532,-167 532,-167 532,-167 1025.63,-167 1025.63,-167"/>
<polygon fill="black" stroke="black" points="1025.63,-170.5 1035.63,-167 1025.63,-163.5 1025.63,-170.5"/>
</g>
<!-- RequestDisplayService -->
<g id="node15" class="node">
<title>RequestDisplayService</title>
<ellipse fill="#fdb462" stroke="black" cx="343" cy="-104" rx="101.28" ry="18"/>
<text text-anchor="middle" x="343" y="-99.8" font-family="Times,serif" font-size="14.00">RequestDisplayService</text>
</g>
<!-- RequestDisplayService&#45;&gt;RequestHistoryModule -->
<g id="edge14" class="edge">
<title>RequestDisplayService&#45;&gt;RequestHistoryModule</title>
<path fill="none" stroke="black" d="M343,-122.22C343,-142.37 343,-172 343,-172 343,-172 1025.55,-172 1025.55,-172"/>
<polygon fill="black" stroke="black" points="1025.55,-175.5 1035.55,-172 1025.55,-168.5 1025.55,-175.5"/>
</g>
<!-- RequestHistoryService -->
<g id="node16" class="node">
<title>RequestHistoryService</title>
<ellipse fill="#fdb462" stroke="black" cx="124" cy="-104" rx="100.14" ry="18"/>
<text text-anchor="middle" x="124" y="-99.8" font-family="Times,serif" font-size="14.00">RequestHistoryService</text>
</g>
<!-- RequestHistoryService&#45;&gt;RequestHistoryModule -->
<g id="edge15" class="edge">
<title>RequestHistoryService&#45;&gt;RequestHistoryModule</title>
<path fill="none" stroke="black" d="M124,-122.04C124,-143.66 124,-177 124,-177 124,-177 1025.77,-177 1025.77,-177"/>
<polygon fill="black" stroke="black" points="1025.77,-180.5 1035.77,-177 1025.77,-173.5 1025.77,-180.5"/>
</g>
</g>
</svg>
