<?xml version="1.0" encoding="UTF-8" standalone="no"?>
<!DOCTYPE svg PUBLIC "-//W3C//DTD SVG 1.1//EN"
 "http://www.w3.org/Graphics/SVG/1.1/DTD/svg11.dtd">
<!-- Generated by graphviz version 2.47.0 (20210316.0004)
 -->
<!-- Title: dependencies Pages: 1 -->
<svg width="504pt" height="284pt"
 viewBox="0.00 0.00 504.00 284.00" xmlns="http://www.w3.org/2000/svg" xmlns:xlink="http://www.w3.org/1999/xlink">
<g id="graph0" class="graph" transform="scale(1 1) rotate(0) translate(4 280)">
<title>dependencies</title>
<polygon fill="white" stroke="transparent" points="-4,4 -4,-280 500,-280 500,4 -4,4"/>
<text text-anchor="start" x="227.01" y="-42.4" font-family="Times-12" font-weight="bold" font-size="14.00">Legend</text>
<polygon fill="#ffffb3" stroke="transparent" points="14,-10 14,-30 34,-30 34,-10 14,-10"/>
<text text-anchor="start" x="37.63" y="-15.4" font-family="Times-12" font-size="14.00"> &#160;Declarations</text>
<polygon fill="#8dd3c7" stroke="transparent" points="127,-10 127,-30 147,-30 147,-10 127,-10"/>
<text text-anchor="start" x="150.73" y="-15.4" font-family="Times-12" font-size="14.00"> &#160;Module</text>
<polygon fill="#80b1d3" stroke="transparent" points="213,-10 213,-30 233,-30 233,-10 213,-10"/>
<text text-anchor="start" x="236.78" y="-15.4" font-family="Times-12" font-size="14.00"> &#160;Bootstrap</text>
<polygon fill="#fdb462" stroke="transparent" points="310,-10 310,-30 330,-30 330,-10 310,-10"/>
<text text-anchor="start" x="333.67" y="-15.4" font-family="Times-12" font-size="14.00"> &#160;Providers</text>
<polygon fill="#fb8072" stroke="transparent" points="406,-10 406,-30 426,-30 426,-10 406,-10"/>
<text text-anchor="start" x="429.73" y="-15.4" font-family="Times-12" font-size="14.00"> &#160;Exports</text>
<g id="clust1" class="cluster">
<title>cluster_RiskModule</title>
<polygon fill="none" stroke="black" stroke-dasharray="1,5" points="36.5,-70 36.5,-268 459.5,-268 459.5,-70 36.5,-70"/>
</g>
<g id="clust6" class="cluster">
<title>cluster_RiskModule_exports</title>
<polygon fill="none" stroke="black" points="44.5,-208 44.5,-260 451.5,-260 451.5,-208 44.5,-208"/>
</g>
<g id="clust2" class="cluster">
<title>cluster_RiskModule_declarations</title>
<polygon fill="none" stroke="black" points="48.5,-78 48.5,-130 448.5,-130 448.5,-78 48.5,-78"/>
</g>
<!-- RiskAnalysisComponent -->
<g id="node1" class="node">
<title>RiskAnalysisComponent</title>
<polygon fill="#ffffb3" stroke="black" points="440.5,-122 284.5,-122 284.5,-86 440.5,-86 440.5,-122"/>
<text text-anchor="middle" x="362.5" y="-99.8" font-family="Times,serif" font-size="14.00">RiskAnalysisComponent</text>
</g>
<!-- RiskModule -->
<g id="node3" class="node">
<title>RiskModule</title>
<polygon fill="#8dd3c7" stroke="black" points="205.22,-187 202.22,-191 181.22,-191 178.22,-187 119.78,-187 119.78,-151 205.22,-151 205.22,-187"/>
<text text-anchor="middle" x="162.5" y="-164.8" font-family="Times,serif" font-size="14.00">RiskModule</text>
</g>
<!-- RiskAnalysisComponent&#45;&gt;RiskModule -->
<g id="edge1" class="edge">
<title>RiskAnalysisComponent&#45;&gt;RiskModule</title>
<path fill="none" stroke="black" d="M388.5,-122.02C388.5,-139.37 388.5,-163 388.5,-163 388.5,-163 215.27,-163 215.27,-163"/>
<polygon fill="black" stroke="black" points="215.27,-159.5 205.27,-163 215.27,-166.5 215.27,-159.5"/>
</g>
<!-- RiskAnalysisSidesheetComponent -->
<g id="node2" class="node">
<title>RiskAnalysisSidesheetComponent</title>
<polygon fill="#ffffb3" stroke="black" points="266.15,-122 56.85,-122 56.85,-86 266.15,-86 266.15,-122"/>
<text text-anchor="middle" x="161.5" y="-99.8" font-family="Times,serif" font-size="14.00">RiskAnalysisSidesheetComponent</text>
</g>
<!-- RiskAnalysisSidesheetComponent&#45;&gt;RiskModule -->
<g id="edge2" class="edge">
<title>RiskAnalysisSidesheetComponent&#45;&gt;RiskModule</title>
<path fill="none" stroke="black" d="M162.5,-122.11C162.5,-122.11 162.5,-140.99 162.5,-140.99"/>
<polygon fill="black" stroke="black" points="159,-140.99 162.5,-150.99 166,-140.99 159,-140.99"/>
</g>
<!-- RiskAnalysisComponent  -->
<g id="node4" class="node">
<title>RiskAnalysisComponent </title>
<polygon fill="#fb8072" stroke="black" points="443.5,-252 283.5,-252 283.5,-216 443.5,-216 443.5,-252"/>
<text text-anchor="middle" x="363.5" y="-229.8" font-family="Times,serif" font-size="14.00">RiskAnalysisComponent </text>
</g>
<!-- RiskModule&#45;&gt;RiskAnalysisComponent  -->
<g id="edge3" class="edge">
<title>RiskModule&#45;&gt;RiskAnalysisComponent </title>
<path fill="none" stroke="black" stroke-dasharray="5,2" d="M205.51,-175C257.04,-175 336.5,-175 336.5,-175 336.5,-175 336.5,-205.98 336.5,-205.98"/>
<polygon fill="black" stroke="black" points="333,-205.98 336.5,-215.98 340,-205.98 333,-205.98"/>
</g>
<!-- RiskAnalysisSidesheetComponent  -->
<g id="node5" class="node">
<title>RiskAnalysisSidesheetComponent </title>
<polygon fill="#fb8072" stroke="black" points="266.15,-252 52.85,-252 52.85,-216 266.15,-216 266.15,-252"/>
<text text-anchor="middle" x="159.5" y="-229.8" font-family="Times,serif" font-size="14.00">RiskAnalysisSidesheetComponent </text>
</g>
<!-- RiskModule&#45;&gt;RiskAnalysisSidesheetComponent  -->
<g id="edge4" class="edge">
<title>RiskModule&#45;&gt;RiskAnalysisSidesheetComponent </title>
<path fill="none" stroke="black" stroke-dasharray="5,2" d="M162.5,-187.11C162.5,-187.11 162.5,-205.99 162.5,-205.99"/>
<polygon fill="black" stroke="black" points="159,-205.99 162.5,-215.99 166,-205.99 159,-205.99"/>
</g>
</g>
</svg>
