<?xml version="1.0" encoding="UTF-8" standalone="no"?>
<!DOCTYPE svg PUBLIC "-//W3C//DTD SVG 1.1//EN"
 "http://www.w3.org/Graphics/SVG/1.1/DTD/svg11.dtd">
<!-- Generated by graphviz version 2.47.0 (20210316.0004)
 -->
<!-- Title: dependencies Pages: 1 -->
<svg width="2473pt" height="211pt"
 viewBox="0.00 0.00 2473.00 211.00" xmlns="http://www.w3.org/2000/svg" xmlns:xlink="http://www.w3.org/1999/xlink">
<g id="graph0" class="graph" transform="scale(1 1) rotate(0) translate(4 207)">
<title>dependencies</title>
<polygon fill="white" stroke="transparent" points="-4,4 -4,-207 2469,-207 2469,4 -4,4"/>
<text text-anchor="start" x="1211.51" y="-42.4" font-family="Times-12" font-weight="bold" font-size="14.00">Legend</text>
<polygon fill="#ffffb3" stroke="transparent" points="998.5,-10 998.5,-30 1018.5,-30 1018.5,-10 998.5,-10"/>
<text text-anchor="start" x="1022.13" y="-15.4" font-family="Times-12" font-size="14.00"> &#160;Declarations</text>
<polygon fill="#8dd3c7" stroke="transparent" points="1111.5,-10 1111.5,-30 1131.5,-30 1131.5,-10 1111.5,-10"/>
<text text-anchor="start" x="1135.23" y="-15.4" font-family="Times-12" font-size="14.00"> &#160;Module</text>
<polygon fill="#80b1d3" stroke="transparent" points="1197.5,-10 1197.5,-30 1217.5,-30 1217.5,-10 1197.5,-10"/>
<text text-anchor="start" x="1221.28" y="-15.4" font-family="Times-12" font-size="14.00"> &#160;Bootstrap</text>
<polygon fill="#fdb462" stroke="transparent" points="1294.5,-10 1294.5,-30 1314.5,-30 1314.5,-10 1294.5,-10"/>
<text text-anchor="start" x="1318.17" y="-15.4" font-family="Times-12" font-size="14.00"> &#160;Providers</text>
<polygon fill="#fb8072" stroke="transparent" points="1390.5,-10 1390.5,-30 1410.5,-30 1410.5,-10 1390.5,-10"/>
<text text-anchor="start" x="1414.23" y="-15.4" font-family="Times-12" font-size="14.00"> &#160;Exports</text>
<g id="clust1" class="cluster">
<title>cluster_ProductSelectionModule</title>
<polygon fill="none" stroke="black" stroke-dasharray="1,5" points="8,-70 8,-195 2457,-195 2457,-70 8,-70"/>
</g>
<g id="clust2" class="cluster">
<title>cluster_ProductSelectionModule_declarations</title>
<polygon fill="none" stroke="black" points="772,-78 772,-130 2449,-130 2449,-78 772,-78"/>
</g>
<g id="clust11" class="cluster">
<title>cluster_ProductSelectionModule_imports</title>
<polygon fill="none" stroke="black" points="252,-78 252,-130 764,-130 764,-78 252,-78"/>
</g>
<g id="clust14" class="cluster">
<title>cluster_ProductSelectionModule_providers</title>
<polygon fill="none" stroke="black" points="16,-78 16,-130 244,-130 244,-78 16,-78"/>
</g>
<!-- CategoryTreeComponent -->
<g id="node1" class="node">
<title>CategoryTreeComponent</title>
<polygon fill="#ffffb3" stroke="black" points="2441.29,-122 2282.71,-122 2282.71,-86 2441.29,-86 2441.29,-122"/>
<text text-anchor="middle" x="2362" y="-99.8" font-family="Times,serif" font-size="14.00">CategoryTreeComponent</text>
</g>
<!-- ProductSelectionModule -->
<g id="node9" class="node">
<title>ProductSelectionModule</title>
<polygon fill="#8dd3c7" stroke="black" points="1145.7,-187 1142.7,-191 1121.7,-191 1118.7,-187 990.3,-187 990.3,-151 1145.7,-151 1145.7,-187"/>
<text text-anchor="middle" x="1068" y="-164.8" font-family="Times,serif" font-size="14.00">ProductSelectionModule</text>
</g>
<!-- CategoryTreeComponent&#45;&gt;ProductSelectionModule -->
<g id="edge1" class="edge">
<title>CategoryTreeComponent&#45;&gt;ProductSelectionModule</title>
<path fill="none" stroke="black" d="M2362,-122.09C2362,-145.13 2362,-182 2362,-182 2362,-182 1156.03,-182 1156.03,-182"/>
<polygon fill="black" stroke="black" points="1156.03,-178.5 1146.03,-182 1156.03,-185.5 1156.03,-178.5"/>
</g>
<!-- OptionalItemsSidesheetComponent -->
<g id="node2" class="node">
<title>OptionalItemsSidesheetComponent</title>
<polygon fill="#ffffb3" stroke="black" points="2264.58,-122 2049.42,-122 2049.42,-86 2264.58,-86 2264.58,-122"/>
<text text-anchor="middle" x="2157" y="-99.8" font-family="Times,serif" font-size="14.00">OptionalItemsSidesheetComponent</text>
</g>
<!-- OptionalItemsSidesheetComponent&#45;&gt;ProductSelectionModule -->
<g id="edge2" class="edge">
<title>OptionalItemsSidesheetComponent&#45;&gt;ProductSelectionModule</title>
<path fill="none" stroke="black" d="M2157,-122.04C2157,-143.66 2157,-177 2157,-177 2157,-177 1155.88,-177 1155.88,-177"/>
<polygon fill="black" stroke="black" points="1155.88,-173.5 1145.88,-177 1155.88,-180.5 1155.88,-173.5"/>
</g>
<!-- PatternDetailsSidesheetComponent -->
<g id="node3" class="node">
<title>PatternDetailsSidesheetComponent</title>
<polygon fill="#ffffb3" stroke="black" points="2031.29,-122 1816.71,-122 1816.71,-86 2031.29,-86 2031.29,-122"/>
<text text-anchor="middle" x="1924" y="-99.8" font-family="Times,serif" font-size="14.00">PatternDetailsSidesheetComponent</text>
</g>
<!-- PatternDetailsSidesheetComponent&#45;&gt;ProductSelectionModule -->
<g id="edge3" class="edge">
<title>PatternDetailsSidesheetComponent&#45;&gt;ProductSelectionModule</title>
<path fill="none" stroke="black" d="M1924,-122.22C1924,-142.37 1924,-172 1924,-172 1924,-172 1155.85,-172 1155.85,-172"/>
<polygon fill="black" stroke="black" points="1155.85,-168.5 1145.85,-172 1155.85,-175.5 1155.85,-168.5"/>
</g>
<!-- ProductDetailsSidesheetComponent -->
<g id="node4" class="node">
<title>ProductDetailsSidesheetComponent</title>
<polygon fill="#ffffb3" stroke="black" points="1799.19,-122 1580.81,-122 1580.81,-86 1799.19,-86 1799.19,-122"/>
<text text-anchor="middle" x="1690" y="-99.8" font-family="Times,serif" font-size="14.00">ProductDetailsSidesheetComponent</text>
</g>
<!-- ProductDetailsSidesheetComponent&#45;&gt;ProductSelectionModule -->
<g id="edge4" class="edge">
<title>ProductDetailsSidesheetComponent&#45;&gt;ProductSelectionModule</title>
<path fill="none" stroke="black" d="M1690,-122.22C1690,-140.83 1690,-167 1690,-167 1690,-167 1155.83,-167 1155.83,-167"/>
<polygon fill="black" stroke="black" points="1155.83,-163.5 1145.83,-167 1155.83,-170.5 1155.83,-163.5"/>
</g>
<!-- ProductSelectionComponent -->
<g id="node5" class="node">
<title>ProductSelectionComponent</title>
<polygon fill="#ffffb3" stroke="black" points="1562.48,-122 1385.52,-122 1385.52,-86 1562.48,-86 1562.48,-122"/>
<text text-anchor="middle" x="1474" y="-99.8" font-family="Times,serif" font-size="14.00">ProductSelectionComponent</text>
</g>
<!-- ProductSelectionComponent&#45;&gt;ProductSelectionModule -->
<g id="edge5" class="edge">
<title>ProductSelectionComponent&#45;&gt;ProductSelectionModule</title>
<path fill="none" stroke="black" d="M1474,-122.03C1474,-139.06 1474,-162 1474,-162 1474,-162 1155.8,-162 1155.8,-162"/>
<polygon fill="black" stroke="black" points="1155.8,-158.5 1145.8,-162 1155.8,-165.5 1155.8,-158.5"/>
</g>
<!-- RoleMembershipsComponent -->
<g id="node6" class="node">
<title>RoleMembershipsComponent</title>
<polygon fill="#ffffb3" stroke="black" points="1367.98,-122 1184.02,-122 1184.02,-86 1367.98,-86 1367.98,-122"/>
<text text-anchor="middle" x="1276" y="-99.8" font-family="Times,serif" font-size="14.00">RoleMembershipsComponent</text>
</g>
<!-- RoleMembershipsComponent&#45;&gt;ProductSelectionModule -->
<g id="edge6" class="edge">
<title>RoleMembershipsComponent&#45;&gt;ProductSelectionModule</title>
<path fill="none" stroke="black" d="M1276,-122.24C1276,-137.57 1276,-157 1276,-157 1276,-157 1155.75,-157 1155.75,-157"/>
<polygon fill="black" stroke="black" points="1155.75,-153.5 1145.75,-157 1155.75,-160.5 1155.75,-153.5"/>
</g>
<!-- ServiceCategoryListComponent -->
<g id="node7" class="node">
<title>ServiceCategoryListComponent</title>
<polygon fill="#ffffb3" stroke="black" points="1166.41,-122 969.59,-122 969.59,-86 1166.41,-86 1166.41,-122"/>
<text text-anchor="middle" x="1068" y="-99.8" font-family="Times,serif" font-size="14.00">ServiceCategoryListComponent</text>
</g>
<!-- ServiceCategoryListComponent&#45;&gt;ProductSelectionModule -->
<g id="edge7" class="edge">
<title>ServiceCategoryListComponent&#45;&gt;ProductSelectionModule</title>
<path fill="none" stroke="black" d="M1068,-122.11C1068,-122.11 1068,-140.99 1068,-140.99"/>
<polygon fill="black" stroke="black" points="1064.5,-140.99 1068,-150.99 1071.5,-140.99 1064.5,-140.99"/>
</g>
<!-- ServiceItemEditComponent -->
<g id="node8" class="node">
<title>ServiceItemEditComponent</title>
<polygon fill="#ffffb3" stroke="black" points="952.3,-122 779.7,-122 779.7,-86 952.3,-86 952.3,-122"/>
<text text-anchor="middle" x="866" y="-99.8" font-family="Times,serif" font-size="14.00">ServiceItemEditComponent</text>
</g>
<!-- ServiceItemEditComponent&#45;&gt;ProductSelectionModule -->
<g id="edge8" class="edge">
<title>ServiceItemEditComponent&#45;&gt;ProductSelectionModule</title>
<path fill="none" stroke="black" d="M866,-122.24C866,-137.57 866,-157 866,-157 866,-157 980.19,-157 980.19,-157"/>
<polygon fill="black" stroke="black" points="980.19,-160.5 990.19,-157 980.19,-153.5 980.19,-160.5"/>
</g>
<!-- ItshopModule -->
<g id="node10" class="node">
<title>ItshopModule</title>
<polygon fill="#8dd3c7" stroke="black" points="756.05,-122 753.05,-126 732.05,-126 729.05,-122 661.95,-122 661.95,-86 756.05,-86 756.05,-122"/>
<text text-anchor="middle" x="709" y="-99.8" font-family="Times,serif" font-size="14.00">ItshopModule</text>
</g>
<!-- ItshopModule&#45;&gt;ProductSelectionModule -->
<g id="edge9" class="edge">
<title>ItshopModule&#45;&gt;ProductSelectionModule</title>
<path fill="none" stroke="black" d="M709,-122.03C709,-139.06 709,-162 709,-162 709,-162 980.1,-162 980.1,-162"/>
<polygon fill="black" stroke="black" points="980.1,-165.5 990.1,-162 980.1,-158.5 980.1,-165.5"/>
</g>
<!-- PatternItemsModule -->
<g id="node11" class="node">
<title>PatternItemsModule</title>
<polygon fill="#8dd3c7" stroke="black" points="644.3,-122 641.3,-126 620.3,-126 617.3,-122 513.7,-122 513.7,-86 644.3,-86 644.3,-122"/>
<text text-anchor="middle" x="579" y="-99.8" font-family="Times,serif" font-size="14.00">PatternItemsModule</text>
</g>
<!-- PatternItemsModule&#45;&gt;ProductSelectionModule -->
<g id="edge10" class="edge">
<title>PatternItemsModule&#45;&gt;ProductSelectionModule</title>
<path fill="none" stroke="black" d="M579,-122.22C579,-140.83 579,-167 579,-167 579,-167 980.25,-167 980.25,-167"/>
<polygon fill="black" stroke="black" points="980.25,-170.5 990.25,-167 980.25,-163.5 980.25,-170.5"/>
</g>
<!-- ServiceItemsModule -->
<g id="node12" class="node">
<title>ServiceItemsModule</title>
<polygon fill="#8dd3c7" stroke="black" points="496.13,-122 493.13,-126 472.13,-126 469.13,-122 363.87,-122 363.87,-86 496.13,-86 496.13,-122"/>
<text text-anchor="middle" x="430" y="-99.8" font-family="Times,serif" font-size="14.00">ServiceItemsModule</text>
</g>
<!-- ServiceItemsModule&#45;&gt;ProductSelectionModule -->
<g id="edge11" class="edge">
<title>ServiceItemsModule&#45;&gt;ProductSelectionModule</title>
<path fill="none" stroke="black" d="M430,-122.22C430,-142.37 430,-172 430,-172 430,-172 980.09,-172 980.09,-172"/>
<polygon fill="black" stroke="black" points="980.09,-175.5 990.09,-172 980.09,-168.5 980.09,-175.5"/>
</g>
<!-- UserModule -->
<g id="node13" class="node">
<title>UserModule</title>
<polygon fill="#8dd3c7" stroke="black" points="345.98,-122 342.98,-126 321.98,-126 318.98,-122 260.02,-122 260.02,-86 345.98,-86 345.98,-122"/>
<text text-anchor="middle" x="303" y="-99.8" font-family="Times,serif" font-size="14.00">UserModule</text>
</g>
<!-- UserModule&#45;&gt;ProductSelectionModule -->
<g id="edge12" class="edge">
<title>UserModule&#45;&gt;ProductSelectionModule</title>
<path fill="none" stroke="black" d="M303,-122.04C303,-143.66 303,-177 303,-177 303,-177 980.08,-177 980.08,-177"/>
<polygon fill="black" stroke="black" points="980.08,-180.5 990.08,-177 980.08,-173.5 980.08,-180.5"/>
</g>
<!-- ProductSelectionService -->
<g id="node14" class="node">
<title>ProductSelectionService</title>
<ellipse fill="#fdb462" stroke="black" cx="130" cy="-104" rx="105.93" ry="18"/>
<text text-anchor="middle" x="130" y="-99.8" font-family="Times,serif" font-size="14.00">ProductSelectionService</text>
</g>
<!-- ProductSelectionService&#45;&gt;ProductSelectionModule -->
<g id="edge13" class="edge">
<title>ProductSelectionService&#45;&gt;ProductSelectionModule</title>
<path fill="none" stroke="black" d="M130,-122.09C130,-145.13 130,-182 130,-182 130,-182 980.04,-182 980.04,-182"/>
<polygon fill="black" stroke="black" points="980.04,-185.5 990.04,-182 980.04,-178.5 980.04,-185.5"/>
</g>
</g>
</svg>
