<?xml version="1.0" encoding="UTF-8" standalone="no"?>
<!DOCTYPE svg PUBLIC "-//W3C//DTD SVG 1.1//EN"
 "http://www.w3.org/Graphics/SVG/1.1/DTD/svg11.dtd">
<!-- Generated by graphviz version 2.47.0 (20210316.0004)
 -->
<!-- Title: dependencies Pages: 1 -->
<svg width="3895pt" height="284pt"
 viewBox="0.00 0.00 3895.00 284.00" xmlns="http://www.w3.org/2000/svg" xmlns:xlink="http://www.w3.org/1999/xlink">
<g id="graph0" class="graph" transform="scale(1 1) rotate(0) translate(4 280)">
<title>dependencies</title>
<polygon fill="white" stroke="transparent" points="-4,4 -4,-280 3891,-280 3891,4 -4,4"/>
<text text-anchor="start" x="1922.51" y="-42.4" font-family="Times-12" font-weight="bold" font-size="14.00">Legend</text>
<polygon fill="#ffffb3" stroke="transparent" points="1709.5,-10 1709.5,-30 1729.5,-30 1729.5,-10 1709.5,-10"/>
<text text-anchor="start" x="1733.13" y="-15.4" font-family="Times-12" font-size="14.00"> &#160;Declarations</text>
<polygon fill="#8dd3c7" stroke="transparent" points="1822.5,-10 1822.5,-30 1842.5,-30 1842.5,-10 1822.5,-10"/>
<text text-anchor="start" x="1846.23" y="-15.4" font-family="Times-12" font-size="14.00"> &#160;Module</text>
<polygon fill="#80b1d3" stroke="transparent" points="1908.5,-10 1908.5,-30 1928.5,-30 1928.5,-10 1908.5,-10"/>
<text text-anchor="start" x="1932.28" y="-15.4" font-family="Times-12" font-size="14.00"> &#160;Bootstrap</text>
<polygon fill="#fdb462" stroke="transparent" points="2005.5,-10 2005.5,-30 2025.5,-30 2025.5,-10 2005.5,-10"/>
<text text-anchor="start" x="2029.17" y="-15.4" font-family="Times-12" font-size="14.00"> &#160;Providers</text>
<polygon fill="#fb8072" stroke="transparent" points="2101.5,-10 2101.5,-30 2121.5,-30 2121.5,-10 2101.5,-10"/>
<text text-anchor="start" x="2125.23" y="-15.4" font-family="Times-12" font-size="14.00"> &#160;Exports</text>
<g id="clust1" class="cluster">
<title>cluster_NewRequestModule</title>
<polygon fill="none" stroke="black" stroke-dasharray="1,5" points="8,-70 8,-268 3879,-268 3879,-70 8,-70"/>
</g>
<g id="clust2" class="cluster">
<title>cluster_NewRequestModule_declarations</title>
<polygon fill="none" stroke="black" points="216,-78 216,-130 3871,-130 3871,-78 216,-78"/>
</g>
<g id="clust20" class="cluster">
<title>cluster_NewRequestModule_exports</title>
<polygon fill="none" stroke="black" points="1932,-208 1932,-260 2104,-260 2104,-208 1932,-208"/>
</g>
<g id="clust19" class="cluster">
<title>cluster_NewRequestModule_imports</title>
<polygon fill="none" stroke="black" points="16,-78 16,-130 208,-130 208,-78 16,-78"/>
</g>
<!-- ElementVisibilityDirective -->
<g id="node1" class="node">
<title>ElementVisibilityDirective</title>
<polygon fill="#ffffb3" stroke="black" points="3862.63,-122 3695.37,-122 3695.37,-86 3862.63,-86 3862.63,-122"/>
<text text-anchor="middle" x="3779" y="-99.8" font-family="Times,serif" font-size="14.00">ElementVisibilityDirective</text>
</g>
<!-- NewRequestModule -->
<g id="node17" class="node">
<title>NewRequestModule</title>
<polygon fill="#8dd3c7" stroke="black" points="2083.58,-187 2080.58,-191 2059.58,-191 2056.58,-187 1952.42,-187 1952.42,-151 2083.58,-151 2083.58,-187"/>
<text text-anchor="middle" x="2018" y="-164.8" font-family="Times,serif" font-size="14.00">NewRequestModule</text>
</g>
<!-- ElementVisibilityDirective&#45;&gt;NewRequestModule -->
<g id="edge1" class="edge">
<title>ElementVisibilityDirective&#45;&gt;NewRequestModule</title>
<path fill="none" stroke="black" d="M3779,-122.32C3779,-145.66 3779,-183 3779,-183 3779,-183 2093.55,-183 2093.55,-183"/>
<polygon fill="black" stroke="black" points="2093.55,-179.5 2083.55,-183 2093.55,-186.5 2093.55,-179.5"/>
</g>
<!-- NewRequestComponent -->
<g id="node2" class="node">
<title>NewRequestComponent</title>
<polygon fill="#ffffb3" stroke="black" points="3677.36,-122 3524.64,-122 3524.64,-86 3677.36,-86 3677.36,-122"/>
<text text-anchor="middle" x="3601" y="-99.8" font-family="Times,serif" font-size="14.00">NewRequestComponent</text>
</g>
<!-- NewRequestComponent&#45;&gt;NewRequestModule -->
<g id="edge2" class="edge">
<title>NewRequestComponent&#45;&gt;NewRequestModule</title>
<path fill="none" stroke="black" d="M3601,-122.16C3601,-144.35 3601,-179 3601,-179 3601,-179 2094,-179 2094,-179"/>
<polygon fill="black" stroke="black" points="2094,-175.5 2084,-179 2094,-182.5 2094,-175.5"/>
</g>
<!-- NewRequestContentComponent -->
<g id="node3" class="node">
<title>NewRequestContentComponent</title>
<polygon fill="#ffffb3" stroke="black" points="3506.69,-122 3309.31,-122 3309.31,-86 3506.69,-86 3506.69,-122"/>
<text text-anchor="middle" x="3408" y="-99.8" font-family="Times,serif" font-size="14.00">NewRequestContentComponent</text>
</g>
<!-- NewRequestContentComponent&#45;&gt;NewRequestModule -->
<g id="edge3" class="edge">
<title>NewRequestContentComponent&#45;&gt;NewRequestModule</title>
<path fill="none" stroke="black" d="M3408,-122.28C3408,-143.32 3408,-175 3408,-175 3408,-175 2093.64,-175 2093.64,-175"/>
<polygon fill="black" stroke="black" points="2093.64,-171.5 2083.64,-175 2093.64,-178.5 2093.64,-171.5"/>
</g>
<!-- NewRequestHeaderComponent -->
<g id="node4" class="node">
<title>NewRequestHeaderComponent</title>
<polygon fill="#ffffb3" stroke="black" points="3291.77,-122 3098.23,-122 3098.23,-86 3291.77,-86 3291.77,-122"/>
<text text-anchor="middle" x="3195" y="-99.8" font-family="Times,serif" font-size="14.00">NewRequestHeaderComponent</text>
</g>
<!-- NewRequestHeaderComponent&#45;&gt;NewRequestModule -->
<g id="edge4" class="edge">
<title>NewRequestHeaderComponent&#45;&gt;NewRequestModule</title>
<path fill="none" stroke="black" d="M3195,-122.31C3195,-142.15 3195,-171 3195,-171 3195,-171 2093.8,-171 2093.8,-171"/>
<polygon fill="black" stroke="black" points="2093.8,-167.5 2083.8,-171 2093.8,-174.5 2093.8,-167.5"/>
</g>
<!-- NewRequestHeaderToolbarComponent -->
<g id="node5" class="node">
<title>NewRequestHeaderToolbarComponent</title>
<polygon fill="#ffffb3" stroke="black" points="3080.59,-122 2843.41,-122 2843.41,-86 3080.59,-86 3080.59,-122"/>
<text text-anchor="middle" x="2962" y="-99.8" font-family="Times,serif" font-size="14.00">NewRequestHeaderToolbarComponent</text>
</g>
<!-- NewRequestHeaderToolbarComponent&#45;&gt;NewRequestModule -->
<g id="edge5" class="edge">
<title>NewRequestHeaderToolbarComponent&#45;&gt;NewRequestModule</title>
<path fill="none" stroke="black" d="M2962,-122.22C2962,-140.83 2962,-167 2962,-167 2962,-167 2093.63,-167 2093.63,-167"/>
<polygon fill="black" stroke="black" points="2093.63,-163.5 2083.63,-167 2093.63,-170.5 2093.63,-163.5"/>
</g>
<!-- NewRequestPeerGroupComponent -->
<g id="node6" class="node">
<title>NewRequestPeerGroupComponent</title>
<polygon fill="#ffffb3" stroke="black" points="2824.5,-122 2611.5,-122 2611.5,-86 2824.5,-86 2824.5,-122"/>
<text text-anchor="middle" x="2718" y="-99.8" font-family="Times,serif" font-size="14.00">NewRequestPeerGroupComponent</text>
</g>
<!-- NewRequestPeerGroupComponent&#45;&gt;NewRequestModule -->
<g id="edge6" class="edge">
<title>NewRequestPeerGroupComponent&#45;&gt;NewRequestModule</title>
<path fill="none" stroke="black" d="M2718,-122.02C2718,-139.37 2718,-163 2718,-163 2718,-163 2093.54,-163 2093.54,-163"/>
<polygon fill="black" stroke="black" points="2093.54,-159.5 2083.54,-163 2093.54,-166.5 2093.54,-159.5"/>
</g>
<!-- NewRequestProductBundleComponent -->
<g id="node7" class="node">
<title>NewRequestProductBundleComponent</title>
<polygon fill="#ffffb3" stroke="black" points="2593.35,-122 2356.65,-122 2356.65,-86 2593.35,-86 2593.35,-122"/>
<text text-anchor="middle" x="2475" y="-99.8" font-family="Times,serif" font-size="14.00">NewRequestProductBundleComponent</text>
</g>
<!-- NewRequestProductBundleComponent&#45;&gt;NewRequestModule -->
<g id="edge7" class="edge">
<title>NewRequestProductBundleComponent&#45;&gt;NewRequestModule</title>
<path fill="none" stroke="black" d="M2475,-122.01C2475,-138.05 2475,-159 2475,-159 2475,-159 2093.96,-159 2093.96,-159"/>
<polygon fill="black" stroke="black" points="2093.96,-155.5 2083.96,-159 2093.96,-162.5 2093.96,-155.5"/>
</g>
<!-- NewRequestProductComponent -->
<g id="node8" class="node">
<title>NewRequestProductComponent</title>
<polygon fill="#ffffb3" stroke="black" points="2338.41,-122 2141.59,-122 2141.59,-86 2338.41,-86 2338.41,-122"/>
<text text-anchor="middle" x="2240" y="-99.8" font-family="Times,serif" font-size="14.00">NewRequestProductComponent</text>
</g>
<!-- NewRequestProductComponent&#45;&gt;NewRequestModule -->
<g id="edge8" class="edge">
<title>NewRequestProductComponent&#45;&gt;NewRequestModule</title>
<path fill="none" stroke="black" d="M2240,-122.12C2240,-136.78 2240,-155 2240,-155 2240,-155 2093.71,-155 2093.71,-155"/>
<polygon fill="black" stroke="black" points="2093.71,-151.5 2083.71,-155 2093.71,-158.5 2093.71,-151.5"/>
</g>
<!-- NewRequestRecipientsComponent -->
<g id="node9" class="node">
<title>NewRequestRecipientsComponent</title>
<polygon fill="#ffffb3" stroke="black" points="2123.96,-122 1912.04,-122 1912.04,-86 2123.96,-86 2123.96,-122"/>
<text text-anchor="middle" x="2018" y="-99.8" font-family="Times,serif" font-size="14.00">NewRequestRecipientsComponent</text>
</g>
<!-- NewRequestRecipientsComponent&#45;&gt;NewRequestModule -->
<g id="edge9" class="edge">
<title>NewRequestRecipientsComponent&#45;&gt;NewRequestModule</title>
<path fill="none" stroke="black" d="M2018,-122.11C2018,-122.11 2018,-140.99 2018,-140.99"/>
<polygon fill="black" stroke="black" points="2014.5,-140.99 2018,-150.99 2021.5,-140.99 2014.5,-140.99"/>
</g>
<!-- NewRequestReferenceUserCardComponent -->
<g id="node10" class="node">
<title>NewRequestReferenceUserCardComponent</title>
<polygon fill="#ffffb3" stroke="black" points="1893.73,-122 1630.27,-122 1630.27,-86 1893.73,-86 1893.73,-122"/>
<text text-anchor="middle" x="1762" y="-99.8" font-family="Times,serif" font-size="14.00">NewRequestReferenceUserCardComponent</text>
</g>
<!-- NewRequestReferenceUserCardComponent&#45;&gt;NewRequestModule -->
<g id="edge10" class="edge">
<title>NewRequestReferenceUserCardComponent&#45;&gt;NewRequestModule</title>
<path fill="none" stroke="black" d="M1762,-122.12C1762,-136.78 1762,-155 1762,-155 1762,-155 1942.41,-155 1942.41,-155"/>
<polygon fill="black" stroke="black" points="1942.41,-158.5 1952.41,-155 1942.41,-151.5 1942.41,-158.5"/>
</g>
<!-- NewRequestReferenceUserComponent -->
<g id="node11" class="node">
<title>NewRequestReferenceUserComponent</title>
<polygon fill="#ffffb3" stroke="black" points="1612.02,-122 1375.98,-122 1375.98,-86 1612.02,-86 1612.02,-122"/>
<text text-anchor="middle" x="1494" y="-99.8" font-family="Times,serif" font-size="14.00">NewRequestReferenceUserComponent</text>
</g>
<!-- NewRequestReferenceUserComponent&#45;&gt;NewRequestModule -->
<g id="edge11" class="edge">
<title>NewRequestReferenceUserComponent&#45;&gt;NewRequestModule</title>
<path fill="none" stroke="black" d="M1494,-122.01C1494,-138.05 1494,-159 1494,-159 1494,-159 1942.43,-159 1942.43,-159"/>
<polygon fill="black" stroke="black" points="1942.43,-162.5 1952.43,-159 1942.43,-155.5 1942.43,-162.5"/>
</g>
<!-- NewRequestSelectedProductsComponent -->
<g id="node12" class="node">
<title>NewRequestSelectedProductsComponent</title>
<polygon fill="#ffffb3" stroke="black" points="1357.78,-122 1108.22,-122 1108.22,-86 1357.78,-86 1357.78,-122"/>
<text text-anchor="middle" x="1233" y="-99.8" font-family="Times,serif" font-size="14.00">NewRequestSelectedProductsComponent</text>
</g>
<!-- NewRequestSelectedProductsComponent&#45;&gt;NewRequestModule -->
<g id="edge12" class="edge">
<title>NewRequestSelectedProductsComponent&#45;&gt;NewRequestModule</title>
<path fill="none" stroke="black" d="M1233,-122.02C1233,-139.37 1233,-163 1233,-163 1233,-163 1942.42,-163 1942.42,-163"/>
<polygon fill="black" stroke="black" points="1942.42,-166.5 1952.42,-163 1942.42,-159.5 1942.42,-166.5"/>
</g>
<!-- PeerGroupDiscardSelectedComponent -->
<g id="node13" class="node">
<title>PeerGroupDiscardSelectedComponent</title>
<polygon fill="#ffffb3" stroke="black" points="1090.43,-122 857.57,-122 857.57,-86 1090.43,-86 1090.43,-122"/>
<text text-anchor="middle" x="974" y="-99.8" font-family="Times,serif" font-size="14.00">PeerGroupDiscardSelectedComponent</text>
</g>
<!-- PeerGroupDiscardSelectedComponent&#45;&gt;NewRequestModule -->
<g id="edge13" class="edge">
<title>PeerGroupDiscardSelectedComponent&#45;&gt;NewRequestModule</title>
<path fill="none" stroke="black" d="M974,-122.22C974,-140.83 974,-167 974,-167 974,-167 1942.3,-167 1942.3,-167"/>
<polygon fill="black" stroke="black" points="1942.3,-170.5 1952.3,-167 1942.3,-163.5 1942.3,-170.5"/>
</g>
<!-- ProductBundleItemsComponent -->
<g id="node14" class="node">
<title>ProductBundleItemsComponent</title>
<polygon fill="#ffffb3" stroke="black" points="839.42,-122 642.58,-122 642.58,-86 839.42,-86 839.42,-122"/>
<text text-anchor="middle" x="741" y="-99.8" font-family="Times,serif" font-size="14.00">ProductBundleItemsComponent</text>
</g>
<!-- ProductBundleItemsComponent&#45;&gt;NewRequestModule -->
<g id="edge14" class="edge">
<title>ProductBundleItemsComponent&#45;&gt;NewRequestModule</title>
<path fill="none" stroke="black" d="M741,-122.31C741,-142.15 741,-171 741,-171 741,-171 1942.03,-171 1942.03,-171"/>
<polygon fill="black" stroke="black" points="1942.03,-174.5 1952.03,-171 1942.03,-167.5 1942.03,-174.5"/>
</g>
<!-- ProductBundleListComponent -->
<g id="node15" class="node">
<title>ProductBundleListComponent</title>
<polygon fill="#ffffb3" stroke="black" points="624.6,-122 437.4,-122 437.4,-86 624.6,-86 624.6,-122"/>
<text text-anchor="middle" x="531" y="-99.8" font-family="Times,serif" font-size="14.00">ProductBundleListComponent</text>
</g>
<!-- ProductBundleListComponent&#45;&gt;NewRequestModule -->
<g id="edge15" class="edge">
<title>ProductBundleListComponent&#45;&gt;NewRequestModule</title>
<path fill="none" stroke="black" d="M531,-122.28C531,-143.32 531,-175 531,-175 531,-175 1942.19,-175 1942.19,-175"/>
<polygon fill="black" stroke="black" points="1942.19,-178.5 1952.19,-175 1942.19,-171.5 1942.19,-178.5"/>
</g>
<!-- ProductEntitlementsComponent -->
<g id="node16" class="node">
<title>ProductEntitlementsComponent</title>
<polygon fill="#ffffb3" stroke="black" points="419.65,-122 224.35,-122 224.35,-86 419.65,-86 419.65,-122"/>
<text text-anchor="middle" x="322" y="-99.8" font-family="Times,serif" font-size="14.00">ProductEntitlementsComponent</text>
</g>
<!-- ProductEntitlementsComponent&#45;&gt;NewRequestModule -->
<g id="edge16" class="edge">
<title>ProductEntitlementsComponent&#45;&gt;NewRequestModule</title>
<path fill="none" stroke="black" d="M322,-122.16C322,-144.35 322,-179 322,-179 322,-179 1942.29,-179 1942.29,-179"/>
<polygon fill="black" stroke="black" points="1942.29,-182.5 1952.29,-179 1942.29,-175.5 1942.29,-182.5"/>
</g>
<!-- NewRequestComponent  -->
<g id="node19" class="node">
<title>NewRequestComponent </title>
<polygon fill="#fb8072" stroke="black" points="2096.36,-252 1939.64,-252 1939.64,-216 2096.36,-216 2096.36,-252"/>
<text text-anchor="middle" x="2018" y="-229.8" font-family="Times,serif" font-size="14.00">NewRequestComponent </text>
</g>
<!-- NewRequestModule&#45;&gt;NewRequestComponent  -->
<g id="edge18" class="edge">
<title>NewRequestModule&#45;&gt;NewRequestComponent </title>
<path fill="none" stroke="black" stroke-dasharray="5,2" d="M2018,-187.11C2018,-187.11 2018,-205.99 2018,-205.99"/>
<polygon fill="black" stroke="black" points="2014.5,-205.99 2018,-215.99 2021.5,-205.99 2014.5,-205.99"/>
</g>
<!-- NewRequestRoutingModule -->
<g id="node18" class="node">
<title>NewRequestRoutingModule</title>
<polygon fill="#8dd3c7" stroke="black" points="200.2,-122 197.2,-126 176.2,-126 173.2,-122 23.8,-122 23.8,-86 200.2,-86 200.2,-122"/>
<text text-anchor="middle" x="112" y="-99.8" font-family="Times,serif" font-size="14.00">NewRequestRoutingModule</text>
</g>
<!-- NewRequestRoutingModule&#45;&gt;NewRequestModule -->
<g id="edge17" class="edge">
<title>NewRequestRoutingModule&#45;&gt;NewRequestModule</title>
<path fill="none" stroke="black" d="M112,-122.32C112,-145.66 112,-183 112,-183 112,-183 1942.39,-183 1942.39,-183"/>
<polygon fill="black" stroke="black" points="1942.39,-186.5 1952.39,-183 1942.39,-179.5 1942.39,-186.5"/>
</g>
</g>
</svg>
