<?xml version="1.0" encoding="UTF-8" standalone="no"?>
<!DOCTYPE svg PUBLIC "-//W3C//DTD SVG 1.1//EN"
 "http://www.w3.org/Graphics/SVG/1.1/DTD/svg11.dtd">
<!-- Generated by graphviz version 2.47.0 (20210316.0004)
 -->
<!-- Title: dependencies Pages: 1 -->
<svg width="1751pt" height="284pt"
 viewBox="0.00 0.00 1751.00 284.00" xmlns="http://www.w3.org/2000/svg" xmlns:xlink="http://www.w3.org/1999/xlink">
<g id="graph0" class="graph" transform="scale(1 1) rotate(0) translate(4 280)">
<title>dependencies</title>
<polygon fill="white" stroke="transparent" points="-4,4 -4,-280 1747,-280 1747,4 -4,4"/>
<text text-anchor="start" x="850.51" y="-42.4" font-family="Times-12" font-weight="bold" font-size="14.00">Legend</text>
<polygon fill="#ffffb3" stroke="transparent" points="637.5,-10 637.5,-30 657.5,-30 657.5,-10 637.5,-10"/>
<text text-anchor="start" x="661.13" y="-15.4" font-family="Times-12" font-size="14.00"> &#160;Declarations</text>
<polygon fill="#8dd3c7" stroke="transparent" points="750.5,-10 750.5,-30 770.5,-30 770.5,-10 750.5,-10"/>
<text text-anchor="start" x="774.23" y="-15.4" font-family="Times-12" font-size="14.00"> &#160;Module</text>
<polygon fill="#80b1d3" stroke="transparent" points="836.5,-10 836.5,-30 856.5,-30 856.5,-10 836.5,-10"/>
<text text-anchor="start" x="860.28" y="-15.4" font-family="Times-12" font-size="14.00"> &#160;Bootstrap</text>
<polygon fill="#fdb462" stroke="transparent" points="933.5,-10 933.5,-30 953.5,-30 953.5,-10 933.5,-10"/>
<text text-anchor="start" x="957.17" y="-15.4" font-family="Times-12" font-size="14.00"> &#160;Providers</text>
<polygon fill="#fb8072" stroke="transparent" points="1029.5,-10 1029.5,-30 1049.5,-30 1049.5,-10 1029.5,-10"/>
<text text-anchor="start" x="1053.23" y="-15.4" font-family="Times-12" font-size="14.00"> &#160;Exports</text>
<g id="clust1" class="cluster">
<title>cluster_EntityModule</title>
<polygon fill="none" stroke="black" stroke-dasharray="1,5" points="8,-70 8,-268 1735,-268 1735,-70 8,-70"/>
</g>
<g id="clust2" class="cluster">
<title>cluster_EntityModule_declarations</title>
<polygon fill="none" stroke="black" points="682,-78 682,-130 1727,-130 1727,-78 682,-78"/>
</g>
<g id="clust11" class="cluster">
<title>cluster_EntityModule_providers</title>
<polygon fill="none" stroke="black" points="530,-78 530,-130 674,-130 674,-78 530,-78"/>
</g>
<g id="clust8" class="cluster">
<title>cluster_EntityModule_imports</title>
<polygon fill="none" stroke="black" points="16,-78 16,-130 522,-130 522,-78 16,-78"/>
</g>
<g id="clust9" class="cluster">
<title>cluster_EntityModule_exports</title>
<polygon fill="none" stroke="black" points="592,-208 592,-260 969,-260 969,-208 592,-208"/>
</g>
<!-- EntitySelectComponent -->
<g id="node1" class="node">
<title>EntitySelectComponent</title>
<polygon fill="#ffffb3" stroke="black" points="1718.76,-122 1569.24,-122 1569.24,-86 1718.76,-86 1718.76,-122"/>
<text text-anchor="middle" x="1644" y="-99.8" font-family="Times,serif" font-size="14.00">EntitySelectComponent</text>
</g>
<!-- EntityModule -->
<g id="node6" class="node">
<title>EntityModule</title>
<polygon fill="#8dd3c7" stroke="black" points="835.77,-187 832.77,-191 811.77,-191 808.77,-187 742.23,-187 742.23,-151 835.77,-151 835.77,-187"/>
<text text-anchor="middle" x="789" y="-164.8" font-family="Times,serif" font-size="14.00">EntityModule</text>
</g>
<!-- EntitySelectComponent&#45;&gt;EntityModule -->
<g id="edge1" class="edge">
<title>EntitySelectComponent&#45;&gt;EntityModule</title>
<path fill="none" stroke="black" d="M1644,-122.01C1644,-144.49 1644,-180 1644,-180 1644,-180 845.88,-180 845.88,-180"/>
<polygon fill="black" stroke="black" points="845.88,-176.5 835.88,-180 845.88,-183.5 845.88,-176.5"/>
</g>
<!-- FkTableSelectComponent -->
<g id="node2" class="node">
<title>FkTableSelectComponent</title>
<polygon fill="#ffffb3" stroke="black" points="1551.2,-122 1388.8,-122 1388.8,-86 1551.2,-86 1551.2,-122"/>
<text text-anchor="middle" x="1470" y="-99.8" font-family="Times,serif" font-size="14.00">FkTableSelectComponent</text>
</g>
<!-- FkTableSelectComponent&#45;&gt;EntityModule -->
<g id="edge2" class="edge">
<title>FkTableSelectComponent&#45;&gt;EntityModule</title>
<path fill="none" stroke="black" d="M1470,-122.13C1470,-142.57 1470,-173 1470,-173 1470,-173 845.81,-173 845.81,-173"/>
<polygon fill="black" stroke="black" points="845.81,-169.5 835.81,-173 845.81,-176.5 845.81,-169.5"/>
</g>
<!-- TypedEntityCandidateSidesheetComponent -->
<g id="node3" class="node">
<title>TypedEntityCandidateSidesheetComponent</title>
<polygon fill="#ffffb3" stroke="black" points="1370.74,-122 1109.26,-122 1109.26,-86 1370.74,-86 1370.74,-122"/>
<text text-anchor="middle" x="1240" y="-99.8" font-family="Times,serif" font-size="14.00">TypedEntityCandidateSidesheetComponent</text>
</g>
<!-- TypedEntityCandidateSidesheetComponent&#45;&gt;EntityModule -->
<g id="edge3" class="edge">
<title>TypedEntityCandidateSidesheetComponent&#45;&gt;EntityModule</title>
<path fill="none" stroke="black" d="M1240,-122.27C1240,-140.56 1240,-166 1240,-166 1240,-166 845.99,-166 845.99,-166"/>
<polygon fill="black" stroke="black" points="845.99,-162.5 835.99,-166 845.99,-169.5 845.99,-162.5"/>
</g>
<!-- TypedEntitySelectComponent -->
<g id="node4" class="node">
<title>TypedEntitySelectComponent</title>
<polygon fill="#ffffb3" stroke="black" points="1090.53,-122 905.47,-122 905.47,-86 1090.53,-86 1090.53,-122"/>
<text text-anchor="middle" x="998" y="-99.8" font-family="Times,serif" font-size="14.00">TypedEntitySelectComponent</text>
</g>
<!-- TypedEntitySelectComponent&#45;&gt;EntityModule -->
<g id="edge4" class="edge">
<title>TypedEntitySelectComponent&#45;&gt;EntityModule</title>
<path fill="none" stroke="black" d="M932.93,-122.01C932.93,-138.05 932.93,-159 932.93,-159 932.93,-159 846.13,-159 846.13,-159"/>
<polygon fill="black" stroke="black" points="846.13,-155.5 836.13,-159 846.13,-162.5 846.13,-155.5"/>
</g>
<!-- TypedEntitySelectorComponent -->
<g id="node5" class="node">
<title>TypedEntitySelectorComponent</title>
<polygon fill="#ffffb3" stroke="black" points="887.69,-122 690.31,-122 690.31,-86 887.69,-86 887.69,-122"/>
<text text-anchor="middle" x="789" y="-99.8" font-family="Times,serif" font-size="14.00">TypedEntitySelectorComponent</text>
</g>
<!-- TypedEntitySelectorComponent&#45;&gt;EntityModule -->
<g id="edge5" class="edge">
<title>TypedEntitySelectorComponent&#45;&gt;EntityModule</title>
<path fill="none" stroke="black" d="M789,-122.11C789,-122.11 789,-140.99 789,-140.99"/>
<polygon fill="black" stroke="black" points="785.5,-140.99 789,-150.99 792.5,-140.99 785.5,-140.99"/>
</g>
<!-- EntitySelectComponent  -->
<g id="node10" class="node">
<title>EntitySelectComponent </title>
<polygon fill="#fb8072" stroke="black" points="960.76,-252 807.24,-252 807.24,-216 960.76,-216 960.76,-252"/>
<text text-anchor="middle" x="884" y="-229.8" font-family="Times,serif" font-size="14.00">EntitySelectComponent </text>
</g>
<!-- EntityModule&#45;&gt;EntitySelectComponent  -->
<g id="edge9" class="edge">
<title>EntityModule&#45;&gt;EntitySelectComponent </title>
<path fill="none" stroke="black" stroke-dasharray="5,2" d="M821.63,-187.11C821.63,-187.11 821.63,-205.99 821.63,-205.99"/>
<polygon fill="black" stroke="black" points="818.13,-205.99 821.63,-215.99 825.13,-205.99 818.13,-205.99"/>
</g>
<!-- TypedEntitySelectComponent  -->
<g id="node11" class="node">
<title>TypedEntitySelectComponent </title>
<polygon fill="#fb8072" stroke="black" points="789.53,-252 600.47,-252 600.47,-216 789.53,-216 789.53,-252"/>
<text text-anchor="middle" x="695" y="-229.8" font-family="Times,serif" font-size="14.00">TypedEntitySelectComponent </text>
</g>
<!-- EntityModule&#45;&gt;TypedEntitySelectComponent  -->
<g id="edge10" class="edge">
<title>EntityModule&#45;&gt;TypedEntitySelectComponent </title>
<path fill="none" stroke="black" stroke-dasharray="5,2" d="M765.81,-187.11C765.81,-187.11 765.81,-205.99 765.81,-205.99"/>
<polygon fill="black" stroke="black" points="762.31,-205.99 765.81,-215.99 769.31,-205.99 762.31,-205.99"/>
</g>
<!-- DataSourceToolbarModule -->
<g id="node7" class="node">
<title>DataSourceToolbarModule</title>
<polygon fill="#8dd3c7" stroke="black" points="513.67,-122 510.67,-126 489.67,-126 486.67,-122 344.33,-122 344.33,-86 513.67,-86 513.67,-122"/>
<text text-anchor="middle" x="429" y="-99.8" font-family="Times,serif" font-size="14.00">DataSourceToolbarModule</text>
</g>
<!-- DataSourceToolbarModule&#45;&gt;EntityModule -->
<g id="edge6" class="edge">
<title>DataSourceToolbarModule&#45;&gt;EntityModule</title>
<path fill="none" stroke="black" d="M429,-122.27C429,-140.56 429,-166 429,-166 429,-166 731.94,-166 731.94,-166"/>
<polygon fill="black" stroke="black" points="731.94,-169.5 741.94,-166 731.94,-162.5 731.94,-169.5"/>
</g>
<!-- DataTableModule -->
<g id="node8" class="node">
<title>DataTableModule</title>
<polygon fill="#8dd3c7" stroke="black" points="325.85,-122 322.85,-126 301.85,-126 298.85,-122 208.15,-122 208.15,-86 325.85,-86 325.85,-122"/>
<text text-anchor="middle" x="267" y="-99.8" font-family="Times,serif" font-size="14.00">DataTableModule</text>
</g>
<!-- DataTableModule&#45;&gt;EntityModule -->
<g id="edge7" class="edge">
<title>DataTableModule&#45;&gt;EntityModule</title>
<path fill="none" stroke="black" d="M267,-122.13C267,-142.57 267,-173 267,-173 267,-173 732.22,-173 732.22,-173"/>
<polygon fill="black" stroke="black" points="732.22,-176.5 742.22,-173 732.22,-169.5 732.22,-176.5"/>
</g>
<!-- FkAdvancedPickerModule -->
<g id="node9" class="node">
<title>FkAdvancedPickerModule</title>
<polygon fill="#8dd3c7" stroke="black" points="190.35,-122 187.35,-126 166.35,-126 163.35,-122 23.65,-122 23.65,-86 190.35,-86 190.35,-122"/>
<text text-anchor="middle" x="107" y="-99.8" font-family="Times,serif" font-size="14.00">FkAdvancedPickerModule</text>
</g>
<!-- FkAdvancedPickerModule&#45;&gt;EntityModule -->
<g id="edge8" class="edge">
<title>FkAdvancedPickerModule&#45;&gt;EntityModule</title>
<path fill="none" stroke="black" d="M107,-122.01C107,-144.49 107,-180 107,-180 107,-180 732.12,-180 732.12,-180"/>
<polygon fill="black" stroke="black" points="732.12,-183.5 742.12,-180 732.12,-176.5 732.12,-183.5"/>
</g>
<!-- EntityService -->
<g id="node12" class="node">
<title>EntityService</title>
<ellipse fill="#fdb462" stroke="black" cx="602" cy="-104" rx="63.7" ry="18"/>
<text text-anchor="middle" x="602" y="-99.8" font-family="Times,serif" font-size="14.00">EntityService</text>
</g>
<!-- EntityService&#45;&gt;EntityModule -->
<g id="edge11" class="edge">
<title>EntityService&#45;&gt;EntityModule</title>
<path fill="none" stroke="black" d="M633.04,-119.91C633.04,-136.15 633.04,-159 633.04,-159 633.04,-159 732.21,-159 732.21,-159"/>
<polygon fill="black" stroke="black" points="732.21,-162.5 742.21,-159 732.21,-155.5 732.21,-162.5"/>
</g>
</g>
</svg>
